<?xml version="1.0" encoding="UTF-8"?>
<svg xmlns="http://www.w3.org/2000/svg" xmlns:xlink="http://www.w3.org/1999/xlink" width="24px" height="24px" viewBox="0 0 24 24" version="1.1">
<g id="surface1">
<path style=" stroke:none;fill-rule:nonzero;fill:rgb(41.568627%,76.078431%,34.901961%);fill-opacity:1;" d="M 21.625 12.394531 C 20.800781 12.394531 20.074219 12.816406 19.652344 13.453125 C 19.648438 13.453125 19.648438 13.457031 19.644531 13.460938 C 19.632812 13.476562 19.621094 13.496094 19.609375 13.515625 C 19.492188 13.675781 19.304688 13.78125 19.09375 13.78125 C 18.742188 13.78125 18.460938 13.5 18.460938 13.148438 L 18.460938 5.539062 L 10.851562 5.539062 C 10.5 5.539062 10.21875 5.257812 10.21875 4.90625 C 10.21875 4.6875 10.328125 4.496094 10.492188 4.382812 C 10.511719 4.371094 10.53125 4.359375 10.550781 4.347656 C 11.1875 3.921875 11.601562 3.195312 11.601562 2.375 C 11.601562 1.0625 10.542969 0 9.230469 0 C 7.917969 0 6.855469 1.0625 6.855469 2.375 C 6.855469 3.199219 7.277344 3.921875 7.910156 4.347656 C 7.914062 4.351562 7.917969 4.351562 7.917969 4.351562 C 7.941406 4.367188 7.957031 4.378906 7.976562 4.390625 C 8.140625 4.507812 8.242188 4.695312 8.242188 4.90625 C 8.242188 5.257812 7.960938 5.539062 7.613281 5.539062 L 0 5.539062 L 0 13.152344 C 0 13.5 0.28125 13.78125 0.632812 13.78125 C 0.84375 13.78125 1.03125 13.675781 1.148438 13.515625 C 1.160156 13.496094 1.171875 13.476562 1.183594 13.460938 C 1.1875 13.457031 1.1875 13.453125 1.191406 13.453125 C 1.617188 12.816406 2.339844 12.394531 3.164062 12.394531 C 4.476562 12.394531 5.539062 13.457031 5.539062 14.769531 C 5.539062 16.082031 4.476562 17.144531 3.164062 17.144531 C 2.34375 17.144531 1.617188 16.726562 1.191406 16.089844 C 1.179688 16.070312 1.167969 16.050781 1.15625 16.03125 C 1.042969 15.867188 0.851562 15.757812 0.632812 15.757812 C 0.28125 15.757812 0 16.039062 0 16.390625 L 0 24 L 7.613281 24 C 7.960938 24 8.242188 23.714844 8.242188 23.367188 C 8.242188 23.15625 8.140625 22.964844 7.980469 22.851562 C 7.957031 22.839844 7.941406 22.828125 7.921875 22.816406 C 7.917969 22.8125 7.917969 22.8125 7.914062 22.808594 C 7.277344 22.382812 6.855469 21.660156 6.855469 20.835938 C 6.855469 19.523438 7.917969 18.460938 9.230469 18.460938 C 10.542969 18.460938 11.605469 19.523438 11.605469 20.835938 C 11.605469 21.65625 11.1875 22.382812 10.550781 22.808594 C 10.53125 22.820312 10.511719 22.832031 10.492188 22.84375 C 10.328125 22.957031 10.21875 23.148438 10.21875 23.367188 C 10.21875 23.714844 10.5 24 10.851562 24 L 18.460938 24 L 18.460938 16.390625 C 18.460938 16.039062 18.742188 15.757812 19.09375 15.757812 C 19.3125 15.757812 19.503906 15.867188 19.617188 16.03125 C 19.628906 16.050781 19.640625 16.066406 19.652344 16.089844 C 20.078125 16.726562 20.804688 17.144531 21.625 17.144531 C 22.9375 17.144531 24 16.082031 24 14.769531 C 24 13.457031 22.9375 12.394531 21.625 12.394531 Z M 21.625 12.394531 "/>
</g>
</svg>
