<?xml version="1.0" encoding="UTF-8"?>
<svg xmlns="http://www.w3.org/2000/svg" xmlns:xlink="http://www.w3.org/1999/xlink" width="24px" height="24px" viewBox="0 0 24 24" version="1.1">
<defs>
<linearGradient id="linear0" gradientUnits="userSpaceOnUse" x1="32" y1="10.5" x2="32" y2="18.5" gradientTransform="matrix(0.375,0,0,0.375,0,0)">
<stop offset="0" style="stop-color:rgb(98.823529%,73.72549%,9.803922%);stop-opacity:1;"/>
<stop offset="1" style="stop-color:rgb(95.686275%,71.372549%,12.156863%);stop-opacity:1;"/>
</linearGradient>
<linearGradient id="linear1" gradientUnits="userSpaceOnUse" x1="5.291666" y1="5.55625" x2="13.758334" y2="13.493751" gradientTransform="matrix(1.417323,0,0,1.417323,0,0)">
<stop offset="0" style="stop-color:rgb(98.823529%,90.588235%,59.607843%);stop-opacity:1;"/>
<stop offset="1" style="stop-color:rgb(100%,78.823529%,21.568627%);stop-opacity:1;"/>
</linearGradient>
<filter id="alpha" filterUnits="objectBoundingBox" x="0%" y="0%" width="100%" height="100%">
  <feColorMatrix type="matrix" in="SourceGraphic" values="0 0 0 0 1 0 0 0 0 1 0 0 0 0 1 0 0 0 1 0"/>
</filter>
<mask id="mask0">
  <g filter="url(#alpha)">
<rect x="0" y="0" width="24" height="24" style="fill:rgb(0%,0%,0%);fill-opacity:0.301961;stroke:none;"/>
  </g>
</mask>
<linearGradient id="linear2" gradientUnits="userSpaceOnUse" x1="0.529167" y1="5.423958" x2="16.404167" y2="5.423958" gradientTransform="matrix(1.417323,0,0,1.417323,0,0)">
<stop offset="0" style="stop-color:rgb(100%,100%,100%);stop-opacity:1;"/>
<stop offset="1" style="stop-color:rgb(100%,100%,100%);stop-opacity:0;"/>
</linearGradient>
<clipPath id="clip1">
  <rect x="0" y="0" width="24" height="24"/>
</clipPath>
<g id="surface5" clip-path="url(#clip1)">
<path style=" stroke:none;fill-rule:nonzero;fill:url(#linear2);" d="M 10.875 6 L 8.625 7.5 L 2.25 7.5 C 1.417969 7.5 0.75 8.167969 0.75 9 L 0.75 9.375 C 0.75 8.542969 1.417969 7.875 2.25 7.875 L 8.625 7.875 L 10.875 6.375 L 22.5 6.375 C 22.914062 6.375 23.25 6.710938 23.25 7.125 L 23.25 6.75 C 23.25 6.335938 22.914062 6 22.5 6 Z M 10.875 6 "/>
</g>
<linearGradient id="linear3" gradientUnits="userSpaceOnUse" x1="0.529167" y1="5.159375" x2="16.404167" y2="5.159375" gradientTransform="matrix(1.417323,0,0,1.417323,0,0)">
<stop offset="0" style="stop-color:rgb(89.411765%,65.490196%,16.078431%);stop-opacity:1;"/>
<stop offset="1" style="stop-color:rgb(89.411765%,65.490196%,16.078431%);stop-opacity:0;"/>
</linearGradient>
<linearGradient id="linear4" gradientUnits="userSpaceOnUse" x1="32.311207" y1="22.473583" x2="32.173244" y2="49.48637" gradientTransform="matrix(0.375,0,0,0.375,0,0)">
<stop offset="0" style="stop-color:rgb(74.901961%,56.862745%,5.098039%);stop-opacity:1;"/>
<stop offset="1" style="stop-color:rgb(65.882353%,46.666667%,1.568627%);stop-opacity:1;"/>
</linearGradient>
</defs>
<g id="surface1">
<path style=" stroke:none;fill-rule:nonzero;fill:url(#linear0);" d="M 1.875 3.375 C 1.25 3.375 0.75 3.875 0.75 4.5 C 0.785156 4.867188 0.75 15 0.75 15 L 23.25 15 L 23.25 6.375 C 23.25 5.960938 22.914062 5.625 22.5 5.625 L 10.875 5.625 L 9.375 4.125 C 8.863281 3.625 8.5 3.375 7.875 3.375 Z M 1.875 3.375 "/>
<path style=" stroke:none;fill-rule:nonzero;fill:url(#linear1);" d="M 10.875 6 L 8.625 7.5 L 2.25 7.5 C 1.417969 7.5 0.75 8.167969 0.75 9 L 0.75 20.25 C 0.75 20.664062 1.085938 21 1.5 21 L 22.5 21 C 22.914062 21 23.25 20.664062 23.25 20.25 L 23.25 6.75 C 23.25 6.335938 22.914062 6 22.5 6 Z M 10.875 6 "/>
<path style=" stroke:none;fill-rule:nonzero;fill:rgb(89.411765%,65.490196%,16.078431%);fill-opacity:1;" d="M 0.75 19.875 L 0.75 20.25 C 0.75 20.664062 1.085938 21 1.5 21 L 22.5 21 C 22.914062 21 23.25 20.664062 23.25 20.25 L 23.25 19.875 C 23.25 20.289062 22.914062 20.625 22.5 20.625 L 1.5 20.625 C 1.085938 20.625 0.75 20.289062 0.75 19.875 Z M 0.75 19.875 "/>
<use xlink:href="#surface5" mask="url(#mask0)"/>
<path style=" stroke:none;fill-rule:nonzero;fill:url(#linear3);" d="M 10.875 5.625 L 8.625 7.125 L 2.25 7.125 C 1.417969 7.125 0.75 7.792969 0.75 8.625 L 0.75 9 C 0.75 8.167969 1.417969 7.5 2.25 7.5 L 8.625 7.5 L 10.875 6 L 22.5 6 C 22.914062 6 23.25 6.335938 23.25 6.75 L 23.25 6.375 C 23.25 5.960938 22.914062 5.625 22.5 5.625 Z M 10.875 5.625 "/>
<path style=" stroke:none;fill-rule:nonzero;fill:url(#linear4);" d="M 12 9 C 9.308594 9 7.125 11.183594 7.125 13.875 C 7.125 16.566406 9.308594 18.75 12 18.75 C 14.691406 18.75 16.875 16.566406 16.875 13.875 C 16.875 11.183594 14.691406 9 12 9 Z M 12 9.75 C 14.277344 9.75 16.125 11.597656 16.125 13.875 C 16.125 16.152344 14.277344 18 12 18 C 9.722656 18 7.875 16.152344 7.875 13.875 C 7.875 11.597656 9.722656 9.75 12 9.75 Z M 12 10.875 C 11.792969 10.875 11.625 11.042969 11.625 11.25 L 11.625 14.25 C 11.625 14.253906 11.625 14.257812 11.625 14.257812 C 11.625 14.261719 11.625 14.265625 11.625 14.269531 C 11.625 14.273438 11.625 14.28125 11.628906 14.289062 C 11.628906 14.292969 11.628906 14.292969 11.628906 14.296875 C 11.628906 14.300781 11.628906 14.304688 11.628906 14.308594 C 11.628906 14.3125 11.628906 14.3125 11.632812 14.3125 C 11.632812 14.320312 11.632812 14.324219 11.632812 14.328125 C 11.636719 14.335938 11.636719 14.339844 11.636719 14.34375 C 11.636719 14.34375 11.636719 14.347656 11.636719 14.347656 C 11.640625 14.351562 11.640625 14.355469 11.640625 14.363281 C 11.640625 14.363281 11.640625 14.363281 11.644531 14.363281 C 11.644531 14.371094 11.644531 14.375 11.648438 14.378906 C 11.648438 14.382812 11.648438 14.382812 11.652344 14.386719 C 11.652344 14.390625 11.652344 14.394531 11.65625 14.394531 C 11.65625 14.398438 11.65625 14.398438 11.65625 14.398438 C 11.65625 14.402344 11.660156 14.40625 11.660156 14.414062 C 11.660156 14.414062 11.664062 14.414062 11.664062 14.414062 C 11.664062 14.417969 11.667969 14.425781 11.671875 14.429688 C 11.671875 14.429688 11.671875 14.433594 11.675781 14.4375 C 11.675781 14.441406 11.679688 14.441406 11.679688 14.445312 C 11.683594 14.449219 11.6875 14.457031 11.6875 14.460938 C 11.6875 14.460938 11.691406 14.460938 11.691406 14.460938 C 11.695312 14.46875 11.703125 14.476562 11.710938 14.484375 C 11.710938 14.488281 11.710938 14.488281 11.710938 14.488281 C 11.714844 14.492188 11.714844 14.496094 11.71875 14.496094 C 11.71875 14.5 11.722656 14.5 11.722656 14.503906 C 11.722656 14.503906 11.722656 14.503906 11.726562 14.503906 C 11.726562 14.507812 11.730469 14.511719 11.734375 14.515625 C 11.738281 14.519531 11.742188 14.519531 11.742188 14.523438 C 11.746094 14.523438 11.746094 14.527344 11.746094 14.527344 C 11.75 14.527344 11.75 14.527344 11.75 14.53125 C 11.753906 14.53125 11.757812 14.535156 11.761719 14.539062 C 11.761719 14.539062 11.765625 14.542969 11.765625 14.542969 C 11.777344 14.550781 11.785156 14.558594 11.796875 14.566406 C 11.800781 14.566406 11.804688 14.570312 11.808594 14.570312 C 11.808594 14.574219 11.8125 14.574219 11.8125 14.574219 L 13.8125 15.886719 C 13.992188 15.992188 14.21875 15.929688 14.324219 15.75 C 14.429688 15.570312 14.359375 15.351562 14.1875 15.238281 L 12.375 14.046875 L 12.375 11.25 C 12.375 11.042969 12.207031 10.875 12 10.875 Z M 12 10.875 "/>
</g>
</svg>
