<?xml version="1.0" encoding="UTF-8" standalone="no"?>
<!-- Created with Inkscape (http://www.inkscape.org/) -->

<svg
   width="24"
   height="24"
   viewBox="0 0 24 24.000001"
   version="1.1"
   id="svg5"
   inkscape:version="1.3.2 (091e20e, 2023-11-25)"
   sodipodi:docname="folder-recent.svg"
   xmlns:inkscape="http://www.inkscape.org/namespaces/inkscape"
   xmlns:sodipodi="http://sodipodi.sourceforge.net/DTD/sodipodi-0.dtd"
   xmlns:xlink="http://www.w3.org/1999/xlink"
   xmlns="http://www.w3.org/2000/svg"
   xmlns:svg="http://www.w3.org/2000/svg">
  <sodipodi:namedview
     id="namedview7"
     pagecolor="#ffffff"
     bordercolor="#000000"
     borderopacity="0.25"
     inkscape:showpageshadow="2"
     inkscape:pageopacity="0.0"
     inkscape:pagecheckerboard="0"
     inkscape:deskcolor="#d1d1d1"
     inkscape:document-units="px"
     showgrid="false"
     inkscape:zoom="8.4166668"
     inkscape:cx="-8.4950494"
     inkscape:cy="8.7326732"
     inkscape:window-width="1680"
     inkscape:window-height="994"
     inkscape:window-x="0"
     inkscape:window-y="25"
     inkscape:window-maximized="1"
     inkscape:current-layer="svg5" />
  <defs
     id="defs2">
    <linearGradient
       inkscape:collect="always"
       xlink:href="#linearGradient967"
       id="linearGradient970"
       x1="5"
       y1="11.5"
       x2="14"
       y2="11.5"
       gradientUnits="userSpaceOnUse"
       gradientTransform="matrix(0.77777778,0,0,0.77777778,4.6111111,2.5555556)" />
    <linearGradient
       inkscape:collect="always"
       id="linearGradient967">
      <stop
         style="stop-color:#f6f6f6;stop-opacity:0.99607843"
         offset="0"
         id="stop963" />
      <stop
         style="stop-color:#ebebeb;stop-opacity:1"
         offset="1"
         id="stop965" />
    </linearGradient>
  </defs>
  <path
     id="rect234-6"
     style="fill:#7d7d7b"
     d="M 7.9340561,0.06507751 H 20.434056 l 3.5,3.49999999 V 22.065078 H 7.9340561 Z"
     sodipodi:nodetypes="cccccc" />
  <path
     id="rect1746-2"
     style="fill:#fafafa"
     d="m 8.9340561,1.0650775 h 9.9999999 v 4 h 4 V 21.065078 H 8.9340561 Z"
     sodipodi:nodetypes="ccccccc" />
  <path
     id="rect1800-9"
     style="fill:#fafafa;stroke-width:0.75"
     d="m 19.934056,1.0650775 3,3.0000008 h -3 z"
     sodipodi:nodetypes="cccc" />
  <path
     id="rect3166-1"
     style="fill:#999999;fill-opacity:1;stroke-width:1.76383;stroke-linecap:round;stroke-linejoin:round"
     d="M 9.9340561,8.0650775 V 9.0650779 H 19.934056 V 8.0650775 Z m 0,2.0000005 v 1 h 7.9999999 v -1 z m 0,2 v 1 H 20.934056 v -1 z m 0,2 v 1 H 21.934056 v -1 z m 0,2 v 1 h 8.9999999 v -1 z m 0,2 v 1 h 6.9999999 v -1 z"
     sodipodi:nodetypes="cccccccccccccccccccccccccccccc" />
  <path
     id="rect234"
     style="fill:#7d7d7b"
     d="m 4,1.9627436 h 12.5 l 3.5,3.5 V 23.962744 H 4 Z"
     sodipodi:nodetypes="cccccc" />
  <path
     id="rect1746"
     style="fill:#fafafa"
     d="m 5,2.9627436 h 10 v 4 h 4 V 22.962744 H 5 Z"
     sodipodi:nodetypes="ccccccc" />
  <path
     id="rect1800"
     style="fill:#fafafa;stroke-width:0.75"
     d="m 16,2.9627436 3,3.0000008 h -3 z"
     sodipodi:nodetypes="cccc" />
  <path
     id="rect3166"
     style="fill:#999999;fill-opacity:1;stroke-width:1.76383;stroke-linecap:round;stroke-linejoin:round"
     d="M 6,9.9627436 V 10.962744 H 16 V 9.9627436 Z m 0,2.0000004 v 1 h 8 v -1 z m 0,2 v 1 h 11 v -1 z m 0,2 v 1 h 12 v -1 z m 0,2 v 1 h 9 v -1 z m 0,2 v 1 h 7 v -1 z"
     sodipodi:nodetypes="cccccccccccccccccccccccccccccc" />
  <g
     id="g16907"
     transform="matrix(1.7157245,0,0,1.7157245,-13.913162,-2.6265595)">
    <circle
       style="fill:url(#linearGradient970);fill-opacity:1;stroke-width:0.777778;stroke-linecap:round;stroke-linejoin:round"
       id="path881"
       cx="12"
       cy="11.5"
       r="3.5" />
    <path
       style="fill:none;fill-opacity:1;stroke:#56b60e;stroke-width:0.5;stroke-linecap:round;stroke-linejoin:round;stroke-miterlimit:4;stroke-dasharray:none;stroke-opacity:1"
       id="circle9301"
       sodipodi:type="arc"
       sodipodi:cx="12.001855"
       sodipodi:cy="11.50002"
       sodipodi:rx="3.7479603"
       sodipodi:ry="3.7479603"
       sodipodi:start="3.6994192"
       sodipodi:end="2.8797933"
       sodipodi:open="true"
       sodipodi:arc-type="arc"
       d="m 8.8220568,9.5160617 a 3.7479603,3.7479603 0 0 1 4.4752412,-1.5330055 3.7479603,3.7479603 0 0 1 2.411537,4.0696898 3.7479603,3.7479603 0 0 1 -3.493863,3.18917 3.7479603,3.7479603 0 0 1 -3.8333688,-2.771853" />
    <rect
       style="fill:#56b60e;fill-opacity:1;stroke:none;stroke-width:0.433012;stroke-linecap:round;stroke-linejoin:round;stroke-opacity:1"
       id="rect14883"
       width="3"
       height="0.5"
       x="-10"
       y="8.5"
       ry="0.25"
       transform="rotate(-90)" />
    <rect
       style="fill:#56b60e;fill-opacity:1;stroke:none;stroke-width:0.433012;stroke-linecap:round;stroke-linejoin:round;stroke-opacity:1"
       id="rect16202"
       width="3"
       height="0.5"
       x="8.5"
       y="9.5"
       ry="0.25" />
    <rect
       style="fill:#191919;fill-opacity:1;stroke:none;stroke-width:0.395284;stroke-linecap:round;stroke-linejoin:round;stroke-opacity:1"
       id="rect16467"
       width="2.5"
       height="0.5"
       x="-12"
       y="12"
       ry="0.25"
       transform="rotate(-90)" />
    <rect
       style="fill:#191919;fill-opacity:1;stroke:none;stroke-width:0.395284;stroke-linecap:round;stroke-linejoin:round;stroke-opacity:1"
       id="rect16797"
       width="2.5"
       height="0.5"
       x="-19.229147"
       y="0.095290415"
       ry="0.25"
       transform="rotate(-135)" />
  </g>
</svg>
