<?xml version="1.0" encoding="UTF-8"?>
<svg xmlns="http://www.w3.org/2000/svg" xmlns:xlink="http://www.w3.org/1999/xlink" width="16px" height="16px" viewBox="0 0 16 16" version="1.1">
<defs>
<linearGradient id="linear0" gradientUnits="userSpaceOnUse" x1="32" y1="10.5" x2="32" y2="18.5" gradientTransform="matrix(0.25,0,0,0.25,0,0)">
<stop offset="0" style="stop-color:rgb(98.823529%,73.72549%,9.803922%);stop-opacity:1;"/>
<stop offset="1" style="stop-color:rgb(95.686275%,71.372549%,12.156863%);stop-opacity:1;"/>
</linearGradient>
<linearGradient id="linear1" gradientUnits="userSpaceOnUse" x1="5.291666" y1="5.55625" x2="13.758334" y2="13.493751" gradientTransform="matrix(0.944882,0,0,0.944882,0,0)">
<stop offset="0" style="stop-color:rgb(98.823529%,90.588235%,59.607843%);stop-opacity:1;"/>
<stop offset="1" style="stop-color:rgb(100%,78.823529%,21.568627%);stop-opacity:1;"/>
</linearGradient>
<filter id="alpha" filterUnits="objectBoundingBox" x="0%" y="0%" width="100%" height="100%">
  <feColorMatrix type="matrix" in="SourceGraphic" values="0 0 0 0 1 0 0 0 0 1 0 0 0 0 1 0 0 0 1 0"/>
</filter>
<mask id="mask0">
  <g filter="url(#alpha)">
<rect x="0" y="0" width="16" height="16" style="fill:rgb(0%,0%,0%);fill-opacity:0.301961;stroke:none;"/>
  </g>
</mask>
<linearGradient id="linear2" gradientUnits="userSpaceOnUse" x1="0.529167" y1="5.423958" x2="16.404167" y2="5.423958" gradientTransform="matrix(0.944882,0,0,0.944882,0,0)">
<stop offset="0" style="stop-color:rgb(100%,100%,100%);stop-opacity:1;"/>
<stop offset="1" style="stop-color:rgb(100%,100%,100%);stop-opacity:0;"/>
</linearGradient>
<clipPath id="clip1">
  <rect x="0" y="0" width="16" height="16"/>
</clipPath>
<g id="surface5" clip-path="url(#clip1)">
<path style=" stroke:none;fill-rule:nonzero;fill:url(#linear2);" d="M 7.25 4 L 5.75 5 L 1.5 5 C 0.945312 5 0.5 5.445312 0.5 6 L 0.5 6.25 C 0.5 5.695312 0.945312 5.25 1.5 5.25 L 5.75 5.25 L 7.25 4.25 L 15 4.25 C 15.277344 4.25 15.5 4.472656 15.5 4.75 L 15.5 4.5 C 15.5 4.222656 15.277344 4 15 4 Z M 7.25 4 "/>
</g>
<linearGradient id="linear3" gradientUnits="userSpaceOnUse" x1="0.529167" y1="5.159375" x2="16.404167" y2="5.159375" gradientTransform="matrix(0.944882,0,0,0.944882,0,0)">
<stop offset="0" style="stop-color:rgb(89.411765%,65.490196%,16.078431%);stop-opacity:1;"/>
<stop offset="1" style="stop-color:rgb(89.411765%,65.490196%,16.078431%);stop-opacity:0;"/>
</linearGradient>
<linearGradient id="linear4" gradientUnits="userSpaceOnUse" x1="32.311207" y1="22.473583" x2="32.173244" y2="49.48637" gradientTransform="matrix(0.25,0,0,0.25,0,0)">
<stop offset="0" style="stop-color:rgb(74.901961%,56.862745%,5.098039%);stop-opacity:1;"/>
<stop offset="1" style="stop-color:rgb(65.882353%,46.666667%,1.568627%);stop-opacity:1;"/>
</linearGradient>
</defs>
<g id="surface1">
<path style=" stroke:none;fill-rule:nonzero;fill:url(#linear0);" d="M 1.25 2.25 C 0.835938 2.25 0.5 2.585938 0.5 3 C 0.523438 3.246094 0.5 10 0.5 10 L 15.5 10 L 15.5 4.25 C 15.5 3.972656 15.277344 3.75 15 3.75 L 7.25 3.75 L 6.25 2.75 C 5.910156 2.414062 5.664062 2.25 5.25 2.25 Z M 1.25 2.25 "/>
<path style=" stroke:none;fill-rule:nonzero;fill:url(#linear1);" d="M 7.25 4 L 5.75 5 L 1.5 5 C 0.945312 5 0.5 5.445312 0.5 6 L 0.5 13.5 C 0.5 13.777344 0.722656 14 1 14 L 15 14 C 15.277344 14 15.5 13.777344 15.5 13.5 L 15.5 4.5 C 15.5 4.222656 15.277344 4 15 4 Z M 7.25 4 "/>
<path style=" stroke:none;fill-rule:nonzero;fill:rgb(89.411765%,65.490196%,16.078431%);fill-opacity:1;" d="M 0.5 13.25 L 0.5 13.5 C 0.5 13.777344 0.722656 14 1 14 L 15 14 C 15.277344 14 15.5 13.777344 15.5 13.5 L 15.5 13.25 C 15.5 13.527344 15.277344 13.75 15 13.75 L 1 13.75 C 0.722656 13.75 0.5 13.527344 0.5 13.25 Z M 0.5 13.25 "/>
<use xlink:href="#surface5" mask="url(#mask0)"/>
<path style=" stroke:none;fill-rule:nonzero;fill:url(#linear3);" d="M 7.25 3.75 L 5.75 4.75 L 1.5 4.75 C 0.945312 4.75 0.5 5.195312 0.5 5.75 L 0.5 6 C 0.5 5.445312 0.945312 5 1.5 5 L 5.75 5 L 7.25 4 L 15 4 C 15.277344 4 15.5 4.222656 15.5 4.5 L 15.5 4.25 C 15.5 3.972656 15.277344 3.75 15 3.75 Z M 7.25 3.75 "/>
<path style=" stroke:none;fill-rule:nonzero;fill:url(#linear4);" d="M 8 6 C 6.203125 6 4.75 7.453125 4.75 9.25 C 4.75 11.046875 6.203125 12.5 8 12.5 C 9.796875 12.5 11.25 11.046875 11.25 9.25 C 11.25 7.453125 9.796875 6 8 6 Z M 8 6.5 C 9.519531 6.5 10.75 7.730469 10.75 9.25 C 10.75 10.769531 9.519531 12 8 12 C 6.480469 12 5.25 10.769531 5.25 9.25 C 5.25 7.730469 6.480469 6.5 8 6.5 Z M 8 7.25 C 7.863281 7.25 7.75 7.363281 7.75 7.5 L 7.75 9.5 C 7.75 9.5 7.75 9.503906 7.75 9.503906 C 7.75 9.507812 7.75 9.511719 7.75 9.511719 C 7.75 9.515625 7.75 9.519531 7.75 9.523438 C 7.75 9.527344 7.75 9.53125 7.753906 9.53125 C 7.753906 9.535156 7.753906 9.539062 7.753906 9.539062 C 7.753906 9.539062 7.753906 9.542969 7.753906 9.542969 C 7.753906 9.546875 7.753906 9.550781 7.757812 9.554688 C 7.757812 9.554688 7.757812 9.558594 7.757812 9.5625 C 7.757812 9.5625 7.757812 9.5625 7.757812 9.566406 C 7.757812 9.566406 7.761719 9.570312 7.761719 9.574219 C 7.761719 9.574219 7.761719 9.574219 7.761719 9.578125 C 7.761719 9.578125 7.765625 9.582031 7.765625 9.585938 C 7.765625 9.585938 7.765625 9.589844 7.769531 9.589844 C 7.769531 9.59375 7.769531 9.597656 7.769531 9.597656 C 7.773438 9.601562 7.773438 9.605469 7.773438 9.609375 C 7.773438 9.609375 7.773438 9.609375 7.777344 9.609375 C 7.777344 9.613281 7.777344 9.617188 7.78125 9.617188 C 7.78125 9.621094 7.78125 9.621094 7.785156 9.625 C 7.785156 9.625 7.785156 9.628906 7.785156 9.628906 C 7.785156 9.628906 7.785156 9.628906 7.789062 9.628906 C 7.789062 9.632812 7.789062 9.636719 7.792969 9.640625 C 7.796875 9.648438 7.800781 9.652344 7.804688 9.65625 C 7.804688 9.65625 7.808594 9.660156 7.808594 9.660156 C 7.808594 9.660156 7.8125 9.664062 7.8125 9.664062 C 7.8125 9.667969 7.8125 9.667969 7.816406 9.667969 C 7.820312 9.671875 7.820312 9.675781 7.824219 9.675781 C 7.824219 9.679688 7.828125 9.679688 7.828125 9.683594 C 7.828125 9.683594 7.832031 9.683594 7.832031 9.683594 C 7.832031 9.683594 7.832031 9.6875 7.835938 9.6875 C 7.835938 9.6875 7.839844 9.691406 7.839844 9.691406 C 7.84375 9.695312 7.84375 9.695312 7.84375 9.695312 C 7.851562 9.699219 7.855469 9.707031 7.863281 9.710938 C 7.867188 9.710938 7.871094 9.714844 7.871094 9.714844 C 7.875 9.714844 7.875 9.714844 7.875 9.714844 L 9.207031 10.589844 C 9.328125 10.660156 9.480469 10.621094 9.550781 10.5 C 9.617188 10.378906 9.574219 10.234375 9.457031 10.160156 L 8.25 9.367188 L 8.25 7.5 C 8.25 7.363281 8.136719 7.25 8 7.25 Z M 8 7.25 "/>
</g>
</svg>
