<?xml version="1.0" encoding="UTF-8"?>
<svg xmlns="http://www.w3.org/2000/svg" xmlns:xlink="http://www.w3.org/1999/xlink" width="64px" height="64px" viewBox="0 0 64 64" version="1.1">
<g id="surface1">
<path style=" stroke:none;fill-rule:evenodd;fill:rgb(29.019608%,67.45098%,5.490196%);fill-opacity:1;" d="M 32 4 C 33.078125 4 33.953125 4.875 33.953125 5.953125 L 33.953125 11.84375 C 33.953125 12.90625 34.90625 13.769531 35.96875 13.78125 C 37.054688 13.789062 37.859375 12.917969 37.859375 11.828125 L 37.859375 5.953125 C 37.878906 5.449219 38.09375 4.972656 38.457031 4.621094 C 38.820312 4.269531 39.308594 4.074219 39.8125 4.074219 C 40.320312 4.074219 40.804688 4.269531 41.167969 4.621094 C 41.53125 4.972656 41.746094 5.449219 41.765625 5.953125 L 41.765625 13.765625 C 41.765625 13.933594 41.878906 14.085938 42.046875 14.109375 C 44.503906 14.445312 46.234375 15.109375 47.5625 16.4375 C 48.890625 17.765625 49.554688 19.496094 49.890625 21.953125 C 49.914062 22.121094 50.066406 22.234375 50.234375 22.234375 L 58.046875 22.234375 C 58.550781 22.253906 59.027344 22.46875 59.378906 22.832031 C 59.730469 23.195312 59.925781 23.679688 59.925781 24.1875 C 59.925781 24.691406 59.730469 25.179688 59.378906 25.542969 C 59.027344 25.90625 58.550781 26.121094 58.046875 26.140625 L 52.167969 26.140625 C 51.082031 26.140625 50.210938 26.941406 50.222656 28.027344 C 50.234375 29.09375 51.09375 30.046875 52.15625 30.046875 L 58.046875 30.046875 C 58.5625 30.046875 59.0625 30.25 59.425781 30.617188 C 59.792969 30.984375 60 31.480469 60 32 C 60 32.519531 59.792969 33.015625 59.425781 33.382812 C 59.0625 33.75 58.5625 33.953125 58.046875 33.953125 L 52.15625 33.953125 C 51.09375 33.953125 50.230469 34.90625 50.21875 35.96875 C 50.210938 37.054688 51.085938 37.859375 52.171875 37.859375 L 58.046875 37.859375 C 58.550781 37.878906 59.027344 38.09375 59.378906 38.457031 C 59.730469 38.820312 59.925781 39.308594 59.925781 39.8125 C 59.925781 40.320312 59.730469 40.804688 59.378906 41.167969 C 59.027344 41.53125 58.550781 41.746094 58.046875 41.765625 L 50.234375 41.765625 C 50.066406 41.765625 49.914062 41.878906 49.890625 42.046875 C 49.554688 44.503906 48.890625 46.234375 47.5625 47.5625 C 46.234375 48.890625 44.503906 49.554688 42.046875 49.890625 C 41.882812 49.914062 41.769531 50.066406 41.765625 50.234375 L 41.765625 58.046875 C 41.746094 58.550781 41.53125 59.027344 41.167969 59.378906 C 40.804688 59.730469 40.320312 59.925781 39.8125 59.925781 C 39.308594 59.925781 38.820312 59.730469 38.457031 59.378906 C 38.09375 59.027344 37.878906 58.550781 37.859375 58.046875 L 37.859375 52.164062 C 37.859375 51.078125 36.96875 50.210938 35.882812 50.222656 C 34.820312 50.234375 33.953125 51.097656 33.953125 52.164062 L 33.953125 58.046875 C 33.953125 58.5625 33.75 59.0625 33.382812 59.425781 C 33.015625 59.792969 32.519531 60 32 60 C 31.480469 60 30.984375 59.792969 30.617188 59.425781 C 30.25 59.0625 30.046875 58.5625 30.046875 58.046875 L 30.046875 52.164062 C 30.046875 51.097656 29.179688 50.234375 28.117188 50.222656 C 27.03125 50.210938 26.140625 51.078125 26.140625 52.164062 L 26.140625 58.046875 C 26.121094 58.550781 25.90625 59.027344 25.542969 59.378906 C 25.179688 59.730469 24.691406 59.925781 24.1875 59.925781 C 23.679688 59.925781 23.195312 59.730469 22.832031 59.378906 C 22.46875 59.027344 22.253906 58.550781 22.234375 58.046875 L 22.234375 50.234375 C 22.234375 50.070312 22.117188 49.914062 21.953125 49.890625 C 19.496094 49.554688 17.765625 48.890625 16.4375 47.5625 C 15.109375 46.234375 14.445312 44.503906 14.109375 42.046875 C 14.085938 41.878906 13.933594 41.765625 13.765625 41.765625 L 5.953125 41.765625 C 5.449219 41.746094 4.972656 41.53125 4.621094 41.167969 C 4.269531 40.804688 4.074219 40.320312 4.074219 39.8125 C 4.074219 39.308594 4.269531 38.820312 4.621094 38.457031 C 4.972656 38.09375 5.449219 37.878906 5.953125 37.859375 L 11.835938 37.859375 C 12.921875 37.859375 13.789062 36.96875 13.777344 35.882812 C 13.765625 34.820312 12.902344 33.953125 11.835938 33.953125 L 5.953125 33.953125 C 5.4375 33.953125 4.9375 33.75 4.574219 33.382812 C 4.207031 33.015625 4 32.519531 4 32 C 4 31.480469 4.207031 30.984375 4.574219 30.617188 C 4.9375 30.25 5.4375 30.046875 5.953125 30.046875 L 11.84375 30.046875 C 12.90625 30.046875 13.769531 29.09375 13.78125 28.03125 C 13.789062 26.945312 12.917969 26.140625 11.828125 26.140625 L 5.953125 26.140625 C 5.449219 26.121094 4.972656 25.90625 4.621094 25.542969 C 4.269531 25.179688 4.074219 24.691406 4.074219 24.1875 C 4.074219 23.679688 4.269531 23.195312 4.621094 22.832031 C 4.972656 22.46875 5.449219 22.253906 5.953125 22.234375 L 13.765625 22.234375 C 13.933594 22.234375 14.085938 22.117188 14.109375 21.953125 C 14.445312 19.496094 15.109375 17.765625 16.4375 16.4375 C 17.765625 15.109375 19.496094 14.445312 21.953125 14.109375 C 22.121094 14.085938 22.234375 13.933594 22.234375 13.765625 L 22.234375 5.953125 C 22.253906 5.449219 22.46875 4.972656 22.832031 4.621094 C 23.195312 4.269531 23.679688 4.074219 24.1875 4.074219 C 24.691406 4.074219 25.179688 4.269531 25.542969 4.621094 C 25.90625 4.972656 26.121094 5.449219 26.140625 5.953125 L 26.140625 11.835938 C 26.140625 12.921875 27.03125 13.789062 28.117188 13.777344 C 29.179688 13.765625 30.046875 12.902344 30.046875 11.835938 L 30.046875 5.953125 C 30.046875 4.875 30.921875 4 32 4 Z M 29.265625 19.625 C 27.535156 19.625 26.042969 19.625 24.847656 19.789062 C 23.566406 19.960938 22.339844 20.347656 21.34375 21.34375 C 20.347656 22.339844 19.960938 23.566406 19.789062 24.847656 C 19.625 26.042969 19.625 27.535156 19.625 29.265625 L 19.625 34.734375 C 19.625 36.464844 19.625 37.957031 19.789062 39.152344 C 19.960938 40.433594 20.347656 41.660156 21.34375 42.65625 C 22.339844 43.652344 23.566406 44.039062 24.847656 44.210938 C 26.042969 44.375 27.535156 44.375 29.265625 44.375 L 34.734375 44.375 C 36.464844 44.375 37.957031 44.375 39.152344 44.210938 C 40.433594 44.039062 41.660156 43.652344 42.65625 42.65625 C 43.652344 41.660156 44.039062 40.433594 44.210938 39.152344 C 44.375 37.957031 44.375 36.464844 44.375 34.734375 L 44.375 29.265625 C 44.375 27.535156 44.375 26.042969 44.210938 24.847656 C 44.039062 23.566406 43.652344 22.339844 42.65625 21.34375 C 41.660156 20.347656 40.433594 19.960938 39.152344 19.789062 C 37.957031 19.625 36.464844 19.625 34.734375 19.625 Z M 29.265625 19.625 "/>
<path style=" stroke:none;fill-rule:nonzero;fill:rgb(29.019608%,67.45098%,5.490196%);fill-opacity:1;" d="M 24.105469 24.105469 C 24.105469 24.105469 24.105469 24.101562 24.105469 24.101562 C 24.257812 23.957031 24.523438 23.773438 25.367188 23.660156 C 26.269531 23.539062 27.496094 23.535156 29.394531 23.535156 L 34.605469 23.535156 C 36.503906 23.535156 37.730469 23.539062 38.628906 23.660156 C 39.480469 23.773438 39.746094 23.957031 39.890625 24.105469 C 40.042969 24.253906 40.226562 24.519531 40.339844 25.367188 C 40.460938 26.269531 40.464844 27.496094 40.464844 29.394531 L 40.464844 34.605469 C 40.464844 36.503906 40.460938 37.730469 40.339844 38.628906 C 40.226562 39.480469 40.042969 39.746094 39.890625 39.890625 C 39.746094 40.042969 39.480469 40.226562 38.628906 40.339844 C 37.730469 40.460938 36.503906 40.464844 34.605469 40.464844 L 29.394531 40.464844 C 27.496094 40.464844 26.269531 40.460938 25.367188 40.339844 C 24.519531 40.226562 24.253906 40.042969 24.105469 39.890625 C 23.957031 39.746094 23.773438 39.480469 23.660156 38.628906 C 23.539062 37.730469 23.535156 36.503906 23.535156 34.605469 L 23.535156 29.394531 C 23.535156 27.496094 23.539062 26.269531 23.660156 25.371094 C 23.773438 24.523438 23.957031 24.257812 24.105469 24.109375 C 24.105469 24.105469 24.105469 24.105469 24.105469 24.105469 Z M 24.105469 24.105469 "/>
</g>
</svg>
