<?xml version="1.0" encoding="UTF-8" standalone="no"?>
<svg
   id="Layer_1"
   data-name="Layer 1"
   viewBox="0 0 64 64"
   version="1.1"
   sodipodi:docname="cs-extensions.svg"
   inkscape:version="1.3.2 (091e20e, 2023-11-25)"
   width="64"
   height="64"
   xmlns:inkscape="http://www.inkscape.org/namespaces/inkscape"
   xmlns:sodipodi="http://sodipodi.sourceforge.net/DTD/sodipodi-0.dtd"
   xmlns="http://www.w3.org/2000/svg"
   xmlns:svg="http://www.w3.org/2000/svg"
   xmlns:rdf="http://www.w3.org/1999/02/22-rdf-syntax-ns#"
   xmlns:cc="http://creativecommons.org/ns#"
   xmlns:dc="http://purl.org/dc/elements/1.1/">
  <defs
     id="defs4" />
  <sodipodi:namedview
     id="namedview4"
     pagecolor="#ffffff"
     bordercolor="#000000"
     borderopacity="0.25"
     inkscape:showpageshadow="2"
     inkscape:pageopacity="0.0"
     inkscape:pagecheckerboard="0"
     inkscape:deskcolor="#d1d1d1"
     inkscape:zoom="8.3306015"
     inkscape:cx="44.114462"
     inkscape:cy="32.050507"
     inkscape:window-width="1680"
     inkscape:window-height="1000"
     inkscape:window-x="0"
     inkscape:window-y="25"
     inkscape:window-maximized="1"
     inkscape:current-layer="Layer_1" />
  <title
     id="title1">puzzle-pieces</title>
  <path
     d="M 10,12.095156 A 2.0994531,2.0994531 0 0 1 12.094297,10 h 16.860937 a 2.1011719,2.1011719 0 0 1 2.094297,2.095156 v 6.789062 c 1.068203,0.01546 1.742813,0.03781 2.286798,-0.859375 a 3.0671094,3.0671094 0 0 1 0.530233,-0.666015 c 0.395313,-0.368673 0.859375,-0.584374 1.360392,-0.584374 1.402499,0 2.545467,1.682655 2.545467,3.746014 0,1.03125 -0.288749,1.968828 -0.746796,2.648594 -0.458046,0.679767 -1.096563,1.10086 -1.798671,1.10086 A 1.7789062,1.7789062 0 0 1 34.509375,24.115235 2.2180469,2.2180469 0 0 1 33.866562,23.685547 3.0774219,3.0774219 0 0 1 33.336328,23.018672 C 32.792344,22.12836 32.117734,22.148125 31.049531,22.159297 v 6.789062 a 2.1020312,2.1020312 0 0 1 -2.094297,2.096876 h -3.56125 c 0.07649,-0.09883 0.146094,-0.20711 0.213125,-0.311954 0.710704,-1.217734 0.746797,-2.472422 0.11,-3.742577 -0.945313,-1.632813 -2.607344,-2.40625 -4.4275,-2.62711 a 7.4353125,7.4353125 0 0 0 -3.652343,0.568046 l -0.831016,0.463203 a 7.019375,7.019375 0 0 0 -1.063046,0.971952 v 0 c -0.290469,0.46836 -0.596407,1.077657 -0.679766,1.355235 a 5.5094531,5.5094531 0 0 0 -0.188203,0.997734 v 0 a 3.966875,3.966875 0 0 0 0.391015,1.69383 4.1739844,4.1739844 0 0 0 0.386719,0.63078 H 12.094297 A 2.1003125,2.1003125 0 0 1 10,28.951796 Z"
     fill="#fc6"
     fill-rule="evenodd"
     id="path1"
     style="fill:#e8c81b;fill-opacity:1;stroke-width:0.0859374" />
  <path
     d="m 62.67758,7.2043348 a 2.1011719,2.1011719 0 0 1 1.069066,2.7627628 L 56.933333,25.390132 a 2.1011719,2.1011719 0 0 1 -2.763712,1.073343 L 47.95953,23.720092 c -0.446586,0.970508 -0.737008,1.576896 -0.136592,2.435897 a 3.1719531,3.1719531 0 0 1 0.393219,0.758078 c 0.180451,0.508126 0.188062,1.022574 -0.01405,1.480076 -0.566387,1.282108 -2.566365,1.645303 -4.455332,0.810829 -0.943305,-0.416716 -1.686074,-1.057694 -2.118592,-1.752334 -0.432517,-0.694639 -0.564564,-1.44632 -0.281544,-2.086981 a 1.8167187,1.8167187 0 0 1 0.431278,-0.597714 2.2627344,2.2627344 0 0 1 0.65106,-0.410431 3.1040625,3.1040625 0 0 1 0.822255,-0.217368 c 1.039963,-0.138104 1.290299,-0.7622 1.710156,-1.744515 l -6.210086,-2.743383 a 2.1011719,2.1011719 0 0 1 -1.069065,-2.762762 l 1.439408,-3.258333 c 0.06063,0.109455 0.130228,0.213487 0.200617,0.317863 0.827484,1.142513 1.957443,1.681144 3.377736,1.61147 1.875556,-0.204894 3.254295,-1.411864 4.191823,-2.98755 a 7.4671094,7.4671094 0 0 0 0.959065,-3.5682384 l -0.09095,-0.9467894 a 6.9901562,6.9901562 0 0 0 -0.45959,-1.3670658 v 0 C 46.991222,6.2357939 46.556378,5.7101742 46.337729,5.522453 A 5.9167969,5.9167969 0 0 0 45.499907,4.9456463 v 0 A 4.0296094,4.0296094 0 0 0 43.791738,4.6185117 4.1155469,4.1155469 0 0 0 43.05936,4.719626 l 1.438366,-3.2559736 a 2.1011719,2.1011719 0 0 1 2.756819,-1.07263065 z"
     fill="#48cfad"
     fill-rule="evenodd"
     id="path2"
     style="fill:#2373dc;fill-opacity:1;stroke-width:0.0859374" />
  <path
     d="M 54,51.904843 A 2.1020312,2.1020312 0 0 1 51.905703,54 H 35.044765 A 2.1003125,2.1003125 0 0 1 32.950469,51.904843 V 45.11578 c -1.071641,-0.01633 -1.744532,-0.03781 -2.289375,0.854219 a 3.1590625,3.1590625 0 0 1 -0.528515,0.666016 c -0.397032,0.37039 -0.859375,0.586953 -1.363829,0.586953 -1.399062,0 -2.542031,-1.684375 -2.542031,-3.749454 0,-1.03125 0.284452,-1.96625 0.747656,-2.645155 0.463203,-0.678907 1.093984,-1.10086 1.794375,-1.10086 a 1.7651562,1.7651562 0 0 1 0.720156,0.152969 2.2146094,2.2146094 0 0 1 0.639375,0.429687 3.0989063,3.0989063 0 0 1 0.532813,0.666875 c 0.543984,0.89375 1.217734,0.868828 2.289375,0.859375 v -6.789062 a 2.1003125,2.1003125 0 0 1 2.094296,-2.095156 h 3.559532 c -0.0782,0.09969 -0.145234,0.20539 -0.213126,0.311952 -0.709842,1.217735 -0.745937,2.471563 -0.10914,3.741719 0.945313,1.632812 2.603907,2.40625 4.4275,2.627969 a 7.486875,7.486875 0 0 0 3.651484,-0.568047 l 0.828438,-0.465781 a 6.7160156,6.7160156 0 0 0 1.064766,-0.971094 v 0 c 0.292187,-0.468359 0.596406,-1.077656 0.682343,-1.355234 a 5.9013281,5.9013281 0 0 0 0.188203,-0.997734 v 0 A 4.0760156,4.0760156 0 0 0 48.73289,33.582108 4.1430469,4.1430469 0 0 0 48.345312,32.952187 h 3.559532 A 2.1020312,2.1020312 0 0 1 54,35.047344 Z"
     fill="#ed7161"
     fill-rule="evenodd"
     id="path3"
     style="fill:#c9222e;fill-opacity:1;stroke-width:0.0859374" />
  <path
     d="M 12.094297,54 A 2.1003125,2.1003125 0 0 1 10,51.904843 V 35.043905 a 2.1003125,2.1003125 0 0 1 2.094297,-2.098593 h 6.789063 c 0.01633,-1.067344 0.03867,-1.741094 -0.859375,-2.28336 a 3.2132031,3.2132031 0 0 1 -0.663438,-0.531094 c -0.370391,-0.395312 -0.587812,-0.859375 -0.587812,-1.362969 0,-1.400781 1.682656,-2.54203 3.747734,-2.54203 1.03125,0 1.967968,0.284453 2.648594,0.747655 0.680625,0.463204 1.099999,1.093125 1.099999,1.794375 a 1.74625,1.74625 0 0 1 -0.155546,0.721016 2.234375,2.234375 0 0 1 -0.429687,0.639375 3.2269531,3.2269531 0 0 1 -0.666875,0.533672 c -0.896329,0.542266 -0.871407,1.216875 -0.859375,2.28336 h 6.789062 a 2.1020312,2.1020312 0 0 1 2.094296,2.096875 v 3.558672 c -0.100546,-0.07563 -0.20539,-0.144375 -0.313671,-0.209688 -1.218594,-0.712421 -2.472422,-0.746796 -3.741719,-0.11 -1.632812,0.945313 -2.40625,2.606485 -2.62711,4.426642 a 7.4292969,7.4292969 0 0 0 0.568048,3.651483 l 0.465781,0.830157 a 6.9205469,6.9205469 0 0 0 0.971094,1.064766 v 0 c 0.468359,0.28875 1.076796,0.596406 1.352656,0.680625 a 5.9210937,5.9210937 0 0 0 0.997734,0.188202 v 0 a 4.0485156,4.0485156 0 0 0 1.696406,-0.391875 4.3544531,4.3544531 0 0 0 0.630781,-0.387578 v 3.558672 A 2.1020312,2.1020312 0 0 1 28.955234,54 Z"
     fill="#656d78"
     fill-rule="evenodd"
     id="path4"
     style="fill:#27ab71;fill-opacity:1;stroke-width:0.0859374" />
  <metadata
     id="metadata4">
    <rdf:RDF>
      <cc:Work
         rdf:about="">
        <dc:title>puzzle-pieces</dc:title>
      </cc:Work>
    </rdf:RDF>
  </metadata>
</svg>
