<?xml version="1.0" encoding="UTF-8" standalone="no"?>
<!-- Created with Inkscape (http://www.inkscape.org/) -->

<svg
   width="64"
   height="64"
   viewBox="0 0 64 64"
   version="1.1"
   id="svg5"
   inkscape:version="1.3.2 (091e20e, 2023-11-25)"
   sodipodi:docname="cs-sources.svg"
   xmlns:inkscape="http://www.inkscape.org/namespaces/inkscape"
   xmlns:sodipodi="http://sodipodi.sourceforge.net/DTD/sodipodi-0.dtd"
   xmlns:xlink="http://www.w3.org/1999/xlink"
   xmlns="http://www.w3.org/2000/svg"
   xmlns:svg="http://www.w3.org/2000/svg">
  <sodipodi:namedview
     id="namedview7"
     pagecolor="#ffffff"
     bordercolor="#000000"
     borderopacity="0.25"
     inkscape:showpageshadow="2"
     inkscape:pageopacity="0.0"
     inkscape:pagecheckerboard="0"
     inkscape:deskcolor="#d1d1d1"
     inkscape:document-units="px"
     showgrid="false"
     inkscape:zoom="6.40625"
     inkscape:cx="1.7170732"
     inkscape:cy="23.180488"
     inkscape:window-width="1680"
     inkscape:window-height="994"
     inkscape:window-x="0"
     inkscape:window-y="25"
     inkscape:window-maximized="1"
     inkscape:current-layer="svg5"
     showguides="false" />
  <defs
     id="defs2">
    <linearGradient
       inkscape:collect="always"
       xlink:href="#linearGradient82111"
       id="linearGradient4221"
       x1="3.9687502"
       y1="2.9104166"
       x2="3.4395833"
       y2="5.8208332"
       gradientUnits="userSpaceOnUse"
       gradientTransform="matrix(3.7795275,0,0,3.7795275,-2,-5)" />
    <linearGradient
       inkscape:collect="always"
       id="linearGradient82111">
      <stop
         style="stop-color:#debb86;stop-opacity:1;"
         offset="0"
         id="stop82107" />
      <stop
         style="stop-color:#dcae6e;stop-opacity:1"
         offset="1"
         id="stop82109" />
    </linearGradient>
    <linearGradient
       inkscape:collect="always"
       xlink:href="#linearGradient95639"
       id="linearGradient2237"
       x1="2.9104166"
       y1="5.2916665"
       x2="5.2576041"
       y2="5.6950111"
       gradientUnits="userSpaceOnUse"
       gradientTransform="matrix(3.7795275,0,0,3.7795275,0,-1)" />
    <linearGradient
       inkscape:collect="always"
       id="linearGradient95639">
      <stop
         style="stop-color:#be8541;stop-opacity:1;"
         offset="0"
         id="stop95635" />
      <stop
         style="stop-color:#aa7332;stop-opacity:1"
         offset="1"
         id="stop95637" />
    </linearGradient>
    <linearGradient
       inkscape:collect="always"
       xlink:href="#linearGradient95639"
       id="linearGradient2944"
       x1="13.493751"
       y1="6.0854168"
       x2="13.493752"
       y2="14.552086"
       gradientUnits="userSpaceOnUse"
       gradientTransform="matrix(3.7795275,0,0,3.7795275,-2e-6,-5)" />
    <linearGradient
       inkscape:collect="always"
       xlink:href="#linearGradient56461"
       id="linearGradient56463"
       x1="-252.87521"
       y1="78.478691"
       x2="-238.4166"
       y2="92.637772"
       gradientUnits="userSpaceOnUse"
       gradientTransform="matrix(2.1440542,0,0,3.1781727,553.17811,-232.41884)" />
    <linearGradient
       inkscape:collect="always"
       id="linearGradient56461">
      <stop
         style="stop-color:#dcb77f;stop-opacity:1;"
         offset="0"
         id="stop56457" />
      <stop
         style="stop-color:#d2a362;stop-opacity:1"
         offset="1"
         id="stop56459" />
    </linearGradient>
    <linearGradient
       inkscape:collect="always"
       xlink:href="#linearGradient70845"
       id="linearGradient1579"
       x1="10.537197"
       y1="7.5774555"
       x2="13.497259"
       y2="16.186811"
       gradientUnits="userSpaceOnUse"
       gradientTransform="matrix(3.0404773,0,0,3.4845804,9.96189,-1.404253)" />
    <linearGradient
       inkscape:collect="always"
       id="linearGradient70845">
      <stop
         style="stop-color:#cc964c;stop-opacity:1;"
         offset="0"
         id="stop70841" />
      <stop
         style="stop-color:#ca944c;stop-opacity:1"
         offset="1"
         id="stop70843" />
    </linearGradient>
    <linearGradient
       inkscape:collect="always"
       xlink:href="#linearGradient82111"
       id="linearGradient4750"
       x1="16.139584"
       y1="5.2916665"
       x2="11.377084"
       y2="7.4083333"
       gradientUnits="userSpaceOnUse"
       gradientTransform="matrix(3.7795275,0,0,3.7795275,-1.000002,-3.000001)" />
    <linearGradient
       inkscape:collect="always"
       xlink:href="#linearGradient82111"
       id="linearGradient4939"
       x1="7.1437502"
       y1="2.1166668"
       x2="14.022917"
       y2="6.0854168"
       gradientUnits="userSpaceOnUse"
       gradientTransform="matrix(3.7795275,0,0,3.7795275,-2,-5)" />
    <linearGradient
       inkscape:collect="always"
       xlink:href="#linearGradient11941"
       id="linearGradient11943"
       x1="5.1081543"
       y1="42.191895"
       x2="7.4692383"
       y2="33.279785"
       gradientUnits="userSpaceOnUse"
       gradientTransform="matrix(1.3499999,0,0,1.3499999,-2.1771913,-10.643911)" />
    <linearGradient
       inkscape:collect="always"
       id="linearGradient11941">
      <stop
         style="stop-color:#f89af4;stop-opacity:0"
         offset="0"
         id="stop11937" />
      <stop
         style="stop-color:#f89af4;stop-opacity:0"
         offset="0.40000001"
         id="stop12523" />
      <stop
         style="stop-color:#f89af4;stop-opacity:1"
         offset="0.5"
         id="stop12201" />
      <stop
         style="stop-color:#f89af4;stop-opacity:0"
         offset="0.60000002"
         id="stop12781" />
      <stop
         style="stop-color:#f89af4;stop-opacity:0;"
         offset="1"
         id="stop11939" />
    </linearGradient>
    <linearGradient
       inkscape:collect="always"
       xlink:href="#linearGradient7820"
       id="linearGradient10226"
       gradientUnits="userSpaceOnUse"
       x1="14.532227"
       y1="42.393677"
       x2="19.540161"
       y2="37.501221"
       gradientTransform="matrix(2.5920002,0,0,2.5920002,-23.291193,-60.323919)" />
    <linearGradient
       inkscape:collect="always"
       id="linearGradient7820">
      <stop
         style="stop-color:#858585;stop-opacity:1"
         offset="0"
         id="stop7816" />
      <stop
         style="stop-color:#ffffff;stop-opacity:1"
         offset="0.5"
         id="stop8592" />
      <stop
         style="stop-color:#868686;stop-opacity:1"
         offset="1"
         id="stop7818" />
    </linearGradient>
    <linearGradient
       inkscape:collect="always"
       xlink:href="#linearGradient7820"
       id="linearGradient7822"
       x1="14.532227"
       y1="42.393677"
       x2="19.540161"
       y2="37.501221"
       gradientUnits="userSpaceOnUse"
       gradientTransform="matrix(1.4399999,0,0,1.4399999,-3.7071913,-14.243906)" />
    <linearGradient
       inkscape:collect="always"
       xlink:href="#linearGradient2496"
       id="linearGradient2498"
       x1="16.424316"
       y1="54.63533"
       x2="32.331596"
       y2="38.452602"
       gradientUnits="userSpaceOnUse"
       gradientTransform="matrix(1.3499999,0,0,1.3499999,-2.1771913,-10.643911)" />
    <linearGradient
       inkscape:collect="always"
       id="linearGradient2496">
      <stop
         style="stop-color:#ffffff;stop-opacity:0.5"
         offset="0"
         id="stop2492" />
      <stop
         style="stop-color:#ffffff;stop-opacity:0"
         offset="0.44999999"
         id="stop3080" />
      <stop
         style="stop-color:#ffffff;stop-opacity:1"
         offset="0.5"
         id="stop2756" />
      <stop
         style="stop-color:#ffffff;stop-opacity:0"
         offset="0.55000001"
         id="stop3014" />
      <stop
         style="stop-color:#ffffff;stop-opacity:0.2"
         offset="1"
         id="stop2494" />
    </linearGradient>
    <linearGradient
       inkscape:collect="always"
       xlink:href="#linearGradient219586"
       id="linearGradient1031"
       gradientUnits="userSpaceOnUse"
       gradientTransform="matrix(1.3772062,0,0,1.3288272,-133.60144,-272.91397)"
       x1="112.09232"
       y1="238.0069"
       x2="112.17286"
       y2="254.33937" />
    <linearGradient
       inkscape:collect="always"
       id="linearGradient219586">
      <stop
         style="stop-color:#b9bfbf;stop-opacity:1;"
         offset="0"
         id="stop219582" />
      <stop
         style="stop-color:#aaacab;stop-opacity:1"
         offset="1"
         id="stop219584" />
    </linearGradient>
    <linearGradient
       inkscape:collect="always"
       xlink:href="#linearGradient162116"
       id="linearGradient162118"
       x1="96.408417"
       y1="238.0069"
       x2="127.77626"
       y2="238.0069"
       gradientUnits="userSpaceOnUse"
       gradientTransform="matrix(1.3772062,0,0,1.3288272,-133.60144,-272.91397)" />
    <linearGradient
       inkscape:collect="always"
       id="linearGradient162116">
      <stop
         style="stop-color:#e3edee;stop-opacity:1;"
         offset="0"
         id="stop162112" />
      <stop
         style="stop-color:#c9cdce;stop-opacity:1"
         offset="1"
         id="stop162114" />
    </linearGradient>
    <linearGradient
       inkscape:collect="always"
       xlink:href="#linearGradient6804"
       id="linearGradient6808"
       x1="2.3812499"
       y1="8.4666672"
       x2="6.6145835"
       y2="12.700001"
       gradientUnits="userSpaceOnUse"
       gradientTransform="matrix(5.1023618,0,0,5.1023618,-2.1771913,-10.643911)" />
    <linearGradient
       inkscape:collect="always"
       id="linearGradient6804">
      <stop
         style="stop-color:#ffffff;stop-opacity:1;"
         offset="0"
         id="stop6800" />
      <stop
         style="stop-color:#ffffff;stop-opacity:0;"
         offset="1"
         id="stop6802" />
    </linearGradient>
  </defs>
  <path
     id="rect3961"
     style="fill:url(#linearGradient4221);fill-opacity:1;stroke-width:0.999999"
     d="M 4,13 13,6 19.999997,9.999999 17.511076,20.545802 11,16.999999 Z"
     sodipodi:nodetypes="cccccc" />
  <path
     id="rect2034"
     style="fill:url(#linearGradient2237);fill-opacity:1;stroke-width:0.999999"
     d="M 11,16.999999 19.999997,10 36.222028,49.0721 10.999996,51.000003 Z"
     sodipodi:nodetypes="ccccc" />
  <path
     id="rect2627"
     style="fill:url(#linearGradient2944);fill-opacity:1;stroke-width:0.999999"
     d="m 19.999997,9.999999 31.000002,8 4e-6,32.000009 -31.000006,-6.000007 z"
     sodipodi:nodetypes="ccccc" />
  <path
     id="rect45418"
     style="fill:url(#linearGradient56463);stroke-width:0.690667"
     d="M 11,16.999999 41.999999,25 46.000002,24 41.999999,61.999997 11,53.999999 Z"
     sodipodi:nodetypes="cccccc" />
  <path
     id="rect1571"
     style="fill:url(#linearGradient1579);stroke-width:0.861211"
     d="m 41.999999,25 9,-7.000001 v 36.999995 l -9,7.000003 z"
     sodipodi:nodetypes="ccccc" />
  <path
     id="rect4424"
     style="fill:url(#linearGradient4750);fill-opacity:1;stroke-width:0.999999"
     d="m 50.999999,17.999999 9,-1 -8.000001,7 L 41.999999,25 Z"
     sodipodi:nodetypes="ccccc" />
  <path
     id="rect4774"
     style="fill:url(#linearGradient4939);fill-opacity:1;stroke-width:0.899331"
     d="M 25.000001,3 56,10.999999 l -5.000001,7 -31.000002,-8 z"
     sodipodi:nodetypes="ccccc" />
  <path
     id="rect5659"
     style="fill:#be8541;fill-opacity:1;stroke-width:0.999999"
     d="m 25.000004,2 31,7.999998 L 56,10.999999 25.000001,3 Z"
     sodipodi:nodetypes="ccccc" />
  <path
     id="path6272"
     style="opacity:0.4;fill:url(#linearGradient6808);fill-opacity:1;stroke-width:2.7;stroke-linecap:round;stroke-linejoin:round"
     d="M 20.772807,32.556088 A 10.8,10.8 0 0 0 9.9728087,43.356087 10.8,10.8 0 0 0 20.772807,54.156088 10.8,10.8 0 0 0 31.572809,43.356087 10.8,10.8 0 0 0 20.772807,32.556088 Z m 0,8.099999 a 2.7000001,2.7000001 0 0 1 2.700003,2.7 2.7000001,2.7000001 0 0 1 -2.700003,2.7 2.7000001,2.7000001 0 0 1 -2.699997,-2.7 2.7000001,2.7000001 0 0 1 2.699997,-2.7 z" />
  <path
     id="path9538"
     style="fill:#d0d0d0;fill-opacity:1;stroke-width:2.7;stroke-linecap:round;stroke-linejoin:round"
     d="m 20.772807,33.906087 a 9.45,9.45 0 0 0 -9.449998,9.45 9.45,9.45 0 0 0 9.449998,9.45 9.45,9.45 0 0 0 9.450004,-9.45 9.45,9.45 0 0 0 -9.450004,-9.45 z m 0,2.025 a 7.4249993,7.4249993 0 0 1 7.425003,7.425 7.4249993,7.4249993 0 0 1 -7.425003,7.425002 7.4249993,7.4249993 0 0 1 -7.425,-7.425002 7.4249993,7.4249993 0 0 1 7.425,-7.425 z" />
  <path
     id="path151229"
     style="fill:url(#linearGradient162118);fill-opacity:1;stroke-width:1.78966;stroke-linecap:round;stroke-linejoin:round"
     d="m 20.772809,23.196088 c -11.1340491,1e-6 -20.15999932,9.025951 -20.16000032,20.16 0,11.13405 9.02595002,20.159999 20.16000032,20.16 11.13405,0 20.16,-9.02595 20.16,-20.16 -10e-7,-11.13405 -9.02595,-20.16 -20.16,-20.16 z m 0,12.06 a 8.0999993,8.0999993 0 0 1 8.1,8.1 8.0999993,8.0999993 0 0 1 -8.1,8.1 8.0999993,8.0999993 0 0 1 -8.1,-8.1 8.0999993,8.0999993 0 0 1 8.1,-8.1 z" />
  <path
     id="path151229-3-3"
     style="fill:url(#linearGradient1031);fill-opacity:1;stroke-width:1.78966;stroke-linecap:round;stroke-linejoin:round"
     d="m 28.854527,43.862338 a 8.0999993,8.0999993 0 0 1 -8.081718,7.59375 8.0999993,8.0999993 0 0 1 -5.722032,-2.377968 l -8.5331247,8.533124 c 3.6482387,3.648239 8.6881317,5.904844 14.2551567,5.904844 10.711546,0 19.466969,-8.354774 20.116406,-18.902813 z" />
  <path
     id="rect2336"
     style="opacity:0.5;fill:url(#linearGradient2498);fill-opacity:1;stroke-width:2.7;stroke-linecap:round;stroke-linejoin:round"
     d="M 15.883277,23.796557 C 8.2860491,25.689706 2.3981877,31.891713 0.95733968,39.657651 l 11.73375132,2.348437 0.129374,0.0211 a 8.0999993,8.0999993 0 0 1 5.99625,-6.499687 z m 12.841876,20.888437 a 8.1,8.1 0 0 1 -5.996251,6.499688 L 25.662341,62.91562 C 33.259569,61.02247 39.14743,54.820464 40.588277,47.054525 l -11.73375,-2.348437 z" />
  <path
     id="path7246"
     style="opacity:0.5;fill:url(#linearGradient7822);fill-opacity:1;stroke-width:3.59998;stroke-linecap:round;stroke-linejoin:round"
     d="m 20.772809,39.756088 a 3.5999995,3.5999995 0 0 0 -3.6,3.6 3.5999995,3.5999995 0 0 0 3.6,3.6 3.5999995,3.5999995 0 0 0 3.6,-3.6 3.5999995,3.5999995 0 0 0 -3.6,-3.6 z m 0,0.72 a 2.8799994,2.8799994 0 0 1 0.07453,0.0014 2.8799999,2.8799999 0 0 1 0.0071,0 2.8799994,2.8799994 0 0 1 0.0661,0.0028 2.8799999,2.8799999 0 0 1 0.04922,0.0028 2.8799999,2.8799999 0 0 1 0.04922,0.0042 2.8799994,2.8799994 0 0 1 0.05063,0.0042 2.8799999,2.8799999 0 0 1 0.03094,0.0028 2.8799994,2.8799994 0 0 1 0.04218,0.0056 2.8799999,2.8799999 0 0 1 0.03937,0.0056 2.8799994,2.8799994 0 0 1 0.08156,0.01266 2.8799994,2.8799994 0 0 1 0.02532,0.0042 2.8799999,2.8799999 0 0 1 0.05626,0.01128 2.8799994,2.8799994 0 0 1 0.01687,0.0028 2.8799999,2.8799999 0 0 1 0.06328,0.01406 2.8799994,2.8799994 0 0 1 0.0084,0.0028 2.8799999,2.8799999 0 0 1 0.143437,0.03797 2.8799999,2.8799999 0 0 1 0.0071,0.0014 2.8799994,2.8799994 0 0 1 0.06468,0.01968 2.8799999,2.8799999 0 0 1 0.01406,0.0042 2.8799994,2.8799994 0 0 1 0.05626,0.01968 2.8799999,2.8799999 0 0 1 0.0211,0.0071 2.8799994,2.8799994 0 0 1 0.06187,0.0239 2.8799999,2.8799999 0 0 1 0.01547,0.0056 2.8799994,2.8799994 0 0 1 0.07594,0.03094 2.8799994,2.8799994 0 0 1 0.0675,0.02813 2.8799999,2.8799999 0 0 1 0.0084,0.0042 2.8799994,2.8799994 0 0 1 0.0239,0.01128 2.8799999,2.8799999 0 0 1 0.05063,0.0239 2.8799994,2.8799994 0 0 1 0.01687,0.0084 2.8799999,2.8799999 0 0 1 0.05626,0.02953 2.8799994,2.8799994 0 0 1 0.07172,0.03937 2.8799994,2.8799994 0 0 1 0.0028,0.0014 2.8799999,2.8799999 0 0 1 0.0211,0.01266 2.8799994,2.8799994 0 0 1 0.04218,0.0239 2.8799999,2.8799999 0 0 1 0.0056,0.0028 2.8799994,2.8799994 0 0 1 0.05766,0.03656 2.8799999,2.8799999 0 0 1 0.01128,0.0071 2.8799994,2.8799994 0 0 1 0.05063,0.03374 2.8799999,2.8799999 0 0 1 0.06187,0.04218 2.8799999,2.8799999 0 0 1 0.0239,0.01687 2.8799994,2.8799994 0 0 1 0.08437,0.06328 2.8799999,2.8799999 0 0 1 0.045,0.03797 2.8799994,2.8799994 0 0 1 0.05344,0.0436 2.8799999,2.8799999 0 0 1 0.0098,0.0084 2.8799994,2.8799994 0 0 1 0.07032,0.06328 2.8799999,2.8799999 0 0 1 0.05063,0.04782 2.8799994,2.8799994 0 0 1 0.106872,0.109692 2.8799999,2.8799999 0 0 1 0.0084,0.0084 2.8799994,2.8799994 0 0 1 0.04078,0.0464 2.8799999,2.8799999 0 0 1 0.01406,0.01547 2.8799994,2.8799994 0 0 1 0.0084,0.0098 2.8799994,2.8799994 0 0 1 0.0436,0.05344 2.8799994,2.8799994 0 0 1 0.02953,0.03516 2.8799999,2.8799999 0 0 1 0.0225,0.02813 2.8799994,2.8799994 0 0 1 0.0225,0.03094 2.8799999,2.8799999 0 0 1 0.02672,0.03516 2.8799994,2.8799994 0 0 1 0.01687,0.0239 2.8799999,2.8799999 0 0 1 0.04218,0.06187 2.8799999,2.8799999 0 0 1 0.03374,0.05063 2.8799994,2.8799994 0 0 1 0.0071,0.01128 2.8799999,2.8799999 0 0 1 0.03656,0.05766 2.8799994,2.8799994 0 0 1 0.03937,0.0689 2.8799999,2.8799999 0 0 1 0.0014,0.0028 2.8799994,2.8799994 0 0 1 0.03937,0.07172 2.8799994,2.8799994 0 0 1 0.02953,0.05626 2.8799999,2.8799999 0 0 1 0.0084,0.01687 2.8799994,2.8799994 0 0 1 0.0239,0.05063 2.8799999,2.8799999 0 0 1 0.01128,0.0239 2.8799994,2.8799994 0 0 1 0.0042,0.0084 2.8799994,2.8799994 0 0 1 0.02813,0.0675 2.8799994,2.8799994 0 0 1 0.03094,0.07594 2.8799999,2.8799999 0 0 1 0.0056,0.01547 2.8799994,2.8799994 0 0 1 0.0056,0.01406 2.8799999,2.8799999 0 0 1 0.01828,0.04782 2.8799994,2.8799994 0 0 1 0.0071,0.0211 2.8799999,2.8799999 0 0 1 0.01968,0.05626 2.8799994,2.8799994 0 0 1 0.0042,0.01406 2.8799999,2.8799999 0 0 1 0.01968,0.06468 2.8799994,2.8799994 0 0 1 0.0014,0.0071 2.8799999,2.8799999 0 0 1 0.03797,0.143437 2.8799999,2.8799999 0 0 1 0.0028,0.0084 2.8799994,2.8799994 0 0 1 0.01406,0.06328 2.8799999,2.8799999 0 0 1 0.0028,0.01687 2.8799994,2.8799994 0 0 1 0.01128,0.05626 2.8799999,2.8799999 0 0 1 0.0042,0.02532 2.8799994,2.8799994 0 0 1 0.01266,0.08156 2.8799994,2.8799994 0 0 1 0.0056,0.03937 2.8799999,2.8799999 0 0 1 0.0014,0.0084 2.8799994,2.8799994 0 0 1 0.0071,0.06468 2.8799999,2.8799999 0 0 1 0.0042,0.05063 2.8799994,2.8799994 0 0 1 0.0028,0.0239 2.8799999,2.8799999 0 0 1 0.0014,0.02532 2.8799999,2.8799999 0 0 1 0.0028,0.04922 2.8799999,2.8799999 0 0 1 0.0028,0.0661 2.8799994,2.8799994 0 0 1 0.0011,0.08129 2.8799994,2.8799994 0 0 1 -0.0084,0.215157 2.8799999,2.8799999 0 0 1 -0.0014,0.0071 2.8799999,2.8799999 0 0 1 -0.0098,0.09984 2.8799994,2.8799994 0 0 1 -0.01687,0.13078 2.8799999,2.8799999 0 0 1 -0.01406,0.07313 2.8799994,2.8799994 0 0 1 -0.03516,0.164531 2.8799999,2.8799999 0 0 1 -0.01406,0.05484 2.8799994,2.8799994 0 0 1 -0.045,0.150469 2.8799999,2.8799999 0 0 1 -0.03797,0.109692 2.8799994,2.8799994 0 0 1 -0.03094,0.07734 2.8799999,2.8799999 0 0 1 -0.05626,0.130781 2.8799994,2.8799994 0 0 1 -0.05063,0.104064 2.8799999,2.8799999 0 0 1 -0.04218,0.07874 2.8799994,2.8799994 0 0 1 -0.07172,0.120937 2.8799999,2.8799999 0 0 1 -0.05203,0.08297 2.8799994,2.8799994 0 0 1 -0.07876,0.109692 2.8799999,2.8799999 0 0 1 -0.05344,0.07172 2.8799994,2.8799994 0 0 1 -0.08437,0.101244 2.8799999,2.8799999 0 0 1 -0.05766,0.0675 2.8799994,2.8799994 0 0 1 -0.160313,0.160313 2.8799999,2.8799999 0 0 1 -0.0084,0.0084 2.8799994,2.8799994 0 0 1 -0.0675,0.05766 2.8799994,2.8799994 0 0 1 -0.101256,0.08437 2.8799999,2.8799999 0 0 1 -0.07172,0.05344 2.8799994,2.8799994 0 0 1 -0.109692,0.07876 2.8799999,2.8799999 0 0 1 -0.08297,0.05203 2.8799994,2.8799994 0 0 1 -0.120938,0.07172 2.8799999,2.8799999 0 0 1 -0.07874,0.04218 2.8799994,2.8799994 0 0 1 -0.104064,0.05063 2.8799999,2.8799999 0 0 1 -0.130782,0.05626 2.8799994,2.8799994 0 0 1 -0.07734,0.03094 2.8799999,2.8799999 0 0 1 -0.109692,0.03797 2.8799994,2.8799994 0 0 1 -0.15047,0.045 2.8799999,2.8799999 0 0 1 -0.05484,0.01406 2.8799994,2.8799994 0 0 1 -0.16453,0.03516 2.8799999,2.8799999 0 0 1 -0.07313,0.01406 2.8799994,2.8799994 0 0 1 -0.130781,0.01687 2.8799999,2.8799999 0 0 1 -0.09984,0.0098 2.8799999,2.8799999 0 0 1 -0.0071,0.0014 2.8799994,2.8799994 0 0 1 -0.215095,0.0084 2.8799994,2.8799994 0 0 1 -0.222188,-0.0098 2.8799999,2.8799999 0 0 1 -0.09984,-0.0098 2.8799994,2.8799994 0 0 1 -0.13078,-0.01687 2.8799999,2.8799999 0 0 1 -0.07313,-0.01406 2.8799994,2.8799994 0 0 1 -0.164531,-0.03516 2.8799999,2.8799999 0 0 1 -0.05484,-0.01406 2.8799994,2.8799994 0 0 1 -0.150469,-0.045 2.8799999,2.8799999 0 0 1 -0.109692,-0.03797 2.8799994,2.8799994 0 0 1 -0.07734,-0.03094 2.8799999,2.8799999 0 0 1 -0.130782,-0.05626 2.8799994,2.8799994 0 0 1 -0.104064,-0.05063 2.8799999,2.8799999 0 0 1 -0.07876,-0.04218 2.8799994,2.8799994 0 0 1 -0.120939,-0.07172 2.8799999,2.8799999 0 0 1 -0.08297,-0.05203 2.8799994,2.8799994 0 0 1 -0.109692,-0.07874 2.8799999,2.8799999 0 0 1 -0.07172,-0.05344 2.8799994,2.8799994 0 0 1 -0.101256,-0.08437 2.8799999,2.8799999 0 0 1 -0.07594,-0.0661 2.8799994,2.8799994 0 0 1 -0.160313,-0.160313 2.8799999,2.8799999 0 0 1 -0.05766,-0.0675 2.8799994,2.8799994 0 0 1 -0.08437,-0.101256 2.8799999,2.8799999 0 0 1 -0.05344,-0.07172 2.8799994,2.8799994 0 0 1 -0.07876,-0.109692 2.8799999,2.8799999 0 0 1 -0.05203,-0.08297 2.8799994,2.8799994 0 0 1 -0.07172,-0.120937 2.8799999,2.8799999 0 0 1 -0.04218,-0.07874 2.8799994,2.8799994 0 0 1 -0.05063,-0.104064 2.8799999,2.8799999 0 0 1 -0.05626,-0.130781 2.8799994,2.8799994 0 0 1 -0.03094,-0.07734 2.8799999,2.8799999 0 0 1 -0.03797,-0.109692 2.8799994,2.8799994 0 0 1 -0.045,-0.150469 2.8799999,2.8799999 0 0 1 -0.01406,-0.05484 2.8799994,2.8799994 0 0 1 -0.03516,-0.164531 2.8799999,2.8799999 0 0 1 -0.01406,-0.07313 2.8799994,2.8799994 0 0 1 -0.01687,-0.13078 2.8799999,2.8799999 0 0 1 -0.0098,-0.09984 2.8799994,2.8799994 0 0 1 -0.0098,-0.222186 2.8799994,2.8799994 0 0 1 0.0098,-0.222189 2.8799999,2.8799999 0 0 1 0.0098,-0.09984 2.8799994,2.8799994 0 0 1 0.01687,-0.130781 2.8799999,2.8799999 0 0 1 0.01406,-0.07313 2.8799994,2.8799994 0 0 1 0.03516,-0.16453 2.8799999,2.8799999 0 0 1 0.01406,-0.05484 2.8799994,2.8799994 0 0 1 0.045,-0.15047 2.8799999,2.8799999 0 0 1 0.03797,-0.109692 2.8799994,2.8799994 0 0 1 0.03094,-0.07734 2.8799999,2.8799999 0 0 1 0.05626,-0.13078 2.8799994,2.8799994 0 0 1 0.05063,-0.104064 2.8799999,2.8799999 0 0 1 0.04218,-0.07876 2.8799994,2.8799994 0 0 1 0.07172,-0.120938 2.8799999,2.8799999 0 0 1 0.05203,-0.08297 2.8799994,2.8799994 0 0 1 0.07876,-0.109692 2.8799999,2.8799999 0 0 1 0.05344,-0.07172 2.8799994,2.8799994 0 0 1 0.08437,-0.101244 2.8799999,2.8799999 0 0 1 0.0661,-0.07594 2.8799994,2.8799994 0 0 1 0.160314,-0.160311 2.8799999,2.8799999 0 0 1 0.0675,-0.05766 2.8799994,2.8799994 0 0 1 0.101244,-0.08437 2.8799999,2.8799999 0 0 1 0.07172,-0.05344 2.8799994,2.8799994 0 0 1 0.109692,-0.07876 2.8799999,2.8799999 0 0 1 0.08297,-0.05203 2.8799994,2.8799994 0 0 1 0.120939,-0.07172 2.8799999,2.8799999 0 0 1 0.07874,-0.04218 2.8799994,2.8799994 0 0 1 0.104064,-0.05063 2.8799999,2.8799999 0 0 1 0.130782,-0.05626 2.8799994,2.8799994 0 0 1 0.07734,-0.03094 2.8799999,2.8799999 0 0 1 0.109692,-0.03797 2.8799994,2.8799994 0 0 1 0.150469,-0.045 2.8799999,2.8799999 0 0 1 0.05484,-0.01406 2.8799994,2.8799994 0 0 1 0.164531,-0.03516 2.8799999,2.8799999 0 0 1 0.07313,-0.01406 2.8799994,2.8799994 0 0 1 0.130781,-0.01687 2.8799999,2.8799999 0 0 1 0.09984,-0.0098 2.8799994,2.8799994 0 0 1 0.222186,-0.0098 z" />
  <path
     id="path7246-2"
     style="opacity:0.5;fill:url(#linearGradient10226);fill-opacity:1;stroke-width:6.47998;stroke-linecap:round;stroke-linejoin:round"
     d="m 20.772809,36.876088 c -3.578806,-1e-6 -6.48,2.901194 -6.48,6.48 -3e-6,3.578807 2.901193,6.48 6.48,6.48 3.578805,0 6.480002,-2.901194 6.48,-6.48 0,-3.578806 -2.901195,-6.48 -6.48,-6.48 z m 0,0.72 c 3.181159,10e-7 5.76,2.578841 5.76,5.76 0,3.181159 -2.578841,5.76 -5.76,5.76 -3.181161,0 -5.760002,-2.57884 -5.76,-5.76 0,-3.18116 2.578839,-5.760001 5.76,-5.76 z" />
  <path
     id="path151229-7"
     style="opacity:0.5;fill:url(#linearGradient11943);fill-opacity:1;stroke-width:1.78966;stroke-linecap:round;stroke-linejoin:round"
     d="m 2.9556217,33.922964 c -1.493707,2.815185 -2.34281302,6.024129 -2.34281302,9.433124 0,3.408996 0.84910602,6.617939 2.34281302,9.433124 L 13.624841,47.140306 c -0.620835,-1.164833 -0.947776,-2.464273 -0.952032,-3.784218 0.0043,-1.319945 0.331197,-2.619384 0.952032,-3.784218 z" />
  <path
     id="path151229-2"
     style="fill:#d0d0d0;fill-opacity:1;stroke-width:1.67034;stroke-linecap:round;stroke-linejoin:round"
     d="m 20.772809,23.196088 c -11.1340491,1e-6 -20.15999932,9.025951 -20.16000032,20.16 0,11.13405 9.02595002,20.159999 20.16000032,20.16 11.13405,0 20.16,-9.02595 20.16,-20.16 -10e-7,-11.13405 -9.02595,-20.16 -20.16,-20.16 z m 0,0.72 c 10.736404,1e-6 19.439999,8.703596 19.44,19.44 0,10.736405 -8.703595,19.439999 -19.44,19.44 -10.736405,-10e-7 -19.4400003,-8.703595 -19.4400003,-19.44 1e-6,-10.736404 8.7035953,-19.439999 19.4400003,-19.44 z" />
</svg>
