<?xml version="1.0" encoding="UTF-8" standalone="no"?>
<!-- Created with Inkscape (http://www.inkscape.org/) -->

<svg
   width="64"
   height="64"
   viewBox="0 0 64 64"
   version="1.1"
   id="svg2112"
   inkscape:version="1.3.2 (091e20e, 2023-11-25)"
   sodipodi:docname="org.xfce.xfwm4-tweaks.svg"
   xmlns:inkscape="http://www.inkscape.org/namespaces/inkscape"
   xmlns:sodipodi="http://sodipodi.sourceforge.net/DTD/sodipodi-0.dtd"
   xmlns="http://www.w3.org/2000/svg"
   xmlns:svg="http://www.w3.org/2000/svg">
  <sodipodi:namedview
     id="namedview2114"
     pagecolor="#ffffff"
     bordercolor="#000000"
     borderopacity="0.25"
     inkscape:showpageshadow="2"
     inkscape:pageopacity="0.0"
     inkscape:pagecheckerboard="0"
     inkscape:deskcolor="#d1d1d1"
     inkscape:document-units="px"
     showgrid="false"
     inkscape:zoom="6.265625"
     inkscape:cx="3.5910224"
     inkscape:cy="26.413965"
     inkscape:window-width="1680"
     inkscape:window-height="994"
     inkscape:window-x="0"
     inkscape:window-y="25"
     inkscape:window-maximized="1"
     inkscape:current-layer="svg2112" />
  <defs
     id="defs2109">
    <linearGradient
       id="linear0"
       gradientUnits="userSpaceOnUse"
       x1="22.2703"
       y1="11.7297"
       x2="9.6459999"
       y2="24.354"
       gradientTransform="matrix(2,0,0,-2,0,68)">
      <stop
         offset="0"
         style="stop-color:rgb(100%,100%,100%);stop-opacity:1;"
         id="stop1" />
      <stop
         offset="0.242"
         style="stop-color:rgb(94.901961%,94.901961%,94.901961%);stop-opacity:1;"
         id="stop2" />
      <stop
         offset="1"
         style="stop-color:rgb(80%,80%,80%);stop-opacity:1;"
         id="stop3" />
    </linearGradient>
    <linearGradient
       id="linear1"
       gradientUnits="userSpaceOnUse"
       x1="10.3857"
       y1="23.6143"
       x2="20.234301"
       y2="13.7657"
       gradientTransform="matrix(2,0,0,-2,0,68)">
      <stop
         offset="0.2291"
         style="stop-color:rgb(2.352941%,41.176471%,73.72549%);stop-opacity:1;"
         id="stop4" />
      <stop
         offset="0.8045"
         style="stop-color:rgb(6.27451%,30.588235%,56.862745%);stop-opacity:1;"
         id="stop5" />
    </linearGradient>
    <linearGradient
       id="linear2"
       gradientUnits="userSpaceOnUse"
       x1="1.1849"
       y1="32.736698"
       x2="27.172701"
       y2="6.7490001"
       gradientTransform="matrix(2,0,0,-2,0,68)">
      <stop
         offset="0.1453"
         style="stop-color:rgb(54.117647%,56.862745%,59.607843%);stop-opacity:1;"
         id="stop6" />
      <stop
         offset="0.8939"
         style="stop-color:rgb(38.823529%,43.921569%,48.235294%);stop-opacity:1;"
         id="stop7" />
    </linearGradient>
  </defs>
  <path
     d="M 16,9 H 55.999998 C 58.215999,9 60,10.784 60,13 V 43.000002 C 60,45.215999 58.215999,47 55.999998,47 H 16 c -2.216,0 -4,-1.784001 -4,-3.999998 V 13 c 0,-2.216 1.784,-4 4,-4 z"
     style="fill:#797774;stroke-width:0.811967;stroke-linecap:round;stroke-linejoin:round"
     id="path3442" />
  <path
     d="m 14.999998,13 c -1.108001,0 -2,0.892 -2,2 v 28 c 0,1.662002 1.338,3 3,3 h 40 c 1.661998,0 3,-1.337998 3,-3 V 15 c 0,-1.108 -0.892001,-2 -2,-2 z"
     style="fill:#ffffff;fill-opacity:1;stroke-width:0.789524;stroke-linecap:round;stroke-linejoin:round"
     id="path3475" />
  <path
     d="m 46.999995,10 v 2.000001 h 2.000002 V 10 Z m 4.000003,0 v 2.000001 h 2.000001 V 10 Z m 3.999999,0 v 2.000001 h 2.000001 V 10 Z"
     style="fill:#c4c4c4;fill-opacity:1;stroke-width:3;stroke-linecap:round;stroke-linejoin:round"
     id="path3508" />
  <path
     id="rect261617"
     style="fill:#797774;stroke-width:0.811967;stroke-linecap:round;stroke-linejoin:round"
     d="M 8,17 H 47.999998 C 50.215999,17 52,18.784 52,21 V 51.000002 C 52,53.215999 50.215999,55 47.999998,55 H 8 C 5.7840001,55 4,53.215999 4,51.000002 V 21 c 0,-2.216 1.7840001,-4 4,-4 z"
     sodipodi:nodetypes="sssssssss" />
  <path
     id="rect261619"
     style="fill:#ffffff;fill-opacity:1;stroke-width:0.789524;stroke-linecap:round;stroke-linejoin:round"
     d="m 6.9999999,21 c -1.1080002,0 -2,0.892 -2,2 v 28 c 0,1.662002 1.338,3 3,3 H 48 c 1.661998,0 3,-1.337998 3,-3 V 23 c 0,-1.108 -0.892001,-2 -2,-2 z"
     sodipodi:nodetypes="sssssssss" />
  <path
     id="rect1066"
     style="fill:#c4c4c4;fill-opacity:1;stroke-width:3;stroke-linecap:round;stroke-linejoin:round"
     d="M 37.999999,17.999999 V 20 h 2.000002 v -2.000001 z m 4.000003,0 V 20 h 2.000001 v -2.000001 z m 3.999999,0 V 20 h 2.000001 v -2.000001 z"
     sodipodi:nodetypes="ccccccccccccccc" />
  <g
     id="surface1"
     transform="matrix(0.36,0,0,0.36,16.098622,26.013968)">
    <path
       style="fill:url(#linear0);fill-rule:nonzero;stroke:none"
       d="m 50,32 c 0,9.941406 -8.058594,18 -18,18 -9.941406,0 -18,-8.058594 -18,-18 0,-9.941406 8.058594,-18 18,-18 9.941406,0 18,8.058594 18,18 z m 0,0"
       id="path7" />
    <path
       style="fill:url(#linear1);fill-rule:nonzero;stroke:none"
       d="m 44,32 c 0,6.628906 -5.371094,12 -12,12 -6.628906,0 -12,-5.371094 -12,-12 0,-6.628906 5.371094,-12 12,-12 6.628906,0 12,5.371094 12,12 z m 0,0"
       id="path8" />
    <path
       style="fill:url(#linear2);fill-rule:nonzero;stroke:none"
       d="m 63.050781,24.636719 c -3.933593,-0.02734 -7.566406,-2.117188 -9.574219,-5.5 -1.898437,-3.234375 -2,-7.21875 -0.257812,-10.542969 C 49.773438,5.570312 45.71875,3.324219 41.332031,2 39.234375,5.09375 35.738281,6.941406 32,6.929688 28.261719,6.941406 24.765625,5.09375 22.671875,2 18.28125,3.324219 14.226562,5.570312 10.78125,8.59375 c 1.742188,3.324219 1.644531,7.308594 -0.257812,10.542969 -2.007813,3.382812 -5.640626,5.472656 -9.574219,5.5 -1.128907,4.378906 -1.253907,8.960937 -0.367188,13.398437 4.066407,-0.09766 7.867188,2.007813 9.941407,5.507813 C 12.636719,47.144531 12.5,51.640625 10.167969,55.109375 13.546875,58.222656 17.550781,60.570312 21.914062,62 23.816406,58.167969 27.722656,55.746094 32,55.746094 c 4.277344,0 8.183594,2.421875 10.085938,6.253906 4.363281,-1.429688 8.367187,-3.777344 11.742187,-6.890625 -2.332031,-3.464844 -2.46875,-7.960937 -0.351563,-11.566406 2.070313,-3.5 5.875,-5.605469 9.941407,-5.507813 0.882812,-4.4375 0.757812,-9.015625 -0.367188,-13.398437 z M 32,48 c -8.835938,0 -16,-7.164062 -16,-16 0,-8.835938 7.164062,-16 16,-16 8.835938,0 16,7.164062 16,16 0,8.835938 -7.164062,16 -16,16 z m 0,0"
       id="path9" />
  </g>
</svg>
