<?xml version="1.0" encoding="UTF-8" standalone="no"?>
<!-- Created with Inkscape (http://www.inkscape.org/) -->

<svg
   width="64"
   height="64"
   viewBox="0 0 64 64"
   version="1.1"
   id="svg5"
   inkscape:version="1.3.2 (091e20e, 2023-11-25)"
   sodipodi:docname="folder-recent.svg"
   xmlns:inkscape="http://www.inkscape.org/namespaces/inkscape"
   xmlns:sodipodi="http://sodipodi.sourceforge.net/DTD/sodipodi-0.dtd"
   xmlns:xlink="http://www.w3.org/1999/xlink"
   xmlns="http://www.w3.org/2000/svg"
   xmlns:svg="http://www.w3.org/2000/svg">
  <sodipodi:namedview
     id="namedview7"
     pagecolor="#ffffff"
     bordercolor="#000000"
     borderopacity="0.25"
     inkscape:showpageshadow="2"
     inkscape:pageopacity="0.0"
     inkscape:pagecheckerboard="0"
     inkscape:deskcolor="#d1d1d1"
     inkscape:document-units="px"
     showgrid="false"
     inkscape:zoom="18.274291"
     inkscape:cx="12.66807"
     inkscape:cy="47.744671"
     inkscape:window-width="1680"
     inkscape:window-height="994"
     inkscape:window-x="0"
     inkscape:window-y="25"
     inkscape:window-maximized="1"
     inkscape:current-layer="svg5"
     showguides="false" />
  <defs
     id="defs2">
    <linearGradient
       inkscape:collect="always"
       xlink:href="#linearGradient967"
       id="linearGradient970"
       x1="5"
       y1="11.5"
       x2="14"
       y2="11.5"
       gradientUnits="userSpaceOnUse"
       gradientTransform="matrix(0.77777778,0,0,0.77777778,4.6111111,2.5555556)" />
    <linearGradient
       inkscape:collect="always"
       id="linearGradient967">
      <stop
         style="stop-color:#f6f6f6;stop-opacity:0.99607843"
         offset="0"
         id="stop963" />
      <stop
         style="stop-color:#ebebeb;stop-opacity:1"
         offset="1"
         id="stop965" />
    </linearGradient>
  </defs>
  <path
     id="rect846-5"
     style="fill:#7d7d7b;stroke-width:2;stroke-linecap:round;stroke-linejoin:round"
     d="m 23.490927,0.4333481 h 28.5 L 63.490926,11.933348 V 56.43335 H 23.490927 Z"
     sodipodi:nodetypes="cccccc" />
  <path
     id="rect1454-3"
     style="fill:#fafafa;stroke-width:2;stroke-linecap:round;stroke-linejoin:round"
     d="M 24.490927,1.4333481 V 55.433348 h 38 v -42 h -11 c -0.554003,0 -1,-0.446 -1,-1 V 1.4333481 Z m 27,0 V 12.433348 h 11 z"
     sodipodi:nodetypes="ccccsscccccc" />
  <path
     id="rect1748-5"
     style="fill:#999999;fill-opacity:1;stroke-width:2.89827;stroke-linecap:round;stroke-linejoin:round"
     d="m 29.490927,20.433348 v 1 h 20 v -1 z m 0,3 v 1 h 14 v -1 z m 0,3 v 1 h 26 v -1 z m 0,3 v 1 h 28 v -1 z m 0,3 v 1 h 24 v -1 z m 0,3 v 1 h 28 v -1 z m 0,3 v 1 h 18 v -1 z m 0,3 v 1 h 20 v -1 z m 0,3 v 1 h 24 v -1 z m 0,3 v 1 h 12 v -1 z"
     sodipodi:nodetypes="cccccccccccccccccccccccccccccccccccccccccccccccccc" />
  <path
     id="rect846"
     style="fill:#7d7d7b;stroke-width:2;stroke-linecap:round;stroke-linejoin:round"
     d="m 11.58897,7.8052 h 28.5 l 11.499999,11.5 V 63.805202 H 11.58897 Z"
     sodipodi:nodetypes="cccccc" />
  <path
     id="rect1454"
     style="fill:#fafafa;stroke-width:2;stroke-linecap:round;stroke-linejoin:round"
     d="m 12.58897,8.8052 v 54 h 38 v -42 h -11 c -0.554003,0 -1,-0.446 -1,-1 v -11 z m 27,0 v 11 h 11 z"
     sodipodi:nodetypes="ccccsscccccc" />
  <path
     id="rect1748"
     style="fill:#999999;fill-opacity:1;stroke-width:2.89827;stroke-linecap:round;stroke-linejoin:round"
     d="m 17.58897,27.8052 v 1 h 20 v -1 z m 0,3 v 1 h 14 v -1 z m 0,3 v 1 h 26 v -1 z m 0,3 v 1 h 28 v -1 z m 0,3 v 1 h 24 v -1 z m 0,3 v 1 h 28 v -1 z m 0,3 v 1 h 18 v -1 z m 0,3 v 1 h 20 v -1 z m 0,3 v 1 h 24 v -1 z m 0,3 v 1 h 12 v -1 z"
     sodipodi:nodetypes="cccccccccccccccccccccccccccccccccccccccccccccccccc" />
  <g
     id="g16907"
     transform="matrix(4.5752652,0,0,4.5752652,-37.077839,-7.0593794)">
    <circle
       style="fill:url(#linearGradient970);fill-opacity:1;stroke-width:0.777778;stroke-linecap:round;stroke-linejoin:round"
       id="path881"
       cx="12"
       cy="11.5"
       r="3.5" />
    <path
       style="fill:none;fill-opacity:1;stroke:#56b60e;stroke-width:0.5;stroke-linecap:round;stroke-linejoin:round;stroke-miterlimit:4;stroke-dasharray:none;stroke-opacity:1"
       id="circle9301"
       sodipodi:type="arc"
       sodipodi:cx="12.001855"
       sodipodi:cy="11.50002"
       sodipodi:rx="3.7479603"
       sodipodi:ry="3.7479603"
       sodipodi:start="3.6994192"
       sodipodi:end="2.8797933"
       sodipodi:open="true"
       sodipodi:arc-type="arc"
       d="m 8.8220568,9.5160617 a 3.7479603,3.7479603 0 0 1 4.4752412,-1.5330055 3.7479603,3.7479603 0 0 1 2.411537,4.0696898 3.7479603,3.7479603 0 0 1 -3.493863,3.18917 3.7479603,3.7479603 0 0 1 -3.8333688,-2.771853" />
    <rect
       style="fill:#56b60e;fill-opacity:1;stroke:none;stroke-width:0.433012;stroke-linecap:round;stroke-linejoin:round;stroke-opacity:1"
       id="rect14883"
       width="3"
       height="0.5"
       x="-10"
       y="8.5"
       ry="0.25"
       transform="rotate(-90)" />
    <rect
       style="fill:#56b60e;fill-opacity:1;stroke:none;stroke-width:0.433012;stroke-linecap:round;stroke-linejoin:round;stroke-opacity:1"
       id="rect16202"
       width="3"
       height="0.5"
       x="8.5"
       y="9.5"
       ry="0.25" />
    <rect
       style="fill:#191919;fill-opacity:1;stroke:none;stroke-width:0.395284;stroke-linecap:round;stroke-linejoin:round;stroke-opacity:1"
       id="rect16467"
       width="2.5"
       height="0.5"
       x="-12"
       y="12"
       ry="0.25"
       transform="rotate(-90)" />
    <rect
       style="fill:#191919;fill-opacity:1;stroke:none;stroke-width:0.395284;stroke-linecap:round;stroke-linejoin:round;stroke-opacity:1"
       id="rect16797"
       width="2.5"
       height="0.5"
       x="-19.229147"
       y="0.095290415"
       ry="0.25"
       transform="rotate(-135)" />
  </g>
</svg>
