<?xml version="1.0" encoding="UTF-8"?>
<svg xmlns="http://www.w3.org/2000/svg" xmlns:xlink="http://www.w3.org/1999/xlink" width="64px" height="64px" viewBox="0 0 64 64" version="1.1">
<g id="surface1">
<path style=" stroke:none;fill-rule:nonzero;fill:rgb(41.568627%,76.078431%,34.901961%);fill-opacity:1;" d="M 57.667969 33.054688 C 55.46875 33.054688 53.535156 34.175781 52.402344 35.871094 C 52.398438 35.878906 52.390625 35.886719 52.386719 35.890625 C 52.355469 35.941406 52.320312 35.992188 52.289062 36.046875 C 51.984375 36.472656 51.480469 36.75 50.914062 36.75 C 49.984375 36.75 49.226562 35.996094 49.226562 35.066406 L 49.226562 14.769531 L 28.933594 14.769531 C 28.003906 14.769531 27.246094 14.015625 27.246094 13.082031 C 27.246094 12.503906 27.539062 11.992188 27.980469 11.691406 C 28.027344 11.65625 28.078125 11.625 28.132812 11.597656 C 29.828125 10.457031 30.941406 8.523438 30.941406 6.332031 C 30.941406 2.832031 28.113281 0 24.613281 0 C 21.117188 0 18.285156 2.832031 18.285156 6.332031 C 18.285156 8.53125 19.402344 10.460938 21.097656 11.597656 C 21.105469 11.601562 21.113281 11.605469 21.117188 11.609375 C 21.171875 11.644531 21.21875 11.675781 21.273438 11.710938 C 21.703125 12.015625 21.980469 12.515625 21.980469 13.082031 C 21.980469 14.015625 21.226562 14.769531 20.296875 14.769531 L 0 14.769531 L 0 35.070312 C 0 35.996094 0.753906 36.75 1.6875 36.75 C 2.253906 36.75 2.753906 36.472656 3.058594 36.046875 C 3.09375 35.992188 3.128906 35.941406 3.160156 35.890625 C 3.164062 35.886719 3.167969 35.878906 3.175781 35.871094 C 4.308594 34.175781 6.242188 33.054688 8.441406 33.054688 C 11.9375 33.054688 14.769531 35.886719 14.769531 39.386719 C 14.769531 42.882812 11.9375 45.714844 8.441406 45.714844 C 6.246094 45.714844 4.3125 44.601562 3.175781 42.90625 C 3.144531 42.851562 3.113281 42.800781 3.082031 42.753906 C 2.777344 42.308594 2.265625 42.019531 1.6875 42.019531 C 0.753906 42.019531 0 42.773438 0 43.707031 L 0 64 L 20.296875 64 C 21.226562 64 21.980469 63.242188 21.980469 62.3125 C 21.980469 61.746094 21.703125 61.242188 21.277344 60.9375 C 21.222656 60.90625 21.171875 60.871094 21.121094 60.839844 C 21.117188 60.832031 21.109375 60.828125 21.101562 60.824219 C 19.402344 59.691406 18.285156 57.757812 18.285156 55.558594 C 18.285156 52.0625 21.117188 49.230469 24.617188 49.230469 C 28.113281 49.230469 30.945312 52.0625 30.945312 55.558594 C 30.945312 57.753906 29.832031 59.683594 28.136719 60.824219 C 28.078125 60.855469 28.03125 60.882812 27.984375 60.917969 C 27.539062 61.222656 27.25 61.730469 27.25 62.308594 C 27.25 63.242188 28.003906 64 28.9375 64 L 49.230469 64 L 49.230469 43.707031 C 49.230469 42.773438 49.984375 42.019531 50.917969 42.019531 C 51.496094 42.019531 52.007812 42.308594 52.3125 42.753906 C 52.34375 42.796875 52.375 42.847656 52.402344 42.902344 C 53.542969 44.601562 55.476562 45.714844 57.671875 45.714844 C 61.167969 45.714844 64 42.882812 64 39.382812 C 63.996094 35.886719 61.164062 33.054688 57.667969 33.054688 Z M 57.667969 33.054688 "/>
</g>
</svg>
