<?xml version="1.0" encoding="UTF-8"?>
<svg xmlns="http://www.w3.org/2000/svg" xmlns:xlink="http://www.w3.org/1999/xlink" width="16px" height="16px" viewBox="0 0 16 16" version="1.1">
<defs>
<linearGradient id="linear0" gradientUnits="userSpaceOnUse" x1="22.3571" y1="7" x2="32.6923" y2="52.8439" gradientTransform="matrix(0.25,0,0,0.25,0,0)">
<stop offset="0" style="stop-color:rgb(14.901961%,20.392157%,23.529412%);stop-opacity:1;"/>
<stop offset="0.45" style="stop-color:rgb(10.196078%,14.509804%,18.823529%);stop-opacity:1;"/>
<stop offset="1" style="stop-color:rgb(7.058824%,9.803922%,12.54902%);stop-opacity:1;"/>
</linearGradient>
<linearGradient id="linear1" gradientUnits="userSpaceOnUse" x1="5" y1="53" x2="59" y2="53" gradientTransform="matrix(0.25,0,0,0.25,0,0)">
<stop offset="0" style="stop-color:rgb(8.627451%,11.372549%,14.117647%);stop-opacity:1;"/>
<stop offset="0.5" style="stop-color:rgb(3.137255%,7.058824%,10.980392%);stop-opacity:1;"/>
<stop offset="1" style="stop-color:rgb(7.058824%,9.803922%,12.54902%);stop-opacity:1;"/>
</linearGradient>
<linearGradient id="linear2" gradientUnits="userSpaceOnUse" x1="5" y1="7" x2="59" y2="7" gradientTransform="matrix(0.25,0,0,0.25,0,0)">
<stop offset="0" style="stop-color:rgb(25.882353%,32.941176%,37.254902%);stop-opacity:1;"/>
<stop offset="0.5" style="stop-color:rgb(20%,27.058824%,31.764706%);stop-opacity:1;"/>
<stop offset="1" style="stop-color:rgb(15.686275%,21.568627%,25.882353%);stop-opacity:1;"/>
</linearGradient>
<linearGradient id="linear3" gradientUnits="userSpaceOnUse" x1="41.1979" y1="10.1653" x2="4.07205" y2="36.0476" gradientTransform="matrix(0.25,0,0,0.25,0,0)">
<stop offset="0" style="stop-color:rgb(10.196078%,73.72549%,61.176471%);stop-opacity:1;"/>
<stop offset="1" style="stop-color:rgb(16.078431%,50.196078%,72.54902%);stop-opacity:1;"/>
</linearGradient>
<filter id="alpha" filterUnits="objectBoundingBox" x="0%" y="0%" width="100%" height="100%">
  <feColorMatrix type="matrix" in="SourceGraphic" values="0 0 0 0 1 0 0 0 0 1 0 0 0 0 1 0 0 0 1 0"/>
</filter>
<mask id="mask0">
  <g filter="url(#alpha)">
<rect x="0" y="0" width="16" height="16" style="fill:rgb(0%,0%,0%);fill-opacity:0.501961;stroke:none;"/>
  </g>
</mask>
<clipPath id="clip1">
  <rect x="0" y="0" width="16" height="16"/>
</clipPath>
<g id="surface5" clip-path="url(#clip1)">
<path style=" stroke:none;fill-rule:nonzero;fill:rgb(23.921569%,68.235294%,91.372549%);fill-opacity:1;" d="M 10.5 6 C 10.5 7.378906 9.378906 8.5 8 8.5 C 6.621094 8.5 5.5 7.378906 5.5 6 C 5.5 4.621094 6.621094 3.5 8 3.5 C 9.378906 3.5 10.5 4.621094 10.5 6 Z M 10.5 6 "/>
</g>
<linearGradient id="linear4" gradientUnits="userSpaceOnUse" x1="34.0718" y1="21.6146" x2="34.0718" y2="59.0033" gradientTransform="matrix(0.25,0,0,0.25,0,0)">
<stop offset="0" style="stop-color:rgb(98.823529%,80.784314%,75.294118%);stop-opacity:1;"/>
<stop offset="1" style="stop-color:rgb(78.823529%,51.372549%,31.372549%);stop-opacity:1;"/>
</linearGradient>
<linearGradient id="linear5" gradientUnits="userSpaceOnUse" x1="34.6875" y1="40.7672" x2="34.6875" y2="59.0029" gradientTransform="matrix(0.25,0,0,0.25,0,0)">
<stop offset="0" style="stop-color:rgb(66.27451%,39.607843%,20.784314%);stop-opacity:0;"/>
<stop offset="1" style="stop-color:rgb(66.27451%,39.607843%,20.784314%);stop-opacity:1;"/>
</linearGradient>
<mask id="mask1">
  <g filter="url(#alpha)">
<rect x="0" y="0" width="16" height="16" style="fill:rgb(0%,0%,0%);fill-opacity:0.501961;stroke:none;"/>
  </g>
</mask>
<linearGradient id="linear6" gradientUnits="userSpaceOnUse" x1="34.6875" y1="21.8599" x2="34.6875" y2="46.5" gradientTransform="matrix(0.25,0,0,0.25,0,0)">
<stop offset="0" style="stop-color:rgb(100%,100%,100%);stop-opacity:1;"/>
<stop offset="1" style="stop-color:rgb(100%,100%,100%);stop-opacity:0.501961;"/>
</linearGradient>
<linearGradient id="linear7" gradientUnits="userSpaceOnUse" x1="34.6875" y1="21.8599" x2="34.6875" y2="46.5" gradientTransform="matrix(0.25,0,0,0.25,0,0)">
<stop offset="0" style="stop-color:rgb(100%,100%,100%);stop-opacity:1;"/>
<stop offset="1" style="stop-color:rgb(100%,100%,100%);stop-opacity:0.501961;"/>
</linearGradient>
<linearGradient id="linear8" gradientUnits="userSpaceOnUse" x1="34.6875" y1="21.8599" x2="34.6875" y2="46.5" gradientTransform="matrix(0.25,0,0,0.25,0,0)">
<stop offset="0" style="stop-color:rgb(100%,100%,100%);stop-opacity:1;"/>
<stop offset="1" style="stop-color:rgb(100%,100%,100%);stop-opacity:0.501961;"/>
</linearGradient>
<clipPath id="clip2">
  <rect x="0" y="0" width="16" height="16"/>
</clipPath>
<g id="surface8" clip-path="url(#clip2)">
<path style=" stroke:none;fill-rule:nonzero;fill:url(#linear6);" d="M 4.5 10.5 C 4.71875 10.171875 5.4375 9.6875 6.75 11 C 7 11.25 7.25 11.375 7.25 11.375 C 7.25 11.375 7 11 6.75 10.75 C 5.046875 9.046875 4.5 10.5 4.5 10.5 Z M 4.5 10.5 "/>
<path style=" stroke:none;fill-rule:nonzero;fill:url(#linear7);" d="M 7.25 6.5 C 7.25 5.25 8.75 5.5 8.75 6.5 L 8.75 6.25 C 8.75 5.25 7.25 5 7.25 6.25 Z M 7.25 6.5 "/>
<path style=" stroke:none;fill-rule:nonzero;fill:url(#linear8);" d="M 8.75 9 C 9.25 8.25 10.25 8.75 10.25 9.5 C 10.75 8.75 11.75 9.25 11.75 10.125 C 12.101562 9.425781 13.105469 9.707031 13.03125 10.96875 C 12.96875 9.921875 12.074219 9.722656 11.75 10.375 C 11.75 9.5 10.75 9 10.25 9.75 C 10.25 9 9.25 8.5 8.75 9.25 Z M 8.75 9 "/>
</g>
</defs>
<g id="surface1">
<path style=" stroke:none;fill-rule:nonzero;fill:url(#linear0);" d="M 1.25 2.75 C 1.25 2.199219 1.699219 1.75 2.25 1.75 L 13.75 1.75 C 14.300781 1.75 14.75 2.199219 14.75 2.75 L 14.75 12.25 C 14.75 12.800781 14.300781 13.25 13.75 13.25 L 2.25 13.25 C 1.699219 13.25 1.25 12.800781 1.25 12.25 Z M 1.25 2.75 "/>
<path style=" stroke:none;fill-rule:nonzero;fill:url(#linear1);" d="M 13.75 13.25 C 14.300781 13.25 14.75 12.800781 14.75 12.25 L 14.75 12 C 14.75 12.550781 14.300781 13 13.75 13 L 2.25 13 C 1.699219 13 1.25 12.550781 1.25 12 L 1.25 12.25 C 1.25 12.800781 1.699219 13.25 2.25 13.25 Z M 13.75 13.25 "/>
<path style=" stroke:none;fill-rule:nonzero;fill:url(#linear2);" d="M 2.25 1.75 C 1.699219 1.75 1.25 2.199219 1.25 2.75 L 1.25 3 C 1.25 2.449219 1.699219 2 2.25 2 L 13.75 2 C 14.300781 2 14.75 2.449219 14.75 3 L 14.75 2.75 C 14.75 2.199219 14.300781 1.75 13.75 1.75 Z M 2.25 1.75 "/>
<path style=" stroke:none;fill-rule:nonzero;fill:url(#linear3);" d="M 2.5 2.75 C 2.363281 2.75 2.25 2.863281 2.25 3 L 2.25 12 C 2.25 12.136719 2.363281 12.25 2.5 12.25 L 13.5 12.25 C 13.636719 12.25 13.75 12.136719 13.75 12 L 13.75 3 C 13.75 2.863281 13.636719 2.75 13.5 2.75 Z M 2.5 2.75 "/>
<use xlink:href="#surface5" mask="url(#mask0)"/>
<path style=" stroke:none;fill-rule:nonzero;fill:rgb(0%,0%,0%);fill-opacity:0.4;" d="M 10 6 C 10 7.105469 9.105469 8 8 8 C 6.894531 8 6 7.105469 6 6 C 6 4.894531 6.894531 4 8 4 C 9.105469 4 10 4.894531 10 6 Z M 10 6 "/>
<path style=" stroke:none;fill-rule:nonzero;fill:url(#linear4);" d="M 8.339844 14.625 C 9.394531 14.765625 10.707031 14.753906 10.859375 14.75 C 10.871094 14.75 10.878906 14.75 10.890625 14.75 C 11.847656 14.742188 12.589844 14.164062 12.707031 13.257812 L 13 11.25 C 13.25 9.75 12.125 9.375 11.75 10.125 C 11.75 9.25 10.75 8.75 10.25 9.5 C 10.25 8.75 9.25 8.25 8.75 9 L 8.75 6.25 C 8.75 5.25 7.25 5 7.25 6.25 L 7.25 11.375 C 7.25 11.375 7 11 6.75 10.75 C 5.046875 9.046875 4.5 10.5 4.5 10.5 C 5.5 11.25 6.464844 14.375 8.339844 14.625 Z M 8.339844 14.625 "/>
<path style=" stroke:none;fill-rule:evenodd;fill:url(#linear5);" d="M 8.339844 14.375 C 9.394531 14.515625 10.707031 14.503906 10.859375 14.5 C 10.871094 14.5 10.878906 14.5 10.890625 14.5 C 11.828125 14.492188 12.597656 13.929688 12.738281 13.054688 L 12.707031 13.257812 C 12.589844 14.164062 11.847656 14.742188 10.890625 14.75 C 10.878906 14.75 10.871094 14.75 10.859375 14.75 C 10.707031 14.753906 9.394531 14.765625 8.339844 14.625 C 7.136719 14.464844 6.308594 13.121094 5.605469 11.980469 C 5.210938 11.34375 4.859375 10.769531 4.5 10.5 C 4.828125 10.792969 5.246094 11.148438 5.605469 11.730469 C 6.308594 12.871094 7.136719 14.214844 8.339844 14.375 Z M 12.738281 13.054688 L 12.746094 13 C 12.742188 13.019531 12.742188 13.035156 12.738281 13.054688 Z M 12.738281 13.054688 "/>
<use xlink:href="#surface8" mask="url(#mask1)"/>
</g>
</svg>
