<?xml version="1.0" encoding="UTF-8"?>
<svg xmlns="http://www.w3.org/2000/svg" xmlns:xlink="http://www.w3.org/1999/xlink" width="16px" height="16px" viewBox="0 0 16 16" version="1.1">
<g id="surface1">
<path style=" stroke:none;fill-rule:nonzero;fill:rgb(70.196078%,4.313725%,0%);fill-opacity:1;" d="M 1 6.066406 C 1 4.292969 1 3.40625 1.34375 2.730469 C 1.648438 2.132812 2.132812 1.648438 2.730469 1.34375 C 3.40625 1 4.292969 1 6.066406 1 L 9.933594 1 C 11.707031 1 12.59375 1 13.269531 1.34375 C 13.867188 1.648438 14.351562 2.132812 14.65625 2.730469 C 15 3.40625 15 4.292969 15 6.066406 L 15 9.933594 C 15 11.707031 15 12.59375 14.65625 13.269531 C 14.351562 13.867188 13.867188 14.351562 13.269531 14.65625 C 12.59375 15 11.707031 15 9.933594 15 L 6.066406 15 C 4.292969 15 3.40625 15 2.730469 14.65625 C 2.132812 14.351562 1.648438 13.867188 1.34375 13.269531 C 1 12.59375 1 11.707031 1 9.933594 Z M 1 6.066406 "/>
<path style=" stroke:none;fill-rule:nonzero;fill:rgb(100%,100%,100%);fill-opacity:1;" d="M 12.019531 8.949219 C 11.367188 8.230469 9.585938 8.546875 9.15625 8.589844 C 8.542969 7.964844 8.113281 7.253906 7.941406 6.984375 C 8.15625 6.3125 8.332031 5.554688 8.332031 4.839844 C 8.332031 4.167969 8.070312 3.5 7.378906 3.5 C 7.117188 3.5 6.898438 3.632812 6.769531 3.859375 C 6.464844 4.394531 6.59375 5.464844 7.074219 6.578125 C 6.8125 7.386719 6.375 8.589844 5.859375 9.527344 C 5.160156 9.792969 3.640625 10.503906 3.511719 11.3125 C 3.46875 11.535156 3.554688 11.804688 3.730469 11.9375 C 3.902344 12.117188 4.121094 12.164062 4.339844 12.164062 C 5.25 12.164062 6.164062 10.871094 6.816406 9.703125 C 7.339844 9.527344 8.164062 9.257812 8.992188 9.121094 C 9.945312 10.019531 10.816406 10.148438 11.25 10.148438 C 11.863281 10.148438 12.078125 9.878906 12.160156 9.65625 C 12.277344 9.441406 12.195312 9.128906 12.019531 8.949219 Z M 11.410156 9.398438 C 11.367188 9.574219 11.148438 9.753906 10.757812 9.664062 C 10.277344 9.53125 9.847656 9.308594 9.496094 8.992188 C 9.804688 8.949219 10.539062 8.859375 11.0625 8.949219 C 11.234375 8.992188 11.453125 9.128906 11.410156 9.398438 Z M 7.195312 4.039062 C 7.238281 3.949219 7.324219 3.902344 7.410156 3.902344 C 7.628906 3.902344 7.671875 4.171875 7.671875 4.394531 C 7.628906 4.933594 7.542969 5.511719 7.367188 6.003906 C 7.019531 5.023438 7.0625 4.304688 7.195312 4.039062 Z M 7.148438 9.082031 C 7.367188 8.679688 7.628906 7.925781 7.714844 7.65625 C 7.933594 8.058594 8.328125 8.507812 8.5 8.726562 C 8.542969 8.6875 7.761719 8.859375 7.148438 9.082031 Z M 5.671875 10.113281 C 5.070312 11.09375 4.503906 11.722656 4.152344 11.722656 C 4.109375 11.722656 4.023438 11.722656 3.980469 11.675781 C 3.9375 11.585938 3.890625 11.496094 3.9375 11.40625 C 3.980469 11.046875 4.675781 10.554688 5.671875 10.113281 Z M 5.671875 10.113281 "/>
</g>
</svg>
