<?xml version="1.0" encoding="UTF-8"?>
<svg xmlns="http://www.w3.org/2000/svg" xmlns:xlink="http://www.w3.org/1999/xlink" width="16px" height="16px" viewBox="0 0 16 16" version="1.1">
<g id="surface1">
<path style=" stroke:none;fill-rule:nonzero;fill:rgb(100%,100%,100%);fill-opacity:1;" d="M 16 8 C 16 12.417969 12.417969 16 8 16 C 3.582031 16 0 12.417969 0 8 C 0 3.582031 3.582031 0 8 0 C 12.417969 0 16 3.582031 16 8 Z M 16 8 "/>
<path style=" stroke:none;fill-rule:nonzero;fill:rgb(40.392157%,20%,59.607843%);fill-opacity:1;" d="M 8.121094 0 L 8.1875 0 L 7.972656 0.0195312 C 9.316406 0.0273438 10.664062 0.355469 11.84375 1 C 13.371094 1.832031 14.617188 3.171875 15.320312 4.757812 C 15.78125 5.792969 16.023438 6.929688 16 8.0625 C 16.003906 9.902344 15.3125 11.726562 14.117188 13.125 C 12.394531 13.34375 10.613281 13.476562 8.914062 13.027344 C 7.910156 12.777344 7.015625 12.132812 6.441406 11.273438 C 5.859375 10.25 6.058594 8.828125 6.941406 8.03125 C 7.554688 7.476562 8.441406 7.242188 9.253906 7.421875 C 9.96875 7.566406 10.605469 8.03125 10.976562 8.660156 C 11.335938 8.472656 11.691406 8.28125 12.050781 8.09375 C 11.796875 7.667969 11.484375 7.273438 11.09375 6.964844 C 10.4375 6.449219 9.601562 6.167969 8.765625 6.144531 C 7.96875 6.132812 7.175781 6.371094 6.519531 6.820312 C 5.195312 7.71875 4.539062 9.496094 4.996094 11.03125 C 5.289062 12.070312 6.058594 12.925781 6.953125 13.503906 C 7.667969 13.960938 8.492188 14.207031 9.320312 14.355469 C 10.457031 14.558594 11.621094 14.484375 12.765625 14.386719 C 12.648438 14.503906 12.476562 14.496094 12.324219 14.523438 C 11.105469 14.703125 9.847656 14.710938 8.640625 14.429688 C 7.480469 14.160156 6.378906 13.59375 5.558594 12.730469 C 4.351562 11.433594 4.066406 9.324219 5.015625 7.804688 C 5.511719 6.996094 6.238281 6.300781 7.144531 5.96875 C 8.128906 5.601562 9.253906 5.605469 10.238281 5.988281 C 10.398438 5.617188 10.574219 5.25 10.730469 4.875 C 9.113281 4.21875 7.179688 4.386719 5.707031 5.335938 C 4.902344 5.851562 4.238281 6.578125 3.757812 7.398438 C 3.222656 8.347656 3.046875 9.476562 3.210938 10.542969 C 3.429688 11.984375 4.21875 13.335938 5.378906 14.226562 C 5.945312 14.667969 6.613281 14.96875 7.300781 15.171875 C 8.1875 15.433594 9.113281 15.546875 10.039062 15.566406 C 10.167969 15.570312 10.300781 15.574219 10.429688 15.59375 C 10.242188 15.6875 10.027344 15.660156 9.828125 15.664062 C 8.730469 15.6875 7.621094 15.519531 6.59375 15.136719 C 5.808594 14.839844 5.070312 14.402344 4.488281 13.796875 C 3.878906 13.195312 3.367188 12.484375 3.070312 11.675781 C 2.722656 10.722656 2.613281 9.671875 2.796875 8.671875 C 3.023438 7.480469 3.707031 6.410156 4.601562 5.601562 C 5.675781 4.628906 7.128906 4.074219 8.582031 4.097656 C 8.582031 3.6875 8.582031 3.28125 8.585938 2.871094 C 7.328125 2.871094 6.074219 3.195312 4.988281 3.828125 C 3.554688 4.65625 2.425781 5.992188 1.828125 7.527344 C 1.390625 8.679688 1.226562 9.964844 1.523438 11.171875 C 1.863281 12.648438 2.804688 13.957031 4.066406 14.796875 C 4.261719 14.941406 4.488281 15.039062 4.679688 15.191406 C 4.589844 15.183594 4.5 15.171875 4.421875 15.132812 C 4.015625 14.9375 3.636719 14.695312 3.273438 14.425781 C 2.625 13.9375 2.011719 13.386719 1.546875 12.714844 C 0.96875 11.914062 0.507812 11.015625 0.257812 10.054688 C 0.015625 9.167969 -0.0390625 8.238281 0.0234375 7.324219 C 0.175781 5.363281 1.105469 3.480469 2.558594 2.148438 C 3.742188 1.054688 5.261719 0.328125 6.863281 0.105469 C 7.277344 0.0390625 7.703125 0.046875 8.121094 0 Z M 8.121094 0 "/>
</g>
</svg>
