<?xml version="1.0" encoding="UTF-8"?>
<svg xmlns="http://www.w3.org/2000/svg" xmlns:xlink="http://www.w3.org/1999/xlink" width="16px" height="16px" viewBox="0 0 16 16" version="1.1">
<defs>
<linearGradient id="linear0" gradientUnits="userSpaceOnUse" x1="3.2173" y1="15" x2="44.7812" y2="15" gradientTransform="matrix(-0.166667,0.288675,-0.288675,-0.166667,18.928203,5.071797)">
<stop offset="0" style="stop-color:rgb(85.098039%,18.823529%,14.509804%);stop-opacity:1;"/>
<stop offset="1" style="stop-color:rgb(91.764706%,26.27451%,20.784314%);stop-opacity:1;"/>
</linearGradient>
<linearGradient id="linear1" gradientUnits="userSpaceOnUse" x1="20.7219" y1="47.6791" x2="41.5039" y2="11.6837" gradientTransform="matrix(-0.166667,-0.288675,0.288675,-0.166667,5.071797,18.928203)">
<stop offset="0" style="stop-color:rgb(98.823529%,78.823529%,20.392157%);stop-opacity:1;"/>
<stop offset="1" style="stop-color:rgb(98.431373%,73.72549%,1.568627%);stop-opacity:1;"/>
</linearGradient>
<linearGradient id="linear2" gradientUnits="userSpaceOnUse" x1="26.5981" y1="46.5015" x2="5.8161" y2="10.506" gradientTransform="matrix(0.333333,0,0,0.333333,0,0)">
<stop offset="0" style="stop-color:rgb(11.764706%,55.686275%,24.313725%);stop-opacity:1;"/>
<stop offset="1" style="stop-color:rgb(20.392157%,65.882353%,32.54902%);stop-opacity:1;"/>
</linearGradient>
</defs>
<g id="surface1">
<path style=" stroke:none;fill-rule:nonzero;fill:url(#linear0);" d="M 8 4 L 14.925781 4 C 13.496094 1.523438 10.855469 0 8 0 C 5.140625 0 2.5 1.523438 1.070312 4 L 4.535156 10 L 4.539062 10 C 3.820312 8.761719 3.820312 7.238281 4.535156 6 C 5.246094 4.761719 6.570312 3.996094 8 4 Z M 8 4 "/>
<path style=" stroke:none;fill-rule:nonzero;fill:url(#linear1);" d="M 11.464844 10 L 8 16 C 10.859375 16 13.5 14.472656 14.929688 12 C 16.359375 9.523438 16.359375 6.472656 14.929688 4 L 8 4 L 8 4.003906 C 9.429688 4 10.75 4.761719 11.464844 6 C 12.183594 7.238281 12.179688 8.761719 11.464844 10 Z M 11.464844 10 "/>
<path style=" stroke:none;fill-rule:nonzero;fill:url(#linear2);" d="M 4.535156 10 L 1.074219 4.003906 C -0.355469 6.476562 -0.355469 9.527344 1.074219 12 C 2.5 14.476562 5.144531 16 8 16 L 11.464844 10 L 11.460938 10 C 10.75 11.238281 9.429688 12.003906 8 12.003906 C 6.570312 12.003906 5.25 11.238281 4.535156 10 Z M 4.535156 10 "/>
<path style=" stroke:none;fill-rule:nonzero;fill:rgb(100%,100%,100%);fill-opacity:1;" d="M 12 8 C 12 10.210938 10.210938 12 8 12 C 5.789062 12 4 10.210938 4 8 C 4 5.789062 5.789062 4 8 4 C 10.210938 4 12 5.789062 12 8 Z M 12 8 "/>
<path style=" stroke:none;fill-rule:nonzero;fill:rgb(10.196078%,45.098039%,90.980392%);fill-opacity:1;" d="M 11.167969 8 C 11.167969 9.75 9.75 11.167969 8 11.167969 C 6.25 11.167969 4.832031 9.75 4.832031 8 C 4.832031 6.25 6.25 4.832031 8 4.832031 C 9.75 4.832031 11.167969 6.25 11.167969 8 Z M 11.167969 8 "/>
</g>
</svg>
