<?xml version="1.0" encoding="UTF-8"?>
<svg xmlns="http://www.w3.org/2000/svg" xmlns:xlink="http://www.w3.org/1999/xlink" width="16px" height="16px" viewBox="0 0 16 16" version="1.1">
<defs>
<clipPath id="clip1">
  <path d="M 1 0 L 16 0 L 16 16 L 1 16 Z M 1 0 "/>
</clipPath>
<clipPath id="clip2">
  <path d="M 16 8.242188 C 16 12.273438 12.730469 15.542969 8.695312 15.542969 C 4.660156 15.542969 1.390625 12.273438 1.390625 8.242188 C 1.390625 4.207031 4.660156 0.9375 8.695312 0.9375 C 12.730469 0.9375 16 4.207031 16 8.242188 Z M 16 8.242188 "/>
</clipPath>
<linearGradient id="linear0" gradientUnits="userSpaceOnUse" x1="-840.8408" y1="67.2565" x2="-490.3613" y2="67.2565" gradientTransform="matrix(-0.0270625,-0.015625,-0.015625,0.0270625,-6.684716,-3.541162)">
<stop offset="0" style="stop-color:rgb(100%,100%,0%);stop-opacity:1;"/>
<stop offset="1" style="stop-color:rgb(100%,100%,0%);stop-opacity:0;"/>
</linearGradient>
<linearGradient id="linear1" gradientUnits="userSpaceOnUse" x1="-28.0669" y1="33.4882" x2="322.4125" y2="33.4882" gradientTransform="matrix(0.0270625,-0.015625,-0.015625,-0.0270625,3.653463,11.884913)">
<stop offset="0" style="stop-color:rgb(0%,100%,100%);stop-opacity:1;"/>
<stop offset="1" style="stop-color:rgb(0%,100%,100%);stop-opacity:0;"/>
</linearGradient>
<linearGradient id="linear2" gradientUnits="userSpaceOnUse" x1="-405.2097" y1="754.2552" x2="-54.7302" y2="754.2552" gradientTransform="matrix(0.000000000000000002,0.03125,0.03125,-0.000000000000000002,-14.875,13.125)">
<stop offset="0" style="stop-color:rgb(100%,0%,100%);stop-opacity:1;"/>
<stop offset="1" style="stop-color:rgb(100%,0%,100%);stop-opacity:0;"/>
</linearGradient>
<linearGradient id="linear3" gradientUnits="userSpaceOnUse" x1="1305.2863" y1="226.0284" x2="1386.0941" y2="145.306" gradientTransform="matrix(0.381437,-0.0393424,-0.0393424,-0.381437,-488.880669,138.183612)">
<stop offset="0" style="stop-color:rgb(20.392157%,20.392157%,20.392157%);stop-opacity:1;"/>
<stop offset="1" style="stop-color:rgb(30.196078%,30.196078%,30.196078%);stop-opacity:1;"/>
</linearGradient>
<linearGradient id="linear4" gradientUnits="userSpaceOnUse" x1="1302.4344" y1="165.9927" x2="1300.8662" y2="248.374" gradientTransform="matrix(0.00426921,0.38343,-0.38343,0.00426921,69.98025,-489.028238)">
<stop offset="0" style="stop-color:rgb(33.333333%,58.823529%,91.764706%);stop-opacity:1;"/>
<stop offset="1" style="stop-color:rgb(33.333333%,58.823529%,91.764706%);stop-opacity:0;"/>
</linearGradient>
</defs>
<g id="surface1">
<g clip-path="url(#clip1)" clip-rule="nonzero">
<g clip-path="url(#clip2)" clip-rule="nonzero">
<path style=" stroke:none;fill-rule:nonzero;fill:rgb(0%,0%,0%);fill-opacity:0.47451;" d="M 16.117188 8.128906 C 16.117188 12.230469 12.792969 15.550781 8.695312 15.550781 C 4.597656 15.550781 1.273438 12.230469 1.273438 8.128906 C 1.273438 4.03125 4.597656 0.707031 8.695312 0.707031 C 12.792969 0.707031 16.117188 4.03125 16.117188 8.128906 Z M 16.117188 8.128906 "/>
</g>
</g>
<path style=" stroke:none;fill-rule:nonzero;fill:rgb(100%,100%,100%);fill-opacity:1;" d="M 16 7.765625 C 16 11.800781 12.730469 15.070312 8.695312 15.070312 C 4.660156 15.070312 1.390625 11.800781 1.390625 7.765625 C 1.390625 3.730469 4.660156 0.460938 8.695312 0.460938 C 12.730469 0.460938 16 3.730469 16 7.765625 Z M 16 7.765625 "/>
<path style=" stroke:none;fill-rule:nonzero;fill:url(#linear0);" d="M 16 7.765625 C 16 11.800781 12.730469 15.070312 8.695312 15.070312 C 4.660156 15.070312 1.390625 11.800781 1.390625 7.765625 C 1.390625 3.730469 4.660156 0.460938 8.695312 0.460938 C 12.730469 0.460938 16 3.730469 16 7.765625 Z M 16 7.765625 "/>
<path style=" stroke:none;fill-rule:nonzero;fill:url(#linear1);" d="M 16 7.765625 C 16 11.800781 12.730469 15.070312 8.695312 15.070312 C 4.660156 15.070312 1.390625 11.800781 1.390625 7.765625 C 1.390625 3.730469 4.660156 0.460938 8.695312 0.460938 C 12.730469 0.460938 16 3.730469 16 7.765625 Z M 16 7.765625 "/>
<path style=" stroke:none;fill-rule:nonzero;fill:url(#linear2);" d="M 16 7.765625 C 16 11.800781 12.730469 15.070312 8.695312 15.070312 C 4.660156 15.070312 1.390625 11.800781 1.390625 7.765625 C 1.390625 3.730469 4.660156 0.460938 8.695312 0.460938 C 12.730469 0.460938 16 3.730469 16 7.765625 Z M 16 7.765625 "/>
<path style=" stroke:none;fill-rule:nonzero;fill:rgb(0%,0%,0%);fill-opacity:0.47451;" d="M 3.449219 2.695312 C 3.027344 3.128906 2.664062 3.617188 2.359375 4.140625 C 3.429688 5.1875 4.578125 6.296875 5.046875 6.800781 C 5.839844 7.65625 7.496094 8.90625 8.699219 8.761719 C 9.175781 9.097656 10.257812 9.847656 10.617188 10.023438 C 10.609375 10.195312 10.644531 10.371094 10.707031 10.546875 C 11.042969 11.492188 12.308594 12.105469 11.574219 13.117188 C 13.023438 12.238281 13.40625 10.773438 12.792969 9.726562 C 12.410156 9.074219 11.851562 8.859375 11.386719 9.015625 C 11.109375 8.703125 10.003906 7.785156 9.597656 7.449219 C 9.335938 6.28125 7.761719 5.078125 6.761719 4.554688 C 6.148438 4.234375 4.746094 3.449219 3.449219 2.695312 Z M 3.449219 2.695312 "/>
<path style=" stroke:none;fill-rule:nonzero;fill:url(#linear3);" d="M 9.609375 8.332031 C 8.441406 9.425781 6.1875 7.691406 5.238281 6.605469 C 4.261719 5.488281 0.613281 1.714844 0.34375 1.46875 C 0.078125 1.222656 -0.132812 0.921875 0.101562 0.621094 C 0.347656 0.328125 0.6875 0.472656 0.984375 0.683594 C 1.277344 0.894531 5.722656 3.6875 7.019531 4.414062 C 8.277344 5.117188 10.4375 6.964844 9.609375 8.332031 Z M 9.609375 8.332031 "/>
<path style=" stroke:none;fill-rule:nonzero;fill:url(#linear4);" d="M 11.488281 9.410156 C 6.921875 13.484375 3.1875 9.582031 2.605469 8.226562 C 2.949219 10.574219 4.53125 12.675781 6.921875 13.484375 C 8.726562 14.097656 11.605469 14.082031 12.898438 11.757812 Z M 11.488281 9.410156 "/>
<path style=" stroke:none;fill-rule:nonzero;fill:rgb(74.901961%,74.901961%,74.901961%);fill-opacity:1;" d="M 11.46875 9.792969 C 11.09375 9.964844 11.136719 10.089844 10.804688 10.035156 C 10.574219 10 8.597656 8.5 8.597656 8.5 C 8.496094 8.257812 8.617188 7.925781 8.84375 7.664062 C 9.050781 7.390625 9.351562 7.203125 9.605469 7.25 C 9.605469 7.25 11.484375 8.878906 11.566406 9.09375 C 11.6875 9.40625 11.558594 9.394531 11.46875 9.792969 Z M 11.46875 9.792969 "/>
<path style=" stroke:none;fill-rule:nonzero;fill:rgb(15.686275%,15.686275%,15.686275%);fill-opacity:1;" d="M 11.570312 13.113281 C 13.046875 12.28125 13.476562 10.828125 12.890625 9.765625 C 12.441406 8.9375 11.695312 8.78125 11.183594 9.179688 C 10.675781 9.578125 10.628906 10.050781 10.78125 10.519531 C 11.089844 11.476562 12.335938 12.128906 11.570312 13.113281 Z M 11.570312 13.113281 "/>
</g>
</svg>
