<?xml version="1.0" encoding="UTF-8"?>
<svg xmlns="http://www.w3.org/2000/svg" xmlns:xlink="http://www.w3.org/1999/xlink" width="16px" height="16px" viewBox="0 0 16 15" version="1.1">
<g id="surface1">
<path style=" stroke:none;fill-rule:nonzero;fill:rgb(12.941176%,63.921569%,40%);fill-opacity:1;" d="M 9.933594 0.929688 L 4.761719 0.929688 C 4.402344 0.929688 4.113281 1.207031 4.113281 1.554688 L 4.113281 4.207031 L 9.933594 7.488281 L 12.847656 8.671875 L 15.757812 7.488281 L 15.757812 4.207031 L 9.933594 0.929688 "/>
<path style=" stroke:none;fill-rule:nonzero;fill:rgb(6.27451%,48.627451%,25.490196%);fill-opacity:1;" d="M 4.113281 7.472656 L 9.925781 7.472656 L 9.925781 4.210938 L 4.113281 4.210938 L 4.113281 7.472656 "/>
<path style=" stroke:none;fill-rule:nonzero;fill:rgb(20%,76.862745%,50.588235%);fill-opacity:1;" d="M 15.109375 0.929688 L 9.945312 0.929688 L 9.945312 4.191406 L 15.757812 4.191406 L 15.757812 1.550781 C 15.757812 1.207031 15.46875 0.929688 15.109375 0.929688 "/>
<path style=" stroke:none;fill-rule:nonzero;fill:rgb(9.411765%,36.078431%,21.568627%);fill-opacity:1;" d="M 9.933594 7.492188 L 4.113281 7.492188 L 4.113281 13.414062 C 4.113281 13.578125 4.179688 13.738281 4.300781 13.855469 C 4.421875 13.972656 4.589844 14.035156 4.761719 14.035156 L 15.109375 14.035156 C 15.28125 14.035156 15.445312 13.972656 15.566406 13.855469 C 15.6875 13.738281 15.757812 13.578125 15.757812 13.414062 L 15.757812 10.765625 L 9.933594 7.492188 "/>
<path style=" stroke:none;fill-rule:nonzero;fill:rgb(6.27451%,48.627451%,25.490196%);fill-opacity:1;" d="M 9.945312 10.753906 L 15.757812 10.753906 L 15.757812 7.492188 L 9.945312 7.492188 L 9.945312 10.753906 "/>
<path style=" stroke:none;fill-rule:nonzero;fill:rgb(0%,0%,0%);fill-opacity:0.101961;" d="M 8.308594 3.273438 L 4.113281 3.273438 L 4.113281 12.160156 L 8.308594 12.160156 C 8.664062 12.160156 8.953125 11.882812 8.953125 11.539062 L 8.953125 3.898438 C 8.953125 3.550781 8.664062 3.273438 8.308594 3.273438 "/>
<path style=" stroke:none;fill-rule:nonzero;fill:rgb(0%,0%,0%);fill-opacity:0.2;" d="M 7.824219 3.742188 L 4.113281 3.742188 L 4.113281 12.628906 L 7.824219 12.628906 C 8.179688 12.628906 8.46875 12.351562 8.46875 12.007812 L 8.46875 4.367188 C 8.46875 4.019531 8.179688 3.742188 7.824219 3.742188 "/>
<path style=" stroke:none;fill-rule:nonzero;fill:rgb(0%,0%,0%);fill-opacity:0.2;" d="M 7.824219 3.742188 L 4.113281 3.742188 L 4.113281 11.691406 L 7.824219 11.691406 C 8.179688 11.691406 8.464844 11.414062 8.46875 11.070312 L 8.46875 4.363281 C 8.464844 4.019531 8.179688 3.742188 7.824219 3.742188 "/>
<path style=" stroke:none;fill-rule:nonzero;fill:rgb(0%,0%,0%);fill-opacity:0.2;" d="M 7.335938 3.742188 L 4.113281 3.742188 L 4.113281 11.691406 L 7.335938 11.691406 C 7.691406 11.691406 7.980469 11.414062 7.980469 11.070312 L 7.980469 4.363281 C 7.980469 4.019531 7.691406 3.742188 7.335938 3.742188 "/>
<path style=" stroke:none;fill-rule:nonzero;fill:rgb(6.27451%,48.627451%,25.490196%);fill-opacity:1;" d="M 0.890625 3.742188 L 7.355469 3.742188 C 7.523438 3.742188 7.691406 3.808594 7.8125 3.925781 C 7.933594 4.039062 8 4.199219 8 4.363281 L 8 10.601562 C 8 10.765625 7.933594 10.925781 7.8125 11.042969 C 7.691406 11.160156 7.523438 11.222656 7.355469 11.222656 L 0.890625 11.222656 C 0.71875 11.222656 0.554688 11.160156 0.433594 11.042969 C 0.3125 10.925781 0.242188 10.765625 0.242188 10.601562 L 0.242188 4.363281 C 0.242188 4.199219 0.3125 4.039062 0.433594 3.925781 C 0.554688 3.808594 0.71875 3.742188 0.890625 3.742188 "/>
<path style=" stroke:none;fill-rule:nonzero;fill:rgb(100%,100%,100%);fill-opacity:1;" d="M 1.953125 9.816406 L 3.523438 7.476562 L 2.085938 5.148438 L 3.242188 5.148438 L 4.027344 6.636719 C 4.101562 6.777344 4.148438 6.882812 4.175781 6.953125 L 4.1875 6.953125 C 4.238281 6.839844 4.292969 6.730469 4.351562 6.621094 L 5.191406 5.148438 L 6.253906 5.148438 L 4.777344 7.464844 L 6.289062 9.816406 L 5.160156 9.816406 L 4.253906 8.183594 C 4.210938 8.113281 4.171875 8.039062 4.144531 7.964844 L 4.128906 7.964844 C 4.101562 8.039062 4.070312 8.109375 4.023438 8.175781 L 3.089844 9.816406 L 1.953125 9.816406 "/>
</g>
</svg>
