<?xml version="1.0" encoding="UTF-8"?>
<svg xmlns="http://www.w3.org/2000/svg" xmlns:xlink="http://www.w3.org/1999/xlink" width="16px" height="16px" viewBox="0 0 16 16" version="1.1">
<defs>
<filter id="alpha" filterUnits="objectBoundingBox" x="0%" y="0%" width="100%" height="100%">
  <feColorMatrix type="matrix" in="SourceGraphic" values="0 0 0 0 1 0 0 0 0 1 0 0 0 0 1 0 0 0 1 0"/>
</filter>
<mask id="mask0">
  <g filter="url(#alpha)">
<rect x="0" y="0" width="16" height="16" style="fill:rgb(0%,0%,0%);fill-opacity:0.2;stroke:none;"/>
  </g>
</mask>
<clipPath id="clip1">
  <rect x="0" y="0" width="16" height="16"/>
</clipPath>
<g id="surface5" clip-path="url(#clip1)">
<path style=" stroke:none;fill-rule:nonzero;fill:rgb(0%,0%,0%);fill-opacity:1;" d="M 8.25 4.664062 C 8.25 4.6875 8.25 4.710938 8.25 4.738281 L 8.25 11.261719 C 8.25 11.699219 7.886719 12.0625 7.449219 12.0625 L 3.726562 12.0625 L 3.726562 12.773438 L 8.125 12.773438 C 8.5625 12.773438 8.925781 12.414062 8.925781 11.976562 L 8.925781 5.449219 C 8.925781 5.050781 8.636719 4.710938 8.25 4.664062 Z M 8.25 4.664062 "/>
</g>
</defs>
<g id="surface1">
<path style=" stroke:none;fill-rule:nonzero;fill:rgb(1.176471%,51.372549%,52.941176%);fill-opacity:1;" d="M 15.226562 13.875 L 13.726562 13.875 L 13.726562 2.164062 L 15.226562 2.164062 C 15.585938 2.164062 15.875 2.449219 15.875 2.8125 L 15.875 13.210938 C 15.875 13.585938 15.585938 13.875 15.226562 13.875 Z M 15.226562 13.875 "/>
<path style=" stroke:none;fill-rule:nonzero;fill:rgb(21.568627%,77.647059%,81.568627%);fill-opacity:1;" d="M 13.726562 8.039062 L 13.726562 1.585938 C 13.726562 1.1875 13.398438 0.875 13.011719 0.875 L 4.488281 0.875 C 4.085938 0.875 3.773438 1.199219 3.773438 1.585938 L 3.773438 8.039062 Z M 13.726562 8.039062 "/>
<path style=" stroke:none;fill-rule:nonzero;fill:rgb(1.568627%,54.117647%,55.686275%);fill-opacity:1;" d="M 3.761719 11.625 L 3.761719 14.449219 C 3.761719 14.851562 4.085938 15.164062 4.476562 15.164062 L 13 15.164062 C 13.398438 15.164062 13.710938 14.835938 13.710938 14.449219 L 13.710938 11.625 Z M 3.761719 11.625 "/>
<path style=" stroke:none;fill-rule:nonzero;fill:rgb(10.196078%,60.784314%,63.137255%);fill-opacity:1;" d="M 3.761719 8.039062 L 13.726562 8.039062 L 13.726562 11.625 L 3.761719 11.625 Z M 3.761719 8.039062 "/>
<path style=" stroke:none;fill-rule:nonzero;fill:rgb(1.568627%,54.117647%,55.686275%);fill-opacity:1;" d="M 7.449219 12.0625 L 0.824219 12.0625 C 0.386719 12.0625 0.0234375 11.699219 0.0234375 11.261719 L 0.0234375 4.738281 C 0.0234375 4.300781 0.386719 3.9375 0.824219 3.9375 L 7.449219 3.9375 C 7.886719 3.9375 8.25 4.300781 8.25 4.738281 L 8.25 11.261719 C 8.25 11.699219 7.886719 12.0625 7.449219 12.0625 Z M 7.449219 12.0625 "/>
<path style=" stroke:none;fill-rule:nonzero;fill:rgb(100%,100%,100%);fill-opacity:1;" d="M 3.574219 8.574219 L 3.574219 10.289062 L 2.613281 10.289062 L 2.613281 5.5625 L 4.523438 5.5625 C 5.074219 5.5625 5.511719 5.699219 5.824219 5.976562 C 6.136719 6.25 6.300781 6.613281 6.300781 7.074219 C 6.300781 7.523438 6.136719 7.886719 5.824219 8.164062 C 5.511719 8.4375 5.074219 8.574219 4.523438 8.574219 Z M 3.574219 7.851562 L 4.523438 7.851562 C 4.789062 7.851562 5 7.773438 5.136719 7.636719 C 5.273438 7.488281 5.351562 7.3125 5.351562 7.085938 C 5.351562 6.863281 5.289062 6.675781 5.148438 6.523438 C 5.011719 6.375 4.8125 6.300781 4.539062 6.300781 L 3.585938 6.300781 L 3.585938 7.851562 Z M 3.574219 7.851562 "/>
<use xlink:href="#surface5" mask="url(#mask0)"/>
</g>
</svg>
