<?xml version="1.0" encoding="UTF-8"?>
<svg xmlns="http://www.w3.org/2000/svg" xmlns:xlink="http://www.w3.org/1999/xlink" width="16px" height="16px" viewBox="0 0 16 15" version="1.1">
<g id="surface1">
<path style=" stroke:none;fill-rule:nonzero;fill:rgb(25.490196%,64.705882%,93.333333%);fill-opacity:1;" d="M 15.109375 0.929688 L 4.761719 0.929688 C 4.402344 0.929688 4.113281 1.207031 4.113281 1.554688 L 4.113281 4.203125 L 9.933594 5.84375 L 15.757812 4.203125 L 15.757812 1.554688 C 15.757812 1.207031 15.46875 0.929688 15.109375 0.929688 "/>
<path style=" stroke:none;fill-rule:nonzero;fill:rgb(16.862745%,48.627451%,82.745098%);fill-opacity:1;" d="M 15.757812 4.210938 L 4.113281 4.210938 L 4.113281 7.484375 L 9.933594 9.125 L 15.757812 7.484375 L 15.757812 4.210938 "/>
<path style=" stroke:none;fill-rule:nonzero;fill:rgb(9.411765%,35.294118%,74.117647%);fill-opacity:1;" d="M 15.757812 7.492188 L 4.113281 7.492188 L 4.113281 10.765625 L 9.933594 12.40625 L 15.757812 10.765625 L 15.757812 7.492188 "/>
<path style=" stroke:none;fill-rule:nonzero;fill:rgb(6.27451%,24.705882%,56.862745%);fill-opacity:1;" d="M 15.757812 10.773438 L 4.113281 10.773438 L 4.113281 13.414062 C 4.113281 13.757812 4.402344 14.035156 4.761719 14.035156 L 15.109375 14.035156 C 15.46875 14.035156 15.757812 13.757812 15.757812 13.414062 L 15.757812 10.773438 "/>
<path style=" stroke:none;fill-rule:nonzero;fill:rgb(0%,0%,0%);fill-opacity:0.101961;" d="M 8.308594 3.273438 L 4.113281 3.273438 L 4.113281 12.160156 L 8.308594 12.160156 C 8.664062 12.160156 8.953125 11.882812 8.953125 11.539062 L 8.953125 3.898438 C 8.953125 3.550781 8.664062 3.273438 8.308594 3.273438 "/>
<path style=" stroke:none;fill-rule:nonzero;fill:rgb(0%,0%,0%);fill-opacity:0.2;" d="M 7.824219 3.742188 L 4.113281 3.742188 L 4.113281 12.628906 L 7.824219 12.628906 C 8.179688 12.628906 8.46875 12.351562 8.46875 12.007812 L 8.46875 4.367188 C 8.46875 4.019531 8.179688 3.742188 7.824219 3.742188 "/>
<path style=" stroke:none;fill-rule:nonzero;fill:rgb(0%,0%,0%);fill-opacity:0.2;" d="M 7.824219 3.742188 L 4.113281 3.742188 L 4.113281 11.691406 L 7.824219 11.691406 C 8.179688 11.691406 8.464844 11.414062 8.46875 11.070312 L 8.46875 4.363281 C 8.464844 4.019531 8.179688 3.742188 7.824219 3.742188 "/>
<path style=" stroke:none;fill-rule:nonzero;fill:rgb(0%,0%,0%);fill-opacity:0.2;" d="M 7.335938 3.742188 L 4.113281 3.742188 L 4.113281 11.691406 L 7.335938 11.691406 C 7.691406 11.691406 7.980469 11.414062 7.980469 11.070312 L 7.980469 4.363281 C 7.980469 4.019531 7.691406 3.742188 7.335938 3.742188 "/>
<path style=" stroke:none;fill-rule:nonzero;fill:rgb(9.411765%,35.294118%,74.117647%);fill-opacity:1;" d="M 0.890625 3.742188 L 7.355469 3.742188 C 7.710938 3.742188 8 4.019531 8 4.363281 L 8 10.601562 C 8 10.945312 7.710938 11.222656 7.355469 11.222656 L 0.890625 11.222656 C 0.53125 11.222656 0.242188 10.945312 0.242188 10.601562 L 0.242188 4.363281 C 0.242188 4.019531 0.53125 3.742188 0.890625 3.742188 "/>
<path style=" stroke:none;fill-rule:nonzero;fill:rgb(100%,100%,100%);fill-opacity:1;" d="M 6.039062 9.816406 L 5.164062 9.816406 L 4.144531 6.59375 L 3.078125 9.816406 L 2.203125 9.816406 L 1.234375 5.148438 L 2.105469 5.148438 L 2.785156 8.417969 L 3.804688 5.242188 L 4.535156 5.242188 L 5.503906 8.417969 L 6.183594 5.148438 L 7.011719 5.148438 L 6.039062 9.816406 "/>
</g>
</svg>
