<?xml version="1.0" encoding="UTF-8"?>
<svg xmlns="http://www.w3.org/2000/svg" xmlns:xlink="http://www.w3.org/1999/xlink" width="16px" height="16px" viewBox="0 0 16 15" version="1.1">
<g id="surface1">
<path style=" stroke:none;fill-rule:nonzero;fill:rgb(92.941176%,42.352941%,27.843137%);fill-opacity:1;" d="M 8.960938 0.929688 C 5.214844 0.9375 2.179688 3.867188 2.167969 7.480469 L 10.773438 9.226562 L 8.960938 0.929688 "/>
<path style=" stroke:none;fill-rule:nonzero;fill:rgb(100%,56.078431%,41.960784%);fill-opacity:1;" d="M 8.972656 0.929688 C 12.714844 0.9375 15.746094 3.867188 15.757812 7.484375 L 12.363281 9.714844 L 8.972656 7.484375 L 8.972656 0.929688 "/>
<path style=" stroke:none;fill-rule:nonzero;fill:rgb(82.745098%,32.156863%,18.823529%);fill-opacity:1;" d="M 8.960938 14.035156 C 12.710938 14.027344 15.746094 11.101562 15.757812 7.492188 L 2.167969 7.492188 C 2.179688 11.101562 5.214844 14.027344 8.960938 14.035156 "/>
<path style=" stroke:none;fill-rule:nonzero;fill:rgb(0%,0%,0%);fill-opacity:0.101961;" d="M 8.324219 3.273438 L 3.78125 3.273438 C 1.480469 5.886719 1.679688 9.777344 4.234375 12.160156 L 8.324219 12.160156 C 8.679688 12.160156 8.972656 11.882812 8.972656 11.539062 L 8.972656 3.898438 C 8.972656 3.550781 8.679688 3.273438 8.324219 3.273438 "/>
<path style=" stroke:none;fill-rule:nonzero;fill:rgb(0%,0%,0%);fill-opacity:0.2;" d="M 7.839844 3.742188 L 3.414062 3.742188 C 1.339844 6.582031 1.945312 10.5 4.792969 12.628906 L 7.839844 12.628906 C 8.195312 12.628906 8.484375 12.351562 8.484375 12.007812 L 8.484375 4.367188 C 8.484375 4.019531 8.195312 3.742188 7.839844 3.742188 "/>
<path style=" stroke:none;fill-rule:nonzero;fill:rgb(0%,0%,0%);fill-opacity:0.2;" d="M 7.839844 3.742188 L 3.410156 3.742188 C 1.640625 6.164062 1.792969 9.433594 3.785156 11.691406 L 7.839844 11.691406 C 8.195312 11.691406 8.484375 11.414062 8.484375 11.070312 L 8.484375 4.363281 C 8.484375 4.019531 8.195312 3.742188 7.839844 3.742188 "/>
<path style=" stroke:none;fill-rule:nonzero;fill:rgb(0%,0%,0%);fill-opacity:0.2;" d="M 7.355469 3.742188 L 3.410156 3.742188 C 1.640625 6.164062 1.792969 9.433594 3.78125 11.691406 L 7.355469 11.691406 C 7.710938 11.691406 8 11.414062 8 11.070312 L 8 4.363281 C 8 4.019531 7.710938 3.742188 7.355469 3.742188 "/>
<path style=" stroke:none;fill-rule:nonzero;fill:rgb(76.862745%,24.313725%,10.980392%);fill-opacity:1;" d="M 0.890625 3.742188 L 7.355469 3.742188 C 7.523438 3.742188 7.691406 3.808594 7.8125 3.925781 C 7.933594 4.039062 8 4.199219 8 4.363281 L 8 10.601562 C 8 10.765625 7.933594 10.925781 7.8125 11.042969 C 7.691406 11.160156 7.523438 11.222656 7.355469 11.222656 L 0.890625 11.222656 C 0.71875 11.222656 0.554688 11.160156 0.433594 11.042969 C 0.3125 10.925781 0.242188 10.765625 0.242188 10.601562 L 0.242188 4.363281 C 0.242188 4.199219 0.3125 4.039062 0.433594 3.925781 C 0.554688 3.808594 0.71875 3.742188 0.890625 3.742188 "/>
<path style=" stroke:none;fill-rule:nonzero;fill:rgb(97.647059%,96.862745%,96.862745%);fill-opacity:1;" d="M 4.109375 5.148438 C 4.589844 5.117188 5.0625 5.25 5.449219 5.523438 C 5.769531 5.796875 5.941406 6.199219 5.914062 6.613281 C 5.917969 6.875 5.835938 7.136719 5.683594 7.355469 C 5.523438 7.59375 5.296875 7.789062 5.03125 7.90625 C 4.722656 8.042969 4.386719 8.113281 4.050781 8.105469 L 3.121094 8.105469 L 3.121094 9.816406 L 2.167969 9.816406 L 2.167969 5.148438 L 4.109375 5.148438 M 3.121094 7.335938 L 3.941406 7.335938 C 4.199219 7.351562 4.457031 7.277344 4.664062 7.128906 C 4.832031 7.023438 4.925781 6.839844 4.910156 6.648438 C 4.910156 6.132812 4.597656 5.875 3.972656 5.875 L 3.121094 5.875 L 3.121094 7.335938 "/>
</g>
</svg>
