<?xml version="1.0" encoding="UTF-8"?>
<svg xmlns="http://www.w3.org/2000/svg" xmlns:xlink="http://www.w3.org/1999/xlink" width="16px" height="16px" viewBox="0 0 16 15" version="1.1">
<defs>
<filter id="alpha" filterUnits="objectBoundingBox" x="0%" y="0%" width="100%" height="100%">
  <feColorMatrix type="matrix" in="SourceGraphic" values="0 0 0 0 1 0 0 0 0 1 0 0 0 0 1 0 0 0 1 0"/>
</filter>
<mask id="mask0">
  <g filter="url(#alpha)">
<rect x="0" y="0" width="16" height="15" style="fill:rgb(0%,0%,0%);fill-opacity:0.101961;stroke:none;"/>
  </g>
</mask>
<clipPath id="clip1">
  <rect x="0" y="0" width="16" height="15"/>
</clipPath>
<g id="surface5" clip-path="url(#clip1)">
<path style=" stroke:none;fill-rule:nonzero;fill:rgb(0%,0%,0%);fill-opacity:1;" d="M 8.25 3.214844 L 3.722656 3.214844 L 3.722656 12.140625 L 8.25 12.140625 C 8.625 12.140625 8.929688 11.847656 8.929688 11.488281 L 8.929688 3.871094 C 8.929688 3.507812 8.625 3.214844 8.25 3.214844 Z M 8.25 3.214844 "/>
</g>
<mask id="mask1">
  <g filter="url(#alpha)">
<rect x="0" y="0" width="16" height="15" style="fill:rgb(0%,0%,0%);fill-opacity:0.2;stroke:none;"/>
  </g>
</mask>
<clipPath id="clip2">
  <rect x="0" y="0" width="16" height="15"/>
</clipPath>
<g id="surface8" clip-path="url(#clip2)">
<path style=" stroke:none;fill-rule:nonzero;fill:rgb(0%,0%,0%);fill-opacity:1;" d="M 7.875 3.570312 L 3.722656 3.570312 L 3.722656 12.5 L 7.875 12.5 C 8.253906 12.496094 8.558594 12.207031 8.558594 11.84375 L 8.558594 4.226562 C 8.558594 3.867188 8.253906 3.574219 7.875 3.570312 Z M 7.875 3.570312 "/>
</g>
<mask id="mask2">
  <g filter="url(#alpha)">
<rect x="0" y="0" width="16" height="15" style="fill:rgb(0%,0%,0%);fill-opacity:0.2;stroke:none;"/>
  </g>
</mask>
<clipPath id="clip3">
  <rect x="0" y="0" width="16" height="15"/>
</clipPath>
<g id="surface11" clip-path="url(#clip3)">
<path style=" stroke:none;fill-rule:nonzero;fill:rgb(0%,0%,0%);fill-opacity:1;" d="M 7.875 3.570312 L 3.722656 3.570312 L 3.722656 11.785156 L 7.875 11.785156 C 8.253906 11.785156 8.558594 11.492188 8.558594 11.128906 L 8.558594 4.226562 C 8.558594 3.867188 8.253906 3.574219 7.875 3.570312 Z M 7.875 3.570312 "/>
</g>
<mask id="mask3">
  <g filter="url(#alpha)">
<rect x="0" y="0" width="16" height="15" style="fill:rgb(0%,0%,0%);fill-opacity:0.2;stroke:none;"/>
  </g>
</mask>
<clipPath id="clip4">
  <rect x="0" y="0" width="16" height="15"/>
</clipPath>
<g id="surface14" clip-path="url(#clip4)">
<path style=" stroke:none;fill-rule:nonzero;fill:rgb(0%,0%,0%);fill-opacity:1;" d="M 7.503906 3.570312 L 3.722656 3.570312 L 3.722656 11.785156 L 7.503906 11.785156 C 7.878906 11.785156 8.183594 11.492188 8.1875 11.128906 L 8.1875 4.226562 C 8.183594 3.867188 7.878906 3.574219 7.503906 3.570312 Z M 7.503906 3.570312 "/>
</g>
<linearGradient id="linear0" gradientUnits="userSpaceOnUse" x1="177.1808" y1="1551.9205" x2="842.7396" y2="399.2002" gradientTransform="matrix(0.00802616,0,0,-0.0077023,0,15.014059)">
<stop offset="0" style="stop-color:rgb(71.764706%,17.254902%,24.705882%);stop-opacity:1;"/>
<stop offset="0.5" style="stop-color:rgb(69.411765%,13.72549%,20.392157%);stop-opacity:1;"/>
<stop offset="1" style="stop-color:rgb(61.568627%,8.627451%,13.72549%);stop-opacity:1;"/>
</linearGradient>
</defs>
<g id="surface1">
<path style=" stroke:none;fill-rule:nonzero;fill:rgb(53.333333%,7.843137%,12.941176%);fill-opacity:1;" d="M 3.722656 9.640625 L 3.722656 13.214844 C 3.722656 14.199219 6.46875 15 9.859375 15 C 13.25 15 16 14.199219 16 13.214844 L 16 9.640625 Z M 3.722656 9.640625 "/>
<path style=" stroke:none;fill-rule:nonzero;fill:rgb(68.627451%,12.54902%,19.215686%);fill-opacity:1;" d="M 3.722656 5.714844 L 3.722656 9.640625 C 3.722656 10.628906 6.46875 11.429688 9.859375 11.429688 C 13.25 11.429688 16 10.628906 16 9.640625 L 16 5.714844 Z M 3.722656 5.714844 "/>
<path style=" stroke:none;fill-rule:nonzero;fill:rgb(78.823529%,30.980392%,37.647059%);fill-opacity:1;" d="M 3.722656 1.785156 L 3.722656 5.714844 C 3.722656 6.699219 6.46875 7.5 9.859375 7.5 C 13.25 7.5 16 6.699219 16 5.714844 L 16 1.785156 Z M 3.722656 1.785156 "/>
<path style=" stroke:none;fill-rule:nonzero;fill:rgb(87.843137%,50.196078%,58.431373%);fill-opacity:1;" d="M 16 1.785156 C 16 0.800781 13.25 0 9.859375 0 C 6.46875 0 3.722656 0.800781 3.722656 1.785156 C 3.722656 2.773438 6.46875 3.570312 9.859375 3.570312 C 13.25 3.570312 16 2.773438 16 1.785156 Z M 16 1.785156 "/>
<use xlink:href="#surface5" mask="url(#mask0)"/>
<use xlink:href="#surface8" mask="url(#mask1)"/>
<use xlink:href="#surface11" mask="url(#mask2)"/>
<use xlink:href="#surface14" mask="url(#mask3)"/>
<path style=" stroke:none;fill-rule:nonzero;fill:url(#linear0);" d="M 0.683594 3.570312 L 7.503906 3.570312 C 7.878906 3.570312 8.1875 3.863281 8.1875 4.226562 L 8.1875 10.773438 C 8.1875 11.136719 7.878906 11.429688 7.503906 11.429688 L 0.683594 11.429688 C 0.304688 11.429688 0 11.136719 0 10.773438 L 0 4.226562 C 0 3.863281 0.304688 3.570312 0.683594 3.570312 Z M 0.683594 3.570312 "/>
<path style=" stroke:none;fill-rule:nonzero;fill:rgb(100%,100%,100%);fill-opacity:1;" d="M 3.601562 5.371094 L 4.609375 5.371094 L 6.222656 9.628906 L 5.273438 9.628906 L 4.917969 8.613281 L 3.257812 8.613281 L 2.90625 9.628906 L 1.964844 9.628906 Z M 4.703125 7.957031 L 4.1875 6.417969 C 4.144531 6.304688 4.113281 6.1875 4.09375 6.070312 L 4.074219 6.070312 C 4.054688 6.191406 4.023438 6.3125 3.980469 6.425781 L 3.460938 7.957031 Z M 4.703125 7.957031 "/>
</g>
</svg>
