<?xml version="1.0" encoding="UTF-8"?>
<svg xmlns="http://www.w3.org/2000/svg" xmlns:xlink="http://www.w3.org/1999/xlink" width="16px" height="15px" viewBox="0 0 15 15" version="1.1">
<g id="surface1">
<path style=" stroke:none;fill-rule:nonzero;fill:rgb(1.176471%,39.215686%,72.156863%);fill-opacity:1;" d="M 13.207031 0.929688 L 5.398438 0.929688 C 5.046875 0.929688 4.761719 1.222656 4.761719 1.582031 L 4.761719 2.328125 L 9.164062 3.722656 L 13.84375 2.328125 L 13.84375 1.582031 C 13.84375 1.410156 13.777344 1.242188 13.660156 1.121094 C 13.539062 0.996094 13.378906 0.929688 13.207031 0.929688 "/>
<path style=" stroke:none;fill-rule:nonzero;fill:rgb(3.921569%,15.294118%,40.392157%);fill-opacity:1;" d="M 14.597656 8.140625 C 14.664062 7.925781 14.714844 7.707031 14.753906 7.484375 C 14.753906 7.375 14.699219 7.269531 14.605469 7.214844 L 14.597656 7.210938 L 9.671875 4.320312 C 9.652344 4.308594 9.628906 4.292969 9.605469 4.28125 C 9.414062 4.183594 9.191406 4.183594 9 4.28125 C 8.976562 4.292969 8.957031 4.308594 8.933594 4.320312 L 4.011719 7.210938 L 4.007812 7.210938 L 4.003906 7.214844 C 3.910156 7.269531 3.851562 7.375 3.851562 7.484375 C 3.890625 7.707031 3.945312 7.925781 4.011719 8.140625 L 9.230469 12.074219 L 14.597656 8.140625 "/>
<path style=" stroke:none;fill-rule:nonzero;fill:rgb(15.686275%,65.882353%,91.764706%);fill-opacity:1;" d="M 11.136719 2.335938 L 7.953125 2.335938 L 7.035156 3.738281 L 7.953125 5.140625 L 11.136719 7.941406 L 13.863281 7.941406 L 13.863281 5.140625 L 11.136719 2.335938 "/>
<path style=" stroke:none;fill-rule:nonzero;fill:rgb(0%,47.058824%,83.137255%);fill-opacity:1;" d="M 4.761719 5.128906 L 7.929688 5.128906 L 7.929688 2.335938 L 4.761719 2.335938 L 4.761719 5.128906 "/>
<path style=" stroke:none;fill-rule:nonzero;fill:rgb(31.372549%,85.098039%,100%);fill-opacity:1;" d="M 11.132812 5.128906 L 13.84375 5.128906 L 13.84375 2.335938 L 11.132812 2.335938 L 11.132812 5.128906 "/>
<path style=" stroke:none;fill-rule:nonzero;fill:rgb(1.176471%,39.215686%,72.156863%);fill-opacity:1;" d="M 11.125 7.953125 L 7.945312 5.148438 L 4.761719 5.148438 L 4.761719 7.953125 L 7.945312 10.761719 L 12.867188 11.589844 L 11.125 7.953125 "/>
<path style=" stroke:none;fill-rule:nonzero;fill:rgb(0%,47.058824%,83.137255%);fill-opacity:1;" d="M 7.945312 7.941406 L 11.113281 7.941406 L 11.113281 5.148438 L 7.945312 5.148438 L 7.945312 7.941406 "/>
<path style=" stroke:none;fill-rule:nonzero;fill:rgb(2.352941%,29.019608%,54.901961%);fill-opacity:1;" d="M 4.761719 10.753906 L 7.929688 10.753906 L 7.929688 7.960938 L 4.761719 7.960938 L 4.761719 10.753906 "/>
<path style=" stroke:none;fill-rule:nonzero;fill:rgb(0%,47.058824%,83.137255%);fill-opacity:1;" d="M 11.132812 10.753906 L 13.84375 10.753906 L 13.84375 7.960938 L 11.132812 7.960938 L 11.132812 10.753906 "/>
<path style=" stroke:none;fill-rule:nonzero;fill:rgb(3.921569%,15.294118%,40.392157%);fill-opacity:0.501961;" d="M 9.394531 11.8125 L 4.035156 7.789062 L 4.261719 7.382812 C 4.261719 7.382812 9.144531 10.246094 9.21875 10.289062 C 9.28125 10.316406 9.351562 10.3125 9.410156 10.285156 C 9.480469 10.242188 14.378906 7.371094 14.378906 7.371094 L 14.605469 7.777344 L 9.394531 11.8125 "/>
<path style=" stroke:none;fill-rule:nonzero;fill:rgb(7.843137%,56.470588%,87.45098%);fill-opacity:1;" d="M 14.621094 7.761719 L 14.613281 7.765625 L 9.6875 10.65625 C 9.488281 10.789062 9.238281 10.804688 9.023438 10.699219 L 10.738281 13.070312 L 14.492188 13.914062 C 14.667969 13.78125 14.773438 13.570312 14.773438 13.347656 L 14.773438 7.492188 C 14.773438 7.601562 14.714844 7.707031 14.621094 7.761719 "/>
<path style=" stroke:none;fill-rule:nonzero;fill:rgb(0%,0%,0%);fill-opacity:0.0509804;" d="M 14.773438 13.347656 L 14.773438 13 L 10.234375 10.339844 L 9.6875 10.660156 C 9.488281 10.792969 9.238281 10.808594 9.023438 10.703125 L 10.738281 13.070312 L 14.492188 13.914062 C 14.667969 13.78125 14.773438 13.570312 14.773438 13.347656 "/>
<path style=" stroke:none;fill-rule:nonzero;fill:rgb(0%,0%,0%);fill-opacity:0.101961;" d="M 14.753906 13.527344 L 9.777344 10.617188 L 9.691406 10.667969 C 9.492188 10.800781 9.238281 10.816406 9.023438 10.710938 L 10.742188 13.074219 L 14.496094 13.914062 C 14.625 13.820312 14.714844 13.683594 14.753906 13.527344 "/>
<path style=" stroke:none;fill-rule:nonzero;fill:rgb(15.686275%,65.882353%,91.764706%);fill-opacity:1;" d="M 4.011719 7.765625 L 4.011719 7.761719 L 4.003906 7.761719 L 3.992188 7.753906 C 3.902344 7.699219 3.851562 7.597656 3.851562 7.492188 L 3.851562 13.335938 C 3.851562 13.523438 3.921875 13.699219 4.050781 13.832031 C 4.179688 13.964844 4.351562 14.035156 4.53125 14.035156 L 14.070312 14.035156 C 14.125 14.035156 14.183594 14.027344 14.238281 14.011719 C 14.265625 14.007812 14.292969 14 14.320312 13.984375 C 14.328125 13.984375 14.339844 13.980469 14.347656 13.976562 C 14.382812 13.960938 14.417969 13.9375 14.449219 13.914062 C 14.460938 13.910156 14.464844 13.910156 14.46875 13.902344 L 4.011719 7.765625 "/>
<path style=" stroke:none;fill-rule:nonzero;fill:rgb(0%,0%,0%);fill-opacity:0.101961;" d="M 8.386719 11.539062 L 8.386719 3.898438 C 8.382812 3.550781 8.113281 3.273438 7.78125 3.273438 L 4.773438 3.273438 L 4.773438 6.761719 L 4.007812 7.207031 L 4.007812 7.210938 L 4.003906 7.214844 C 3.910156 7.269531 3.851562 7.371094 3.851562 7.484375 L 3.851562 12.160156 L 7.78125 12.160156 C 8.113281 12.160156 8.382812 11.882812 8.386719 11.539062 "/>
<path style=" stroke:none;fill-rule:nonzero;fill:rgb(0%,0%,0%);fill-opacity:0.2;" d="M 7.929688 12.007812 L 7.929688 4.367188 C 7.929688 4.019531 7.660156 3.742188 7.324219 3.742188 L 4.773438 3.742188 L 4.773438 6.761719 L 4.007812 7.210938 L 4.003906 7.214844 C 3.910156 7.269531 3.851562 7.371094 3.851562 7.484375 L 3.851562 12.628906 L 7.324219 12.628906 C 7.660156 12.628906 7.929688 12.351562 7.929688 12.007812 "/>
<path style=" stroke:none;fill-rule:nonzero;fill:rgb(0%,0%,0%);fill-opacity:0.2;" d="M 7.929688 11.070312 L 7.929688 4.363281 C 7.929688 4.019531 7.660156 3.742188 7.324219 3.742188 L 4.773438 3.742188 L 4.773438 6.761719 L 4.007812 7.207031 L 4.007812 7.210938 L 4.003906 7.214844 C 3.910156 7.269531 3.851562 7.371094 3.851562 7.484375 L 3.851562 11.691406 L 7.324219 11.691406 C 7.660156 11.691406 7.929688 11.414062 7.929688 11.070312 "/>
<path style=" stroke:none;fill-rule:nonzero;fill:rgb(0%,0%,0%);fill-opacity:0.2;" d="M 7.476562 11.070312 L 7.476562 4.363281 C 7.472656 4.019531 7.203125 3.742188 6.871094 3.742188 L 4.769531 3.742188 L 4.769531 6.761719 L 4.011719 7.207031 L 4.003906 7.214844 C 3.910156 7.269531 3.851562 7.371094 3.851562 7.484375 L 3.851562 11.691406 L 6.871094 11.691406 C 7.203125 11.691406 7.472656 11.414062 7.476562 11.070312 "/>
<path style=" stroke:none;fill-rule:nonzero;fill:rgb(0%,47.058824%,83.137255%);fill-opacity:1;" d="M 0.832031 3.742188 L 6.886719 3.742188 C 7.046875 3.742188 7.199219 3.808594 7.3125 3.925781 C 7.429688 4.039062 7.492188 4.199219 7.492188 4.363281 L 7.492188 10.601562 C 7.492188 10.765625 7.429688 10.925781 7.3125 11.042969 C 7.199219 11.160156 7.046875 11.222656 6.886719 11.222656 L 0.832031 11.222656 C 0.671875 11.222656 0.519531 11.160156 0.40625 11.042969 C 0.292969 10.925781 0.226562 10.765625 0.226562 10.601562 L 0.226562 4.363281 C 0.226562 4.199219 0.292969 4.039062 0.40625 3.925781 C 0.519531 3.808594 0.671875 3.742188 0.832031 3.742188 "/>
<path style=" stroke:none;fill-rule:nonzero;fill:rgb(100%,100%,100%);fill-opacity:1;" d="M 1.980469 6.300781 C 2.140625 5.949219 2.402344 5.652344 2.726562 5.453125 C 3.085938 5.242188 3.496094 5.136719 3.914062 5.148438 C 4.296875 5.140625 4.679688 5.238281 5.011719 5.4375 C 5.324219 5.628906 5.578125 5.910156 5.738281 6.246094 C 5.910156 6.617188 6 7.023438 5.992188 7.4375 C 6 7.867188 5.910156 8.292969 5.730469 8.683594 C 5.566406 9.03125 5.304688 9.320312 4.980469 9.519531 C 4.636719 9.722656 4.242188 9.828125 3.84375 9.816406 C 3.449219 9.828125 3.0625 9.726562 2.71875 9.523438 C 2.40625 9.332031 2.148438 9.050781 1.984375 8.714844 C 1.808594 8.347656 1.71875 7.945312 1.726562 7.539062 C 1.71875 7.109375 1.804688 6.6875 1.980469 6.300781 M 2.777344 8.289062 C 2.863281 8.511719 3.007812 8.703125 3.195312 8.847656 C 3.386719 8.984375 3.617188 9.054688 3.851562 9.050781 C 4.101562 9.058594 4.347656 8.984375 4.550781 8.839844 C 4.738281 8.699219 4.878906 8.503906 4.960938 8.28125 C 5.050781 8.03125 5.09375 7.769531 5.089844 7.503906 C 5.09375 7.234375 5.050781 6.96875 4.96875 6.714844 C 4.894531 6.488281 4.757812 6.285156 4.574219 6.136719 C 4.375 5.984375 4.128906 5.90625 3.878906 5.914062 C 3.640625 5.910156 3.40625 5.980469 3.207031 6.121094 C 3.015625 6.261719 2.867188 6.457031 2.777344 6.683594 C 2.582031 7.199219 2.582031 7.773438 2.777344 8.289062 "/>
</g>
</svg>
