<?xml version="1.0" encoding="UTF-8"?>
<svg xmlns="http://www.w3.org/2000/svg" xmlns:xlink="http://www.w3.org/1999/xlink" width="64px" height="64px" viewBox="0 0 64 64" version="1.1">
<defs>
<linearGradient id="linear0" gradientUnits="userSpaceOnUse" x1="3.177519" y1="3.177519" x2="9.522481" y2="9.522481" gradientTransform="matrix(7.114405,0,0,7.114405,-13.176469,-13.176469)">
<stop offset="0" style="stop-color:rgb(0.784314%,45.882353%,80.784314%);stop-opacity:1;"/>
<stop offset="1" style="stop-color:rgb(8.235294%,30.980392%,54.901961%);stop-opacity:1;"/>
</linearGradient>
<linearGradient id="linear1" gradientUnits="userSpaceOnUse" x1="3.177519" y1="3.177519" x2="9.522481" y2="9.522481" gradientTransform="matrix(7.114405,0,0,7.114405,-13.176469,-13.176469)">
<stop offset="0" style="stop-color:rgb(27.058824%,68.627451%,92.156863%);stop-opacity:1;"/>
<stop offset="1" style="stop-color:rgb(0%,39.607843%,76.078431%);stop-opacity:1;"/>
</linearGradient>
<linearGradient id="linear2" gradientUnits="userSpaceOnUse" x1="2.357422" y1="2.357422" x2="13.642578" y2="13.642578" gradientTransform="matrix(4,0,0,4,0,0)">
<stop offset="0" style="stop-color:rgb(64.313725%,84.313725%,92.941176%);stop-opacity:1;"/>
<stop offset="1" style="stop-color:rgb(39.607843%,69.411765%,89.803922%);stop-opacity:1;"/>
</linearGradient>
<linearGradient id="linear3" gradientUnits="userSpaceOnUse" x1="13.642578" y1="13.642578" x2="2.357422" y2="2.357422" gradientTransform="matrix(4,0,0,4,0,0)">
<stop offset="0" style="stop-color:rgb(78.039216%,80%,81.960784%);stop-opacity:1;"/>
<stop offset="1" style="stop-color:rgb(99.215686%,99.215686%,99.215686%);stop-opacity:1;"/>
</linearGradient>
<linearGradient id="linear4" gradientUnits="userSpaceOnUse" x1="5" y1="5" x2="11" y2="11" gradientTransform="matrix(4,0,0,4,0,0)">
<stop offset="0" style="stop-color:rgb(14.901961%,67.843137%,91.372549%);stop-opacity:1;"/>
<stop offset="1" style="stop-color:rgb(1.960784%,50.196078%,84.705882%);stop-opacity:1;"/>
</linearGradient>
</defs>
<g id="surface1">
<path style=" stroke:none;fill-rule:nonzero;fill:url(#linear0);" d="M 32 0 C 20.15625 0 9.824219 6.4375 4.292969 16 L 5.332031 34.667969 L 18.144531 40 L 32 32 L 32 16 L 59.707031 16 C 54.175781 6.4375 43.84375 0 32 0 Z M 32 0 "/>
<path style=" stroke:none;fill-rule:nonzero;fill:url(#linear1);" d="M 0 32 C 0 49.675781 14.324219 64 32 64 L 46.03125 56.5 L 45.855469 40 L 32 32 L 18.144531 40 L 4.292969 16 C 1.5625 20.707031 0 26.167969 0 32 "/>
<path style=" stroke:none;fill-rule:nonzero;fill:url(#linear2);" d="M 32 32 L 45.855469 40 L 32 64 C 49.675781 64 64 49.675781 64 32 C 64 26.167969 62.4375 20.707031 59.707031 16 L 32 16 Z M 32 32 "/>
<path style=" stroke:none;fill-rule:nonzero;fill:url(#linear3);" d="M 48 32 C 48 23.167969 40.832031 16 32 16 C 23.167969 16 16 23.167969 16 32 C 16 40.832031 23.167969 48 32 48 C 40.832031 48 48 40.832031 48 32 Z M 48 32 "/>
<path style=" stroke:none;fill-rule:nonzero;fill:url(#linear4);" d="M 44 32 C 44 38.625 38.625 44 32 44 C 25.375 44 20 38.625 20 32 C 20 25.375 25.375 20 32 20 C 38.625 20 44 25.375 44 32 Z M 44 32 "/>
</g>
</svg>
