<?xml version="1.0" encoding="UTF-8"?>
<svg xmlns="http://www.w3.org/2000/svg" xmlns:xlink="http://www.w3.org/1999/xlink" width="64px" height="64px" viewBox="0 0 64 64" version="1.1">
<defs>
<linearGradient id="linear0" gradientUnits="userSpaceOnUse" x1="3.2173" y1="15" x2="44.7812" y2="15" gradientTransform="matrix(-0.666667,1.154701,-1.154701,-0.666667,75.712813,20.287187)">
<stop offset="0" style="stop-color:rgb(85.098039%,18.823529%,14.509804%);stop-opacity:1;"/>
<stop offset="1" style="stop-color:rgb(91.764706%,26.27451%,20.784314%);stop-opacity:1;"/>
</linearGradient>
<linearGradient id="linear1" gradientUnits="userSpaceOnUse" x1="20.7219" y1="47.6791" x2="41.5039" y2="11.6837" gradientTransform="matrix(-0.666667,-1.154701,1.154701,-0.666667,20.287187,75.712813)">
<stop offset="0" style="stop-color:rgb(98.823529%,78.823529%,20.392157%);stop-opacity:1;"/>
<stop offset="1" style="stop-color:rgb(98.431373%,73.72549%,1.568627%);stop-opacity:1;"/>
</linearGradient>
<linearGradient id="linear2" gradientUnits="userSpaceOnUse" x1="26.5981" y1="46.5015" x2="5.8161" y2="10.506" gradientTransform="matrix(1.333333,0,0,1.333333,0,0)">
<stop offset="0" style="stop-color:rgb(11.764706%,55.686275%,24.313725%);stop-opacity:1;"/>
<stop offset="1" style="stop-color:rgb(20.392157%,65.882353%,32.54902%);stop-opacity:1;"/>
</linearGradient>
</defs>
<g id="surface1">
<path style=" stroke:none;fill-rule:nonzero;fill:url(#linear0);" d="M 31.996094 16 L 59.703125 16 C 53.988281 6.097656 43.425781 0 31.992188 0 C 20.5625 0 10 6.101562 4.285156 16.003906 L 18.140625 40 L 18.152344 39.996094 C 15.285156 35.050781 15.277344 28.945312 18.132812 23.992188 C 20.992188 19.039062 26.277344 15.992188 31.996094 16 Z M 31.996094 16 "/>
<path style=" stroke:none;fill-rule:nonzero;fill:url(#linear1);" d="M 45.859375 39.996094 L 32.003906 63.992188 C 43.4375 63.996094 54 57.894531 59.71875 47.996094 C 65.433594 38.09375 65.429688 25.894531 59.710938 15.996094 L 32.003906 15.996094 L 32 16.007812 C 37.71875 16 43.003906 19.042969 45.867188 23.996094 C 48.726562 28.945312 48.722656 35.046875 45.859375 39.996094 Z M 45.859375 39.996094 "/>
<path style=" stroke:none;fill-rule:nonzero;fill:url(#linear2);" d="M 18.144531 40.003906 L 4.289062 16.007812 C -1.425781 25.90625 -1.425781 38.105469 4.289062 48.007812 C 10.007812 57.90625 20.570312 64.003906 32.003906 64 L 45.859375 40.003906 L 45.847656 39.996094 C 43 44.953125 37.71875 48.007812 32 48.011719 C 26.28125 48.011719 20.996094 44.960938 18.144531 40.003906 Z M 18.144531 40.003906 "/>
<path style=" stroke:none;fill-rule:nonzero;fill:rgb(100%,100%,100%);fill-opacity:1;" d="M 48 32 C 48 40.835938 40.835938 48 32 48 C 23.164062 48 16 40.835938 16 32 C 16 23.164062 23.164062 16 32 16 C 40.835938 16 48 23.164062 48 32 Z M 48 32 "/>
<path style=" stroke:none;fill-rule:nonzero;fill:rgb(10.196078%,45.098039%,90.980392%);fill-opacity:1;" d="M 44.667969 32 C 44.667969 38.996094 38.996094 44.667969 32 44.667969 C 25.003906 44.667969 19.332031 38.996094 19.332031 32 C 19.332031 25.003906 25.003906 19.332031 32 19.332031 C 38.996094 19.332031 44.667969 25.003906 44.667969 32 Z M 44.667969 32 "/>
</g>
</svg>
