<?xml version="1.0" encoding="UTF-8"?>
<svg xmlns="http://www.w3.org/2000/svg" xmlns:xlink="http://www.w3.org/1999/xlink" width="64px" height="64px" viewBox="0 0 64 64" version="1.1">
<defs>
<filter id="alpha" filterUnits="objectBoundingBox" x="0%" y="0%" width="100%" height="100%">
  <feColorMatrix type="matrix" in="SourceGraphic" values="0 0 0 0 1 0 0 0 0 1 0 0 0 0 1 0 0 0 1 0"/>
</filter>
<mask id="mask0">
  <g filter="url(#alpha)">
<rect x="0" y="0" width="64" height="64" style="fill:rgb(0%,0%,0%);fill-opacity:0.2;stroke:none;"/>
  </g>
</mask>
<clipPath id="clip1">
  <rect x="0" y="0" width="64" height="64"/>
</clipPath>
<g id="surface5" clip-path="url(#clip1)">
<path style=" stroke:none;fill-rule:nonzero;fill:rgb(0%,0%,0%);fill-opacity:1;" d="M 33 18.648438 C 33 18.75 33 18.851562 33 18.949219 L 33 45.050781 C 33 46.800781 31.550781 48.25 29.800781 48.25 L 14.898438 48.25 L 14.898438 51.101562 L 32.5 51.101562 C 34.25 51.101562 35.699219 49.648438 35.699219 47.898438 L 35.699219 21.800781 C 35.699219 20.199219 34.550781 18.851562 33 18.648438 Z M 33 18.648438 "/>
</g>
</defs>
<g id="surface1">
<path style=" stroke:none;fill-rule:nonzero;fill:rgb(1.176471%,51.372549%,52.941176%);fill-opacity:1;" d="M 60.898438 55.5 L 54.898438 55.5 L 54.898438 8.648438 L 60.898438 8.648438 C 62.351562 8.648438 63.5 9.800781 63.5 11.25 L 63.5 52.851562 C 63.5 54.351562 62.351562 55.5 60.898438 55.5 Z M 60.898438 55.5 "/>
<path style=" stroke:none;fill-rule:nonzero;fill:rgb(21.568627%,77.647059%,81.568627%);fill-opacity:1;" d="M 54.898438 32.148438 L 54.898438 6.351562 C 54.898438 4.75 53.601562 3.5 52.050781 3.5 L 17.949219 3.5 C 16.351562 3.5 15.101562 4.800781 15.101562 6.351562 L 15.101562 32.148438 Z M 54.898438 32.148438 "/>
<path style=" stroke:none;fill-rule:nonzero;fill:rgb(1.568627%,54.117647%,55.686275%);fill-opacity:1;" d="M 15.050781 46.5 L 15.050781 57.800781 C 15.050781 59.398438 16.351562 60.648438 17.898438 60.648438 L 52 60.648438 C 53.601562 60.648438 54.851562 59.351562 54.851562 57.800781 L 54.851562 46.5 Z M 15.050781 46.5 "/>
<path style=" stroke:none;fill-rule:nonzero;fill:rgb(10.196078%,60.784314%,63.137255%);fill-opacity:1;" d="M 15.050781 32.148438 L 54.898438 32.148438 L 54.898438 46.5 L 15.050781 46.5 Z M 15.050781 32.148438 "/>
<path style=" stroke:none;fill-rule:nonzero;fill:rgb(1.568627%,54.117647%,55.686275%);fill-opacity:1;" d="M 29.800781 48.25 L 3.300781 48.25 C 1.550781 48.25 0.101562 46.800781 0.101562 45.050781 L 0.101562 18.949219 C 0.101562 17.199219 1.550781 15.75 3.300781 15.75 L 29.800781 15.75 C 31.550781 15.75 33 17.199219 33 18.949219 L 33 45.050781 C 33 46.800781 31.550781 48.25 29.800781 48.25 Z M 29.800781 48.25 "/>
<path style=" stroke:none;fill-rule:nonzero;fill:rgb(100%,100%,100%);fill-opacity:1;" d="M 14.300781 34.300781 L 14.300781 41.148438 L 10.449219 41.148438 L 10.449219 22.25 L 18.101562 22.25 C 20.300781 22.25 22.050781 22.800781 23.300781 23.898438 C 24.550781 25 25.199219 26.449219 25.199219 28.300781 C 25.199219 30.101562 24.550781 31.550781 23.300781 32.648438 C 22.050781 33.75 20.300781 34.300781 18.101562 34.300781 Z M 14.300781 31.398438 L 18.101562 31.398438 C 19.148438 31.398438 20 31.101562 20.550781 30.550781 C 21.101562 29.949219 21.398438 29.25 21.398438 28.351562 C 21.398438 27.449219 21.148438 26.699219 20.601562 26.101562 C 20.050781 25.5 19.25 25.199219 18.148438 25.199219 L 14.351562 25.199219 L 14.351562 31.398438 Z M 14.300781 31.398438 "/>
<use xlink:href="#surface5" mask="url(#mask0)"/>
</g>
</svg>
