<?xml version="1.0" encoding="UTF-8"?>
<svg xmlns="http://www.w3.org/2000/svg" xmlns:xlink="http://www.w3.org/1999/xlink" width="64px" height="62px" viewBox="0 0 63 62" version="1.1">
<g id="surface1">
<path style=" stroke:none;fill-rule:nonzero;fill:rgb(25.490196%,64.705882%,93.333333%);fill-opacity:1;" d="M 59.496094 3.839844 L 18.742188 3.839844 C 17.335938 3.839844 16.191406 4.992188 16.191406 6.417969 L 16.191406 17.378906 L 39.117188 24.148438 L 62.042969 17.378906 L 62.042969 6.417969 C 62.042969 4.992188 60.902344 3.839844 59.496094 3.839844 "/>
<path style=" stroke:none;fill-rule:nonzero;fill:rgb(16.862745%,48.627451%,82.745098%);fill-opacity:1;" d="M 62.042969 17.402344 L 16.191406 17.402344 L 16.191406 30.941406 L 39.117188 37.710938 L 62.042969 30.941406 L 62.042969 17.402344 "/>
<path style=" stroke:none;fill-rule:nonzero;fill:rgb(9.411765%,35.294118%,74.117647%);fill-opacity:1;" d="M 62.042969 30.964844 L 16.191406 30.964844 L 16.191406 44.503906 L 39.117188 51.273438 L 62.042969 44.503906 L 62.042969 30.964844 "/>
<path style=" stroke:none;fill-rule:nonzero;fill:rgb(6.27451%,24.705882%,56.862745%);fill-opacity:1;" d="M 62.042969 44.527344 L 16.191406 44.527344 L 16.191406 55.449219 C 16.191406 56.867188 17.335938 58.015625 18.742188 58.015625 L 59.496094 58.015625 C 60.902344 58.015625 62.042969 56.867188 62.042969 55.449219 L 62.042969 44.527344 "/>
<path style=" stroke:none;fill-rule:nonzero;fill:rgb(0%,0%,0%);fill-opacity:0.101961;" d="M 32.714844 13.527344 L 16.191406 13.527344 L 16.191406 50.265625 L 32.714844 50.265625 C 34.117188 50.261719 35.25 49.109375 35.257812 47.6875 L 35.257812 16.105469 C 35.25 14.683594 34.117188 13.53125 32.714844 13.527344 "/>
<path style=" stroke:none;fill-rule:nonzero;fill:rgb(0%,0%,0%);fill-opacity:0.2;" d="M 30.800781 15.464844 L 16.191406 15.464844 L 16.191406 52.203125 L 30.800781 52.203125 C 32.203125 52.203125 33.339844 51.046875 33.34375 49.625 L 33.34375 18.042969 C 33.339844 16.621094 32.203125 15.46875 30.800781 15.464844 "/>
<path style=" stroke:none;fill-rule:nonzero;fill:rgb(0%,0%,0%);fill-opacity:0.2;" d="M 30.800781 15.464844 L 16.191406 15.464844 L 16.191406 48.328125 L 30.800781 48.328125 C 32.203125 48.328125 33.335938 47.175781 33.34375 45.753906 L 33.34375 18.039062 C 33.335938 16.617188 32.203125 15.46875 30.800781 15.464844 "/>
<path style=" stroke:none;fill-rule:nonzero;fill:rgb(0%,0%,0%);fill-opacity:0.2;" d="M 28.890625 15.464844 L 16.191406 15.464844 L 16.191406 48.328125 L 28.890625 48.328125 C 30.289062 48.324219 31.421875 47.175781 31.429688 45.753906 L 31.429688 18.039062 C 31.421875 16.621094 30.289062 15.46875 28.890625 15.464844 "/>
<path style=" stroke:none;fill-rule:nonzero;fill:rgb(9.411765%,35.294118%,74.117647%);fill-opacity:1;" d="M 3.5 15.464844 L 28.957031 15.464844 C 30.359375 15.464844 31.5 16.617188 31.5 18.039062 L 31.5 43.816406 C 31.5 45.238281 30.359375 46.390625 28.957031 46.390625 L 3.5 46.390625 C 2.09375 46.390625 0.957031 45.238281 0.957031 43.816406 L 0.957031 18.039062 C 0.957031 16.617188 2.09375 15.464844 3.5 15.464844 "/>
<path style=" stroke:none;fill-rule:nonzero;fill:rgb(100%,100%,100%);fill-opacity:1;" d="M 23.777344 40.578125 L 20.339844 40.578125 L 16.324219 27.261719 L 12.117188 40.578125 L 8.679688 40.578125 L 4.855469 21.277344 L 8.296875 21.277344 L 10.972656 34.789062 L 14.984375 21.664062 L 17.851562 21.664062 L 21.675781 34.789062 L 24.351562 21.277344 L 27.601562 21.277344 L 23.777344 40.578125 "/>
</g>
</svg>
