<?xml version="1.0" encoding="UTF-8"?>
<svg xmlns="http://www.w3.org/2000/svg" xmlns:xlink="http://www.w3.org/1999/xlink" width="64px" height="62px" viewBox="0 0 63 62" version="1.1">
<defs>
<filter id="alpha" filterUnits="objectBoundingBox" x="0%" y="0%" width="100%" height="100%">
  <feColorMatrix type="matrix" in="SourceGraphic" values="0 0 0 0 1 0 0 0 0 1 0 0 0 0 1 0 0 0 1 0"/>
</filter>
<mask id="mask0">
  <g filter="url(#alpha)">
<rect x="0" y="0" width="63" height="62" style="fill:rgb(0%,0%,0%);fill-opacity:0.101961;stroke:none;"/>
  </g>
</mask>
<clipPath id="clip1">
  <rect x="0" y="0" width="63" height="63"/>
</clipPath>
<g id="surface5" clip-path="url(#clip1)">
<path style=" stroke:none;fill-rule:nonzero;fill:rgb(0%,0%,0%);fill-opacity:1;" d="M 32.476562 13.289062 L 14.652344 13.289062 L 14.652344 50.1875 L 32.476562 50.1875 C 33.957031 50.183594 35.15625 48.972656 35.164062 47.480469 L 35.164062 15.996094 C 35.15625 14.503906 33.957031 13.292969 32.476562 13.289062 Z M 32.476562 13.289062 "/>
</g>
<mask id="mask1">
  <g filter="url(#alpha)">
<rect x="0" y="0" width="63" height="62" style="fill:rgb(0%,0%,0%);fill-opacity:0.2;stroke:none;"/>
  </g>
</mask>
<clipPath id="clip2">
  <rect x="0" y="0" width="63" height="63"/>
</clipPath>
<g id="surface8" clip-path="url(#clip2)">
<path style=" stroke:none;fill-rule:nonzero;fill:rgb(0%,0%,0%);fill-opacity:1;" d="M 31.011719 14.765625 L 14.652344 14.765625 L 14.652344 51.664062 L 31.011719 51.664062 C 32.492188 51.65625 33.691406 50.449219 33.699219 48.957031 L 33.699219 17.46875 C 33.691406 15.976562 32.492188 14.769531 31.011719 14.765625 Z M 31.011719 14.765625 "/>
</g>
<mask id="mask2">
  <g filter="url(#alpha)">
<rect x="0" y="0" width="63" height="62" style="fill:rgb(0%,0%,0%);fill-opacity:0.2;stroke:none;"/>
  </g>
</mask>
<clipPath id="clip3">
  <rect x="0" y="0" width="63" height="63"/>
</clipPath>
<g id="surface11" clip-path="url(#clip3)">
<path style=" stroke:none;fill-rule:nonzero;fill:rgb(0%,0%,0%);fill-opacity:1;" d="M 31.011719 14.765625 L 14.652344 14.765625 L 14.652344 48.710938 L 31.011719 48.710938 C 32.492188 48.707031 33.691406 47.496094 33.699219 46.003906 L 33.699219 17.46875 C 33.691406 15.976562 32.492188 14.769531 31.011719 14.765625 Z M 31.011719 14.765625 "/>
</g>
<mask id="mask3">
  <g filter="url(#alpha)">
<rect x="0" y="0" width="63" height="62" style="fill:rgb(0%,0%,0%);fill-opacity:0.2;stroke:none;"/>
  </g>
</mask>
<clipPath id="clip4">
  <rect x="0" y="0" width="63" height="63"/>
</clipPath>
<g id="surface14" clip-path="url(#clip4)">
<path style=" stroke:none;fill-rule:nonzero;fill:rgb(0%,0%,0%);fill-opacity:1;" d="M 29.546875 14.765625 L 14.652344 14.765625 L 14.652344 48.710938 L 29.546875 48.710938 C 31.027344 48.707031 32.226562 47.496094 32.234375 46.003906 L 32.234375 17.46875 C 32.226562 15.976562 31.027344 14.769531 29.546875 14.765625 Z M 29.546875 14.765625 "/>
</g>
<linearGradient id="linear0" gradientUnits="userSpaceOnUse" x1="177.1808" y1="1551.9205" x2="842.7396" y2="399.2002" gradientTransform="matrix(0.031603,0,0,-0.0318362,0,62.058109)">
<stop offset="0" style="stop-color:rgb(71.764706%,17.254902%,24.705882%);stop-opacity:1;"/>
<stop offset="0.5" style="stop-color:rgb(69.411765%,13.72549%,20.392157%);stop-opacity:1;"/>
<stop offset="1" style="stop-color:rgb(61.568627%,8.627451%,13.72549%);stop-opacity:1;"/>
</linearGradient>
</defs>
<g id="surface1">
<path style=" stroke:none;fill-rule:nonzero;fill:rgb(53.333333%,7.843137%,12.941176%);fill-opacity:1;" d="M 14.652344 39.855469 L 14.652344 54.613281 C 14.652344 58.691406 25.472656 61.996094 38.824219 61.996094 C 52.175781 61.996094 63 58.691406 63 54.613281 L 63 39.855469 Z M 14.652344 39.855469 "/>
<path style=" stroke:none;fill-rule:nonzero;fill:rgb(68.627451%,12.54902%,19.215686%);fill-opacity:1;" d="M 14.652344 23.621094 L 14.652344 39.855469 C 14.652344 43.929688 25.472656 47.234375 38.824219 47.234375 C 52.175781 47.234375 63 43.929688 63 39.855469 L 63 23.621094 Z M 14.652344 23.621094 "/>
<path style=" stroke:none;fill-rule:nonzero;fill:rgb(78.823529%,30.980392%,37.647059%);fill-opacity:1;" d="M 14.652344 7.386719 L 14.652344 23.621094 C 14.652344 27.695312 25.472656 31 38.824219 31 C 52.175781 31 63 27.695312 63 23.621094 L 63 7.386719 Z M 14.652344 7.386719 "/>
<path style=" stroke:none;fill-rule:nonzero;fill:rgb(87.843137%,50.196078%,58.431373%);fill-opacity:1;" d="M 63 7.386719 C 63 3.308594 52.175781 0.00390625 38.824219 0.00390625 C 25.472656 0.00390625 14.652344 3.308594 14.652344 7.386719 C 14.652344 11.460938 25.472656 14.765625 38.824219 14.765625 C 52.175781 14.765625 63 11.460938 63 7.386719 Z M 63 7.386719 "/>
<use xlink:href="#surface5" mask="url(#mask0)"/>
<use xlink:href="#surface8" mask="url(#mask1)"/>
<use xlink:href="#surface11" mask="url(#mask2)"/>
<use xlink:href="#surface14" mask="url(#mask3)"/>
<path style=" stroke:none;fill-rule:nonzero;fill:url(#linear0);" d="M 2.6875 14.765625 L 29.546875 14.765625 C 31.03125 14.765625 32.234375 15.976562 32.234375 17.46875 L 32.234375 44.53125 C 32.234375 46.023438 31.03125 47.234375 29.546875 47.234375 L 2.6875 47.234375 C 1.203125 47.234375 0 46.023438 0 44.53125 L 0 17.46875 C 0 15.976562 1.203125 14.765625 2.6875 14.765625 Z M 2.6875 14.765625 "/>
<path style=" stroke:none;fill-rule:nonzero;fill:rgb(100%,100%,100%);fill-opacity:1;" d="M 14.1875 22.203125 L 18.140625 22.203125 L 24.5 39.792969 L 20.761719 39.792969 L 19.363281 35.597656 L 12.824219 35.597656 L 11.445312 39.792969 L 7.734375 39.792969 Z M 18.519531 32.890625 L 16.488281 26.523438 C 16.324219 26.058594 16.199219 25.578125 16.117188 25.085938 L 16.042969 25.085938 C 15.96875 25.589844 15.84375 26.082031 15.679688 26.5625 L 13.628906 32.890625 Z M 18.519531 32.890625 "/>
</g>
</svg>
