<?xml version="1.0" encoding="UTF-8"?>
<svg xmlns="http://www.w3.org/2000/svg" xmlns:xlink="http://www.w3.org/1999/xlink" width="64px" height="62px" viewBox="0 0 63 62" version="1.1">
<g id="surface1">
<path style=" stroke:none;fill-rule:nonzero;fill:rgb(12.941176%,63.921569%,40%);fill-opacity:1;" d="M 39.117188 3.839844 L 18.742188 3.839844 C 17.335938 3.839844 16.191406 4.996094 16.191406 6.421875 L 16.191406 17.390625 L 39.117188 30.945312 L 50.582031 35.84375 L 62.042969 30.945312 L 62.042969 17.390625 L 39.117188 3.839844 "/>
<path style=" stroke:none;fill-rule:nonzero;fill:rgb(6.27451%,48.627451%,25.490196%);fill-opacity:1;" d="M 16.191406 30.890625 L 39.082031 30.890625 L 39.082031 17.402344 L 16.191406 17.402344 L 16.191406 30.890625 "/>
<path style=" stroke:none;fill-rule:nonzero;fill:rgb(20%,76.862745%,50.588235%);fill-opacity:1;" d="M 59.5 3.839844 L 39.152344 3.839844 L 39.152344 17.328125 L 62.042969 17.328125 L 62.042969 6.410156 C 62.042969 4.988281 60.90625 3.839844 59.5 3.839844 "/>
<path style=" stroke:none;fill-rule:nonzero;fill:rgb(9.411765%,36.078431%,21.568627%);fill-opacity:1;" d="M 39.117188 30.964844 L 16.191406 30.964844 L 16.191406 55.441406 C 16.191406 56.125 16.460938 56.78125 16.941406 57.261719 C 17.417969 57.746094 18.066406 58.015625 18.742188 58.015625 L 59.496094 58.015625 C 60.171875 58.015625 60.820312 57.746094 61.296875 57.261719 C 61.773438 56.78125 62.042969 56.125 62.042969 55.441406 L 62.042969 44.492188 L 39.117188 30.964844 "/>
<path style=" stroke:none;fill-rule:nonzero;fill:rgb(6.27451%,48.627451%,25.490196%);fill-opacity:1;" d="M 39.152344 44.453125 L 62.042969 44.453125 L 62.042969 30.964844 L 39.152344 30.964844 L 39.152344 44.453125 "/>
<path style=" stroke:none;fill-rule:nonzero;fill:rgb(0%,0%,0%);fill-opacity:0.101961;" d="M 32.714844 13.527344 L 16.191406 13.527344 L 16.191406 50.265625 L 32.714844 50.265625 C 34.117188 50.261719 35.25 49.109375 35.257812 47.6875 L 35.257812 16.105469 C 35.25 14.683594 34.117188 13.53125 32.714844 13.527344 "/>
<path style=" stroke:none;fill-rule:nonzero;fill:rgb(0%,0%,0%);fill-opacity:0.2;" d="M 30.800781 15.464844 L 16.191406 15.464844 L 16.191406 52.203125 L 30.800781 52.203125 C 32.203125 52.203125 33.339844 51.046875 33.34375 49.625 L 33.34375 18.042969 C 33.339844 16.621094 32.203125 15.46875 30.800781 15.464844 "/>
<path style=" stroke:none;fill-rule:nonzero;fill:rgb(0%,0%,0%);fill-opacity:0.2;" d="M 30.800781 15.464844 L 16.191406 15.464844 L 16.191406 48.328125 L 30.800781 48.328125 C 32.203125 48.328125 33.335938 47.175781 33.34375 45.753906 L 33.34375 18.039062 C 33.335938 16.617188 32.203125 15.46875 30.800781 15.464844 "/>
<path style=" stroke:none;fill-rule:nonzero;fill:rgb(0%,0%,0%);fill-opacity:0.2;" d="M 28.890625 15.464844 L 16.191406 15.464844 L 16.191406 48.328125 L 28.890625 48.328125 C 30.289062 48.324219 31.421875 47.175781 31.429688 45.753906 L 31.429688 18.039062 C 31.421875 16.621094 30.289062 15.46875 28.890625 15.464844 "/>
<path style=" stroke:none;fill-rule:nonzero;fill:rgb(6.27451%,48.627451%,25.490196%);fill-opacity:1;" d="M 3.5 15.464844 L 28.957031 15.464844 C 29.628906 15.464844 30.277344 15.734375 30.753906 16.21875 C 31.230469 16.703125 31.5 17.355469 31.5 18.039062 L 31.5 43.816406 C 31.5 44.5 31.230469 45.15625 30.753906 45.636719 C 30.277344 46.121094 29.628906 46.390625 28.957031 46.390625 L 3.5 46.390625 C 2.824219 46.390625 2.179688 46.121094 1.703125 45.636719 C 1.222656 45.15625 0.957031 44.5 0.957031 43.816406 L 0.957031 18.039062 C 0.957031 17.355469 1.222656 16.703125 1.703125 16.21875 C 2.179688 15.734375 2.824219 15.464844 3.5 15.464844 "/>
<path style=" stroke:none;fill-rule:nonzero;fill:rgb(100%,100%,100%);fill-opacity:1;" d="M 7.6875 40.578125 L 13.875 30.902344 L 8.207031 21.277344 L 12.769531 21.277344 L 15.859375 27.429688 C 16.144531 28.011719 16.339844 28.445312 16.449219 28.734375 L 16.488281 28.734375 C 16.691406 28.269531 16.90625 27.816406 17.128906 27.375 L 20.433594 21.277344 L 24.621094 21.277344 L 18.808594 30.847656 L 24.769531 40.578125 L 20.316406 40.578125 L 16.742188 33.820312 C 16.574219 33.535156 16.429688 33.234375 16.316406 32.921875 L 16.261719 32.921875 C 16.15625 33.226562 16.019531 33.519531 15.847656 33.796875 L 12.167969 40.578125 L 7.6875 40.578125 "/>
</g>
</svg>
