<?xml version="1.0" encoding="UTF-8"?>
<svg xmlns="http://www.w3.org/2000/svg" xmlns:xlink="http://www.w3.org/1999/xlink" width="64px" height="62px" viewBox="0 0 63 62" version="1.1">
<g id="surface1">
<path style=" stroke:none;fill-rule:nonzero;fill:rgb(92.941176%,42.352941%,27.843137%);fill-opacity:1;" d="M 35.277344 3.839844 C 20.527344 3.882812 8.582031 15.980469 8.539062 30.914062 L 42.414062 38.140625 L 35.277344 3.839844 "/>
<path style=" stroke:none;fill-rule:nonzero;fill:rgb(100%,56.078431%,41.960784%);fill-opacity:1;" d="M 35.328125 3.839844 C 50.066406 3.882812 62.003906 15.992188 62.042969 30.941406 L 48.683594 40.148438 L 35.328125 30.941406 L 35.328125 3.839844 "/>
<path style=" stroke:none;fill-rule:nonzero;fill:rgb(82.745098%,32.156863%,18.823529%);fill-opacity:1;" d="M 35.292969 58.015625 C 50.046875 57.972656 62 45.886719 62.042969 30.964844 L 8.539062 30.964844 C 8.582031 45.886719 20.535156 57.972656 35.292969 58.015625 "/>
<path style=" stroke:none;fill-rule:nonzero;fill:rgb(0%,0%,0%);fill-opacity:0.101961;" d="M 32.777344 13.527344 L 14.894531 13.527344 C 5.832031 24.335938 6.609375 40.40625 16.671875 50.265625 L 32.777344 50.265625 C 34.183594 50.265625 35.324219 49.113281 35.328125 47.6875 L 35.328125 16.105469 C 35.324219 14.683594 34.183594 13.53125 32.777344 13.527344 "/>
<path style=" stroke:none;fill-rule:nonzero;fill:rgb(0%,0%,0%);fill-opacity:0.2;" d="M 30.867188 15.464844 L 13.445312 15.464844 C 5.273438 27.214844 7.667969 43.398438 18.878906 52.203125 L 30.867188 52.203125 C 32.273438 52.199219 33.410156 51.046875 33.414062 49.625 L 33.414062 18.042969 C 33.410156 16.621094 32.273438 15.46875 30.867188 15.464844 "/>
<path style=" stroke:none;fill-rule:nonzero;fill:rgb(0%,0%,0%);fill-opacity:0.2;" d="M 30.867188 15.464844 L 13.433594 15.464844 C 6.457031 25.476562 7.058594 38.996094 14.898438 48.328125 L 30.867188 48.328125 C 32.269531 48.324219 33.40625 47.175781 33.414062 45.753906 L 33.414062 18.039062 C 33.40625 16.617188 32.269531 15.46875 30.867188 15.464844 "/>
<path style=" stroke:none;fill-rule:nonzero;fill:rgb(0%,0%,0%);fill-opacity:0.2;" d="M 28.953125 15.464844 L 13.433594 15.464844 C 6.457031 25.472656 7.058594 38.996094 14.894531 48.328125 L 28.953125 48.328125 C 30.359375 48.324219 31.496094 47.175781 31.5 45.753906 L 31.5 18.039062 C 31.496094 16.621094 30.359375 15.46875 28.953125 15.464844 "/>
<path style=" stroke:none;fill-rule:nonzero;fill:rgb(76.862745%,24.313725%,10.980392%);fill-opacity:1;" d="M 3.5 15.464844 L 28.957031 15.464844 C 29.628906 15.464844 30.277344 15.734375 30.753906 16.21875 C 31.230469 16.703125 31.5 17.355469 31.5 18.039062 L 31.5 43.816406 C 31.5 44.5 31.230469 45.15625 30.753906 45.636719 C 30.277344 46.121094 29.628906 46.390625 28.957031 46.390625 L 3.5 46.390625 C 2.824219 46.390625 2.179688 46.121094 1.703125 45.636719 C 1.222656 45.15625 0.957031 44.5 0.957031 43.816406 L 0.957031 18.039062 C 0.957031 17.355469 1.222656 16.703125 1.703125 16.21875 C 2.179688 15.734375 2.824219 15.464844 3.5 15.464844 "/>
<path style=" stroke:none;fill-rule:nonzero;fill:rgb(97.647059%,96.862745%,96.862745%);fill-opacity:1;" d="M 16.183594 21.277344 C 18.066406 21.148438 19.933594 21.699219 21.453125 22.832031 C 22.714844 23.96875 23.386719 25.625 23.28125 27.332031 C 23.300781 28.421875 22.984375 29.492188 22.375 30.394531 C 21.753906 31.390625 20.863281 32.1875 19.804688 32.683594 C 18.597656 33.25 17.277344 33.53125 15.945312 33.503906 L 12.289062 33.503906 L 12.289062 40.578125 L 8.539062 40.578125 L 8.539062 21.277344 L 16.183594 21.277344 M 12.289062 30.316406 L 15.515625 30.316406 C 16.539062 30.390625 17.550781 30.085938 18.367188 29.460938 C 19.027344 29.03125 19.398438 28.269531 19.332031 27.480469 C 19.332031 25.34375 18.097656 24.277344 15.636719 24.277344 L 12.289062 24.277344 L 12.289062 30.316406 "/>
</g>
</svg>
