<?xml version="1.0" encoding="UTF-8"?>
<svg xmlns="http://www.w3.org/2000/svg" xmlns:xlink="http://www.w3.org/1999/xlink" width="64px" height="62px" viewBox="0 0 63 62" version="1.1">
<g id="surface1">
<path style=" stroke:none;fill-rule:nonzero;fill:rgb(1.176471%,39.215686%,72.156863%);fill-opacity:1;" d="M 55.472656 3.839844 L 22.675781 3.839844 C 21.195312 3.839844 19.996094 5.050781 19.996094 6.542969 L 19.996094 9.617188 L 38.484375 15.390625 L 58.152344 9.617188 L 58.152344 6.542969 C 58.152344 5.824219 57.867188 5.136719 57.367188 4.628906 C 56.863281 4.125 56.183594 3.839844 55.472656 3.839844 "/>
<path style=" stroke:none;fill-rule:nonzero;fill:rgb(3.921569%,15.294118%,40.392157%);fill-opacity:1;" d="M 61.304688 33.65625 C 61.585938 32.765625 61.808594 31.855469 61.972656 30.9375 C 61.972656 30.476562 61.730469 30.050781 61.335938 29.824219 L 61.3125 29.804688 L 61.304688 29.804688 L 40.621094 17.863281 C 40.535156 17.804688 40.441406 17.75 40.347656 17.703125 C 39.546875 17.300781 38.601562 17.300781 37.800781 17.703125 C 37.707031 17.75 37.613281 17.804688 37.527344 17.863281 L 16.84375 29.804688 L 16.835938 29.804688 L 16.8125 29.824219 C 16.417969 30.050781 16.175781 30.476562 16.175781 30.9375 C 16.339844 31.855469 16.5625 32.765625 16.84375 33.65625 L 38.773438 49.910156 L 61.304688 33.65625 "/>
<path style=" stroke:none;fill-rule:nonzero;fill:rgb(15.686275%,65.882353%,91.764706%);fill-opacity:1;" d="M 46.769531 9.652344 L 33.410156 9.652344 L 29.554688 15.445312 L 33.410156 21.242188 L 46.769531 32.828125 L 58.222656 32.828125 L 58.222656 21.242188 L 46.769531 9.652344 "/>
<path style=" stroke:none;fill-rule:nonzero;fill:rgb(0%,47.058824%,83.137255%);fill-opacity:1;" d="M 19.996094 21.203125 L 33.304688 21.203125 L 33.304688 9.652344 L 19.996094 9.652344 L 19.996094 21.203125 "/>
<path style=" stroke:none;fill-rule:nonzero;fill:rgb(31.372549%,85.098039%,100%);fill-opacity:1;" d="M 46.753906 21.203125 L 58.152344 21.203125 L 58.152344 9.652344 L 46.753906 9.652344 L 46.753906 21.203125 "/>
<path style=" stroke:none;fill-rule:nonzero;fill:rgb(1.176471%,39.215686%,72.156863%);fill-opacity:1;" d="M 46.726562 32.878906 L 33.363281 21.277344 L 19.996094 21.277344 L 19.996094 32.878906 L 33.363281 44.480469 L 54.046875 47.898438 L 46.726562 32.878906 "/>
<path style=" stroke:none;fill-rule:nonzero;fill:rgb(0%,47.058824%,83.137255%);fill-opacity:1;" d="M 33.375 32.828125 L 46.683594 32.828125 L 46.683594 21.277344 L 33.375 21.277344 L 33.375 32.828125 "/>
<path style=" stroke:none;fill-rule:nonzero;fill:rgb(2.352941%,29.019608%,54.901961%);fill-opacity:1;" d="M 19.996094 44.453125 L 33.304688 44.453125 L 33.304688 32.902344 L 19.996094 32.902344 L 19.996094 44.453125 "/>
<path style=" stroke:none;fill-rule:nonzero;fill:rgb(0%,47.058824%,83.137255%);fill-opacity:1;" d="M 46.753906 44.453125 L 58.152344 44.453125 L 58.152344 32.902344 L 46.753906 32.902344 L 46.753906 44.453125 "/>
<path style=" stroke:none;fill-rule:nonzero;fill:rgb(3.921569%,15.294118%,40.392157%);fill-opacity:0.501961;" d="M 39.464844 48.832031 L 16.953125 32.203125 L 17.898438 30.519531 C 17.898438 30.519531 38.402344 42.355469 38.71875 42.53125 C 38.980469 42.636719 39.269531 42.628906 39.523438 42.507812 C 39.816406 42.34375 60.390625 30.460938 60.390625 30.460938 L 61.335938 32.140625 L 39.464844 48.832031 "/>
<path style=" stroke:none;fill-rule:nonzero;fill:rgb(7.843137%,56.470588%,87.45098%);fill-opacity:1;" d="M 61.40625 32.082031 L 61.382812 32.09375 L 61.375 32.101562 L 40.695312 44.054688 C 39.859375 44.601562 38.800781 44.664062 37.90625 44.230469 L 45.109375 54.027344 L 60.863281 57.507812 L 60.863281 57.515625 C 61.605469 56.96875 62.046875 56.09375 62.042969 55.164062 L 62.042969 30.964844 C 62.042969 31.425781 61.800781 31.851562 61.40625 32.082031 "/>
<path style=" stroke:none;fill-rule:nonzero;fill:rgb(0%,0%,0%);fill-opacity:0.0509804;" d="M 62.042969 55.164062 L 62.042969 53.738281 L 42.992188 42.734375 L 40.695312 44.0625 C 39.859375 44.609375 38.800781 44.675781 37.90625 44.238281 L 45.109375 54.03125 L 60.863281 57.507812 L 60.863281 57.515625 C 61.605469 56.96875 62.046875 56.09375 62.042969 55.164062 "/>
<path style=" stroke:none;fill-rule:nonzero;fill:rgb(0%,0%,0%);fill-opacity:0.101961;" d="M 61.972656 55.910156 L 41.070312 43.878906 L 40.695312 44.09375 C 39.859375 44.640625 38.804688 44.707031 37.90625 44.269531 L 45.117188 54.039062 L 60.886719 57.507812 L 60.886719 57.515625 C 61.421875 57.121094 61.804688 56.554688 61.972656 55.910156 "/>
<path style=" stroke:none;fill-rule:nonzero;fill:rgb(15.686275%,65.882353%,91.764706%);fill-opacity:1;" d="M 16.84375 32.101562 L 16.84375 32.085938 L 16.820312 32.085938 L 16.769531 32.046875 C 16.394531 31.816406 16.171875 31.40625 16.175781 30.964844 L 16.175781 55.121094 C 16.175781 55.890625 16.476562 56.625 17.011719 57.167969 C 17.550781 57.714844 18.277344 58.019531 19.039062 58.015625 L 59.09375 58.015625 C 59.332031 58.015625 59.566406 57.980469 59.796875 57.917969 C 59.917969 57.898438 60.035156 57.859375 60.140625 57.804688 C 60.183594 57.800781 60.222656 57.789062 60.257812 57.765625 C 60.414062 57.699219 60.558594 57.617188 60.695312 57.515625 C 60.730469 57.496094 60.753906 57.496094 60.769531 57.457031 L 16.84375 32.101562 "/>
<path style=" stroke:none;fill-rule:nonzero;fill:rgb(0%,0%,0%);fill-opacity:0.101961;" d="M 35.214844 47.6875 L 35.214844 16.105469 C 35.210938 14.683594 34.078125 13.53125 32.679688 13.527344 L 20.042969 13.527344 L 20.042969 27.945312 L 16.839844 29.796875 L 16.832031 29.796875 L 16.808594 29.8125 C 16.417969 30.042969 16.175781 30.46875 16.175781 30.929688 L 16.175781 30.9375 L 16.175781 30.929688 L 16.175781 50.265625 L 32.679688 50.265625 C 34.078125 50.261719 35.210938 49.109375 35.214844 47.6875 "/>
<path style=" stroke:none;fill-rule:nonzero;fill:rgb(0%,0%,0%);fill-opacity:0.2;" d="M 33.304688 49.625 L 33.304688 18.042969 C 33.300781 16.621094 32.167969 15.46875 30.765625 15.464844 L 20.042969 15.464844 L 20.042969 27.949219 L 16.839844 29.800781 L 16.835938 29.804688 L 16.808594 29.820312 C 16.417969 30.046875 16.175781 30.476562 16.175781 30.933594 L 16.175781 30.941406 L 16.175781 30.933594 L 16.175781 52.203125 L 30.765625 52.203125 C 32.167969 52.203125 33.300781 51.046875 33.304688 49.625 "/>
<path style=" stroke:none;fill-rule:nonzero;fill:rgb(0%,0%,0%);fill-opacity:0.2;" d="M 33.304688 45.753906 L 33.304688 18.039062 C 33.300781 16.617188 32.167969 15.46875 30.765625 15.464844 L 20.042969 15.464844 L 20.042969 27.945312 L 16.839844 29.796875 L 16.835938 29.800781 L 16.808594 29.816406 C 16.417969 30.046875 16.175781 30.46875 16.175781 30.929688 L 16.175781 30.941406 L 16.175781 30.929688 L 16.175781 48.328125 L 30.765625 48.328125 C 32.167969 48.328125 33.300781 47.175781 33.304688 45.753906 "/>
<path style=" stroke:none;fill-rule:nonzero;fill:rgb(0%,0%,0%);fill-opacity:0.2;" d="M 31.394531 45.753906 L 31.394531 18.039062 C 31.386719 16.621094 30.253906 15.46875 28.855469 15.464844 L 20.039062 15.464844 L 20.039062 27.945312 L 16.839844 29.796875 L 16.832031 29.800781 L 16.808594 29.816406 C 16.417969 30.046875 16.175781 30.46875 16.175781 30.929688 L 16.175781 30.941406 L 16.175781 30.929688 L 16.175781 48.328125 L 28.855469 48.328125 C 30.253906 48.324219 31.386719 47.175781 31.394531 45.753906 "/>
<path style=" stroke:none;fill-rule:nonzero;fill:rgb(0%,47.058824%,83.137255%);fill-opacity:1;" d="M 3.496094 15.464844 L 28.921875 15.464844 C 29.597656 15.464844 30.242188 15.734375 30.71875 16.21875 C 31.195312 16.703125 31.464844 17.355469 31.464844 18.039062 L 31.464844 43.816406 C 31.464844 44.5 31.195312 45.15625 30.71875 45.636719 C 30.242188 46.121094 29.597656 46.390625 28.921875 46.390625 L 3.496094 46.390625 C 2.824219 46.390625 2.175781 46.121094 1.699219 45.636719 C 1.222656 45.15625 0.957031 44.5 0.957031 43.816406 L 0.957031 18.039062 C 0.957031 17.355469 1.222656 16.703125 1.699219 16.21875 C 2.175781 15.734375 2.824219 15.464844 3.496094 15.464844 "/>
<path style=" stroke:none;fill-rule:nonzero;fill:rgb(100%,100%,100%);fill-opacity:1;" d="M 8.316406 26.039062 C 8.992188 24.582031 10.085938 23.363281 11.453125 22.539062 C 12.96875 21.664062 14.691406 21.226562 16.4375 21.277344 C 18.050781 21.242188 19.648438 21.65625 21.046875 22.472656 C 22.359375 23.265625 23.421875 24.429688 24.097656 25.820312 C 24.832031 27.351562 25.195312 29.035156 25.164062 30.738281 C 25.199219 32.519531 24.824219 34.28125 24.0625 35.886719 C 23.375 37.328125 22.28125 38.53125 20.921875 39.351562 C 19.46875 40.195312 17.8125 40.621094 16.136719 40.578125 C 14.488281 40.621094 12.859375 40.199219 11.425781 39.371094 C 10.101562 38.574219 9.027344 37.414062 8.335938 36.019531 C 7.597656 34.507812 7.226562 32.839844 7.253906 31.15625 C 7.222656 29.390625 7.585938 27.644531 8.316406 26.039062 M 11.660156 34.261719 C 12.019531 35.179688 12.632812 35.980469 13.421875 36.566406 C 14.230469 37.136719 15.195312 37.429688 16.175781 37.40625 C 17.226562 37.445312 18.257812 37.140625 19.121094 36.539062 C 19.902344 35.953125 20.496094 35.148438 20.832031 34.226562 C 21.207031 33.199219 21.394531 32.109375 21.378906 31.011719 C 21.390625 29.90625 21.21875 28.804688 20.863281 27.757812 C 20.554688 26.816406 19.980469 25.984375 19.210938 25.363281 C 18.371094 24.730469 17.339844 24.40625 16.292969 24.453125 C 15.289062 24.425781 14.300781 24.722656 13.472656 25.300781 C 12.667969 25.886719 12.042969 26.691406 11.671875 27.621094 C 10.851562 29.753906 10.847656 32.121094 11.660156 34.261719 "/>
</g>
</svg>
