<?xml version="1.0" encoding="UTF-8" standalone="no"?>
<!-- Created with Inkscape (http://www.inkscape.org/) -->

<svg
   width="16"
   height="16"
   viewBox="0 0 16 16.000001"
   version="1.1"
   id="svg5"
   inkscape:version="1.3.2 (091e20e, 2023-11-25)"
   sodipodi:docname="application-x-java-archive.svg"
   xmlns:inkscape="http://www.inkscape.org/namespaces/inkscape"
   xmlns:sodipodi="http://sodipodi.sourceforge.net/DTD/sodipodi-0.dtd"
   xmlns:xlink="http://www.w3.org/1999/xlink"
   xmlns="http://www.w3.org/2000/svg"
   xmlns:svg="http://www.w3.org/2000/svg">
  <sodipodi:namedview
     id="namedview7"
     pagecolor="#ffffff"
     bordercolor="#000000"
     borderopacity="0.25"
     inkscape:showpageshadow="2"
     inkscape:pageopacity="0.0"
     inkscape:pagecheckerboard="0"
     inkscape:deskcolor="#d1d1d1"
     inkscape:document-units="px"
     showgrid="false"
     inkscape:zoom="51.6875"
     inkscape:cx="7.9903265"
     inkscape:cy="8.019347"
     inkscape:window-width="1680"
     inkscape:window-height="994"
     inkscape:window-x="0"
     inkscape:window-y="25"
     inkscape:window-maximized="1"
     inkscape:current-layer="svg5" />
  <defs
     id="defs2">
    <radialGradient
       xlink:href="#e"
       id="t"
       cx="18.156437"
       cy="20.414816"
       r="6.5"
       fx="18.156437"
       fy="20.414816"
       gradientTransform="matrix(-0.31868478,0,0,-1.8451476,11.790355,44.721882)"
       gradientUnits="userSpaceOnUse" />
    <linearGradient
       id="e">
      <stop
         offset="0"
         id="stop1" />
      <stop
         offset="1"
         stop-opacity="0"
         id="stop2" />
    </linearGradient>
    <radialGradient
       xlink:href="#g"
       id="s"
       cx="25.195063"
       cy="3.1347313"
       r="15.475195"
       fx="25.195063"
       fy="3.1347313"
       gradientTransform="matrix(0.35086527,0,0,0.07341516,-0.47709177,6.871799)"
       gradientUnits="userSpaceOnUse" />
    <linearGradient
       id="g">
      <stop
         offset="0"
         stop-color="#fff"
         stop-opacity="0"
         id="stop12" />
      <stop
         offset=".2"
         stop-color="#fff"
         stop-opacity="0"
         id="stop13" />
      <stop
         offset=".60000002"
         stop-color="#fff"
         id="stop14" />
      <stop
         offset="1"
         stop-color="#fff"
         stop-opacity="0"
         id="stop15" />
    </linearGradient>
    <radialGradient
       xlink:href="#e"
       id="r"
       cx="20.611172"
       cy="20.647474"
       r="6.5"
       fx="20.611172"
       fy="20.647474"
       gradientTransform="matrix(0.2066229,5.1759e-4,0.00220158,-1.0050456,6.1023858,27.561249)"
       gradientUnits="userSpaceOnUse" />
    <radialGradient
       xlink:href="#f"
       id="q"
       cx="20.611172"
       cy="20.647474"
       r="6.5"
       fx="20.611172"
       fy="20.647474"
       gradientTransform="matrix(0.21015855,5.1759e-4,0.00223803,-1.0050456,6.2441967,27.561249)"
       gradientUnits="userSpaceOnUse" />
    <linearGradient
       id="f">
      <stop
         offset="0"
         stop-color="#fff"
         id="stop20" />
      <stop
         offset="1"
         stop-color="#eeeeec"
         stop-opacity="0"
         id="stop21" />
    </linearGradient>
    <radialGradient
       xlink:href="#h"
       id="p"
       cx="18.156437"
       cy="20.414816"
       r="6.5"
       fx="18.156437"
       fy="20.414816"
       gradientTransform="matrix(-0.31868478,0,0,-1.101344,12.021246,29.537234)"
       gradientUnits="userSpaceOnUse" />
    <linearGradient
       id="h">
      <stop
         offset="0"
         stop-color="#fff"
         id="stop8" />
      <stop
         offset="1"
         stop-color="#fff"
         stop-opacity="0"
         id="stop9" />
    </linearGradient>
    <linearGradient
       xlink:href="#c"
       id="m"
       x1="19.848904"
       x2="35.147346"
       y1="5.921916"
       y2="5.921916"
       gradientTransform="matrix(0.9132,0,0,0.96971,1.8889252,1.7120119)"
       gradientUnits="userSpaceOnUse"
       spreadMethod="reflect" />
    <linearGradient
       id="c">
      <stop
         offset="0"
         stop-color="#c17d11"
         id="stop18" />
      <stop
         offset="1"
         stop-color="#8f5902"
         id="stop19" />
    </linearGradient>
    <linearGradient
       xlink:href="#d"
       id="n"
       x1="23.196106"
       x2="25.542664"
       y1="2.1696546"
       y2="10.631669"
       gradientTransform="matrix(0.9132,0,0,0.96971,1.8889252,1.7120119)"
       gradientUnits="userSpaceOnUse" />
    <linearGradient
       id="d">
      <stop
         offset="0"
         stop-color="#eeeeec"
         id="stop10" />
      <stop
         offset="1"
         stop-color="#eeeeec"
         stop-opacity="0"
         id="stop11" />
    </linearGradient>
    <radialGradient
       xlink:href="#i"
       id="o"
       cx="21.619385"
       cy="7.0134811"
       r="8.6202145"
       fx="21.619385"
       fy="7.0134811"
       gradientTransform="matrix(1.30377,-0.00636,0.00137,0.22125,-6.5769107,6.7568347)"
       gradientUnits="userSpaceOnUse" />
    <linearGradient
       id="i">
      <stop
         offset="0"
         stop-color="#e9b96e"
         id="stop16" />
      <stop
         offset="1"
         stop-color="#8f5902"
         id="stop17" />
    </linearGradient>
    <linearGradient
       xlink:href="#b"
       id="l"
       x1="7"
       x2="41"
       y1="23.464724"
       y2="23.464724"
       gradientTransform="matrix(0.23089131,0,0,0.243,2.533824,3.4048649)"
       gradientUnits="userSpaceOnUse" />
    <linearGradient
       id="b">
      <stop
         offset="0"
         stop-color="#eeeeec"
         stop-opacity=".78431374"
         id="stop5" />
      <stop
         offset=".15000001"
         stop-color="#eeeeec"
         stop-opacity=".49803922"
         id="stop6" />
      <stop
         offset=".5"
         stop-color="#eeeeec"
         stop-opacity="0"
         id="stop7" />
      <stop
         offset=".85000002"
         stop-color="#eeeeec"
         stop-opacity=".49803922"
         id="stop22" />
      <stop
         offset="1"
         stop-color="#eeeeec"
         stop-opacity=".78431374"
         id="stop23" />
    </linearGradient>
    <linearGradient
       xlink:href="#a"
       id="k"
       x1="31.984617"
       x2="-12.223987"
       y1="21.999998"
       y2="21.999998"
       gradientTransform="matrix(0.23089131,0,0,-0.243,2.533824,15.068863)"
       gradientUnits="userSpaceOnUse"
       spreadMethod="reflect" />
    <linearGradient
       id="a">
      <stop
         offset="0"
         stop-color="#fff"
         stop-opacity=".48958334"
         id="stop24" />
      <stop
         offset="1"
         stop-opacity="0"
         id="stop25" />
    </linearGradient>
    <filter
       id="j"
       width="1.1137971"
       height="2.418103"
       x="-0.056898545"
       y="-0.70905148">
      <feGaussianBlur
         stdDeviation=".97980729"
         id="feGaussianBlur23" />
    </filter>
  </defs>
  <path
     id="rect234"
     style="fill:#7d7d7b"
     d="m 2,0 h 9.5 L 14,2.5 V 16 H 2 Z"
     sodipodi:nodetypes="cccccc" />
  <path
     id="rect1746"
     style="fill:#fafafa"
     d="m 3,1 h 7 v 2 h 3 V 15 H 3 Z"
     sodipodi:nodetypes="ccccccc" />
  <path
     id="rect1800"
     style="fill:#fafafa;stroke-width:0.25"
     d="m 11,1 1,1.0000003 h -1 z"
     sodipodi:nodetypes="cccc" />
  <path
     fill-rule="evenodd"
     d="m 44.401966,41.570206 a 20.664303,1.657997 0 1 1 -41.3286056,0 20.664303,1.657997 0 1 1 41.3286056,0 z"
     color="#000000"
     enable-background="accumulate"
     filter="url(#j)"
     opacity="0.4"
     overflow="visible"
     style="marker:none"
     transform="matrix(0.22346766,0,0,0.52296273,2.7705894,-8.4973796)"
     id="path23" />
  <path
     fill="url(#k)"
     d="m 8.0752104,4.2553652 c -1.8465426,0 -2.4243567,0.3644997 -2.4243567,0.8504997 v 0.6074997 c -0.4617822,0 -1.3853463,0.2430006 -1.3853463,1.7010006 l -3e-7,5.4674998 c -0.057722,-0.54675 1.7067468,-0.972 3.809703,-0.972 2.1029569,0 3.8097029,0.42525 3.8097029,0.972 V 7.4143649 c 0,-1.458 -0.923564,-1.701 -1.385346,-1.7010003 V 5.1058649 c 0,-0.486 -0.5766419,-0.8504997 -2.4243566,-0.8504997 z"
     id="path24"
     style="fill:url(#k);stroke-width:0.243" />
  <path
     fill="#eeeeec"
     fill-opacity="0.491124"
     stroke="#ffffff"
     stroke-linecap="round"
     stroke-linejoin="round"
     stroke-width="0.243"
     d="m 11.884954,13.003326 a 3.8097195,0.97199766 0 1 1 -7.6194394,0 3.8097195,0.97199766 0 1 1 7.6194394,0 z"
     id="path25" />
  <path
     fill="url(#l)"
     stroke="#888a85"
     stroke-linecap="round"
     stroke-linejoin="round"
     d="m 8.0752104,4.2553652 c 1.847715,0 2.4243566,0.3645003 2.4243566,0.8505003 v 0.6074997 c 0.461783,0 1.385347,0.4860006 1.385347,1.9440006 v 5.3459992 c 0,0.6075 -1.700039,0.972 -3.8102898,0.972 -2.1102507,0 -3.8091171,-0.3645 -3.8091171,-0.972 l 3e-7,-5.3459998 c 0,-1.458 0.9235647,-1.944 1.3853469,-1.944 V 5.1058655 c 0,-0.486 0.5778138,-0.8505003 2.4243561,-0.8505003 z"
     id="path26"
     style="fill:url(#l);stroke-width:0.243" />
  <path
     fill="none"
     stroke="#ffffff"
     stroke-linecap="round"
     stroke-linejoin="round"
     d="m 8.0659602,4.4929133 c -0.9083787,0 -1.4823882,0.09005 -1.8090168,0.2255436 -0.163314,0.067747 -0.2596134,0.1492185 -0.31026,0.212625 -0.050646,0.063406 -0.064938,0.1109397 -0.064938,0.18225 v 0.6074997 c 6e-4,0.064637 -0.023544,0.1268079 -0.066973,0.1725147 -0.04343,0.045707 -0.1025025,0.071109 -0.1639179,0.070486 -0.8081189,0.1140335 -1.1043074,0.8816291 -1.154456,1.6935329 v 5.3459998 c 0,0.03378 0.022032,0.09895 0.1803834,0.197437 0.1583514,0.09849 0.419691,0.200741 0.7503963,0.280969 0.66141,0.160455 1.605417,0.250594 2.6480322,0.250594 1.0426152,0 1.9866226,-0.09014 2.6480326,-0.250594 0.330705,-0.08023 0.592045,-0.18248 0.750396,-0.280969 0.158351,-0.09849 0.180384,-0.163656 0.180384,-0.197437 l -0.0092,-5.3437312 c 0.01473,-0.8334405 -0.346337,-1.5794994 -1.154456,-1.693533 -0.06142,6.3e-4 -0.207347,-0.024777 -0.163917,-0.070486 0.04847,-0.051014 -0.06757,-0.1078779 -0.06697,-0.1725144 v -0.6075 c 0,-0.071412 -0.01438,-0.1188786 -0.06494,-0.18225 C 10.143926,4.8699794 10.047449,4.7884598 9.8842278,4.7207258 9.5577876,4.5852572 8.9749353,4.4929133 8.0659602,4.4929133 Z"
     opacity="0.75"
     id="path27"
     style="stroke-width:0.243" />
  <g
     stroke-linecap="round"
     stroke-linejoin="round"
     transform="matrix(0.23089131,0,0,0.243,2.5338246,3.1839452)"
     id="g31">
    <path
       fill="url(#m)"
       stroke="#8f5902"
       stroke-width="1.02589"
       d="m 33.499999,3.4999983 -1.999998,6.454569 c 0,0.8029217 -3.36,1.4545687 -7.500001,1.4545687 -4.14,0 -7.5,-0.651647 -7.5,-1.4545687 l -2.000001,-6.454569"
       id="path28"
       style="fill:url(#m)" />
    <path
       fill="none"
       stroke="url(#n)"
       stroke-width="1.02589"
       d="m 15.999999,5.5302386 c 0.516029,1.6673849 1.341639,3.8610817 1.384656,4.0000795 0.03086,0.019391 0.01982,0.030495 0.08561,0.060607 0.26317,0.1204478 0.761407,0.2705405 1.398326,0.3939456 1.273836,0.2468103 3.114286,0.3939453 5.136706,0.3939453 2.022419,0 3.862869,-0.147135 5.136706,-0.3939453 0.636919,-0.1234051 1.135155,-0.2734978 1.398325,-0.3939456 0.06579,-0.030112 0.05475,-0.041216 0.08561,-0.060607 C 30.66896,9.3913203 31.483971,7.1976235 32,5.5302386 c 0,0 -2.000001,1 -7.928572,0.9285714 C 18.00044,6.3856655 15.999999,5.5302386 15.999999,5.5302386 Z"
       opacity="0.25"
       id="path29"
       style="stroke:url(#n)" />
    <path
       fill="url(#o)"
       stroke="#8f5902"
       stroke-width="0.835617"
       d="m 32.425897,8.5 a 8.212949,1.5 0 1 1 -16.425898,0 8.212949,1.5 0 1 1 16.425898,0 z"
       transform="matrix(1.15671,0,0,1.30305,-4.0073595,-7.6213216)"
       id="path30"
       style="fill:url(#o)" />
    <path
       fill="none"
       stroke="#eeeeec"
       stroke-width="0.835617"
       d="m 24.21875,7.71875 c -2.231892,0 -4.26181,0.1461181 -5.6875,0.40625 -0.614724,0.1121627 -1.035393,0.249148 -1.375,0.375 0.339607,0.125852 0.760276,0.2628373 1.375,0.375 1.42569,0.2601319 3.455608,0.40625 5.6875,0.40625 2.231892,0 4.26181,-0.1461181 5.6875,-0.40625 C 30.520974,8.7628373 30.941644,8.625852 31.28125,8.5 30.941643,8.374148 30.520974,8.2371627 29.90625,8.125 28.48056,7.8648681 26.450642,7.71875 24.21875,7.71875 Z"
       opacity="0.25"
       transform="matrix(1.15671,0,0,1.30305,-4.0073595,-7.6213216)"
       id="path31" />
  </g>
  <path
     fill="none"
     stroke="#888a85"
     stroke-linecap="round"
     stroke-linejoin="round"
     stroke-width="0.23991"
     d="m 10.039254,4.9828202 c 0,0.1349889 -0.8798919,0.244545 -1.9640436,0.244545 -1.0841514,0 -1.9640424,-0.1095561 -1.9640424,-0.244545"
     id="path32" />
  <path
     fill="url(#p)"
     d="m 8.0752104,5.5918652 c -1.0390098,0 -1.8471285,-0.1215 -1.8471285,-0.18225 v 0.5308551 c -0.3463368,0 -0.9235647,0.6233943 -0.9235647,1.8383943 v 5.7173864 c 0.6961119,0.220762 1.3853466,0.357614 2.308911,0.357614 0,0 -3e-7,-3.823572 -3e-7,-5.8320001 0,-1.215 0.4617825,-1.7009997 0.4617825,-1.7009997 z"
     opacity="0.4"
     id="path33"
     style="fill:url(#p);stroke-width:0.243" />
  <path
     fill="url(#q)"
     d="m 10.037785,5.4096152 c 0.132889,0 0.346336,-0.18225 0.346336,-0.18225 v 0.729 c 0.692674,0 1.154456,0.6074994 1.154456,1.8224994 0,1.8561693 0,5.4908614 0,5.4908614 -0.464074,0.220761 -0.07696,0.243 -0.692673,0.243 0,0 0,-3.482433 0,-5.4908611 0,-1.215 -0.808119,-1.8224997 -0.808119,-1.8224997 z"
     opacity="0.5"
     id="path34"
     style="fill:url(#q);stroke-width:0.243" />
  <path
     fill="url(#r)"
     d="m 9.8068935,5.4703652 c 0.057722,0 0.3463365,-0.1215 0.3463365,-0.1215 v 0.729 c 0.681019,0 1.154456,0.4859994 1.154456,1.7009994 v 5.5890004 c -0.456266,0.220761 -0.08732,0.243 -0.692674,0.243 V 8.0218652 c 0,-1.215 -0.8081185,-1.8225 -0.8081185,-1.8225 z"
     opacity="0.110656"
     id="path35"
     style="fill:url(#r);stroke-width:0.243" />
  <path
     fill="none"
     stroke="#eeeeec"
     stroke-linecap="round"
     stroke-linejoin="round"
     d="m 10.270144,6.1978196 c 0,0.2699778 -0.9833308,0.4890903 -2.1949342,0.4890903 -1.2116031,0 -2.1949329,-0.2191125 -2.1949329,-0.4890903"
     opacity="0.25"
     id="path36"
     style="stroke-width:0.243" />
  <path
     fill="none"
     stroke="url(#s)"
     stroke-linecap="round"
     stroke-linejoin="round"
     stroke-width="1.215"
     d="m 11.074321,7.4143652 c 0,0.2682723 -1.3480039,0.4859997 -3.0089368,0.4859997 -1.6609329,0 -3.0089367,-0.2177274 -3.0089367,-0.4859997"
     opacity="0.75"
     id="path37"
     style="stroke:url(#s)" />
  <path
     fill="none"
     stroke="#ffffff"
     stroke-linecap="round"
     stroke-linejoin="round"
     d="m 10.268676,5.10827 c 0,0.2028507 -0.9827622,0.3674829 -2.1936666,0.3674829 -1.2109038,0 -2.1936663,-0.1646322 -2.1936663,-0.3674829"
     opacity="0.75"
     id="path38"
     style="stroke-width:0.243" />
  <path
     fill="url(#t)"
     d="m 7.844319,5.5918652 c -1.0390095,0 -1.8471285,-0.18225 -1.8471285,-0.243 v 0.584139 c -0.3276867,0 -0.9235647,0.6308607 -0.9235647,1.8458607 0,1.8561693 3e-7,5.7173861 3e-7,5.7173861 0.6961116,0.220762 1.3853466,0.357614 2.308911,0.357614 0,0 -3e-7,-3.823572 -3e-7,-5.8320001 0,-1.215 0.4617822,-1.7009997 0.4617822,-1.7009997 z"
     opacity="0.159836"
     id="path39"
     style="fill:url(#t);stroke-width:0.243" />
</svg>
