<?xml version="1.0" encoding="UTF-8" standalone="no"?>
<!-- Created with Inkscape (http://www.inkscape.org/) -->

<svg
   width="16"
   height="16"
   viewBox="0 0 16 16.000001"
   version="1.1"
   id="svg5"
   inkscape:version="1.3.2 (091e20e, 2023-11-25)"
   sodipodi:docname="application-x-bittorrent.svg"
   xmlns:inkscape="http://www.inkscape.org/namespaces/inkscape"
   xmlns:sodipodi="http://sodipodi.sourceforge.net/DTD/sodipodi-0.dtd"
   xmlns="http://www.w3.org/2000/svg"
   xmlns:svg="http://www.w3.org/2000/svg">
  <sodipodi:namedview
     id="namedview7"
     pagecolor="#ffffff"
     bordercolor="#000000"
     borderopacity="0.25"
     inkscape:showpageshadow="2"
     inkscape:pageopacity="0.0"
     inkscape:pagecheckerboard="0"
     inkscape:deskcolor="#d1d1d1"
     inkscape:document-units="px"
     showgrid="false"
     inkscape:zoom="51.6875"
     inkscape:cx="8"
     inkscape:cy="6.471584"
     inkscape:window-width="1680"
     inkscape:window-height="994"
     inkscape:window-x="0"
     inkscape:window-y="25"
     inkscape:window-maximized="1"
     inkscape:current-layer="svg5" />
  <defs
     id="defs2" />
  <path
     id="rect234"
     style="fill:#7d7d7b"
     d="m 2,0 h 9.5 L 14,2.5 V 16 H 2 Z"
     sodipodi:nodetypes="cccccc" />
  <path
     id="rect1746"
     style="fill:#fafafa"
     d="m 3,1 h 7 v 2 h 3 V 15 H 3 Z"
     sodipodi:nodetypes="ccccccc" />
  <path
     id="rect1800"
     style="fill:#fafafa;stroke-width:0.25"
     d="m 11,1 1,1.0000003 h -1 z"
     sodipodi:nodetypes="cccc" />
  <circle
     cx="8.0220461"
     cy="8.9444733"
     r="3.6771839"
     fill="#ffffff"
     id="circle1"
     style="stroke-width:0.153216" />
  <path
     d="m 8.0770657,5.2672883 h 0.031409 l -0.09933,0.00969 c 0.618088,0.00339 1.236913,0.1530872 1.779053,0.450786 0.7030463,0.3815096 1.2748943,0.9977377 1.5984253,1.727081 0.211546,0.4759804 0.323041,0.9972529 0.311841,1.5182937 0.0029,0.845369 -0.315747,1.683721 -0.86397,2.327811 -0.791667,0.0998 -1.6115563,0.160354 -2.3915334,-0.04603 C 7.9801724,11.14034 7.5687712,10.843377 7.3053619,10.44903 7.0378317,9.9778911 7.129363,9.3258194 7.5349262,8.9595717 7.8173181,8.704743 8.2248266,8.5954996 8.5975401,8.6783439 8.9273987,8.7454389 9.2205007,8.9593267 9.3896817,9.248307 9.5549867,9.1618318 9.7190657,9.0731663 9.8845997,8.9871811 9.7679867,8.7919385 9.6241177,8.6105146 9.4442117,8.4692952 9.1416257,8.2309375 8.757957,8.1015922 8.3733239,8.0909284 8.008409,8.0865184 7.6425295,8.1951003 7.3423639,8.402448 6.7327941,8.814706 6.431173,9.6327113 6.6419978,10.337366 c 0.1346163,0.478156 0.4876102,0.871049 0.8995014,1.137491 0.3276679,0.209539 0.7071988,0.323133 1.0876802,0.391682 0.5229103,0.09205 1.0567763,0.05815 1.5825986,0.01358 -0.05283,0.05401 -0.132179,0.05088 -0.201571,0.06322 C 9.4490837,12.02618 8.8704337,12.028846 8.3158826,11.89925 7.7839631,11.776677 7.2773703,11.515552 6.8995544,11.119028 6.3442692,10.52242 6.2142809,9.5527783 6.6505175,8.8544352 6.8783801,8.4826099 7.212621,8.1628786 7.6281585,8.0109961 8.0819377,7.8426573 8.5987504,7.8443429 9.0500937,8.0199631 9.1243427,7.8487137 9.2051637,7.6803595 9.2779567,7.5086201 8.5335112,7.2058351 7.6442298,7.2843114 6.9682104,7.719353 6.5981785,7.9574664 6.2936314,8.2905271 6.0721113,8.6686489 5.8252574,9.1034455 5.7454107,9.6223114 5.820877,10.113782 c 0.099566,0.662736 0.4635002,1.283092 0.9971204,1.692455 0.2595026,0.203961 0.5662412,0.341304 0.8819881,0.434076 0.4079992,0.120628 0.8337707,0.17318 1.2585772,0.182879 0.06012,9.1e-4 0.120505,0.0034 0.180382,0.01089 -0.08545,0.0441 -0.184519,0.03076 -0.277275,0.03343 C 8.3570216,12.477932 7.8484828,12.399931 7.3752289,12.22407 7.0151874,12.089168 6.6753542,11.887872 6.4082987,11.609785 6.1280975,11.332924 5.8924513,11.005194 5.7558789,10.634581 5.5954522,10.195907 5.5453048,9.7136306 5.6312377,9.2536291 5.7354304,8.7064489 6.0494668,8.2144728 6.4606374,7.8428925 6.9538394,7.3945369 7.6216009,7.1399532 8.290082,7.1508473 8.2903123,6.9628819 8.2898426,6.7746729 8.2905608,6.5867026 7.713611,6.586942 7.1364316,6.7368848 6.6376207,7.0265896 5.9783783,7.4080966 5.4603476,8.0211755 5.1855057,8.7280075 4.9836955,9.2575064 4.9082289,9.8475868 5.0452854,10.402519 c 0.1567735,0.677766 0.5893651,1.280902 1.1687546,1.666531 0.090305,0.06588 0.1935272,0.111679 0.2821472,0.180228 -0.040911,-0.0027 -0.082538,-0.0075 -0.1192941,-0.02689 C 6.190184,12.133491 6.0156252,12.021337 5.8498503,11.898289 5.5513946,11.673737 5.2699796,11.419643 5.056484,11.111771 4.7894314,10.742858 4.578856,10.329849 4.4624927,9.8887552 4.3519716,9.4808484 4.3268973,9.0540346 4.3561103,8.6337784 4.426464,7.7326852 4.8529687,6.8664779 5.5212079,6.2548505 6.0648076,5.751985 6.763963,5.4184361 7.4996301,5.3164584 7.6907357,5.2859377 7.8849976,5.2888434 8.0770699,5.2672862 Z"
     fill="#673398"
     id="path1"
     style="stroke-width:0.153216" />
</svg>
