<?xml version="1.0" encoding="UTF-8" standalone="no"?>
<!-- Created with Inkscape (http://www.inkscape.org/) -->

<svg
   width="16"
   height="16"
   viewBox="0 0 16 16"
   version="1.1"
   id="svg5"
   inkscape:version="1.3.2 (091e20e, 2023-11-25)"
   sodipodi:docname="bluetooth-disabled-symbolic.svg"
   xmlns:inkscape="http://www.inkscape.org/namespaces/inkscape"
   xmlns:sodipodi="http://sodipodi.sourceforge.net/DTD/sodipodi-0.dtd"
   xmlns="http://www.w3.org/2000/svg"
   xmlns:svg="http://www.w3.org/2000/svg">
  <sodipodi:namedview
     id="namedview7"
     pagecolor="#ffffff"
     bordercolor="#666666"
     borderopacity="1.0"
     inkscape:showpageshadow="2"
     inkscape:pageopacity="0.0"
     inkscape:pagecheckerboard="0"
     inkscape:deskcolor="#d1d1d1"
     inkscape:document-units="px"
     showgrid="false"
     showguides="false"
     inkscape:zoom="16"
     inkscape:cx="14.71875"
     inkscape:cy="17.78125"
     inkscape:window-width="1680"
     inkscape:window-height="994"
     inkscape:window-x="0"
     inkscape:window-y="25"
     inkscape:window-maximized="1"
     inkscape:current-layer="svg5" />
  <defs
     id="defs2">
    <inkscape:path-effect
       effect="bspline"
       id="path-effect1577"
       is_visible="true"
       lpeversion="1"
       weight="33.333333"
       steps="2"
       helper_size="0"
       apply_no_weight="true"
       apply_with_weight="true"
       only_selected="false" />
  </defs>
  <path
     d="m 7.4702458,0.99969626 c -0.050014,0.00291 -0.099925,0.01476 -0.1484375,0.033203 -0.1940398,0.073773 -0.3222656,0.2592072 -0.3222656,0.466797 v 4.0546875 l 0.4765625,0.375 0.5234375,0.4101563 V 2.8141494 L 10.772981,4.9352432 8.49173,6.7262588 9.300324,7.3629775 11.808137,5.3922744 c 0.10841,-0.08518 0.177183,-0.2103364 0.189453,-0.3476562 0.01227,-0.1373299 -0.03341,-0.2739033 -0.125,-0.3769531 l -4.0000004,-3.5 C 7.7554185,1.0651336 7.6202857,0.99097627 7.4702458,0.99969626 Z M 2.1343083,3.1207901 C 1.9743476,3.1092701 1.8114878,3.1740391 1.7046208,3.3102432 1.5336336,3.5281703 1.5726312,3.8423809 1.7905578,4.0133682 L 6.8725891,7.9996963 3.1909484,11.107118 c -0.2171397,0.1706 -0.2545902,0.484072 -0.083984,0.701172 0.1706098,0.2172 0.4840421,0.254584 0.7011719,0.08398 L 6.9995427,9.1715713 v 5.3281247 c 0,0.2076 0.1282258,0.392997 0.3222656,0.466797 0.1940398,0.0738 0.4128614,0.02043 0.5507813,-0.134766 l 3.6445314,-3.1875 2.074219,1.626953 c 0.217927,0.170988 0.530185,0.133943 0.701172,-0.08398 0.170987,-0.217927 0.133942,-0.530185 -0.08399,-0.701172 L 2.4077458,3.2262588 C 2.3260228,3.1621388 2.2302847,3.1277018 2.1343083,3.1207901 Z m 5.8652344,5.765625 2.7734383,2.1777339 -2.7734383,2.121094 z"
     id="path346"
     style="fill:#363636;fill-opacity:0.5" />
  <path
     d="M 2.3687504,3.1963794 14.145534,12.44609 c 0.132111,0.09221 0.226543,0.193366 0.243739,0.312871 0.03664,0.188549 -0.01589,0.26286 -0.07429,0.397794 -0.06738,0.08303 -0.140858,0.164602 -0.332349,0.218086 -0.212202,0.02411 -0.330468,-0.06114 -0.440388,-0.141217 L 1.7723418,3.9953 C 1.6597473,3.8878825 1.6057065,3.7730523 1.5979374,3.6523642 1.6018038,3.5322379 1.6205464,3.4152353 1.7014796,3.3112914 1.784125,3.232367 1.8628466,3.1501064 2.0120053,3.1277371 c 0.118915,-0.024256 0.2378301,0.00809 0.3567451,0.068642 z"
     id="path1"
     class="error"
     style="fill:#363636;fill-opacity:1" />
</svg>
