<?xml version="1.0" encoding="UTF-8"?>
<svg xmlns="http://www.w3.org/2000/svg" xmlns:xlink="http://www.w3.org/1999/xlink" width="64px" height="64px" viewBox="0 0 64 64" version="1.1">
<defs>
<linearGradient id="linear0" gradientUnits="userSpaceOnUse" x1="15.572827" y1="17.563978" x2="6.650153" y2="4.286004" gradientTransform="matrix(2.666667,0,0,2.666667,2.666557,2.664224)">
<stop offset="0" style="stop-color:rgb(27.058824%,60.784314%,6.666667%);stop-opacity:1;"/>
<stop offset="1" style="stop-color:rgb(48.235294%,77.647059%,18.823529%);stop-opacity:1;"/>
</linearGradient>
</defs>
<g id="surface1">
<path style=" stroke:none;fill-rule:nonzero;fill:url(#linear0);" d="M 32.355469 10.667969 C 31.949219 10.664062 31.546875 10.667969 31.140625 10.683594 C 28.980469 10.769531 26.808594 11.183594 24.703125 11.949219 C 17.082031 14.722656 11.757812 21.566406 10.816406 29.480469 L 7.675781 26.339844 C 6.632812 25.296875 4.949219 25.296875 3.90625 26.339844 C 2.863281 27.386719 2.863281 29.066406 3.90625 30.113281 L 11.449219 37.652344 C 12.492188 38.699219 14.175781 38.699219 15.21875 37.652344 L 22.761719 30.113281 C 23.804688 29.066406 23.804688 27.386719 22.761719 26.339844 C 21.714844 25.296875 20.035156 25.296875 18.988281 26.339844 L 16.277344 29.054688 C 17.296875 23.5625 21.136719 18.921875 26.527344 16.960938 C 32.855469 14.65625 39.925781 16.550781 44.253906 21.710938 C 44.710938 22.253906 45.363281 22.59375 46.066406 22.65625 C 46.773438 22.714844 47.472656 22.496094 48.015625 22.039062 C 49.140625 21.09375 49.289062 19.410156 48.34375 18.285156 C 44.292969 13.457031 38.414062 10.773438 32.355469 10.667969 Z M 50.667969 25.554688 C 49.984375 25.554688 49.304688 25.820312 48.78125 26.339844 L 41.238281 33.882812 C 40.195312 34.925781 40.195312 36.609375 41.238281 37.652344 C 42.285156 38.699219 43.964844 38.699219 45.011719 37.652344 L 47.722656 34.941406 C 46.703125 40.433594 42.863281 45.074219 37.472656 47.035156 C 31.144531 49.335938 24.074219 47.445312 19.746094 42.285156 C 19.289062 41.742188 18.636719 41.402344 17.933594 41.339844 C 17.226562 41.277344 16.527344 41.5 15.984375 41.957031 C 14.855469 42.902344 14.710938 44.582031 15.65625 45.710938 C 19.976562 50.859375 26.375 53.566406 32.859375 53.308594 C 35.019531 53.222656 37.191406 52.808594 39.296875 52.042969 C 46.917969 49.269531 52.242188 42.429688 53.183594 34.511719 L 56.324219 37.652344 C 57.367188 38.699219 59.050781 38.699219 60.09375 37.652344 C 61.136719 36.609375 61.136719 34.925781 60.09375 33.882812 L 52.550781 26.339844 C 52.03125 25.820312 51.347656 25.554688 50.667969 25.554688 Z M 50.667969 25.554688 "/>
</g>
</svg>
