<?xml version="1.0" encoding="UTF-8" standalone="no"?>
<!-- Created with Inkscape (http://www.inkscape.org/) -->

<svg
   width="64"
   height="64"
   viewBox="0 0 64 64"
   version="1.1"
   id="svg5"
   inkscape:version="1.3.2 (091e20e, 2023-11-25)"
   sodipodi:docname="application-x-bittorrent.svg"
   xmlns:inkscape="http://www.inkscape.org/namespaces/inkscape"
   xmlns:sodipodi="http://sodipodi.sourceforge.net/DTD/sodipodi-0.dtd"
   xmlns="http://www.w3.org/2000/svg"
   xmlns:svg="http://www.w3.org/2000/svg">
  <sodipodi:namedview
     id="namedview7"
     pagecolor="#ffffff"
     bordercolor="#000000"
     borderopacity="0.25"
     inkscape:showpageshadow="2"
     inkscape:pageopacity="0.0"
     inkscape:pagecheckerboard="0"
     inkscape:deskcolor="#d1d1d1"
     inkscape:document-units="px"
     showgrid="false"
     inkscape:zoom="12.8125"
     inkscape:cx="29.931707"
     inkscape:cy="38.282927"
     inkscape:window-width="1680"
     inkscape:window-height="994"
     inkscape:window-x="0"
     inkscape:window-y="25"
     inkscape:window-maximized="1"
     inkscape:current-layer="svg5"
     showguides="false" />
  <defs
     id="defs2" />
  <path
     id="rect846"
     style="fill:#7d7d7b;stroke-width:2;stroke-linecap:round;stroke-linejoin:round"
     d="M 12,4 H 40.5 L 51.999999,15.5 V 60.000002 H 12 Z"
     sodipodi:nodetypes="cccccc" />
  <path
     id="rect1454"
     style="fill:#fafafa;stroke-width:2;stroke-linecap:round;stroke-linejoin:round"
     d="M 13,5 V 59 H 51 V 17 H 40 c -0.554003,0 -1,-0.446 -1,-1 V 5 Z m 27,0 v 11 h 11 z"
     sodipodi:nodetypes="ccccsscccccc" />
  <circle
     cx="31.738686"
     cy="36.976341"
     r="13.824"
     fill="#ffffff"
     id="circle1"
     style="stroke-width:0.576" />
  <path
     d="m 31.945527,23.152341 h 0.11808 l -0.373421,0.03642 c 2.323642,0.01275 4.650048,0.575516 6.688167,1.694684 2.643033,1.434247 4.792838,3.750895 6.00912,6.492787 0.795283,1.789402 1.214438,3.749069 1.172333,5.707872 0.01094,3.17808 -1.187021,6.32978 -3.248007,8.751168 -2.976192,0.375207 -6.058483,0.602842 -8.990726,-0.17303 -1.739808,-0.430733 -3.286426,-1.547136 -4.276685,-3.029645 -1.005754,-1.7712 -0.661651,-4.222598 0.863021,-5.599469 1.061625,-0.958003 2.593613,-1.368691 3.99479,-1.057248 1.240071,0.252231 2.341959,1.056327 2.977978,2.14272 0.621446,-0.325094 1.238285,-0.658425 1.860595,-0.981676 -0.438394,-0.733997 -0.979258,-1.416039 -1.655597,-1.946938 -1.137542,-0.896083 -2.579904,-1.382342 -4.025894,-1.422432 -1.371859,-0.01636 -2.747347,0.391622 -3.875789,1.171123 -2.291616,1.549843 -3.42553,4.62505 -2.632954,7.274131 0.506074,1.797581 1.83312,3.274618 3.381581,4.276282 1.231834,0.787738 2.658643,1.214784 4.089024,1.472486 1.965831,0.346061 3.972845,0.218592 5.949619,0.05103 -0.198604,0.20304 -0.496915,0.191232 -0.757785,0.237658 -2.109485,0.311443 -4.284864,0.321466 -6.369639,-0.165715 -1.999699,-0.4608 -3.904185,-1.442477 -5.324544,-2.933165 -2.087539,-2.242886 -2.576217,-5.88816 -0.93623,-8.51351 0.856627,-1.397837 2.113171,-2.599834 3.675341,-3.170823 1.705939,-0.632851 3.648845,-0.626515 5.345625,0.0337 0.27913,-0.643795 0.58297,-1.276704 0.856628,-1.922342 -2.798669,-1.138291 -6.141831,-0.843264 -8.683258,0.79223 -1.391098,0.895162 -2.536013,2.147271 -3.368794,3.568781 -0.928022,1.634573 -1.228199,3.585197 -0.94449,5.432832 0.374308,2.491488 1.742481,4.823654 3.748574,6.362611 0.975571,0.766771 2.128723,1.283098 3.315744,1.631866 1.53383,0.453485 3.134476,0.651053 4.731494,0.687513 0.226022,0.0036 0.453024,0.01273 0.678125,0.04095 -0.321235,0.165773 -0.693677,0.115661 -1.042387,0.125684 -1.897172,0.03917 -3.808973,-0.254074 -5.588122,-0.915207 -1.353542,-0.507168 -2.63111,-1.263917 -3.635078,-2.309357 -1.053389,-1.040832 -1.939277,-2.272896 -2.452706,-3.666182 -0.603108,-1.649146 -0.791632,-3.462221 -0.468576,-5.191546 0.391702,-2.057068 1.57229,-3.906604 3.118043,-5.30352 1.854144,-1.685548 4.364525,-2.64263 6.877613,-2.601676 8.64e-4,-0.706637 -9e-4,-1.414189 0.0018,-2.120844 -2.168986,9e-4 -4.338835,0.564595 -6.214061,1.653708 -2.478355,1.43424 -4.42584,3.739046 -5.45908,6.396307 -0.758685,1.990598 -1.042394,4.208947 -0.527144,6.295161 0.589374,2.547994 2.215659,4.815418 4.393815,6.265152 0.339494,0.24768 0.727545,0.419847 1.060704,0.677549 -0.153792,-0.01003 -0.310292,-0.02822 -0.448474,-0.101088 -0.701914,-0.334195 -1.35815,-0.755827 -1.981365,-1.218413 -1.122014,-0.844185 -2.179965,-1.799424 -2.98258,-2.956838 -1.003957,-1.386892 -1.795594,-2.939557 -2.23305,-4.597804 -0.415493,-1.533485 -0.509757,-3.138048 -0.399934,-4.717958 0.264488,-3.387571 1.867889,-6.643987 4.380066,-8.943339 2.043609,-1.890472 4.672012,-3.144415 7.437676,-3.52779 0.718445,-0.114739 1.448755,-0.103813 2.170829,-0.184858 z"
     fill="#673398"
     id="path1"
     style="stroke-width:0.576" />
</svg>
