<?xml version="1.0" encoding="UTF-8" standalone="no"?>
<!-- Created with Inkscape (http://www.inkscape.org/) -->

<svg
   width="64"
   height="64"
   viewBox="0 0 64 64"
   version="1.1"
   id="svg5"
   inkscape:version="1.3.2 (091e20e, 2023-11-25)"
   sodipodi:docname="application-sql.svg"
   xmlns:inkscape="http://www.inkscape.org/namespaces/inkscape"
   xmlns:sodipodi="http://sodipodi.sourceforge.net/DTD/sodipodi-0.dtd"
   xmlns:xlink="http://www.w3.org/1999/xlink"
   xmlns="http://www.w3.org/2000/svg"
   xmlns:svg="http://www.w3.org/2000/svg">
  <sodipodi:namedview
     id="namedview7"
     pagecolor="#ffffff"
     bordercolor="#000000"
     borderopacity="0.25"
     inkscape:showpageshadow="2"
     inkscape:pageopacity="0.0"
     inkscape:pagecheckerboard="0"
     inkscape:deskcolor="#d1d1d1"
     inkscape:document-units="px"
     showgrid="false"
     inkscape:zoom="4.5299028"
     inkscape:cx="21.744396"
     inkscape:cy="28.367054"
     inkscape:window-width="1680"
     inkscape:window-height="994"
     inkscape:window-x="0"
     inkscape:window-y="25"
     inkscape:window-maximized="1"
     inkscape:current-layer="svg5"
     showguides="false" />
  <defs
     id="defs2">
    <linearGradient
       id="A"
       x1="0%"
       y1="50%"
       x2="100%"
       y2="50%">
      <stop
         offset="0%"
         stop-color="#90a4ae"
         id="stop1" />
      <stop
         offset="100%"
         stop-color="#b0bec5"
         id="stop2" />
    </linearGradient>
    <linearGradient
       inkscape:collect="always"
       xlink:href="#A"
       id="linearGradient27"
       x1="0"
       y1="21.213203"
       x2="42.426407"
       y2="21.213203"
       gradientTransform="scale(1.4142136,0.70710678)"
       gradientUnits="userSpaceOnUse" />
    <linearGradient
       inkscape:collect="always"
       xlink:href="#A"
       id="linearGradient28"
       x1="0"
       y1="21.213203"
       x2="42.426407"
       y2="21.213203"
       gradientTransform="scale(1.4142136,0.70710678)"
       gradientUnits="userSpaceOnUse" />
    <linearGradient
       inkscape:collect="always"
       xlink:href="#A"
       id="linearGradient29"
       x1="0"
       y1="21.213203"
       x2="42.426407"
       y2="21.213203"
       gradientTransform="scale(1.4142136,0.70710678)"
       gradientUnits="userSpaceOnUse" />
  </defs>
  <path
     id="rect846"
     style="fill:#7d7d7b;stroke-width:2;stroke-linecap:round;stroke-linejoin:round"
     d="M 12,4 H 40.5 L 51.999999,15.5 V 60.000002 H 12 Z"
     sodipodi:nodetypes="cccccc" />
  <path
     id="rect1454"
     style="fill:#fafafa;stroke-width:2;stroke-linecap:round;stroke-linejoin:round"
     d="M 13,5 V 59 H 51 V 17 H 40 c -0.554003,0 -1,-0.446 -1,-1 V 5 Z m 27,0 v 11 h 11 z"
     sodipodi:nodetypes="ccccsscccccc" />
  <g
     id="use1"
     transform="matrix(0.45,0,0,0.45,18.572096,19.428028)">
    <ellipse
       cx="30"
       cy="50"
       rx="30"
       ry="16.667"
       class="B D"
       id="ellipse1"
       style="fill:#eceff1;stroke:none" />
    <g
       transform="translate(0,50)"
       id="g1">
      <path
         d="M 0,0 V 13.333 C 0,22.567 13.38,30 30,30 46.62,30 60,22.567 60,13.333 V 0 C 60,9.233 46.62,16.667 30,16.667 13.38,16.667 0,9.233 0,0 Z"
         class="B E"
         id="path1"
         style="fill:url(#linearGradient27);stroke:none" />
    </g>
    <path
       id="use3"
       d="m 7.059,67.43 c 5.142,3.383 12.674,5.604 21.176,5.875"
       style="fill:none;stroke-opacity:0.34" />
    <g
       class="B"
       id="g18"
       style="stroke:none">
      <ellipse
         cx="30"
         cy="33.334"
         rx="30"
         ry="16.667"
         class="D"
         id="ellipse18"
         style="display:inline;fill:#eceff1" />
    </g>
    <g
       transform="translate(0,33.333)"
       id="g19">
      <path
         d="M 0,0 V 13.333 C 0,22.567 13.38,30 30,30 46.62,30 60,22.567 60,13.333 V 0 C 60,9.233 46.62,16.667 30,16.667 13.38,16.667 0,9.233 0,0 Z"
         class="B E"
         id="path18"
         style="fill:url(#linearGradient28);stroke:none" />
    </g>
    <path
       id="use19"
       d="m 7.059,50.763 c 5.142,3.383 12.674,5.604 21.176,5.875"
       style="fill:none;stroke-opacity:0.34" />
    <g
       class="B"
       id="g22"
       style="stroke:none">
      <ellipse
         cx="30"
         cy="16.667"
         rx="30"
         ry="16.667"
         class="D"
         id="ellipse22"
         style="fill:#eceff1" />
    </g>
    <g
       transform="translate(0,16.667)"
       id="g23">
      <path
         d="M 0,0 V 13.333 C 0,22.567 13.38,30 30,30 46.62,30 60,22.567 60,13.333 V 0 C 60,9.233 46.62,16.667 30,16.667 13.38,16.667 0,9.233 0,0 Z"
         class="B E"
         id="path22"
         style="fill:url(#linearGradient29);stroke:none" />
    </g>
    <path
       id="use23"
       d="m 7.059,34.096 c 5.142,3.383 12.674,5.604 21.176,5.875"
       style="fill:none;stroke-opacity:0.34" />
    <g
       class="B"
       id="g26"
       style="stroke:none">
      <ellipse
         cx="30"
         cy="16.666"
         rx="26.471001"
         ry="13.333"
         fill="#cfd8dc"
         id="ellipse26" />
    </g>
  </g>
</svg>
