<?xml version="1.0" encoding="UTF-8"?>
<svg xmlns="http://www.w3.org/2000/svg" xmlns:xlink="http://www.w3.org/1999/xlink" width="24px" height="24px" viewBox="0 0 24 24" version="1.1">
<g id="surface1">
<path style=" stroke:none;fill-rule:evenodd;fill:rgb(29.019608%,67.45098%,5.490196%);fill-opacity:1;" d="M 12 1.5 C 12.402344 1.5 12.734375 1.828125 12.734375 2.234375 L 12.734375 4.441406 C 12.734375 4.839844 13.089844 5.164062 13.488281 5.167969 C 13.894531 5.171875 14.199219 4.84375 14.199219 4.4375 L 14.199219 2.234375 C 14.203125 2.042969 14.285156 1.863281 14.421875 1.734375 C 14.558594 1.601562 14.742188 1.527344 14.929688 1.527344 C 15.121094 1.527344 15.300781 1.601562 15.4375 1.734375 C 15.574219 1.863281 15.65625 2.042969 15.664062 2.234375 L 15.664062 5.164062 C 15.664062 5.226562 15.707031 5.28125 15.765625 5.289062 C 16.6875 5.417969 17.339844 5.667969 17.835938 6.164062 C 18.332031 6.660156 18.582031 7.3125 18.710938 8.234375 C 18.71875 8.292969 18.773438 8.335938 18.835938 8.335938 L 21.765625 8.335938 C 21.957031 8.34375 22.136719 8.425781 22.265625 8.5625 C 22.398438 8.699219 22.472656 8.878906 22.472656 9.070312 C 22.472656 9.257812 22.398438 9.441406 22.265625 9.578125 C 22.136719 9.714844 21.957031 9.796875 21.765625 9.800781 L 19.5625 9.800781 C 19.15625 9.800781 18.828125 10.105469 18.832031 10.511719 C 18.835938 10.910156 19.160156 11.265625 19.558594 11.265625 L 21.765625 11.265625 C 21.960938 11.265625 22.148438 11.34375 22.285156 11.480469 C 22.421875 11.621094 22.5 11.804688 22.5 12 C 22.5 12.195312 22.421875 12.378906 22.285156 12.519531 C 22.148438 12.65625 21.960938 12.734375 21.765625 12.734375 L 19.558594 12.734375 C 19.160156 12.734375 18.835938 13.089844 18.832031 13.488281 C 18.828125 13.894531 19.15625 14.199219 19.5625 14.199219 L 21.765625 14.199219 C 21.957031 14.203125 22.136719 14.285156 22.265625 14.421875 C 22.398438 14.558594 22.472656 14.742188 22.472656 14.929688 C 22.472656 15.121094 22.398438 15.300781 22.265625 15.4375 C 22.136719 15.574219 21.957031 15.65625 21.765625 15.664062 L 18.835938 15.664062 C 18.773438 15.664062 18.71875 15.707031 18.710938 15.765625 C 18.582031 16.6875 18.332031 17.339844 17.835938 17.835938 C 17.339844 18.332031 16.6875 18.582031 15.765625 18.710938 C 15.707031 18.71875 15.664062 18.777344 15.664062 18.835938 L 15.664062 21.765625 C 15.65625 21.957031 15.574219 22.136719 15.4375 22.265625 C 15.300781 22.398438 15.121094 22.472656 14.929688 22.472656 C 14.742188 22.472656 14.558594 22.398438 14.421875 22.265625 C 14.285156 22.136719 14.203125 21.957031 14.199219 21.765625 L 14.199219 19.5625 C 14.199219 19.15625 13.863281 18.828125 13.457031 18.832031 C 13.058594 18.839844 12.734375 19.160156 12.734375 19.5625 L 12.734375 21.765625 C 12.734375 21.960938 12.65625 22.148438 12.519531 22.285156 C 12.378906 22.421875 12.195312 22.5 12 22.5 C 11.804688 22.5 11.621094 22.421875 11.480469 22.285156 C 11.34375 22.148438 11.265625 21.960938 11.265625 21.765625 L 11.265625 19.5625 C 11.265625 19.160156 10.941406 18.839844 10.542969 18.832031 C 10.136719 18.828125 9.800781 19.15625 9.800781 19.5625 L 9.800781 21.765625 C 9.796875 21.957031 9.714844 22.136719 9.578125 22.265625 C 9.441406 22.398438 9.257812 22.472656 9.070312 22.472656 C 8.878906 22.472656 8.699219 22.398438 8.5625 22.265625 C 8.425781 22.136719 8.34375 21.957031 8.335938 21.765625 L 8.335938 18.835938 C 8.335938 18.777344 8.292969 18.71875 8.234375 18.710938 C 7.3125 18.582031 6.660156 18.332031 6.164062 17.835938 C 5.667969 17.339844 5.417969 16.6875 5.289062 15.765625 C 5.28125 15.707031 5.226562 15.664062 5.164062 15.664062 L 2.234375 15.664062 C 2.042969 15.65625 1.863281 15.574219 1.734375 15.4375 C 1.601562 15.300781 1.527344 15.121094 1.527344 14.929688 C 1.527344 14.742188 1.601562 14.558594 1.734375 14.421875 C 1.863281 14.285156 2.042969 14.203125 2.234375 14.199219 L 4.4375 14.199219 C 4.84375 14.199219 5.171875 13.863281 5.167969 13.457031 C 5.160156 13.058594 4.839844 12.734375 4.4375 12.734375 L 2.234375 12.734375 C 2.039062 12.734375 1.851562 12.65625 1.714844 12.519531 C 1.578125 12.378906 1.5 12.195312 1.5 12 C 1.5 11.804688 1.578125 11.621094 1.714844 11.480469 C 1.851562 11.34375 2.039062 11.265625 2.234375 11.265625 L 4.441406 11.265625 C 4.839844 11.265625 5.164062 10.910156 5.167969 10.511719 C 5.171875 10.105469 4.84375 9.800781 4.4375 9.800781 L 2.234375 9.800781 C 2.042969 9.796875 1.863281 9.714844 1.734375 9.578125 C 1.601562 9.441406 1.527344 9.257812 1.527344 9.070312 C 1.527344 8.878906 1.601562 8.699219 1.734375 8.5625 C 1.863281 8.425781 2.042969 8.34375 2.234375 8.335938 L 5.164062 8.335938 C 5.222656 8.335938 5.28125 8.292969 5.289062 8.234375 C 5.417969 7.3125 5.667969 6.660156 6.164062 6.164062 C 6.660156 5.667969 7.3125 5.417969 8.234375 5.289062 C 8.292969 5.28125 8.335938 5.226562 8.335938 5.164062 L 8.335938 2.234375 C 8.34375 2.042969 8.425781 1.863281 8.5625 1.734375 C 8.699219 1.601562 8.878906 1.527344 9.070312 1.527344 C 9.257812 1.527344 9.441406 1.601562 9.578125 1.734375 C 9.714844 1.863281 9.796875 2.042969 9.800781 2.234375 L 9.800781 4.4375 C 9.800781 4.84375 10.136719 5.171875 10.542969 5.167969 C 10.941406 5.160156 11.265625 4.839844 11.265625 4.4375 L 11.265625 2.234375 C 11.265625 1.828125 11.597656 1.5 12 1.5 Z M 10.976562 7.359375 C 10.324219 7.359375 9.765625 7.359375 9.316406 7.421875 C 8.835938 7.484375 8.378906 7.632812 8.003906 8.003906 C 7.632812 8.378906 7.484375 8.835938 7.421875 9.316406 C 7.359375 9.765625 7.359375 10.328125 7.359375 10.976562 L 7.359375 13.023438 C 7.359375 13.675781 7.359375 14.234375 7.421875 14.683594 C 7.484375 15.164062 7.632812 15.621094 8.003906 15.996094 C 8.378906 16.367188 8.835938 16.515625 9.316406 16.578125 C 9.765625 16.640625 10.328125 16.640625 10.976562 16.640625 L 13.023438 16.640625 C 13.675781 16.640625 14.234375 16.640625 14.683594 16.578125 C 15.164062 16.515625 15.621094 16.367188 15.996094 15.996094 C 16.367188 15.621094 16.515625 15.164062 16.578125 14.683594 C 16.640625 14.234375 16.640625 13.671875 16.640625 13.023438 L 16.640625 10.976562 C 16.640625 10.324219 16.640625 9.765625 16.578125 9.316406 C 16.515625 8.835938 16.367188 8.378906 15.996094 8.003906 C 15.621094 7.632812 15.164062 7.484375 14.683594 7.421875 C 14.234375 7.359375 13.671875 7.359375 13.023438 7.359375 Z M 10.976562 7.359375 "/>
<path style=" stroke:none;fill-rule:nonzero;fill:rgb(29.019608%,67.45098%,5.490196%);fill-opacity:1;" d="M 9.039062 9.039062 C 9.097656 8.984375 9.195312 8.914062 9.511719 8.871094 C 9.851562 8.828125 10.3125 8.824219 11.023438 8.824219 L 12.976562 8.824219 C 13.6875 8.824219 14.148438 8.828125 14.488281 8.871094 C 14.804688 8.914062 14.90625 8.984375 14.957031 9.039062 C 15.015625 9.09375 15.085938 9.195312 15.125 9.511719 C 15.171875 9.851562 15.175781 10.3125 15.175781 11.023438 L 15.175781 12.976562 C 15.175781 13.6875 15.171875 14.148438 15.125 14.488281 C 15.085938 14.804688 15.015625 14.90625 14.957031 14.957031 C 14.90625 15.015625 14.804688 15.085938 14.488281 15.125 C 14.148438 15.171875 13.6875 15.175781 12.976562 15.175781 L 11.023438 15.175781 C 10.3125 15.175781 9.851562 15.171875 9.511719 15.125 C 9.195312 15.085938 9.09375 15.015625 9.039062 14.957031 C 8.984375 14.90625 8.914062 14.804688 8.871094 14.488281 C 8.828125 14.148438 8.824219 13.6875 8.824219 12.976562 L 8.824219 11.023438 C 8.824219 10.3125 8.828125 9.851562 8.871094 9.511719 C 8.914062 9.195312 8.984375 9.097656 9.039062 9.039062 Z M 9.039062 9.039062 "/>
</g>
</svg>
