<?xml version="1.0" encoding="UTF-8" standalone="no"?>
<svg
   id="Layer_1"
   data-name="Layer 1"
   viewBox="0 0 24 24"
   version="1.1"
   sodipodi:docname="cs-extensions.svg"
   inkscape:version="1.3.2 (091e20e, 2023-11-25)"
   width="24"
   height="24"
   xmlns:inkscape="http://www.inkscape.org/namespaces/inkscape"
   xmlns:sodipodi="http://sodipodi.sourceforge.net/DTD/sodipodi-0.dtd"
   xmlns="http://www.w3.org/2000/svg"
   xmlns:svg="http://www.w3.org/2000/svg"
   xmlns:rdf="http://www.w3.org/1999/02/22-rdf-syntax-ns#"
   xmlns:cc="http://creativecommons.org/ns#"
   xmlns:dc="http://purl.org/dc/elements/1.1/">
  <defs
     id="defs4" />
  <sodipodi:namedview
     id="namedview4"
     pagecolor="#ffffff"
     bordercolor="#000000"
     borderopacity="0.25"
     inkscape:showpageshadow="2"
     inkscape:pageopacity="0.0"
     inkscape:pagecheckerboard="0"
     inkscape:deskcolor="#d1d1d1"
     inkscape:zoom="8.3306015"
     inkscape:cx="44.234501"
     inkscape:cy="32.050507"
     inkscape:window-width="1680"
     inkscape:window-height="1000"
     inkscape:window-x="0"
     inkscape:window-y="25"
     inkscape:window-maximized="1"
     inkscape:current-layer="Layer_1" />
  <title
     id="title1">puzzle-pieces</title>
  <path
     d="M 0,5.3004792 A 0.93441548,0.93685511 0 0 1 0.93212062,4.3655417 H 8.4365133 a 0.93518047,0.9376221 0 0 1 0.9321206,0.9349375 v 3.0295353 c 0.4754312,0.0069 0.7756841,0.016872 1.0177981,-0.3834855 a 1.3650957,1.3686598 0 0 1 0.235994,-0.297201 c 0.175944,-0.1645158 0.382487,-0.2607697 0.605477,-0.2607697 0.624218,0 1.132926,0.7508641 1.132926,1.6716126 0,0.4601827 -0.128516,0.8785653 -0.332381,1.1819021 -0.203865,0.303338 -0.488054,0.491246 -0.800545,0.491246 a 0.79174785,0.793815 0 0 1 -0.319377,-0.06903 0.98719869,0.98977613 0 0 1 -0.2861,-0.191743 1.3696856,1.3732616 0 0 1 -0.235994,-0.297584 C 10.144318,9.777673 9.8440651,9.7864928 9.3686339,9.7914782 V 12.821014 A 0.93556293,0.93800555 0 0 1 8.4365133,13.756719 H 6.8514876 c 0.034044,-0.0441 0.065023,-0.09242 0.094857,-0.139206 0.3163168,-0.543399 0.3323809,-1.103288 0.048958,-1.670079 C 6.5745669,11.218811 5.8348373,10.873675 5.0247302,10.775119 a 3.3092766,3.3179167 0 0 0 -1.625569,0.253483 l -0.369865,0.206699 a 3.124153,3.1323097 0 0 0 -0.4731359,0.433721 v 0 c -0.1292807,0.209 -0.2654462,0.480892 -0.3025473,0.604757 a 2.4521235,2.4585256 0 0 0 -0.083765,0.445227 v 0 a 1.7655595,1.7701691 0 0 0 0.1740313,0.755851 1.8577389,1.8625892 0 0 0 0.1721192,0.281477 H 0.93212062 A 0.93479797,0.9372386 0 0 1 0,12.822547 Z"
     fill="#fc6"
     fill-rule="evenodd"
     id="path1"
     style="fill:#e8c81b;fill-opacity:1;stroke-width:0.0382986" />
  <path
     d="m 23.445509,3.1180105 a 0.93518047,0.9376221 0 0 1 0.475815,1.2328489 l -3.03244,6.8823396 a 0.93518047,0.9376221 0 0 1 -1.230061,0.478966 l -2.76396,-1.224201 c -0.198765,0.433077 -0.328024,0.70367 -0.06079,1.086989 a 1.4117591,1.415445 0 0 1 0.175012,0.338283 c 0.08032,0.226745 0.0837,0.456311 -0.0063,0.660465 -0.252085,0.572125 -1.142227,0.734197 -1.98296,0.361823 -0.419842,-0.185954 -0.75043,-0.471983 -0.942934,-0.781958 -0.192502,-0.309974 -0.251273,-0.645402 -0.125308,-0.931289 a 0.80857728,0.81068836 0 0 1 0.191951,-0.266723 1.007088,1.0097174 0 0 1 0.289771,-0.183149 1.3815427,1.3851497 0 0 1 0.365966,-0.097 c 0.462862,-0.06163 0.574281,-0.340123 0.761149,-0.7784685 L 12.796505,8.6727376 A 0.93518047,0.9376221 0 0 1 12.32069,7.439889 l 0.640645,-1.453991 c 0.02698,0.048843 0.05796,0.095266 0.08929,0.1418425 0.368293,0.5098323 0.87121,0.7501898 1.503348,0.7190986 0.834765,-0.091431 1.448408,-0.6300269 1.865679,-1.3331574 A 3.3234287,3.3321057 0 0 0 16.846508,3.9213994 L 16.806028,3.4989063 A 3.1111484,3.1192712 0 0 0 16.601476,2.88887 v 0 C 16.463893,2.6858111 16.270354,2.4512597 16.173039,2.3674915 A 2.6334223,2.6402978 0 0 0 15.800145,2.1100986 v 0 A 1.7934811,1.7981636 0 0 0 15.03988,1.9641188 1.8317298,1.8365122 0 0 0 14.713917,2.0092398 l 0.640181,-1.45293814 a 0.93518047,0.9376221 0 0 1 1.226993,-0.47864823 z"
     fill="#48cfad"
     fill-rule="evenodd"
     id="path2"
     style="fill:#2373dc;fill-opacity:1;stroke-width:0.0382986" />
  <path
     d="M 19.583329,23.065062 A 0.93556293,0.93800555 0 0 1 18.651208,24 h -7.504393 a 0.93479797,0.9372386 0 0 1 -0.93212,-0.934938 v -3.029536 c -0.4769612,-0.0073 -0.7764486,-0.01687 -1.0189449,0.381185 a 1.4060218,1.4096928 0 0 1 -0.2352292,0.297201 c -0.1767093,0.165282 -0.3824869,0.261921 -0.6070071,0.261921 -0.6226884,0 -1.1313961,-0.751632 -1.1313961,-1.673148 0,-0.460182 0.1266027,-0.877415 0.3327635,-1.180368 0.2061604,-0.302954 0.4869056,-0.491245 0.7986326,-0.491245 a 0.78562806,0.78767923 0 0 1 0.3205239,0.06826 0.98566874,0.98824219 0 0 1 0.2845703,0.191742 1.3792478,1.3828488 0 0 1 0.2371421,0.297585 c 0.242114,0.398825 0.5419837,0.387704 1.0189449,0.383485 V 15.54261 a 0.93479797,0.9372386 0 0 1 0.93212,-0.934937 h 1.584261 c -0.03481,0.04448 -0.06464,0.09165 -0.09486,0.139204 -0.315933,0.5434 -0.331998,1.102905 -0.04858,1.669696 0.420735,0.728623 1.158935,1.07376 1.970572,1.172699 a 3.3322258,3.3409258 0 0 0 1.625187,-0.253484 l 0.368717,-0.207849 A 2.9891351,2.9969393 0 0 0 17.026014,16.6946 v 0 c 0.130045,-0.208999 0.265446,-0.48089 0.303694,-0.604756 a 2.6265375,2.633395 0 0 0 0.08376,-0.445227 v 0 a 1.8141353,1.8188718 0 0 0 -0.174414,-0.75585 1.8439693,1.8487837 0 0 0 -0.172502,-0.281094 h 1.584261 a 0.93556293,0.93800555 0 0 1 0.932503,0.934938 z"
     fill="#ed7161"
     fill-rule="evenodd"
     id="path3"
     style="fill:#c9222e;fill-opacity:1;stroke-width:0.0382986" />
  <path
     d="M 0.93212062,24 A 0.93479797,0.9372386 0 0 1 0,23.065062 V 15.541076 A 0.93479797,0.9372386 0 0 1 0.93212062,14.604605 H 3.9537673 c 0.00727,-0.476289 0.017211,-0.776942 -0.3824869,-1.018922 A 1.4301185,1.4338523 0 0 1 3.2760003,13.348689 c -0.164852,-0.176403 -0.2616208,-0.383485 -0.2616208,-0.608208 0,-0.625081 0.7489092,-1.13435 1.6680252,-1.13435 0.4589843,0 0.8758947,0.126934 1.1788247,0.333632 0.3029296,0.206699 0.4895828,0.487794 0.4895828,0.800718 a 0.77721337,0.77924257 0 0 1 -0.06923,0.321745 0.99446593,0.99706234 0 0 1 -0.1912433,0.285313 1.4362383,1.4399881 0 0 1 -0.2968098,0.238144 c -0.3989342,0.24198 -0.387842,0.543016 -0.3824869,1.018922 h 3.0216463 a 0.93556293,0.93800555 0 0 1 0.9321201,0.935704 v 1.588014 c -0.04475,-0.03375 -0.091414,-0.06443 -0.1396073,-0.09357 C 8.6828348,16.716843 8.1247865,16.701504 7.5598533,16.985666 6.8331284,17.4075 6.48889,18.148778 6.3905905,18.961001 a 3.3065992,3.3152323 0 0 0 0.2528244,1.629429 l 0.2073078,0.370447 a 3.080167,3.0882089 0 0 0 0.4322103,0.475139 v 0 c 0.2084552,0.128851 0.4792557,0.266139 0.6020342,0.303721 a 2.6353347,2.6422152 0 0 0 0.4440672,0.08398 v 0 a 1.8018958,1.8066003 0 0 0 0.755029,-0.174869 1.9380611,1.9431211 0 0 0 0.2807452,-0.172952 V 23.06391 A 0.93556293,0.93800555 0 0 1 8.436513,24 Z"
     fill="#656d78"
     fill-rule="evenodd"
     id="path4"
     style="fill:#27ab71;fill-opacity:1;stroke-width:0.0382986" />
  <metadata
     id="metadata4">
    <rdf:RDF>
      <cc:Work
         rdf:about="">
        <dc:title>puzzle-pieces</dc:title>
      </cc:Work>
    </rdf:RDF>
  </metadata>
</svg>
