<?xml version="1.0" encoding="UTF-8"?>
<svg xmlns="http://www.w3.org/2000/svg" xmlns:xlink="http://www.w3.org/1999/xlink" width="24px" height="24px" viewBox="0 0 24 24" version="1.1">
<defs>
<linearGradient id="linear0" gradientUnits="userSpaceOnUse" x1="0.529167" y1="1.5875" x2="7.9375" y2="7.14375" gradientTransform="matrix(2.834646,0,0,2.834646,0,-0.375)">
<stop offset="0" style="stop-color:rgb(21.568627%,83.137255%,88.235294%);stop-opacity:1;"/>
<stop offset="1" style="stop-color:rgb(3.137255%,43.137255%,74.117647%);stop-opacity:1;"/>
</linearGradient>
<linearGradient id="linear1" gradientUnits="userSpaceOnUse" x1="0.264583" y1="12.170834" x2="15.08125" y2="12.170834" gradientTransform="matrix(1.417323,0,0,1.417323,1.125,1.5)">
<stop offset="0" style="stop-color:rgb(5.882353%,30.980392%,40.784314%);stop-opacity:1;"/>
<stop offset="1" style="stop-color:rgb(1.176471%,20.784314%,36.862745%);stop-opacity:1;"/>
</linearGradient>
<filter id="alpha" filterUnits="objectBoundingBox" x="0%" y="0%" width="100%" height="100%">
  <feColorMatrix type="matrix" in="SourceGraphic" values="0 0 0 0 1 0 0 0 0 1 0 0 0 0 1 0 0 0 1 0"/>
</filter>
<mask id="mask0">
  <g filter="url(#alpha)">
<rect x="0" y="0" width="24" height="24" style="fill:rgb(0%,0%,0%);fill-opacity:0.501961;stroke:none;"/>
  </g>
</mask>
<clipPath id="clip1">
  <rect x="0" y="0" width="24" height="24"/>
</clipPath>
<g id="surface5" clip-path="url(#clip1)">
<path style=" stroke:none;fill-rule:nonzero;fill:rgb(100%,0%,0.784314%);fill-opacity:1;" d="M 17.738281 4.125 C 18.210938 6.453125 20.121094 8.25 22.5 8.570312 L 22.5 5.25 C 22.5 4.625 22 4.125 21.375 4.125 Z M 17.738281 4.125 "/>
</g>
<mask id="mask1">
  <g filter="url(#alpha)">
<rect x="0" y="0" width="24" height="24" style="fill:rgb(0%,0%,0%);fill-opacity:0.501961;stroke:none;"/>
  </g>
</mask>
<clipPath id="clip2">
  <rect x="0" y="0" width="24" height="24"/>
</clipPath>
<g id="surface8" clip-path="url(#clip2)">
<path style=" stroke:none;fill-rule:nonzero;fill:rgb(0%,100%,0.784314%);fill-opacity:1;" d="M 6.269531 4.140625 C 5.792969 6.464844 3.875 8.257812 1.496094 8.566406 L 1.503906 5.25 C 1.507812 4.625 2.011719 4.125 2.632812 4.128906 Z M 6.269531 4.140625 "/>
</g>
<mask id="mask2">
  <g filter="url(#alpha)">
<rect x="0" y="0" width="24" height="24" style="fill:rgb(0%,0%,0%);fill-opacity:0.501961;stroke:none;"/>
  </g>
</mask>
<clipPath id="clip3">
  <rect x="0" y="0" width="24" height="24"/>
</clipPath>
<g id="surface11" clip-path="url(#clip3)">
<path style=" stroke:none;fill-rule:nonzero;fill:rgb(65.098039%,19.607843%,100%);fill-opacity:1;" d="M 6.269531 19.875 C 5.792969 17.550781 3.878906 15.753906 1.5 15.441406 L 1.507812 18.761719 C 1.507812 19.386719 2.011719 19.886719 2.632812 19.882812 Z M 6.269531 19.875 "/>
</g>
<mask id="mask3">
  <g filter="url(#alpha)">
<rect x="0" y="0" width="24" height="24" style="fill:rgb(0%,0%,0%);fill-opacity:0.501961;stroke:none;"/>
  </g>
</mask>
<clipPath id="clip4">
  <rect x="0" y="0" width="24" height="24"/>
</clipPath>
<g id="surface14" clip-path="url(#clip4)">
<path style=" stroke:none;fill-rule:nonzero;fill:rgb(100%,100%,0%);fill-opacity:1;" d="M 17.757812 19.898438 C 18.21875 17.570312 20.121094 15.761719 22.496094 15.429688 L 22.515625 18.75 C 22.519531 19.371094 22.019531 19.878906 21.394531 19.878906 Z M 17.757812 19.898438 "/>
</g>
</defs>
<g id="surface1">
<path style=" stroke:none;fill-rule:nonzero;fill:url(#linear0);" d="M 2.625 4.125 L 21.375 4.125 C 21.996094 4.125 22.5 4.628906 22.5 5.25 L 22.5 18.75 C 22.5 19.371094 21.996094 19.875 21.375 19.875 L 2.625 19.875 C 2.003906 19.875 1.5 19.371094 1.5 18.75 L 1.5 5.25 C 1.5 4.628906 2.003906 4.125 2.625 4.125 Z M 2.625 4.125 "/>
<path style=" stroke:none;fill-rule:nonzero;fill:url(#linear1);" d="M 1.5 17.625 L 1.5 18.75 C 1.5 19.375 2 19.875 2.625 19.875 L 21.375 19.875 C 22 19.875 22.5 19.375 22.5 18.75 L 22.5 17.625 Z M 1.5 17.625 "/>
<use xlink:href="#surface5" mask="url(#mask0)"/>
<use xlink:href="#surface8" mask="url(#mask1)"/>
<use xlink:href="#surface11" mask="url(#mask2)"/>
<use xlink:href="#surface14" mask="url(#mask3)"/>
</g>
</svg>
