<?xml version="1.0" encoding="UTF-8"?>
<svg xmlns="http://www.w3.org/2000/svg" xmlns:xlink="http://www.w3.org/1999/xlink" width="24px" height="24px" viewBox="0 0 24 24" version="1.1">
<g id="surface1">
<path style=" stroke:none;fill-rule:nonzero;fill:rgb(54.117647%,38.039216%,72.156863%);fill-opacity:1;" d="M 5.25 2.992188 L 18.75 2.992188 C 20.40625 2.992188 21.75 4.332031 21.75 5.988281 L 21.75 17.992188 C 21.75 19.648438 20.40625 20.992188 18.75 20.992188 L 5.25 20.992188 C 3.59375 20.992188 2.25 19.648438 2.25 17.992188 L 2.25 5.988281 C 2.25 4.332031 3.59375 2.992188 5.25 2.992188 Z M 5.25 2.992188 "/>
<path style=" stroke:none;fill-rule:nonzero;fill:rgb(92.54902%,92.54902%,92.156863%);fill-opacity:1;" d="M 18.609375 11.578125 C 18.46875 11.378906 18.316406 11.195312 18.15625 11.011719 C 17.316406 10.023438 16.351562 9.148438 15.292969 8.511719 C 14.621094 8.101562 13.894531 7.773438 13.148438 7.617188 C 12.769531 7.539062 12.386719 7.496094 12 7.496094 C 11.621094 7.496094 11.238281 7.539062 10.855469 7.617188 C 10.105469 7.777344 9.386719 8.101562 8.710938 8.511719 C 7.652344 9.148438 6.6875 10.027344 5.84375 11.011719 C 5.6875 11.191406 5.535156 11.378906 5.394531 11.578125 C 5.203125 11.824219 5.203125 12.167969 5.394531 12.414062 C 5.824219 13.015625 6.335938 13.550781 6.855469 14.042969 C 7.976562 15.09375 9.261719 15.976562 10.679688 16.332031 C 11.542969 16.550781 12.453125 16.550781 13.320312 16.332031 C 14.734375 15.976562 16.023438 15.09375 17.144531 14.042969 C 17.683594 13.546875 18.175781 13.003906 18.609375 12.414062 C 18.796875 12.167969 18.796875 11.824219 18.609375 11.578125 M 18.609375 11.578125 "/>
<path style=" stroke:none;fill-rule:nonzero;fill:rgb(27.058824%,52.54902%,97.647059%);fill-opacity:1;" d="M 15.378906 11.992188 C 15.402344 13.214844 14.765625 14.355469 13.710938 14.972656 C 12.65625 15.589844 11.347656 15.589844 10.292969 14.972656 C 9.238281 14.355469 8.601562 13.214844 8.628906 11.992188 C 8.664062 10.152344 10.164062 8.683594 12.003906 8.683594 C 13.839844 8.683594 15.339844 10.152344 15.378906 11.992188 "/>
<path style=" stroke:none;fill-rule:nonzero;fill:rgb(7.843137%,7.843137%,7.843137%);fill-opacity:1;" d="M 13.878906 11.992188 C 13.878906 13.027344 13.039062 13.863281 12.003906 13.863281 C 10.96875 13.863281 10.128906 13.027344 10.128906 11.992188 C 10.128906 10.957031 10.96875 10.117188 12.003906 10.117188 C 13.039062 10.117188 13.878906 10.957031 13.878906 11.992188 "/>
<path style=" stroke:none;fill-rule:nonzero;fill:rgb(97.647059%,97.647059%,97.647059%);fill-opacity:1;" d="M 13.503906 11.238281 C 13.503906 11.652344 13.167969 11.988281 12.753906 11.988281 C 12.339844 11.988281 12.003906 11.652344 12.003906 11.238281 C 12.003906 10.824219 12.339844 10.488281 12.753906 10.488281 C 13.167969 10.488281 13.503906 10.824219 13.503906 11.238281 "/>
<path style=" stroke:none;fill-rule:nonzero;fill:rgb(83.529412%,7.058824%,17.647059%);fill-opacity:1;" d="M 14.621094 8.140625 L 8.527344 15.367188 C 8.804688 15.546875 9.089844 15.707031 9.382812 15.851562 L 15.472656 8.625 C 15.199219 8.433594 14.886719 8.273438 14.621094 8.140625 M 14.621094 8.140625 "/>
</g>
</svg>
