<?xml version="1.0" encoding="UTF-8"?>
<svg xmlns="http://www.w3.org/2000/svg" xmlns:xlink="http://www.w3.org/1999/xlink" width="24px" height="24px" viewBox="0 0 24 24" version="1.1">
<defs>
<linearGradient id="linear0" gradientUnits="userSpaceOnUse" x1="3.96875" y1="2.910417" x2="3.439583" y2="5.820833" gradientTransform="matrix(1.417323,0,0,1.417323,-0.75,-1.875)">
<stop offset="0" style="stop-color:rgb(87.058824%,73.333333%,52.54902%);stop-opacity:1;"/>
<stop offset="1" style="stop-color:rgb(86.27451%,68.235294%,43.137255%);stop-opacity:1;"/>
</linearGradient>
<linearGradient id="linear1" gradientUnits="userSpaceOnUse" x1="2.910417" y1="5.291666" x2="5.257604" y2="5.695011" gradientTransform="matrix(1.417323,0,0,1.417323,0,-0.375)">
<stop offset="0" style="stop-color:rgb(74.509804%,52.156863%,25.490196%);stop-opacity:1;"/>
<stop offset="1" style="stop-color:rgb(66.666667%,45.098039%,19.607843%);stop-opacity:1;"/>
</linearGradient>
<linearGradient id="linear2" gradientUnits="userSpaceOnUse" x1="13.493751" y1="6.085417" x2="13.493752" y2="14.552086" gradientTransform="matrix(1.417323,0,0,1.417323,-0.00000075,-1.875)">
<stop offset="0" style="stop-color:rgb(74.509804%,52.156863%,25.490196%);stop-opacity:1;"/>
<stop offset="1" style="stop-color:rgb(66.666667%,45.098039%,19.607843%);stop-opacity:1;"/>
</linearGradient>
<linearGradient id="linear3" gradientUnits="userSpaceOnUse" x1="-252.87521" y1="78.478691" x2="-238.4166" y2="92.637772" gradientTransform="matrix(0.80402,0,0,1.191815,207.441791,-87.157065)">
<stop offset="0" style="stop-color:rgb(86.27451%,71.764706%,49.803922%);stop-opacity:1;"/>
<stop offset="1" style="stop-color:rgb(82.352941%,63.921569%,38.431373%);stop-opacity:1;"/>
</linearGradient>
<linearGradient id="linear4" gradientUnits="userSpaceOnUse" x1="10.537197" y1="7.577456" x2="13.497259" y2="16.186811" gradientTransform="matrix(1.140179,0,0,1.306718,3.735709,-0.526595)">
<stop offset="0" style="stop-color:rgb(80%,58.823529%,29.803922%);stop-opacity:1;"/>
<stop offset="1" style="stop-color:rgb(79.215686%,58.039216%,29.803922%);stop-opacity:1;"/>
</linearGradient>
<linearGradient id="linear5" gradientUnits="userSpaceOnUse" x1="16.139584" y1="5.291666" x2="11.377084" y2="7.408333" gradientTransform="matrix(1.417323,0,0,1.417323,-0.375001,-1.125)">
<stop offset="0" style="stop-color:rgb(87.058824%,73.333333%,52.54902%);stop-opacity:1;"/>
<stop offset="1" style="stop-color:rgb(86.27451%,68.235294%,43.137255%);stop-opacity:1;"/>
</linearGradient>
<linearGradient id="linear6" gradientUnits="userSpaceOnUse" x1="7.14375" y1="2.116667" x2="14.022917" y2="6.085417" gradientTransform="matrix(1.417323,0,0,1.417323,-0.75,-1.875)">
<stop offset="0" style="stop-color:rgb(87.058824%,73.333333%,52.54902%);stop-opacity:1;"/>
<stop offset="1" style="stop-color:rgb(86.27451%,68.235294%,43.137255%);stop-opacity:1;"/>
</linearGradient>
<filter id="alpha" filterUnits="objectBoundingBox" x="0%" y="0%" width="100%" height="100%">
  <feColorMatrix type="matrix" in="SourceGraphic" values="0 0 0 0 1 0 0 0 0 1 0 0 0 0 1 0 0 0 1 0"/>
</filter>
<mask id="mask0">
  <g filter="url(#alpha)">
<rect x="0" y="0" width="24" height="24" style="fill:rgb(0%,0%,0%);fill-opacity:0.4;stroke:none;"/>
  </g>
</mask>
<linearGradient id="linear7" gradientUnits="userSpaceOnUse" x1="2.38125" y1="8.466667" x2="6.614584" y2="12.700001" gradientTransform="matrix(1.913386,0,0,1.913386,-0.816447,-3.991467)">
<stop offset="0" style="stop-color:rgb(100%,100%,100%);stop-opacity:1;"/>
<stop offset="1" style="stop-color:rgb(100%,100%,100%);stop-opacity:0;"/>
</linearGradient>
<clipPath id="clip1">
  <rect x="0" y="0" width="24" height="24"/>
</clipPath>
<g id="surface5" clip-path="url(#clip1)">
<path style=" stroke:none;fill-rule:nonzero;fill:url(#linear7);" d="M 7.789062 12.207031 C 5.554688 12.207031 3.738281 14.023438 3.738281 16.257812 C 3.738281 18.496094 5.554688 20.308594 7.789062 20.308594 C 10.027344 20.308594 11.839844 18.496094 11.839844 16.257812 C 11.839844 14.023438 10.027344 12.207031 7.789062 12.207031 Z M 7.789062 15.246094 C 8.347656 15.246094 8.800781 15.699219 8.800781 16.257812 C 8.800781 16.816406 8.347656 17.269531 7.789062 17.269531 C 7.230469 17.269531 6.777344 16.816406 6.777344 16.257812 C 6.777344 15.699219 7.230469 15.246094 7.789062 15.246094 Z M 7.789062 15.246094 "/>
</g>
<linearGradient id="linear8" gradientUnits="userSpaceOnUse" x1="96.408417" y1="238.0069" x2="127.77626" y2="238.0069" gradientTransform="matrix(0.516452,0,0,0.49831,-50.10054,-102.342739)">
<stop offset="0" style="stop-color:rgb(89.019608%,92.941176%,93.333333%);stop-opacity:1;"/>
<stop offset="1" style="stop-color:rgb(78.823529%,80.392157%,80.784314%);stop-opacity:1;"/>
</linearGradient>
<linearGradient id="linear9" gradientUnits="userSpaceOnUse" x1="112.09232" y1="238.0069" x2="112.17286" y2="254.33937" gradientTransform="matrix(0.516452,0,0,0.49831,-50.10054,-102.342739)">
<stop offset="0" style="stop-color:rgb(72.54902%,74.901961%,74.901961%);stop-opacity:1;"/>
<stop offset="1" style="stop-color:rgb(66.666667%,67.45098%,67.058824%);stop-opacity:1;"/>
</linearGradient>
<mask id="mask1">
  <g filter="url(#alpha)">
<rect x="0" y="0" width="24" height="24" style="fill:rgb(0%,0%,0%);fill-opacity:0.501961;stroke:none;"/>
  </g>
</mask>
<linearGradient id="linear10" gradientUnits="userSpaceOnUse" x1="16.424316" y1="54.63533" x2="32.331596" y2="38.452602" gradientTransform="matrix(0.50625,0,0,0.50625,-0.816447,-3.991467)">
<stop offset="0" style="stop-color:rgb(100%,100%,100%);stop-opacity:0.501961;"/>
<stop offset="0.45" style="stop-color:rgb(100%,100%,100%);stop-opacity:0;"/>
<stop offset="0.5" style="stop-color:rgb(100%,100%,100%);stop-opacity:1;"/>
<stop offset="0.55" style="stop-color:rgb(100%,100%,100%);stop-opacity:0;"/>
<stop offset="1" style="stop-color:rgb(100%,100%,100%);stop-opacity:0.2;"/>
</linearGradient>
<clipPath id="clip2">
  <rect x="0" y="0" width="24" height="24"/>
</clipPath>
<g id="surface8" clip-path="url(#clip2)">
<path style=" stroke:none;fill-rule:nonzero;fill:url(#linear10);" d="M 5.957031 8.921875 C 3.105469 9.632812 0.898438 11.960938 0.359375 14.871094 L 4.757812 15.753906 L 4.808594 15.761719 C 5.007812 14.574219 5.890625 13.617188 7.054688 13.324219 Z M 10.773438 16.757812 C 10.570312 17.941406 9.6875 18.898438 8.523438 19.195312 L 9.625 23.59375 C 12.472656 22.882812 14.679688 20.558594 15.21875 17.644531 L 10.820312 16.765625 Z M 10.773438 16.757812 "/>
</g>
<mask id="mask2">
  <g filter="url(#alpha)">
<rect x="0" y="0" width="24" height="24" style="fill:rgb(0%,0%,0%);fill-opacity:0.501961;stroke:none;"/>
  </g>
</mask>
<linearGradient id="linear11" gradientUnits="userSpaceOnUse" x1="14.532227" y1="42.393677" x2="19.540161" y2="37.501221" gradientTransform="matrix(0.54,0,0,0.54,-1.390197,-5.341465)">
<stop offset="0" style="stop-color:rgb(52.156863%,52.156863%,52.156863%);stop-opacity:1;"/>
<stop offset="0.5" style="stop-color:rgb(100%,100%,100%);stop-opacity:1;"/>
<stop offset="1" style="stop-color:rgb(52.54902%,52.54902%,52.54902%);stop-opacity:1;"/>
</linearGradient>
<clipPath id="clip3">
  <rect x="0" y="0" width="24" height="24"/>
</clipPath>
<g id="surface11" clip-path="url(#clip3)">
<path style=" stroke:none;fill-rule:nonzero;fill:url(#linear11);" d="M 7.789062 14.910156 C 7.042969 14.910156 6.441406 15.511719 6.441406 16.257812 C 6.441406 17.003906 7.042969 17.609375 7.789062 17.609375 C 8.535156 17.609375 9.140625 17.003906 9.140625 16.257812 C 9.140625 15.511719 8.535156 14.910156 7.789062 14.910156 Z M 7.789062 15.179688 C 7.800781 15.179688 7.808594 15.179688 7.816406 15.179688 C 7.820312 15.179688 7.820312 15.179688 7.820312 15.179688 C 7.828125 15.179688 7.835938 15.179688 7.84375 15.179688 C 7.851562 15.179688 7.859375 15.179688 7.863281 15.179688 C 7.871094 15.179688 7.875 15.183594 7.882812 15.183594 C 7.886719 15.183594 7.894531 15.183594 7.902344 15.183594 C 7.90625 15.183594 7.910156 15.183594 7.914062 15.183594 C 7.917969 15.1875 7.921875 15.1875 7.929688 15.1875 C 7.933594 15.1875 7.9375 15.1875 7.941406 15.191406 C 7.953125 15.191406 7.964844 15.191406 7.972656 15.195312 C 7.976562 15.195312 7.980469 15.195312 7.984375 15.195312 C 7.992188 15.195312 7.996094 15.199219 8.003906 15.199219 C 8.007812 15.199219 8.007812 15.199219 8.011719 15.199219 C 8.019531 15.203125 8.027344 15.203125 8.035156 15.207031 C 8.035156 15.207031 8.035156 15.207031 8.039062 15.207031 C 8.054688 15.210938 8.074219 15.214844 8.089844 15.222656 C 8.09375 15.222656 8.09375 15.222656 8.09375 15.222656 C 8.101562 15.226562 8.109375 15.226562 8.117188 15.230469 C 8.121094 15.230469 8.121094 15.230469 8.125 15.230469 C 8.128906 15.234375 8.136719 15.234375 8.144531 15.238281 C 8.148438 15.238281 8.148438 15.242188 8.152344 15.242188 C 8.160156 15.246094 8.167969 15.246094 8.175781 15.25 C 8.179688 15.25 8.179688 15.25 8.183594 15.253906 C 8.191406 15.257812 8.199219 15.261719 8.210938 15.265625 C 8.21875 15.265625 8.226562 15.269531 8.234375 15.273438 C 8.238281 15.273438 8.238281 15.277344 8.238281 15.277344 C 8.242188 15.277344 8.246094 15.277344 8.246094 15.28125 C 8.253906 15.28125 8.261719 15.285156 8.265625 15.289062 C 8.269531 15.289062 8.269531 15.292969 8.273438 15.292969 C 8.28125 15.296875 8.285156 15.300781 8.292969 15.304688 C 8.304688 15.308594 8.3125 15.3125 8.320312 15.316406 C 8.320312 15.320312 8.320312 15.320312 8.320312 15.320312 C 8.324219 15.320312 8.328125 15.320312 8.328125 15.324219 C 8.335938 15.328125 8.339844 15.328125 8.34375 15.332031 C 8.347656 15.332031 8.347656 15.332031 8.347656 15.332031 C 8.355469 15.339844 8.363281 15.34375 8.371094 15.347656 C 8.371094 15.347656 8.371094 15.347656 8.375 15.351562 C 8.378906 15.355469 8.386719 15.359375 8.394531 15.363281 C 8.398438 15.367188 8.40625 15.371094 8.414062 15.378906 C 8.417969 15.378906 8.421875 15.382812 8.425781 15.382812 C 8.433594 15.390625 8.445312 15.398438 8.457031 15.410156 C 8.460938 15.414062 8.46875 15.417969 8.472656 15.421875 C 8.480469 15.429688 8.488281 15.433594 8.492188 15.4375 C 8.496094 15.441406 8.496094 15.441406 8.496094 15.441406 C 8.507812 15.449219 8.515625 15.457031 8.523438 15.464844 C 8.53125 15.472656 8.535156 15.476562 8.542969 15.484375 C 8.554688 15.496094 8.570312 15.511719 8.582031 15.523438 C 8.582031 15.527344 8.585938 15.527344 8.585938 15.527344 C 8.589844 15.535156 8.597656 15.539062 8.601562 15.546875 C 8.601562 15.546875 8.605469 15.550781 8.605469 15.550781 C 8.605469 15.550781 8.609375 15.554688 8.609375 15.554688 C 8.613281 15.5625 8.621094 15.566406 8.625 15.574219 C 8.628906 15.578125 8.632812 15.582031 8.636719 15.589844 C 8.640625 15.589844 8.640625 15.59375 8.644531 15.597656 C 8.648438 15.601562 8.652344 15.605469 8.652344 15.609375 C 8.65625 15.613281 8.660156 15.617188 8.664062 15.625 C 8.664062 15.625 8.667969 15.628906 8.671875 15.632812 C 8.675781 15.640625 8.679688 15.648438 8.6875 15.65625 C 8.691406 15.660156 8.695312 15.667969 8.699219 15.675781 C 8.699219 15.675781 8.699219 15.675781 8.699219 15.679688 C 8.707031 15.6875 8.710938 15.691406 8.714844 15.699219 C 8.71875 15.710938 8.726562 15.71875 8.730469 15.726562 C 8.734375 15.734375 8.738281 15.746094 8.746094 15.753906 C 8.75 15.761719 8.753906 15.769531 8.757812 15.777344 C 8.757812 15.777344 8.757812 15.78125 8.757812 15.78125 C 8.761719 15.789062 8.765625 15.792969 8.769531 15.800781 C 8.769531 15.804688 8.769531 15.808594 8.773438 15.808594 C 8.773438 15.8125 8.773438 15.8125 8.773438 15.8125 C 8.777344 15.820312 8.78125 15.828125 8.785156 15.839844 C 8.789062 15.847656 8.792969 15.855469 8.796875 15.867188 C 8.796875 15.867188 8.796875 15.871094 8.796875 15.871094 C 8.796875 15.875 8.800781 15.875 8.800781 15.878906 C 8.800781 15.882812 8.804688 15.890625 8.808594 15.894531 C 8.808594 15.898438 8.808594 15.902344 8.808594 15.902344 C 8.8125 15.910156 8.816406 15.917969 8.816406 15.925781 C 8.816406 15.925781 8.816406 15.929688 8.820312 15.929688 C 8.820312 15.9375 8.824219 15.945312 8.824219 15.953125 C 8.828125 15.953125 8.828125 15.957031 8.828125 15.957031 C 8.832031 15.976562 8.835938 15.992188 8.839844 16.011719 C 8.839844 16.011719 8.839844 16.011719 8.84375 16.015625 C 8.84375 16.023438 8.84375 16.03125 8.847656 16.039062 C 8.847656 16.039062 8.847656 16.042969 8.847656 16.042969 C 8.851562 16.050781 8.851562 16.058594 8.851562 16.066406 C 8.851562 16.066406 8.851562 16.070312 8.855469 16.074219 C 8.855469 16.085938 8.855469 16.09375 8.859375 16.105469 C 8.859375 16.109375 8.859375 16.113281 8.859375 16.121094 C 8.863281 16.132812 8.863281 16.140625 8.863281 16.148438 C 8.863281 16.152344 8.863281 16.160156 8.867188 16.167969 C 8.867188 16.167969 8.867188 16.171875 8.867188 16.175781 C 8.867188 16.179688 8.867188 16.179688 8.867188 16.183594 C 8.867188 16.191406 8.867188 16.195312 8.867188 16.203125 C 8.867188 16.210938 8.867188 16.21875 8.871094 16.226562 C 8.871094 16.238281 8.871094 16.25 8.871094 16.257812 C 8.871094 16.285156 8.867188 16.3125 8.867188 16.339844 C 8.863281 16.355469 8.863281 16.367188 8.863281 16.378906 C 8.859375 16.394531 8.859375 16.410156 8.855469 16.429688 C 8.855469 16.4375 8.851562 16.445312 8.851562 16.457031 C 8.847656 16.476562 8.84375 16.496094 8.835938 16.515625 C 8.835938 16.523438 8.835938 16.53125 8.832031 16.539062 C 8.828125 16.558594 8.820312 16.574219 8.816406 16.59375 C 8.8125 16.609375 8.804688 16.621094 8.800781 16.636719 C 8.796875 16.644531 8.792969 16.65625 8.789062 16.664062 C 8.78125 16.679688 8.777344 16.699219 8.769531 16.714844 C 8.761719 16.726562 8.757812 16.738281 8.75 16.753906 C 8.746094 16.761719 8.738281 16.773438 8.734375 16.78125 C 8.726562 16.796875 8.714844 16.8125 8.707031 16.828125 C 8.699219 16.835938 8.695312 16.847656 8.6875 16.859375 C 8.675781 16.871094 8.667969 16.886719 8.65625 16.898438 C 8.652344 16.910156 8.644531 16.917969 8.636719 16.925781 C 8.628906 16.9375 8.617188 16.953125 8.605469 16.964844 C 8.597656 16.972656 8.589844 16.980469 8.585938 16.988281 C 8.566406 17.011719 8.546875 17.03125 8.523438 17.050781 C 8.523438 17.050781 8.523438 17.050781 8.519531 17.054688 C 8.511719 17.058594 8.503906 17.066406 8.496094 17.074219 C 8.484375 17.085938 8.472656 17.097656 8.457031 17.105469 C 8.449219 17.113281 8.441406 17.121094 8.429688 17.125 C 8.417969 17.136719 8.402344 17.144531 8.390625 17.15625 C 8.378906 17.164062 8.371094 17.167969 8.359375 17.175781 C 8.34375 17.183594 8.328125 17.195312 8.3125 17.203125 C 8.304688 17.207031 8.292969 17.214844 8.285156 17.21875 C 8.269531 17.226562 8.257812 17.230469 8.246094 17.238281 C 8.230469 17.246094 8.210938 17.25 8.195312 17.257812 C 8.1875 17.261719 8.175781 17.265625 8.167969 17.269531 C 8.152344 17.273438 8.140625 17.28125 8.125 17.285156 C 8.105469 17.289062 8.089844 17.296875 8.070312 17.300781 C 8.0625 17.304688 8.054688 17.304688 8.046875 17.304688 C 8.027344 17.3125 8.007812 17.316406 7.988281 17.320312 C 7.976562 17.320312 7.96875 17.324219 7.960938 17.324219 C 7.941406 17.328125 7.925781 17.328125 7.910156 17.332031 C 7.898438 17.332031 7.886719 17.332031 7.871094 17.335938 C 7.84375 17.335938 7.816406 17.339844 7.789062 17.339844 C 7.761719 17.339844 7.734375 17.335938 7.707031 17.335938 C 7.695312 17.332031 7.679688 17.332031 7.667969 17.332031 C 7.652344 17.328125 7.636719 17.328125 7.621094 17.324219 C 7.609375 17.324219 7.601562 17.320312 7.59375 17.320312 C 7.570312 17.316406 7.550781 17.3125 7.53125 17.304688 C 7.523438 17.304688 7.515625 17.304688 7.511719 17.300781 C 7.492188 17.296875 7.472656 17.289062 7.453125 17.285156 C 7.441406 17.28125 7.425781 17.273438 7.414062 17.269531 C 7.402344 17.265625 7.394531 17.261719 7.382812 17.257812 C 7.367188 17.25 7.351562 17.246094 7.335938 17.238281 C 7.320312 17.230469 7.308594 17.226562 7.296875 17.21875 C 7.285156 17.214844 7.277344 17.207031 7.265625 17.203125 C 7.25 17.195312 7.234375 17.183594 7.21875 17.175781 C 7.210938 17.167969 7.199219 17.164062 7.191406 17.15625 C 7.175781 17.144531 7.160156 17.136719 7.148438 17.125 C 7.140625 17.121094 7.128906 17.113281 7.121094 17.105469 C 7.109375 17.097656 7.097656 17.085938 7.082031 17.074219 C 7.074219 17.066406 7.0625 17.058594 7.054688 17.050781 C 7.035156 17.03125 7.015625 17.011719 6.996094 16.988281 C 6.988281 16.980469 6.980469 16.972656 6.972656 16.964844 C 6.960938 16.953125 6.953125 16.9375 6.941406 16.925781 C 6.933594 16.917969 6.929688 16.910156 6.921875 16.898438 C 6.910156 16.886719 6.902344 16.871094 6.890625 16.859375 C 6.886719 16.847656 6.878906 16.835938 6.871094 16.828125 C 6.863281 16.8125 6.855469 16.796875 6.847656 16.78125 C 6.839844 16.773438 6.835938 16.761719 6.828125 16.753906 C 6.824219 16.738281 6.816406 16.726562 6.8125 16.714844 C 6.804688 16.699219 6.796875 16.679688 6.789062 16.664062 C 6.785156 16.65625 6.78125 16.644531 6.777344 16.636719 C 6.773438 16.621094 6.769531 16.609375 6.765625 16.59375 C 6.757812 16.574219 6.753906 16.558594 6.746094 16.539062 C 6.746094 16.53125 6.742188 16.523438 6.742188 16.515625 C 6.738281 16.496094 6.734375 16.476562 6.730469 16.457031 C 6.726562 16.445312 6.726562 16.4375 6.722656 16.429688 C 6.722656 16.410156 6.71875 16.394531 6.71875 16.378906 C 6.714844 16.367188 6.714844 16.355469 6.714844 16.339844 C 6.710938 16.3125 6.710938 16.285156 6.710938 16.257812 C 6.710938 16.230469 6.710938 16.203125 6.714844 16.175781 C 6.714844 16.164062 6.714844 16.148438 6.71875 16.136719 C 6.71875 16.121094 6.722656 16.105469 6.722656 16.089844 C 6.726562 16.078125 6.726562 16.070312 6.730469 16.0625 C 6.734375 16.039062 6.738281 16.019531 6.742188 16 C 6.742188 15.992188 6.746094 15.984375 6.746094 15.980469 C 6.753906 15.960938 6.757812 15.941406 6.765625 15.921875 C 6.769531 15.910156 6.773438 15.894531 6.777344 15.882812 C 6.78125 15.871094 6.785156 15.863281 6.789062 15.851562 C 6.796875 15.835938 6.804688 15.820312 6.8125 15.804688 C 6.816406 15.789062 6.824219 15.777344 6.828125 15.765625 C 6.835938 15.753906 6.839844 15.746094 6.847656 15.734375 C 6.855469 15.71875 6.863281 15.703125 6.871094 15.6875 C 6.878906 15.679688 6.886719 15.667969 6.890625 15.660156 C 6.902344 15.644531 6.910156 15.628906 6.921875 15.617188 C 6.929688 15.609375 6.933594 15.597656 6.941406 15.589844 C 6.953125 15.578125 6.960938 15.566406 6.972656 15.550781 C 6.980469 15.542969 6.988281 15.53125 7 15.523438 C 7.015625 15.503906 7.039062 15.484375 7.058594 15.464844 C 7.066406 15.457031 7.074219 15.449219 7.082031 15.441406 C 7.097656 15.429688 7.109375 15.421875 7.121094 15.410156 C 7.128906 15.402344 7.140625 15.398438 7.148438 15.390625 C 7.160156 15.378906 7.175781 15.371094 7.191406 15.359375 C 7.199219 15.355469 7.210938 15.347656 7.21875 15.339844 C 7.234375 15.332031 7.25 15.324219 7.265625 15.3125 C 7.277344 15.308594 7.285156 15.304688 7.296875 15.296875 C 7.308594 15.292969 7.320312 15.285156 7.335938 15.28125 C 7.351562 15.273438 7.367188 15.265625 7.382812 15.257812 C 7.394531 15.253906 7.402344 15.25 7.414062 15.246094 C 7.425781 15.242188 7.441406 15.238281 7.453125 15.234375 C 7.472656 15.226562 7.492188 15.222656 7.511719 15.214844 C 7.515625 15.214844 7.523438 15.210938 7.53125 15.210938 C 7.550781 15.207031 7.570312 15.199219 7.59375 15.199219 C 7.601562 15.195312 7.609375 15.195312 7.621094 15.191406 C 7.636719 15.191406 7.652344 15.1875 7.667969 15.1875 C 7.679688 15.183594 7.695312 15.183594 7.707031 15.183594 C 7.734375 15.179688 7.761719 15.179688 7.789062 15.179688 Z M 7.789062 15.179688 "/>
</g>
<mask id="mask3">
  <g filter="url(#alpha)">
<rect x="0" y="0" width="24" height="24" style="fill:rgb(0%,0%,0%);fill-opacity:0.501961;stroke:none;"/>
  </g>
</mask>
<linearGradient id="linear12" gradientUnits="userSpaceOnUse" x1="14.532227" y1="42.393677" x2="19.540161" y2="37.501221" gradientTransform="matrix(0.972,0,0,0.972,-8.734197,-22.62147)">
<stop offset="0" style="stop-color:rgb(52.156863%,52.156863%,52.156863%);stop-opacity:1;"/>
<stop offset="0.5" style="stop-color:rgb(100%,100%,100%);stop-opacity:1;"/>
<stop offset="1" style="stop-color:rgb(52.54902%,52.54902%,52.54902%);stop-opacity:1;"/>
</linearGradient>
<clipPath id="clip4">
  <rect x="0" y="0" width="24" height="24"/>
</clipPath>
<g id="surface14" clip-path="url(#clip4)">
<path style=" stroke:none;fill-rule:nonzero;fill:url(#linear12);" d="M 7.789062 13.828125 C 6.449219 13.828125 5.359375 14.917969 5.359375 16.257812 C 5.359375 17.601562 6.449219 18.6875 7.789062 18.6875 C 9.132812 18.6875 10.21875 17.601562 10.21875 16.257812 C 10.21875 14.917969 9.132812 13.828125 7.789062 13.828125 Z M 7.789062 14.097656 C 8.984375 14.097656 9.949219 15.066406 9.949219 16.257812 C 9.949219 17.453125 8.984375 18.417969 7.789062 18.417969 C 6.597656 18.417969 5.628906 17.453125 5.628906 16.257812 C 5.628906 15.066406 6.597656 14.097656 7.789062 14.097656 Z M 7.789062 14.097656 "/>
</g>
<mask id="mask4">
  <g filter="url(#alpha)">
<rect x="0" y="0" width="24" height="24" style="fill:rgb(0%,0%,0%);fill-opacity:0.501961;stroke:none;"/>
  </g>
</mask>
<linearGradient id="linear13" gradientUnits="userSpaceOnUse" x1="5.108154" y1="42.191895" x2="7.469238" y2="33.279785" gradientTransform="matrix(0.50625,0,0,0.50625,-0.816447,-3.991467)">
<stop offset="0" style="stop-color:rgb(97.254902%,60.392157%,95.686275%);stop-opacity:0;"/>
<stop offset="0.4" style="stop-color:rgb(97.254902%,60.392157%,95.686275%);stop-opacity:0;"/>
<stop offset="0.5" style="stop-color:rgb(97.254902%,60.392157%,95.686275%);stop-opacity:1;"/>
<stop offset="0.6" style="stop-color:rgb(97.254902%,60.392157%,95.686275%);stop-opacity:0;"/>
<stop offset="1" style="stop-color:rgb(97.254902%,60.392157%,95.686275%);stop-opacity:0;"/>
</linearGradient>
<clipPath id="clip5">
  <rect x="0" y="0" width="24" height="24"/>
</clipPath>
<g id="surface17" clip-path="url(#clip5)">
<path style=" stroke:none;fill-rule:nonzero;fill:url(#linear13);" d="M 1.109375 12.722656 C 0.546875 13.777344 0.230469 14.980469 0.230469 16.257812 C 0.230469 17.535156 0.546875 18.742188 1.109375 19.796875 L 5.109375 17.675781 C 4.875 17.242188 4.753906 16.753906 4.753906 16.257812 C 4.753906 15.761719 4.875 15.277344 5.109375 14.839844 Z M 1.109375 12.722656 "/>
</g>
</defs>
<g id="surface1">
<path style=" stroke:none;fill-rule:nonzero;fill:url(#linear0);" d="M 1.5 4.875 L 4.875 2.25 L 7.5 3.75 L 6.566406 7.703125 L 4.125 6.375 Z M 1.5 4.875 "/>
<path style=" stroke:none;fill-rule:nonzero;fill:url(#linear1);" d="M 4.125 6.375 L 7.5 3.75 L 13.582031 18.402344 L 4.125 19.125 Z M 4.125 6.375 "/>
<path style=" stroke:none;fill-rule:nonzero;fill:url(#linear2);" d="M 7.5 3.75 L 19.125 6.75 L 19.125 18.75 L 7.5 16.5 Z M 7.5 3.75 "/>
<path style=" stroke:none;fill-rule:nonzero;fill:url(#linear3);" d="M 4.125 6.375 L 15.75 9.375 L 17.25 9 L 15.75 23.25 L 4.125 20.25 Z M 4.125 6.375 "/>
<path style=" stroke:none;fill-rule:nonzero;fill:url(#linear4);" d="M 15.75 9.375 L 19.125 6.75 L 19.125 20.625 L 15.75 23.25 Z M 15.75 9.375 "/>
<path style=" stroke:none;fill-rule:nonzero;fill:url(#linear5);" d="M 19.125 6.75 L 22.5 6.375 L 19.5 9 L 15.75 9.375 Z M 19.125 6.75 "/>
<path style=" stroke:none;fill-rule:nonzero;fill:url(#linear6);" d="M 9.375 1.125 L 21 4.125 L 19.125 6.75 L 7.5 3.75 Z M 9.375 1.125 "/>
<path style=" stroke:none;fill-rule:nonzero;fill:rgb(74.509804%,52.156863%,25.490196%);fill-opacity:1;" d="M 9.375 0.75 L 21 3.75 L 21 4.125 L 9.375 1.125 Z M 9.375 0.75 "/>
<use xlink:href="#surface5" mask="url(#mask0)"/>
<path style=" stroke:none;fill-rule:nonzero;fill:rgb(81.568627%,81.568627%,81.568627%);fill-opacity:1;" d="M 7.789062 12.714844 C 5.832031 12.714844 4.246094 14.300781 4.246094 16.257812 C 4.246094 18.214844 5.832031 19.800781 7.789062 19.800781 C 9.746094 19.800781 11.332031 18.214844 11.332031 16.257812 C 11.332031 14.300781 9.746094 12.714844 7.789062 12.714844 Z M 7.789062 13.472656 C 9.328125 13.472656 10.574219 14.722656 10.574219 16.257812 C 10.574219 17.796875 9.328125 19.042969 7.789062 19.042969 C 6.253906 19.042969 5.003906 17.796875 5.003906 16.257812 C 5.003906 14.722656 6.253906 13.472656 7.789062 13.472656 Z M 7.789062 13.472656 "/>
<path style=" stroke:none;fill-rule:nonzero;fill:url(#linear8);" d="M 7.789062 8.699219 C 3.613281 8.699219 0.230469 12.082031 0.230469 16.257812 C 0.230469 20.433594 3.613281 23.820312 7.789062 23.820312 C 11.964844 23.820312 15.351562 20.433594 15.351562 16.257812 C 15.351562 12.082031 11.964844 8.699219 7.789062 8.699219 Z M 7.789062 13.222656 C 9.46875 13.222656 10.828125 14.582031 10.828125 16.257812 C 10.828125 17.9375 9.46875 19.296875 7.789062 19.296875 C 6.113281 19.296875 4.753906 17.9375 4.753906 16.257812 C 4.753906 14.582031 6.113281 13.222656 7.789062 13.222656 Z M 7.789062 13.222656 "/>
<path style=" stroke:none;fill-rule:nonzero;fill:url(#linear9);" d="M 10.820312 16.449219 C 10.71875 18.046875 9.394531 19.296875 7.789062 19.296875 C 6.984375 19.296875 6.210938 18.972656 5.644531 18.402344 L 2.445312 21.605469 C 3.8125 22.972656 5.703125 23.820312 7.789062 23.820312 C 11.804688 23.820312 15.089844 20.683594 15.332031 16.730469 Z M 10.820312 16.449219 "/>
<use xlink:href="#surface8" mask="url(#mask1)"/>
<use xlink:href="#surface11" mask="url(#mask2)"/>
<use xlink:href="#surface14" mask="url(#mask3)"/>
<use xlink:href="#surface17" mask="url(#mask4)"/>
<path style=" stroke:none;fill-rule:nonzero;fill:rgb(81.568627%,81.568627%,81.568627%);fill-opacity:1;" d="M 7.789062 8.699219 C 3.613281 8.699219 0.230469 12.082031 0.230469 16.257812 C 0.230469 20.433594 3.613281 23.820312 7.789062 23.820312 C 11.964844 23.820312 15.351562 20.433594 15.351562 16.257812 C 15.351562 12.082031 11.964844 8.699219 7.789062 8.699219 Z M 7.789062 8.96875 C 11.816406 8.96875 15.078125 12.230469 15.078125 16.257812 C 15.078125 20.285156 11.816406 23.546875 7.789062 23.546875 C 3.761719 23.546875 0.5 20.285156 0.5 16.257812 C 0.5 12.230469 3.761719 8.96875 7.789062 8.96875 Z M 7.789062 8.96875 "/>
</g>
</svg>
