<?xml version="1.0" encoding="UTF-8" standalone="no"?>
<!-- Created with Inkscape (http://www.inkscape.org/) -->

<svg
   width="24"
   height="24"
   viewBox="0 0 24 24.000001"
   version="1.1"
   id="svg5"
   inkscape:version="1.3.2 (091e20e, 2023-11-25)"
   sodipodi:docname="org.xfce.xfwm4-tweaks.svg"
   xmlns:inkscape="http://www.inkscape.org/namespaces/inkscape"
   xmlns:sodipodi="http://sodipodi.sourceforge.net/DTD/sodipodi-0.dtd"
   xmlns="http://www.w3.org/2000/svg"
   xmlns:svg="http://www.w3.org/2000/svg">
  <sodipodi:namedview
     id="namedview7"
     pagecolor="#ffffff"
     bordercolor="#000000"
     borderopacity="0.25"
     inkscape:showpageshadow="2"
     inkscape:pageopacity="0.0"
     inkscape:pagecheckerboard="0"
     inkscape:deskcolor="#d1d1d1"
     inkscape:document-units="px"
     showgrid="false"
     inkscape:zoom="33.416667"
     inkscape:cx="12.014962"
     inkscape:cy="12.014962"
     inkscape:window-width="1680"
     inkscape:window-height="994"
     inkscape:window-x="0"
     inkscape:window-y="25"
     inkscape:window-maximized="1"
     inkscape:current-layer="svg5"
     showguides="false" />
  <defs
     id="defs2">
    <linearGradient
       id="linear0"
       gradientUnits="userSpaceOnUse"
       x1="22.2703"
       y1="11.7297"
       x2="9.6459999"
       y2="24.354"
       gradientTransform="matrix(2,0,0,-2,0,68)">
      <stop
         offset="0"
         style="stop-color:rgb(100%,100%,100%);stop-opacity:1;"
         id="stop1" />
      <stop
         offset="0.242"
         style="stop-color:rgb(94.901961%,94.901961%,94.901961%);stop-opacity:1;"
         id="stop2" />
      <stop
         offset="1"
         style="stop-color:rgb(80%,80%,80%);stop-opacity:1;"
         id="stop3" />
    </linearGradient>
    <linearGradient
       id="linear1"
       gradientUnits="userSpaceOnUse"
       x1="10.3857"
       y1="23.6143"
       x2="20.234301"
       y2="13.7657"
       gradientTransform="matrix(2,0,0,-2,0,68)">
      <stop
         offset="0.2291"
         style="stop-color:rgb(2.352941%,41.176471%,73.72549%);stop-opacity:1;"
         id="stop4" />
      <stop
         offset="0.8045"
         style="stop-color:rgb(6.27451%,30.588235%,56.862745%);stop-opacity:1;"
         id="stop5" />
    </linearGradient>
    <linearGradient
       id="linear2"
       gradientUnits="userSpaceOnUse"
       x1="1.1849"
       y1="32.736698"
       x2="27.172701"
       y2="6.7490001"
       gradientTransform="matrix(2,0,0,-2,0,68)">
      <stop
         offset="0.1453"
         style="stop-color:rgb(54.117647%,56.862745%,59.607843%);stop-opacity:1;"
         id="stop6" />
      <stop
         offset="0.8939"
         style="stop-color:rgb(38.823529%,43.921569%,48.235294%);stop-opacity:1;"
         id="stop7" />
    </linearGradient>
  </defs>
  <rect
     style="fill:#797774;stroke-linecap:round;stroke-linejoin:round"
     id="rect421"
     width="18"
     height="14"
     x="4"
     y="3"
     ry="2" />
  <path
     d="M 6.0000003,6 H 19.999999 c 0.554,0 1,0.4460001 1,0.9999998 v 8.0000012 c 0,0.553999 -0.446,0.999998 -1,0.999998 H 6.0000003 c -0.5539998,0 -0.9999998,-0.445999 -0.9999998,-0.999998 V 6.9999998 C 5.0000005,6.4460001 5.4460005,6 6.0000003,6 Z"
     style="fill:#fafafa;fill-opacity:1;stroke-width:3;stroke-linecap:round;stroke-linejoin:round"
     id="path431" />
  <path
     d="m 15,4 v 0.9999998 h 1 V 4 Z m 2,0 v 0.9999998 h 1 V 4 Z m 2,0 v 0.9999998 h 1 V 4 Z"
     style="fill:#c4c4c4;fill-opacity:1;stroke-width:1.5;stroke-linecap:round;stroke-linejoin:round"
     id="path464" />
  <rect
     style="fill:#797774;fill-opacity:1;stroke:none;stroke-width:0.368024;stroke-linecap:round;stroke-linejoin:round"
     id="rect261617"
     width="18"
     height="14"
     x="2"
     y="7"
     ry="2" />
  <path
     id="rect1043"
     style="fill:#fafafa;fill-opacity:1;stroke-width:3;stroke-linecap:round;stroke-linejoin:round"
     d="M 3.9999996,10 H 17.999999 c 0.554,0 1,0.446 1,1 v 8 c 0,0.553999 -0.446,0.999998 -1,0.999998 H 3.9999996 C 3.4459998,19.999998 2.9999998,19.553999 2.9999998,19 v -8 c 0,-0.554 0.446,-1 0.9999998,-1 z"
     sodipodi:nodetypes="sssssssss" />
  <path
     id="rect1066"
     style="fill:#c4c4c4;fill-opacity:1;stroke-width:1.5;stroke-linecap:round;stroke-linejoin:round"
     d="m 12.999999,8 v 0.9999998 h 1 V 8 Z m 2,0 v 0.9999998 h 1 V 8 Z m 2,0 v 0.9999998 h 1 V 8 Z"
     sodipodi:nodetypes="ccccccccccccccc" />
  <g
     id="surface1"
     transform="matrix(0.15246,0,0,0.15246,6.1173446,10.13733)">
    <path
       style="fill:url(#linear0);fill-rule:nonzero;stroke:none"
       d="m 50,32 c 0,9.941406 -8.058594,18 -18,18 -9.941406,0 -18,-8.058594 -18,-18 0,-9.941406 8.058594,-18 18,-18 9.941406,0 18,8.058594 18,18 z m 0,0"
       id="path7" />
    <path
       style="fill:url(#linear1);fill-rule:nonzero;stroke:none"
       d="m 44,32 c 0,6.628906 -5.371094,12 -12,12 -6.628906,0 -12,-5.371094 -12,-12 0,-6.628906 5.371094,-12 12,-12 6.628906,0 12,5.371094 12,12 z m 0,0"
       id="path8" />
    <path
       style="fill:url(#linear2);fill-rule:nonzero;stroke:none"
       d="m 63.050781,24.636719 c -3.933593,-0.02734 -7.566406,-2.117188 -9.574219,-5.5 -1.898437,-3.234375 -2,-7.21875 -0.257812,-10.542969 C 49.773438,5.570312 45.71875,3.324219 41.332031,2 39.234375,5.09375 35.738281,6.941406 32,6.929688 28.261719,6.941406 24.765625,5.09375 22.671875,2 18.28125,3.324219 14.226562,5.570312 10.78125,8.59375 c 1.742188,3.324219 1.644531,7.308594 -0.257812,10.542969 -2.007813,3.382812 -5.640626,5.472656 -9.574219,5.5 -1.128907,4.378906 -1.253907,8.960937 -0.367188,13.398437 4.066407,-0.09766 7.867188,2.007813 9.941407,5.507813 C 12.636719,47.144531 12.5,51.640625 10.167969,55.109375 13.546875,58.222656 17.550781,60.570312 21.914062,62 23.816406,58.167969 27.722656,55.746094 32,55.746094 c 4.277344,0 8.183594,2.421875 10.085938,6.253906 4.363281,-1.429688 8.367187,-3.777344 11.742187,-6.890625 -2.332031,-3.464844 -2.46875,-7.960937 -0.351563,-11.566406 2.070313,-3.5 5.875,-5.605469 9.941407,-5.507813 0.882812,-4.4375 0.757812,-9.015625 -0.367188,-13.398437 z M 32,48 c -8.835938,0 -16,-7.164062 -16,-16 0,-8.835938 7.164062,-16 16,-16 8.835938,0 16,7.164062 16,16 0,8.835938 -7.164062,16 -16,16 z m 0,0"
       id="path9" />
  </g>
</svg>
