<?xml version="1.0" encoding="UTF-8" standalone="no"?>
<svg
   width="16px"
   height="16px"
   viewBox="0 0 16 16"
   version="1.1"
   id="svg2"
   sodipodi:docname="cs-drivers.svg"
   inkscape:version="1.3.2 (091e20e, 2023-11-25)"
   xmlns:inkscape="http://www.inkscape.org/namespaces/inkscape"
   xmlns:sodipodi="http://sodipodi.sourceforge.net/DTD/sodipodi-0.dtd"
   xmlns="http://www.w3.org/2000/svg"
   xmlns:svg="http://www.w3.org/2000/svg">
  <defs
     id="defs2" />
  <sodipodi:namedview
     id="namedview2"
     pagecolor="#ffffff"
     bordercolor="#000000"
     borderopacity="0.25"
     inkscape:showpageshadow="2"
     inkscape:pageopacity="0.0"
     inkscape:pagecheckerboard="0"
     inkscape:deskcolor="#d1d1d1"
     inkscape:zoom="47.125"
     inkscape:cx="7.9893899"
     inkscape:cy="8"
     inkscape:window-width="1680"
     inkscape:window-height="1000"
     inkscape:window-x="0"
     inkscape:window-y="25"
     inkscape:window-maximized="1"
     inkscape:current-layer="surface1" />
  <g
     id="surface1">
    <path
       style="stroke:none;fill-rule:evenodd;fill:#ff6400;fill-opacity:1"
       d="M 8 1 C 8.269531 1 8.488281 1.21875 8.488281 1.488281 L 8.488281 2.960938 C 8.488281 3.226562 8.726562 3.441406 8.992188 3.445312 C 9.265625 3.449219 9.464844 3.230469 9.464844 2.957031 L 9.464844 1.488281 C 9.46875 1.363281 9.523438 1.242188 9.613281 1.15625 C 9.707031 1.066406 9.828125 1.019531 9.953125 1.019531 C 10.078125 1.019531 10.203125 1.066406 10.292969 1.15625 C 10.382812 1.242188 10.4375 1.363281 10.441406 1.488281 L 10.441406 3.441406 C 10.441406 3.484375 10.46875 3.519531 10.511719 3.527344 C 11.125 3.609375 11.558594 3.777344 11.890625 4.109375 C 12.222656 4.441406 12.390625 4.875 12.472656 5.488281 C 12.480469 5.53125 12.515625 5.558594 12.558594 5.558594 L 14.511719 5.558594 C 14.636719 5.5625 14.757812 5.617188 14.84375 5.707031 C 14.933594 5.796875 14.980469 5.921875 14.980469 6.046875 C 14.980469 6.171875 14.933594 6.292969 14.84375 6.386719 C 14.757812 6.476562 14.636719 6.53125 14.511719 6.535156 L 13.042969 6.535156 C 12.769531 6.535156 12.550781 6.734375 12.554688 7.007812 C 12.558594 7.273438 12.773438 7.511719 13.039062 7.511719 L 14.511719 7.511719 C 14.640625 7.511719 14.765625 7.5625 14.855469 7.65625 C 14.949219 7.746094 15 7.871094 15 8 C 15 8.128906 14.949219 8.253906 14.855469 8.34375 C 14.765625 8.4375 14.640625 8.488281 14.511719 8.488281 L 13.039062 8.488281 C 12.773438 8.488281 12.558594 8.726562 12.554688 8.992188 C 12.550781 9.265625 12.769531 9.464844 13.042969 9.464844 L 14.511719 9.464844 C 14.636719 9.46875 14.757812 9.523438 14.84375 9.613281 C 14.933594 9.707031 14.980469 9.828125 14.980469 9.953125 C 14.980469 10.078125 14.933594 10.203125 14.84375 10.292969 C 14.757812 10.382812 14.636719 10.4375 14.511719 10.441406 L 12.558594 10.441406 C 12.515625 10.441406 12.480469 10.46875 12.472656 10.511719 C 12.390625 11.125 12.222656 11.558594 11.890625 11.890625 C 11.558594 12.222656 11.125 12.390625 10.511719 12.472656 C 10.46875 12.480469 10.441406 12.515625 10.441406 12.558594 L 10.441406 14.511719 C 10.4375 14.636719 10.382812 14.757812 10.292969 14.84375 C 10.203125 14.933594 10.078125 14.980469 9.953125 14.980469 C 9.828125 14.980469 9.707031 14.933594 9.613281 14.84375 C 9.523438 14.757812 9.46875 14.636719 9.464844 14.511719 L 9.464844 13.039062 C 9.464844 12.769531 9.242188 12.550781 8.972656 12.554688 C 8.703125 12.558594 8.488281 12.773438 8.488281 13.039062 L 8.488281 14.511719 C 8.488281 14.640625 8.4375 14.765625 8.34375 14.855469 C 8.253906 14.949219 8.128906 15 8 15 C 7.871094 15 7.746094 14.949219 7.65625 14.855469 C 7.5625 14.765625 7.511719 14.640625 7.511719 14.511719 L 7.511719 13.039062 C 7.511719 12.773438 7.296875 12.558594 7.027344 12.554688 C 6.757812 12.550781 6.535156 12.769531 6.535156 13.039062 L 6.535156 14.511719 C 6.53125 14.636719 6.476562 14.757812 6.386719 14.84375 C 6.292969 14.933594 6.171875 14.980469 6.046875 14.980469 C 5.921875 14.980469 5.796875 14.933594 5.707031 14.84375 C 5.617188 14.757812 5.5625 14.636719 5.558594 14.511719 L 5.558594 12.558594 C 5.558594 12.515625 5.53125 12.480469 5.488281 12.472656 C 4.875 12.390625 4.441406 12.222656 4.109375 11.890625 C 3.777344 11.558594 3.609375 11.125 3.527344 10.511719 C 3.519531 10.46875 3.484375 10.441406 3.441406 10.441406 L 1.488281 10.441406 C 1.363281 10.4375 1.242188 10.382812 1.15625 10.292969 C 1.066406 10.203125 1.019531 10.078125 1.019531 9.953125 C 1.019531 9.828125 1.066406 9.707031 1.15625 9.613281 C 1.242188 9.523438 1.363281 9.46875 1.488281 9.464844 L 2.960938 9.464844 C 3.230469 9.464844 3.449219 9.242188 3.445312 8.972656 C 3.441406 8.703125 3.226562 8.488281 2.960938 8.488281 L 1.488281 8.488281 C 1.359375 8.488281 1.234375 8.4375 1.144531 8.34375 C 1.050781 8.253906 1 8.128906 1 8 C 1 7.871094 1.050781 7.746094 1.144531 7.65625 C 1.234375 7.5625 1.359375 7.511719 1.488281 7.511719 L 2.960938 7.511719 C 3.226562 7.511719 3.441406 7.273438 3.445312 7.007812 C 3.449219 6.734375 3.230469 6.535156 2.957031 6.535156 L 1.488281 6.535156 C 1.363281 6.53125 1.242188 6.476562 1.15625 6.386719 C 1.066406 6.292969 1.019531 6.171875 1.019531 6.046875 C 1.019531 5.921875 1.066406 5.796875 1.15625 5.707031 C 1.242188 5.617188 1.363281 5.5625 1.488281 5.558594 L 3.441406 5.558594 C 3.484375 5.558594 3.519531 5.53125 3.527344 5.488281 C 3.609375 4.875 3.777344 4.441406 4.109375 4.109375 C 4.441406 3.777344 4.875 3.609375 5.488281 3.527344 C 5.53125 3.519531 5.558594 3.484375 5.558594 3.441406 L 5.558594 1.488281 C 5.5625 1.363281 5.617188 1.242188 5.707031 1.15625 C 5.796875 1.066406 5.921875 1.019531 6.046875 1.019531 C 6.171875 1.019531 6.292969 1.066406 6.386719 1.15625 C 6.476562 1.242188 6.53125 1.363281 6.535156 1.488281 L 6.535156 2.960938 C 6.535156 3.230469 6.757812 3.449219 7.027344 3.445312 C 7.296875 3.441406 7.511719 3.226562 7.511719 2.960938 L 7.511719 1.488281 C 7.511719 1.21875 7.730469 1 8 1 Z M 7.316406 4.90625 C 6.882812 4.90625 6.511719 4.90625 6.210938 4.949219 C 5.890625 4.988281 5.585938 5.085938 5.335938 5.335938 C 5.085938 5.585938 4.988281 5.890625 4.949219 6.210938 C 4.90625 6.511719 4.90625 6.882812 4.90625 7.316406 L 4.90625 8.683594 C 4.90625 9.117188 4.90625 9.488281 4.949219 9.789062 C 4.988281 10.109375 5.085938 10.414062 5.335938 10.664062 C 5.585938 10.914062 5.890625 11.011719 6.210938 11.050781 C 6.511719 11.09375 6.882812 11.09375 7.316406 11.09375 L 8.683594 11.09375 C 9.117188 11.09375 9.488281 11.09375 9.789062 11.050781 C 10.109375 11.011719 10.414062 10.914062 10.664062 10.664062 C 10.914062 10.414062 11.011719 10.109375 11.050781 9.789062 C 11.09375 9.488281 11.09375 9.117188 11.09375 8.683594 L 11.09375 7.316406 C 11.09375 6.882812 11.09375 6.511719 11.050781 6.210938 C 11.011719 5.890625 10.914062 5.585938 10.664062 5.335938 C 10.414062 5.085938 10.109375 4.988281 9.789062 4.949219 C 9.488281 4.90625 9.117188 4.90625 8.683594 4.90625 Z M 7.316406 4.90625 "
       id="path1" />
    <path
       style="stroke:none;fill-rule:nonzero;fill:#ff6400;fill-opacity:1"
       d="M 6.027344 6.027344 C 6.0625 5.988281 6.132812 5.941406 6.339844 5.914062 C 6.566406 5.882812 6.875 5.882812 7.347656 5.882812 L 8.652344 5.882812 C 9.125 5.882812 9.433594 5.882812 9.65625 5.914062 C 9.871094 5.945312 9.9375 5.988281 9.972656 6.027344 C 10.011719 6.0625 10.054688 6.128906 10.085938 6.339844 C 10.117188 6.566406 10.117188 6.875 10.117188 7.347656 L 10.117188 8.652344 C 10.117188 9.125 10.117188 9.433594 10.085938 9.65625 C 10.054688 9.871094 10.011719 9.9375 9.972656 9.972656 C 9.9375 10.011719 9.871094 10.054688 9.65625 10.085938 C 9.433594 10.117188 9.125 10.117188 8.652344 10.117188 L 7.347656 10.117188 C 6.875 10.117188 6.566406 10.117188 6.339844 10.085938 C 6.128906 10.054688 6.0625 10.011719 6.027344 9.972656 C 5.988281 9.9375 5.945312 9.871094 5.914062 9.65625 C 5.882812 9.433594 5.882812 9.125 5.882812 8.652344 L 5.882812 7.347656 C 5.882812 6.875 5.882812 6.566406 5.914062 6.34375 C 5.941406 6.132812 5.988281 6.0625 6.027344 6.027344 Z M 6.027344 6.027344 "
       id="path2" />
  </g>
</svg>
