<?xml version="1.0" encoding="UTF-8" standalone="no"?>
<svg
   id="Layer_1"
   data-name="Layer 1"
   viewBox="0 0 16 16"
   version="1.1"
   sodipodi:docname="cs-extensions.svg"
   inkscape:version="1.3.2 (091e20e, 2023-11-25)"
   width="16"
   height="16"
   xmlns:inkscape="http://www.inkscape.org/namespaces/inkscape"
   xmlns:sodipodi="http://sodipodi.sourceforge.net/DTD/sodipodi-0.dtd"
   xmlns="http://www.w3.org/2000/svg"
   xmlns:svg="http://www.w3.org/2000/svg"
   xmlns:rdf="http://www.w3.org/1999/02/22-rdf-syntax-ns#"
   xmlns:cc="http://creativecommons.org/ns#"
   xmlns:dc="http://purl.org/dc/elements/1.1/">
  <defs
     id="defs4" />
  <sodipodi:namedview
     id="namedview4"
     pagecolor="#ffffff"
     bordercolor="#000000"
     borderopacity="0.25"
     inkscape:showpageshadow="2"
     inkscape:pageopacity="0.0"
     inkscape:pagecheckerboard="0"
     inkscape:deskcolor="#d1d1d1"
     inkscape:zoom="8.3306015"
     inkscape:cx="44.234501"
     inkscape:cy="32.050507"
     inkscape:window-width="1680"
     inkscape:window-height="1000"
     inkscape:window-x="0"
     inkscape:window-y="25"
     inkscape:window-maximized="1"
     inkscape:current-layer="Layer_1" />
  <title
     id="title1">puzzle-pieces</title>
  <path
     d="M 0,0.761875 A 0.76343748,0.7634375 0 0 1 0.76156263,0 H 6.8928124 a 0.76406249,0.7640625 0 0 1 0.7615624,0.761875 v 2.4687497 c 0.3884371,0.00562 0.63375,0.01375 0.831563,-0.3125 A 1.1153125,1.1153125 0 0 1 8.6787502,2.6759373 C 8.8224996,2.5418747 8.9912503,2.4634377 9.1734377,2.4634377 c 0.5100001,0 0.9256243,0.6118746 0.9256243,1.362187 0,0.375 -0.1049994,0.7159376 -0.2715621,0.9631253 C 9.6609375,5.0359377 9.4287497,5.1890627 9.1734377,5.1890627 a 0.64687497,0.646875 0 0 1 -0.2609376,-0.05625 0.80656252,0.8065625 0 0 1 -0.2337499,-0.15625 1.1190625,1.1190625 0 0 1 -0.1928128,-0.2425 C 8.2881248,4.4103127 8.0428119,4.4175 7.6543748,4.4215627 V 6.8903123 A 0.76437504,0.764375 0 0 1 6.8928124,7.6528127 H 5.5978127 C 5.6256297,7.616875 5.6509377,7.5775 5.6753117,7.539375 5.9337496,7.0965627 5.9468747,6.6403123 5.7153117,6.1784377 5.3715623,5.5846877 4.767187,5.3034377 4.1053122,5.223125 A 2.70375,2.70375 0 0 0 2.7771877,5.4296873 L 2.475,5.5981247 A 2.5525,2.5525 0 0 0 2.0884377,5.951562 v 0 C 1.9828126,6.1218747 1.8715626,6.343437 1.84125,6.4443747 A 2.0034375,2.0034375 0 0 0 1.772813,6.807187 v 0 A 1.4425,1.4425 0 0 0 1.915,7.423125 1.5178125,1.5178125 0 0 0 2.055625,7.6524997 H 0.76156263 A 0.76375004,0.76375 0 0 1 0,6.891562 Z"
     fill="#fc6"
     fill-rule="evenodd"
     id="path1"
     style="fill:#e8c81b;fill-opacity:1;stroke-width:0.0312499" />
  <path
     d="M 15.238438,0 A 0.76406249,0.7640625 0 0 1 16,0.761875 v 6.13125 A 0.76406249,0.7640625 0 0 1 15.238438,7.65625 h -2.468751 c -0.0059,0.3884373 -0.01344,0.6328123 0.3125,0.8303123 a 1.1534375,1.1534375 0 0 1 0.242188,0.1943754 c 0.134687,0.1425 0.212813,0.3125 0.212813,0.494375 0,0.5096873 -0.611875,0.9243743 -1.362813,0.9243743 -0.375,0 -0.71625,-0.104062 -0.962187,-0.271562 C 10.96625,9.660625 10.811875,9.43 10.811875,9.1753127 a 0.66062501,0.660625 0 0 1 0.05562,-0.2621877 0.82281248,0.8228125 0 0 1 0.15625,-0.2321873 1.12875,1.12875 0 0 1 0.241563,-0.193125 C 11.590933,8.2890623 11.582495,8.0446873 11.577808,7.65625 H 9.109062 A 0.76406249,0.7640625 0 0 1 8.3474999,6.894375 V 5.5990623 c 0.03625,0.0275 0.074687,0.051875 0.1134373,0.07625 0.4431255,0.258437 0.8981253,0.271562 1.3603126,0.039687 C 10.415,5.3712497 10.69625,4.7671873 10.776562,4.1053123 A 2.7153125,2.7153125 0 0 0 10.57125,2.7774997 L 10.401875,2.4759377 A 2.541875,2.541875 0 0 0 10.048125,2.08875 v 0 C 9.8784379,1.9828127 9.6565618,1.871875 9.5562496,1.8415627 a 2.1515625,2.1515625 0 0 0 -0.3634372,-0.06875 v 0 A 1.4653125,1.4653125 0 0 0 8.5765622,1.915 1.4965625,1.4965625 0 0 0 8.3478125,2.05625 V 0.761875 A 0.76406249,0.7640625 0 0 1 9.1071873,0 Z"
     fill="#48cfad"
     fill-rule="evenodd"
     id="path2"
     style="fill:#2373dc;fill-opacity:1;stroke-width:0.0312499" />
  <path
     d="M 16,15.238125 A 0.76437504,0.764375 0 0 1 15.238438,16 H 9.1071873 A 0.76375004,0.76375 0 0 1 8.3456252,15.238125 v -2.46875 C 7.9559369,12.763438 7.7112503,12.755625 7.513125,13.08 a 1.14875,1.14875 0 0 1 -0.1921875,0.242187 c -0.1443753,0.134688 -0.3125001,0.213438 -0.4959372,0.213438 -0.5087507,0 -0.9243754,-0.6125 -0.9243754,-1.363438 0,-0.375 0.1034378,-0.715 0.2718752,-0.961875 C 6.3409372,10.963437 6.5703128,10.81 6.8250003,10.81 a 0.64187502,0.641875 0 0 1 0.2618747,0.05562 0.8053125,0.8053125 0 0 1 0.2325001,0.15625 1.126875,1.126875 0 0 1 0.1937499,0.2425 c 0.1978127,0.325 0.4428119,0.315937 0.8325002,0.3125 V 9.1081247 a 0.76375004,0.76375 0 0 1 0.7615621,-0.761875 h 1.2943747 c -0.02843,0.03625 -0.05281,0.074687 -0.0775,0.1134373 -0.258125,0.4428127 -0.271251,0.89875 -0.03969,1.360625 0.34375,0.59375 0.946875,0.875 1.61,0.955625 a 2.7225,2.7225 0 0 0 1.327812,-0.206562 L 13.523435,10.4 a 2.4421875,2.4421875 0 0 0 0.387187,-0.353125 v 0 c 0.10625,-0.1703127 0.216875,-0.3918753 0.248125,-0.4928127 a 2.1459375,2.1459375 0 0 0 0.06844,-0.3628126 v 0 A 1.4821875,1.4821875 0 0 0 14.084688,8.575312 1.5065625,1.5065625 0 0 0 13.94375,8.3462497 h 1.294375 A 0.76437504,0.764375 0 0 1 16,9.108125 Z"
     fill="#ed7161"
     fill-rule="evenodd"
     id="path3"
     style="fill:#c9222e;fill-opacity:1;stroke-width:0.0312499" />
  <path
     d="M 0.76156263,16 A 0.76375004,0.76375 0 0 1 0,15.238125 V 9.1068747 A 0.76375004,0.76375 0 0 1 0.76156263,8.3437497 H 3.2303126 C 3.2362526,7.9556247 3.2443756,7.7106247 2.9178127,7.513437 A 1.1684375,1.1684375 0 0 1 2.6765627,7.320312 C 2.541875,7.1765623 2.4628126,7.007812 2.4628126,6.824687 c 0,-0.509375 0.6118751,-0.9243747 1.3628126,-0.9243747 0.3749997,0 0.7156246,0.1034374 0.9631245,0.2718747 0.2474999,0.1684377 0.4,0.3975 0.4,0.6525 A 0.63500002,0.635 0 0 1 5.1321877,7.0868747 0.81250003,0.8125 0 0 1 4.9759372,7.3193747 1.1734375,1.1734375 0 0 1 4.7334376,7.513437 C 4.4074998,7.7106247 4.4165621,7.955937 4.4209374,8.34375 h 2.4687497 a 0.76437504,0.764375 0 0 1 0.7615631,0.7625 v 1.294062 c -0.036563,-0.0275 -0.074688,-0.0525 -0.1140622,-0.07625 -0.4431255,-0.259062 -0.8990628,-0.271562 -1.3606259,-0.04 -0.59375,0.34375 -0.8749998,0.947813 -0.9553124,1.609688 a 2.7015625,2.7015625 0 0 0 0.2065627,1.327812 l 0.1693756,0.301875 a 2.5165625,2.5165625 0 0 0 0.353125,0.387188 v 0 c 0.1703118,0.105 0.3915616,0.216875 0.4918742,0.2475 a 2.153125,2.153125 0 0 0 0.362813,0.06844 v 0 a 1.4721875,1.4721875 0 0 0 0.6168744,-0.1425 1.5834375,1.5834375 0 0 0 0.2293756,-0.140937 V 15.23719 A 0.76437504,0.764375 0 0 1 6.8928124,16 Z"
     fill="#656d78"
     fill-rule="evenodd"
     id="path4"
     style="fill:#27ab71;fill-opacity:1;stroke-width:0.0312499" />
  <metadata
     id="metadata4">
    <rdf:RDF>
      <cc:Work
         rdf:about="">
        <dc:title>puzzle-pieces</dc:title>
      </cc:Work>
    </rdf:RDF>
  </metadata>
</svg>
