<?xml version="1.0" encoding="UTF-8"?>
<svg xmlns="http://www.w3.org/2000/svg" xmlns:xlink="http://www.w3.org/1999/xlink" width="16px" height="16px" viewBox="0 0 16 16" version="1.1">
<defs>
<linearGradient id="linear0" gradientUnits="userSpaceOnUse" x1="0.529167" y1="1.5875" x2="7.9375" y2="7.14375" gradientTransform="matrix(1.889764,0,0,1.889764,0,-0.25)">
<stop offset="0" style="stop-color:rgb(21.568627%,83.137255%,88.235294%);stop-opacity:1;"/>
<stop offset="1" style="stop-color:rgb(3.137255%,43.137255%,74.117647%);stop-opacity:1;"/>
</linearGradient>
<linearGradient id="linear1" gradientUnits="userSpaceOnUse" x1="0.264583" y1="12.170834" x2="15.08125" y2="12.170834" gradientTransform="matrix(0.944882,0,0,0.944882,0.75,1)">
<stop offset="0" style="stop-color:rgb(5.882353%,30.980392%,40.784314%);stop-opacity:1;"/>
<stop offset="1" style="stop-color:rgb(1.176471%,20.784314%,36.862745%);stop-opacity:1;"/>
</linearGradient>
<filter id="alpha" filterUnits="objectBoundingBox" x="0%" y="0%" width="100%" height="100%">
  <feColorMatrix type="matrix" in="SourceGraphic" values="0 0 0 0 1 0 0 0 0 1 0 0 0 0 1 0 0 0 1 0"/>
</filter>
<mask id="mask0">
  <g filter="url(#alpha)">
<rect x="0" y="0" width="16" height="16" style="fill:rgb(0%,0%,0%);fill-opacity:0.501961;stroke:none;"/>
  </g>
</mask>
<clipPath id="clip1">
  <rect x="0" y="0" width="16" height="16"/>
</clipPath>
<g id="surface5" clip-path="url(#clip1)">
<path style=" stroke:none;fill-rule:nonzero;fill:rgb(100%,0%,0.784314%);fill-opacity:1;" d="M 11.824219 2.75 C 12.140625 4.300781 13.414062 5.5 15 5.710938 L 15 3.5 C 15 3.085938 14.664062 2.75 14.25 2.75 Z M 11.824219 2.75 "/>
</g>
<mask id="mask1">
  <g filter="url(#alpha)">
<rect x="0" y="0" width="16" height="16" style="fill:rgb(0%,0%,0%);fill-opacity:0.501961;stroke:none;"/>
  </g>
</mask>
<clipPath id="clip2">
  <rect x="0" y="0" width="16" height="16"/>
</clipPath>
<g id="surface8" clip-path="url(#clip2)">
<path style=" stroke:none;fill-rule:nonzero;fill:rgb(0%,100%,0.784314%);fill-opacity:1;" d="M 4.179688 2.757812 C 3.859375 4.308594 2.582031 5.503906 0.996094 5.710938 L 1.003906 3.5 C 1.003906 3.082031 1.339844 2.75 1.757812 2.75 Z M 4.179688 2.757812 "/>
</g>
<mask id="mask2">
  <g filter="url(#alpha)">
<rect x="0" y="0" width="16" height="16" style="fill:rgb(0%,0%,0%);fill-opacity:0.501961;stroke:none;"/>
  </g>
</mask>
<clipPath id="clip3">
  <rect x="0" y="0" width="16" height="16"/>
</clipPath>
<g id="surface11" clip-path="url(#clip3)">
<path style=" stroke:none;fill-rule:nonzero;fill:rgb(65.098039%,19.607843%,100%);fill-opacity:1;" d="M 4.179688 13.25 C 3.863281 11.699219 2.585938 10.503906 1 10.292969 L 1.003906 12.507812 C 1.003906 12.921875 1.339844 13.257812 1.753906 13.257812 Z M 4.179688 13.25 "/>
</g>
<mask id="mask3">
  <g filter="url(#alpha)">
<rect x="0" y="0" width="16" height="16" style="fill:rgb(0%,0%,0%);fill-opacity:0.501961;stroke:none;"/>
  </g>
</mask>
<clipPath id="clip4">
  <rect x="0" y="0" width="16" height="16"/>
</clipPath>
<g id="surface14" clip-path="url(#clip4)">
<path style=" stroke:none;fill-rule:nonzero;fill:rgb(100%,100%,0%);fill-opacity:1;" d="M 11.839844 13.265625 C 12.144531 11.714844 13.414062 10.507812 14.996094 10.285156 L 15.011719 12.5 C 15.011719 12.914062 14.679688 13.25 14.265625 13.253906 Z M 11.839844 13.265625 "/>
</g>
</defs>
<g id="surface1">
<path style=" stroke:none;fill-rule:nonzero;fill:url(#linear0);" d="M 1.75 2.75 L 14.25 2.75 C 14.664062 2.75 15 3.085938 15 3.5 L 15 12.5 C 15 12.914062 14.664062 13.25 14.25 13.25 L 1.75 13.25 C 1.335938 13.25 1 12.914062 1 12.5 L 1 3.5 C 1 3.085938 1.335938 2.75 1.75 2.75 Z M 1.75 2.75 "/>
<path style=" stroke:none;fill-rule:nonzero;fill:url(#linear1);" d="M 1 11.75 L 1 12.5 C 1 12.914062 1.335938 13.25 1.75 13.25 L 14.25 13.25 C 14.664062 13.25 15 12.914062 15 12.5 L 15 11.75 Z M 1 11.75 "/>
<use xlink:href="#surface5" mask="url(#mask0)"/>
<use xlink:href="#surface8" mask="url(#mask1)"/>
<use xlink:href="#surface11" mask="url(#mask2)"/>
<use xlink:href="#surface14" mask="url(#mask3)"/>
</g>
</svg>
