<?xml version="1.0" encoding="UTF-8"?>
<svg xmlns="http://www.w3.org/2000/svg" xmlns:xlink="http://www.w3.org/1999/xlink" width="16px" height="16px" viewBox="0 0 16 16" version="1.1">
<g id="surface1">
<path style=" stroke:none;fill-rule:nonzero;fill:rgb(54.117647%,38.039216%,72.156863%);fill-opacity:1;" d="M 3.5 1.992188 L 12.5 1.992188 C 13.605469 1.992188 14.5 2.890625 14.5 3.992188 L 14.5 11.996094 C 14.5 13.097656 13.605469 13.992188 12.5 13.992188 L 3.5 13.992188 C 2.394531 13.992188 1.5 13.097656 1.5 11.996094 L 1.5 3.992188 C 1.5 2.890625 2.394531 1.992188 3.5 1.992188 Z M 3.5 1.992188 "/>
<path style=" stroke:none;fill-rule:nonzero;fill:rgb(92.54902%,92.54902%,92.156863%);fill-opacity:1;" d="M 12.40625 7.71875 C 12.3125 7.585938 12.210938 7.460938 12.105469 7.339844 C 11.542969 6.683594 10.902344 6.097656 10.195312 5.675781 C 9.746094 5.402344 9.265625 5.183594 8.765625 5.078125 C 8.511719 5.027344 8.257812 4.996094 8 4.996094 C 7.746094 4.996094 7.492188 5.023438 7.238281 5.078125 C 6.738281 5.183594 6.257812 5.402344 5.808594 5.671875 C 5.101562 6.097656 4.457031 6.683594 3.894531 7.339844 C 3.789062 7.460938 3.691406 7.585938 3.597656 7.71875 C 3.46875 7.882812 3.46875 8.113281 3.597656 8.277344 C 3.882812 8.679688 4.226562 9.035156 4.570312 9.363281 C 5.316406 10.0625 6.175781 10.652344 7.117188 10.890625 C 7.695312 11.035156 8.300781 11.035156 8.878906 10.890625 C 9.824219 10.652344 10.679688 10.0625 11.429688 9.359375 C 11.789062 9.03125 12.117188 8.667969 12.40625 8.277344 C 12.53125 8.113281 12.53125 7.882812 12.40625 7.71875 M 12.40625 7.71875 "/>
<path style=" stroke:none;fill-rule:nonzero;fill:rgb(27.058824%,52.54902%,97.647059%);fill-opacity:1;" d="M 10.253906 7.992188 C 10.269531 8.808594 9.84375 9.570312 9.140625 9.980469 C 8.4375 10.394531 7.566406 10.394531 6.863281 9.980469 C 6.160156 9.570312 5.734375 8.808594 5.75 7.992188 C 5.777344 6.769531 6.777344 5.789062 8 5.789062 C 9.226562 5.789062 10.226562 6.769531 10.253906 7.992188 "/>
<path style=" stroke:none;fill-rule:nonzero;fill:rgb(7.843137%,7.843137%,7.843137%);fill-opacity:1;" d="M 9.253906 7.992188 C 9.253906 8.683594 8.691406 9.242188 8.003906 9.242188 C 7.3125 9.242188 6.753906 8.683594 6.753906 7.992188 C 6.753906 7.304688 7.3125 6.746094 8.003906 6.746094 C 8.691406 6.746094 9.253906 7.304688 9.253906 7.992188 "/>
<path style=" stroke:none;fill-rule:nonzero;fill:rgb(97.647059%,97.647059%,97.647059%);fill-opacity:1;" d="M 9.003906 7.492188 C 9.003906 7.769531 8.777344 7.992188 8.503906 7.992188 C 8.226562 7.992188 8.003906 7.769531 8.003906 7.492188 C 8.003906 7.21875 8.226562 6.992188 8.503906 6.992188 C 8.777344 6.992188 9.003906 7.21875 9.003906 7.492188 "/>
<path style=" stroke:none;fill-rule:nonzero;fill:rgb(83.529412%,7.058824%,17.647059%);fill-opacity:1;" d="M 9.75 5.425781 L 5.683594 10.246094 C 5.871094 10.363281 6.058594 10.472656 6.253906 10.566406 L 10.316406 5.75 C 10.132812 5.621094 9.921875 5.515625 9.746094 5.425781 M 9.746094 5.425781 "/>
</g>
</svg>
