<?xml version="1.0" encoding="UTF-8"?>
<svg xmlns="http://www.w3.org/2000/svg" xmlns:xlink="http://www.w3.org/1999/xlink" width="16px" height="16px" viewBox="0 0 16 16" version="1.1">
<defs>
<linearGradient id="linear0" gradientUnits="userSpaceOnUse" x1="4.497916" y1="2.38125" x2="4.497916" y2="5.027083" gradientTransform="matrix(2.519685,0,0,2.519685,-1.333333,-0.666666)">
<stop offset="0" style="stop-color:rgb(6.27451%,53.333333%,83.921569%);stop-opacity:1;"/>
<stop offset="1" style="stop-color:rgb(2.745098%,42.352941%,74.509804%);stop-opacity:1;"/>
</linearGradient>
</defs>
<g id="surface1">
<path style=" stroke:none;fill-rule:nonzero;fill:rgb(47.45098%,46.666667%,45.490196%);fill-opacity:1;" d="M 2.667969 2.667969 L 13.332031 2.667969 C 14.070312 2.667969 14.667969 3.261719 14.667969 4 L 14.667969 12 C 14.667969 12.738281 14.070312 13.332031 13.332031 13.332031 L 2.667969 13.332031 C 1.929688 13.332031 1.332031 12.738281 1.332031 12 L 1.332031 4 C 1.332031 3.261719 1.929688 2.667969 2.667969 2.667969 Z M 2.667969 2.667969 "/>
<path style=" stroke:none;fill-rule:nonzero;fill:rgb(98.039216%,98.039216%,98.039216%);fill-opacity:1;" d="M 2.667969 4.667969 L 13.332031 4.667969 C 13.703125 4.667969 14 4.964844 14 5.332031 L 14 12 C 14 12.371094 13.703125 12.667969 13.332031 12.667969 L 2.667969 12.667969 C 2.296875 12.667969 2 12.371094 2 12 L 2 5.332031 C 2 4.964844 2.296875 4.667969 2.667969 4.667969 Z M 2.667969 4.667969 "/>
<path style=" stroke:none;fill-rule:nonzero;fill:url(#linear0);" d="M 6 5.332031 L 10 5.332031 L 10 12 L 6 12 Z M 6 5.332031 "/>
<path style=" stroke:none;fill-rule:nonzero;fill:rgb(74.509804%,74.509804%,74.509804%);fill-opacity:1;" d="M 2.667969 5.332031 L 2.667969 6 L 5.332031 6 L 5.332031 5.332031 Z M 10.667969 5.332031 L 10.667969 6 L 13.332031 6 L 13.332031 5.332031 Z M 2.667969 6.667969 L 2.667969 7.332031 L 5.332031 7.332031 L 5.332031 6.667969 Z M 10.667969 6.667969 L 10.667969 7.332031 L 13.332031 7.332031 L 13.332031 6.667969 Z M 2.667969 8 L 2.667969 8.667969 L 5.332031 8.667969 L 5.332031 8 Z M 10.667969 8 L 10.667969 8.667969 L 13.332031 8.667969 L 13.332031 8 Z M 2.667969 9.332031 L 2.667969 10 L 5.332031 10 L 5.332031 9.332031 Z M 10.667969 9.332031 L 10.667969 10 L 13.332031 10 L 13.332031 9.332031 Z M 10.667969 9.332031 "/>
<path style=" stroke:none;fill-rule:nonzero;fill:rgb(76.862745%,76.862745%,76.862745%);fill-opacity:1;" d="M 10 3.332031 L 10 4 L 10.667969 4 L 10.667969 3.332031 Z M 11.332031 3.332031 L 11.332031 4 L 12 4 L 12 3.332031 Z M 12.667969 3.332031 L 12.667969 4 L 13.332031 4 L 13.332031 3.332031 Z M 12.667969 3.332031 "/>
<path style=" stroke:none;fill-rule:nonzero;fill:rgb(74.509804%,74.509804%,74.509804%);fill-opacity:1;" d="M 2.667969 10.667969 L 2.667969 11.332031 L 5.332031 11.332031 L 5.332031 10.667969 Z M 10.667969 10.667969 L 10.667969 11.332031 L 13.332031 11.332031 L 13.332031 10.667969 Z M 10.667969 10.667969 "/>
<path style="fill-rule:nonzero;fill:rgb(8.235294%,70.196078%,39.215686%);fill-opacity:1;stroke-width:0.8;stroke-linecap:butt;stroke-linejoin:miter;stroke:rgb(0%,56.470588%,24.705882%);stroke-opacity:1;stroke-miterlimit:4;" d="M 13.546875 11.841797 L 13.535156 21.996095 L 22.998047 16.921876 Z M 13.546875 11.841797 " transform="matrix(0.666667,0,0,0.666667,0.000000333333,0)"/>
</g>
</svg>
