<?xml version="1.0" encoding="UTF-8"?>
<svg xmlns="http://www.w3.org/2000/svg" xmlns:xlink="http://www.w3.org/1999/xlink" width="16px" height="16px" viewBox="0 0 16 16" version="1.1">
<defs>
<linearGradient id="linear0" gradientUnits="userSpaceOnUse" x1="3.96875" y1="2.910417" x2="3.439583" y2="5.820833" gradientTransform="matrix(0.944882,0,0,0.944882,-0.5,-1.25)">
<stop offset="0" style="stop-color:rgb(87.058824%,73.333333%,52.54902%);stop-opacity:1;"/>
<stop offset="1" style="stop-color:rgb(86.27451%,68.235294%,43.137255%);stop-opacity:1;"/>
</linearGradient>
<linearGradient id="linear1" gradientUnits="userSpaceOnUse" x1="2.910417" y1="5.291666" x2="5.257604" y2="5.695011" gradientTransform="matrix(0.944882,0,0,0.944882,0,-0.25)">
<stop offset="0" style="stop-color:rgb(74.509804%,52.156863%,25.490196%);stop-opacity:1;"/>
<stop offset="1" style="stop-color:rgb(66.666667%,45.098039%,19.607843%);stop-opacity:1;"/>
</linearGradient>
<linearGradient id="linear2" gradientUnits="userSpaceOnUse" x1="13.493751" y1="6.085417" x2="13.493752" y2="14.552086" gradientTransform="matrix(0.944882,0,0,0.944882,-0.0000005,-1.25)">
<stop offset="0" style="stop-color:rgb(74.509804%,52.156863%,25.490196%);stop-opacity:1;"/>
<stop offset="1" style="stop-color:rgb(66.666667%,45.098039%,19.607843%);stop-opacity:1;"/>
</linearGradient>
<linearGradient id="linear3" gradientUnits="userSpaceOnUse" x1="-252.87521" y1="78.478691" x2="-238.4166" y2="92.637772" gradientTransform="matrix(0.536014,0,0,0.794543,138.294527,-58.10471)">
<stop offset="0" style="stop-color:rgb(86.27451%,71.764706%,49.803922%);stop-opacity:1;"/>
<stop offset="1" style="stop-color:rgb(82.352941%,63.921569%,38.431373%);stop-opacity:1;"/>
</linearGradient>
<linearGradient id="linear4" gradientUnits="userSpaceOnUse" x1="10.537197" y1="7.577456" x2="13.497259" y2="16.186811" gradientTransform="matrix(0.760119,0,0,0.871145,2.490473,-0.351063)">
<stop offset="0" style="stop-color:rgb(80%,58.823529%,29.803922%);stop-opacity:1;"/>
<stop offset="1" style="stop-color:rgb(79.215686%,58.039216%,29.803922%);stop-opacity:1;"/>
</linearGradient>
<linearGradient id="linear5" gradientUnits="userSpaceOnUse" x1="16.139584" y1="5.291666" x2="11.377084" y2="7.408333" gradientTransform="matrix(0.944882,0,0,0.944882,-0.250001,-0.75)">
<stop offset="0" style="stop-color:rgb(87.058824%,73.333333%,52.54902%);stop-opacity:1;"/>
<stop offset="1" style="stop-color:rgb(86.27451%,68.235294%,43.137255%);stop-opacity:1;"/>
</linearGradient>
<linearGradient id="linear6" gradientUnits="userSpaceOnUse" x1="7.14375" y1="2.116667" x2="14.022917" y2="6.085417" gradientTransform="matrix(0.944882,0,0,0.944882,-0.5,-1.25)">
<stop offset="0" style="stop-color:rgb(87.058824%,73.333333%,52.54902%);stop-opacity:1;"/>
<stop offset="1" style="stop-color:rgb(86.27451%,68.235294%,43.137255%);stop-opacity:1;"/>
</linearGradient>
<filter id="alpha" filterUnits="objectBoundingBox" x="0%" y="0%" width="100%" height="100%">
  <feColorMatrix type="matrix" in="SourceGraphic" values="0 0 0 0 1 0 0 0 0 1 0 0 0 0 1 0 0 0 1 0"/>
</filter>
<mask id="mask0">
  <g filter="url(#alpha)">
<rect x="0" y="0" width="16" height="16" style="fill:rgb(0%,0%,0%);fill-opacity:0.4;stroke:none;"/>
  </g>
</mask>
<linearGradient id="linear7" gradientUnits="userSpaceOnUse" x1="2.38125" y1="8.466667" x2="6.614584" y2="12.700001" gradientTransform="matrix(1.27559,0,0,1.27559,-0.544298,-2.660978)">
<stop offset="0" style="stop-color:rgb(100%,100%,100%);stop-opacity:1;"/>
<stop offset="1" style="stop-color:rgb(100%,100%,100%);stop-opacity:0;"/>
</linearGradient>
<clipPath id="clip1">
  <rect x="0" y="0" width="16" height="16"/>
</clipPath>
<g id="surface5" clip-path="url(#clip1)">
<path style=" stroke:none;fill-rule:nonzero;fill:url(#linear7);" d="M 5.191406 8.140625 C 3.703125 8.140625 2.492188 9.347656 2.492188 10.839844 C 2.492188 12.332031 3.703125 13.539062 5.191406 13.539062 C 6.683594 13.539062 7.894531 12.332031 7.894531 10.839844 C 7.894531 9.347656 6.683594 8.140625 5.191406 8.140625 Z M 5.191406 10.164062 C 5.566406 10.164062 5.867188 10.464844 5.867188 10.839844 C 5.867188 11.210938 5.566406 11.515625 5.191406 11.515625 C 4.820312 11.515625 4.519531 11.210938 4.519531 10.839844 C 4.519531 10.464844 4.820312 10.164062 5.191406 10.164062 Z M 5.191406 10.164062 "/>
</g>
<linearGradient id="linear8" gradientUnits="userSpaceOnUse" x1="96.408417" y1="238.0069" x2="127.77626" y2="238.0069" gradientTransform="matrix(0.344302,0,0,0.332207,-33.40036,-68.228493)">
<stop offset="0" style="stop-color:rgb(89.019608%,92.941176%,93.333333%);stop-opacity:1;"/>
<stop offset="1" style="stop-color:rgb(78.823529%,80.392157%,80.784314%);stop-opacity:1;"/>
</linearGradient>
<linearGradient id="linear9" gradientUnits="userSpaceOnUse" x1="112.09232" y1="238.0069" x2="112.17286" y2="254.33937" gradientTransform="matrix(0.344302,0,0,0.332207,-33.40036,-68.228493)">
<stop offset="0" style="stop-color:rgb(72.54902%,74.901961%,74.901961%);stop-opacity:1;"/>
<stop offset="1" style="stop-color:rgb(66.666667%,67.45098%,67.058824%);stop-opacity:1;"/>
</linearGradient>
<mask id="mask1">
  <g filter="url(#alpha)">
<rect x="0" y="0" width="16" height="16" style="fill:rgb(0%,0%,0%);fill-opacity:0.501961;stroke:none;"/>
  </g>
</mask>
<linearGradient id="linear10" gradientUnits="userSpaceOnUse" x1="16.424316" y1="54.63533" x2="32.331596" y2="38.452602" gradientTransform="matrix(0.3375,0,0,0.3375,-0.544298,-2.660978)">
<stop offset="0" style="stop-color:rgb(100%,100%,100%);stop-opacity:0.501961;"/>
<stop offset="0.45" style="stop-color:rgb(100%,100%,100%);stop-opacity:0;"/>
<stop offset="0.5" style="stop-color:rgb(100%,100%,100%);stop-opacity:1;"/>
<stop offset="0.55" style="stop-color:rgb(100%,100%,100%);stop-opacity:0;"/>
<stop offset="1" style="stop-color:rgb(100%,100%,100%);stop-opacity:0.2;"/>
</linearGradient>
<clipPath id="clip2">
  <rect x="0" y="0" width="16" height="16"/>
</clipPath>
<g id="surface8" clip-path="url(#clip2)">
<path style=" stroke:none;fill-rule:nonzero;fill:url(#linear10);" d="M 3.972656 5.949219 C 2.070312 6.421875 0.597656 7.972656 0.238281 9.914062 L 3.171875 10.5 L 3.207031 10.507812 C 3.339844 9.714844 3.925781 9.078125 4.703125 8.882812 Z M 7.179688 11.171875 C 7.046875 11.960938 6.460938 12.597656 5.683594 12.796875 L 6.414062 15.730469 C 8.316406 15.253906 9.785156 13.707031 10.148438 11.761719 L 7.214844 11.175781 Z M 7.179688 11.171875 "/>
</g>
<mask id="mask2">
  <g filter="url(#alpha)">
<rect x="0" y="0" width="16" height="16" style="fill:rgb(0%,0%,0%);fill-opacity:0.501961;stroke:none;"/>
  </g>
</mask>
<linearGradient id="linear11" gradientUnits="userSpaceOnUse" x1="14.532227" y1="42.393677" x2="19.540161" y2="37.501221" gradientTransform="matrix(0.36,0,0,0.36,-0.926798,-3.560977)">
<stop offset="0" style="stop-color:rgb(52.156863%,52.156863%,52.156863%);stop-opacity:1;"/>
<stop offset="0.5" style="stop-color:rgb(100%,100%,100%);stop-opacity:1;"/>
<stop offset="1" style="stop-color:rgb(52.54902%,52.54902%,52.54902%);stop-opacity:1;"/>
</linearGradient>
<clipPath id="clip3">
  <rect x="0" y="0" width="16" height="16"/>
</clipPath>
<g id="surface11" clip-path="url(#clip3)">
<path style=" stroke:none;fill-rule:nonzero;fill:url(#linear11);" d="M 5.191406 9.9375 C 4.695312 9.9375 4.292969 10.34375 4.292969 10.839844 C 4.292969 11.335938 4.695312 11.738281 5.191406 11.738281 C 5.691406 11.738281 6.09375 11.335938 6.09375 10.839844 C 6.09375 10.34375 5.691406 9.9375 5.191406 9.9375 Z M 5.191406 10.117188 C 5.199219 10.117188 5.207031 10.121094 5.210938 10.121094 C 5.210938 10.121094 5.214844 10.121094 5.214844 10.121094 C 5.21875 10.121094 5.226562 10.121094 5.230469 10.121094 C 5.234375 10.121094 5.238281 10.121094 5.242188 10.121094 C 5.246094 10.121094 5.25 10.121094 5.253906 10.121094 C 5.257812 10.121094 5.261719 10.121094 5.265625 10.121094 C 5.269531 10.125 5.273438 10.125 5.273438 10.125 C 5.277344 10.125 5.28125 10.125 5.285156 10.125 C 5.289062 10.125 5.292969 10.125 5.296875 10.125 C 5.300781 10.128906 5.308594 10.128906 5.316406 10.128906 C 5.316406 10.128906 5.320312 10.128906 5.320312 10.128906 C 5.328125 10.132812 5.332031 10.132812 5.335938 10.132812 C 5.335938 10.132812 5.339844 10.132812 5.339844 10.132812 C 5.347656 10.136719 5.351562 10.136719 5.355469 10.136719 C 5.355469 10.136719 5.359375 10.136719 5.359375 10.136719 C 5.371094 10.140625 5.382812 10.144531 5.394531 10.148438 C 5.402344 10.148438 5.40625 10.152344 5.414062 10.152344 C 5.421875 10.15625 5.425781 10.15625 5.429688 10.160156 C 5.429688 10.160156 5.433594 10.160156 5.433594 10.160156 C 5.441406 10.164062 5.445312 10.164062 5.449219 10.167969 C 5.453125 10.167969 5.453125 10.167969 5.453125 10.167969 C 5.460938 10.171875 5.46875 10.171875 5.472656 10.175781 C 5.480469 10.179688 5.484375 10.179688 5.492188 10.183594 C 5.496094 10.183594 5.496094 10.1875 5.5 10.1875 C 5.503906 10.1875 5.507812 10.191406 5.511719 10.191406 C 5.511719 10.195312 5.515625 10.195312 5.515625 10.195312 C 5.519531 10.199219 5.523438 10.199219 5.53125 10.203125 C 5.535156 10.207031 5.542969 10.207031 5.546875 10.210938 C 5.550781 10.214844 5.550781 10.214844 5.554688 10.214844 C 5.558594 10.21875 5.558594 10.21875 5.5625 10.222656 C 5.5625 10.222656 5.566406 10.222656 5.566406 10.222656 C 5.570312 10.226562 5.574219 10.226562 5.578125 10.230469 C 5.582031 10.230469 5.582031 10.234375 5.582031 10.234375 C 5.585938 10.234375 5.589844 10.238281 5.59375 10.242188 C 5.601562 10.246094 5.605469 10.25 5.609375 10.253906 C 5.613281 10.253906 5.613281 10.253906 5.617188 10.257812 C 5.625 10.261719 5.628906 10.265625 5.636719 10.273438 C 5.640625 10.273438 5.644531 10.277344 5.648438 10.28125 C 5.652344 10.285156 5.65625 10.289062 5.664062 10.292969 C 5.671875 10.300781 5.675781 10.304688 5.683594 10.3125 C 5.6875 10.316406 5.691406 10.320312 5.695312 10.324219 C 5.703125 10.332031 5.714844 10.339844 5.722656 10.351562 C 5.726562 10.355469 5.730469 10.359375 5.734375 10.363281 C 5.734375 10.363281 5.734375 10.367188 5.738281 10.367188 C 5.738281 10.367188 5.738281 10.371094 5.738281 10.371094 C 5.742188 10.375 5.746094 10.378906 5.75 10.382812 C 5.753906 10.386719 5.753906 10.390625 5.757812 10.390625 C 5.757812 10.394531 5.761719 10.398438 5.761719 10.398438 C 5.765625 10.402344 5.765625 10.40625 5.769531 10.40625 C 5.769531 10.410156 5.773438 10.414062 5.777344 10.414062 C 5.777344 10.417969 5.777344 10.417969 5.78125 10.421875 C 5.785156 10.425781 5.785156 10.433594 5.789062 10.4375 C 5.792969 10.441406 5.796875 10.445312 5.800781 10.449219 C 5.800781 10.449219 5.800781 10.453125 5.800781 10.453125 C 5.804688 10.457031 5.808594 10.460938 5.808594 10.46875 C 5.8125 10.472656 5.816406 10.476562 5.820312 10.484375 C 5.824219 10.492188 5.828125 10.496094 5.828125 10.503906 C 5.832031 10.507812 5.835938 10.511719 5.835938 10.515625 C 5.839844 10.519531 5.839844 10.519531 5.839844 10.519531 C 5.839844 10.523438 5.84375 10.53125 5.84375 10.535156 C 5.847656 10.535156 5.847656 10.539062 5.847656 10.539062 C 5.847656 10.539062 5.847656 10.542969 5.847656 10.542969 C 5.851562 10.546875 5.855469 10.554688 5.855469 10.558594 C 5.859375 10.566406 5.863281 10.570312 5.863281 10.578125 C 5.863281 10.578125 5.863281 10.582031 5.867188 10.582031 C 5.867188 10.582031 5.867188 10.582031 5.867188 10.585938 C 5.867188 10.589844 5.871094 10.59375 5.871094 10.597656 C 5.871094 10.597656 5.871094 10.601562 5.875 10.601562 C 5.875 10.605469 5.875 10.613281 5.878906 10.617188 C 5.878906 10.617188 5.878906 10.617188 5.878906 10.621094 C 5.878906 10.625 5.882812 10.628906 5.882812 10.636719 C 5.886719 10.648438 5.890625 10.660156 5.894531 10.671875 C 5.894531 10.675781 5.894531 10.675781 5.894531 10.675781 C 5.894531 10.679688 5.898438 10.6875 5.898438 10.691406 C 5.898438 10.691406 5.898438 10.695312 5.898438 10.695312 C 5.898438 10.699219 5.902344 10.707031 5.902344 10.710938 C 5.902344 10.710938 5.902344 10.714844 5.902344 10.714844 C 5.902344 10.722656 5.90625 10.730469 5.90625 10.738281 C 5.90625 10.738281 5.90625 10.742188 5.90625 10.746094 C 5.90625 10.746094 5.90625 10.746094 5.90625 10.75 C 5.910156 10.753906 5.910156 10.757812 5.910156 10.765625 C 5.910156 10.769531 5.910156 10.773438 5.910156 10.777344 C 5.910156 10.78125 5.910156 10.78125 5.910156 10.785156 C 5.910156 10.785156 5.910156 10.789062 5.910156 10.789062 C 5.910156 10.792969 5.910156 10.796875 5.914062 10.800781 C 5.914062 10.808594 5.914062 10.8125 5.914062 10.820312 C 5.914062 10.824219 5.914062 10.832031 5.914062 10.839844 C 5.914062 10.855469 5.914062 10.875 5.910156 10.894531 C 5.910156 10.902344 5.910156 10.910156 5.90625 10.917969 C 5.90625 10.929688 5.90625 10.941406 5.902344 10.953125 C 5.902344 10.957031 5.902344 10.964844 5.902344 10.96875 C 5.898438 10.984375 5.894531 10.996094 5.890625 11.011719 C 5.890625 11.015625 5.890625 11.019531 5.886719 11.023438 C 5.882812 11.039062 5.882812 11.050781 5.875 11.0625 C 5.875 11.070312 5.871094 11.082031 5.867188 11.089844 C 5.863281 11.097656 5.863281 11.101562 5.859375 11.109375 C 5.855469 11.121094 5.851562 11.132812 5.84375 11.140625 C 5.839844 11.152344 5.835938 11.160156 5.832031 11.167969 C 5.828125 11.175781 5.824219 11.179688 5.824219 11.1875 C 5.816406 11.199219 5.8125 11.207031 5.804688 11.21875 C 5.800781 11.226562 5.796875 11.230469 5.792969 11.238281 C 5.785156 11.25 5.777344 11.257812 5.773438 11.265625 C 5.765625 11.273438 5.761719 11.277344 5.757812 11.285156 C 5.75 11.292969 5.746094 11.300781 5.738281 11.308594 C 5.734375 11.316406 5.726562 11.320312 5.722656 11.328125 C 5.710938 11.339844 5.695312 11.355469 5.683594 11.367188 C 5.683594 11.367188 5.679688 11.367188 5.679688 11.367188 C 5.675781 11.375 5.667969 11.378906 5.664062 11.382812 C 5.65625 11.390625 5.648438 11.398438 5.636719 11.402344 C 5.632812 11.410156 5.625 11.414062 5.621094 11.417969 C 5.613281 11.425781 5.601562 11.429688 5.59375 11.4375 C 5.585938 11.441406 5.578125 11.445312 5.574219 11.449219 C 5.5625 11.457031 5.550781 11.460938 5.542969 11.46875 C 5.535156 11.472656 5.527344 11.476562 5.523438 11.480469 C 5.515625 11.484375 5.503906 11.488281 5.496094 11.492188 C 5.484375 11.496094 5.476562 11.5 5.464844 11.503906 C 5.457031 11.507812 5.449219 11.511719 5.445312 11.511719 C 5.433594 11.515625 5.425781 11.519531 5.417969 11.523438 C 5.40625 11.527344 5.390625 11.53125 5.378906 11.535156 C 5.375 11.535156 5.371094 11.535156 5.367188 11.539062 C 5.351562 11.539062 5.339844 11.542969 5.324219 11.546875 C 5.320312 11.546875 5.3125 11.546875 5.304688 11.550781 C 5.296875 11.550781 5.285156 11.554688 5.273438 11.554688 C 5.265625 11.554688 5.257812 11.554688 5.25 11.554688 C 5.25 11.554688 5.246094 11.558594 5.246094 11.558594 C 5.230469 11.558594 5.210938 11.558594 5.191406 11.558594 C 5.175781 11.558594 5.15625 11.558594 5.136719 11.554688 C 5.128906 11.554688 5.121094 11.554688 5.113281 11.554688 C 5.101562 11.554688 5.089844 11.550781 5.078125 11.550781 C 5.074219 11.546875 5.066406 11.546875 5.0625 11.546875 C 5.046875 11.542969 5.035156 11.539062 5.019531 11.539062 C 5.015625 11.535156 5.011719 11.535156 5.007812 11.535156 C 4.996094 11.53125 4.980469 11.527344 4.96875 11.523438 C 4.960938 11.519531 4.949219 11.515625 4.941406 11.511719 C 4.933594 11.511719 4.929688 11.507812 4.921875 11.503906 C 4.910156 11.5 4.902344 11.496094 4.890625 11.492188 C 4.882812 11.488281 4.871094 11.484375 4.863281 11.480469 C 4.855469 11.476562 4.851562 11.472656 4.84375 11.46875 C 4.832031 11.460938 4.824219 11.457031 4.8125 11.449219 C 4.808594 11.445312 4.800781 11.441406 4.792969 11.4375 C 4.785156 11.429688 4.773438 11.425781 4.765625 11.417969 C 4.757812 11.414062 4.753906 11.410156 4.746094 11.402344 C 4.738281 11.398438 4.730469 11.390625 4.722656 11.382812 C 4.714844 11.378906 4.710938 11.371094 4.703125 11.367188 C 4.691406 11.355469 4.675781 11.339844 4.664062 11.328125 C 4.660156 11.320312 4.652344 11.316406 4.648438 11.308594 C 4.640625 11.300781 4.632812 11.292969 4.628906 11.285156 C 4.625 11.277344 4.617188 11.273438 4.613281 11.265625 C 4.609375 11.257812 4.601562 11.25 4.59375 11.238281 C 4.589844 11.230469 4.585938 11.226562 4.582031 11.21875 C 4.574219 11.207031 4.570312 11.199219 4.5625 11.1875 C 4.558594 11.179688 4.558594 11.175781 4.554688 11.167969 C 4.550781 11.160156 4.542969 11.152344 4.539062 11.140625 C 4.535156 11.132812 4.53125 11.121094 4.527344 11.109375 C 4.523438 11.101562 4.519531 11.097656 4.519531 11.089844 C 4.515625 11.082031 4.511719 11.070312 4.507812 11.0625 C 4.503906 11.050781 4.5 11.039062 4.5 11.023438 C 4.496094 11.019531 4.496094 11.015625 4.496094 11.011719 C 4.492188 10.996094 4.488281 10.984375 4.484375 10.96875 C 4.484375 10.964844 4.484375 10.957031 4.480469 10.953125 C 4.480469 10.941406 4.480469 10.929688 4.476562 10.917969 C 4.476562 10.910156 4.476562 10.902344 4.476562 10.894531 C 4.472656 10.875 4.472656 10.859375 4.472656 10.839844 C 4.472656 10.820312 4.472656 10.800781 4.476562 10.785156 C 4.476562 10.773438 4.476562 10.765625 4.476562 10.757812 C 4.480469 10.746094 4.480469 10.738281 4.480469 10.726562 C 4.484375 10.71875 4.484375 10.714844 4.484375 10.707031 C 4.488281 10.695312 4.492188 10.679688 4.496094 10.667969 C 4.496094 10.660156 4.496094 10.65625 4.5 10.652344 C 4.5 10.640625 4.503906 10.628906 4.507812 10.613281 C 4.511719 10.605469 4.515625 10.597656 4.519531 10.585938 C 4.519531 10.582031 4.523438 10.574219 4.527344 10.566406 C 4.53125 10.558594 4.535156 10.546875 4.539062 10.535156 C 4.542969 10.527344 4.550781 10.519531 4.554688 10.507812 C 4.558594 10.503906 4.558594 10.496094 4.5625 10.488281 C 4.570312 10.480469 4.574219 10.46875 4.582031 10.460938 C 4.585938 10.453125 4.589844 10.445312 4.59375 10.4375 C 4.601562 10.429688 4.609375 10.421875 4.613281 10.410156 C 4.617188 10.40625 4.625 10.398438 4.628906 10.394531 C 4.632812 10.386719 4.640625 10.375 4.648438 10.367188 C 4.65625 10.363281 4.660156 10.355469 4.664062 10.347656 C 4.679688 10.335938 4.691406 10.320312 4.707031 10.308594 C 4.710938 10.304688 4.714844 10.300781 4.722656 10.292969 C 4.730469 10.289062 4.738281 10.28125 4.746094 10.273438 C 4.753906 10.269531 4.757812 10.265625 4.765625 10.261719 C 4.773438 10.253906 4.785156 10.246094 4.792969 10.242188 C 4.800781 10.234375 4.808594 10.230469 4.8125 10.226562 C 4.824219 10.222656 4.832031 10.214844 4.84375 10.210938 C 4.851562 10.207031 4.855469 10.203125 4.863281 10.199219 C 4.871094 10.195312 4.882812 10.191406 4.890625 10.1875 C 4.902344 10.179688 4.910156 10.175781 4.921875 10.171875 C 4.929688 10.167969 4.933594 10.167969 4.941406 10.164062 C 4.949219 10.160156 4.960938 10.15625 4.96875 10.15625 C 4.980469 10.152344 4.996094 10.148438 5.007812 10.144531 C 5.011719 10.144531 5.015625 10.140625 5.019531 10.140625 C 5.035156 10.136719 5.046875 10.132812 5.0625 10.132812 C 5.066406 10.128906 5.074219 10.128906 5.078125 10.128906 C 5.089844 10.125 5.101562 10.125 5.113281 10.125 C 5.121094 10.121094 5.128906 10.121094 5.136719 10.121094 C 5.15625 10.121094 5.175781 10.117188 5.191406 10.117188 Z M 5.191406 10.117188 "/>
</g>
<mask id="mask3">
  <g filter="url(#alpha)">
<rect x="0" y="0" width="16" height="16" style="fill:rgb(0%,0%,0%);fill-opacity:0.501961;stroke:none;"/>
  </g>
</mask>
<linearGradient id="linear12" gradientUnits="userSpaceOnUse" x1="14.532227" y1="42.393677" x2="19.540161" y2="37.501221" gradientTransform="matrix(0.648,0,0,0.648,-5.822798,-15.08098)">
<stop offset="0" style="stop-color:rgb(52.156863%,52.156863%,52.156863%);stop-opacity:1;"/>
<stop offset="0.5" style="stop-color:rgb(100%,100%,100%);stop-opacity:1;"/>
<stop offset="1" style="stop-color:rgb(52.54902%,52.54902%,52.54902%);stop-opacity:1;"/>
</linearGradient>
<clipPath id="clip4">
  <rect x="0" y="0" width="16" height="16"/>
</clipPath>
<g id="surface14" clip-path="url(#clip4)">
<path style=" stroke:none;fill-rule:nonzero;fill:url(#linear12);" d="M 5.191406 9.21875 C 4.296875 9.21875 3.574219 9.945312 3.574219 10.839844 C 3.574219 11.734375 4.296875 12.460938 5.191406 12.460938 C 6.089844 12.460938 6.8125 11.734375 6.8125 10.839844 C 6.8125 9.945312 6.089844 9.21875 5.191406 9.21875 Z M 5.191406 9.398438 C 5.988281 9.398438 6.632812 10.042969 6.632812 10.839844 C 6.632812 11.632812 5.988281 12.277344 5.191406 12.277344 C 4.398438 12.277344 3.753906 11.632812 3.753906 10.839844 C 3.753906 10.042969 4.398438 9.398438 5.191406 9.398438 Z M 5.191406 9.398438 "/>
</g>
<mask id="mask4">
  <g filter="url(#alpha)">
<rect x="0" y="0" width="16" height="16" style="fill:rgb(0%,0%,0%);fill-opacity:0.501961;stroke:none;"/>
  </g>
</mask>
<linearGradient id="linear13" gradientUnits="userSpaceOnUse" x1="5.108154" y1="42.191895" x2="7.469238" y2="33.279785" gradientTransform="matrix(0.3375,0,0,0.3375,-0.544298,-2.660978)">
<stop offset="0" style="stop-color:rgb(97.254902%,60.392157%,95.686275%);stop-opacity:0;"/>
<stop offset="0.4" style="stop-color:rgb(97.254902%,60.392157%,95.686275%);stop-opacity:0;"/>
<stop offset="0.5" style="stop-color:rgb(97.254902%,60.392157%,95.686275%);stop-opacity:1;"/>
<stop offset="0.6" style="stop-color:rgb(97.254902%,60.392157%,95.686275%);stop-opacity:0;"/>
<stop offset="1" style="stop-color:rgb(97.254902%,60.392157%,95.686275%);stop-opacity:0;"/>
</linearGradient>
<clipPath id="clip5">
  <rect x="0" y="0" width="16" height="16"/>
</clipPath>
<g id="surface17" clip-path="url(#clip5)">
<path style=" stroke:none;fill-rule:nonzero;fill:url(#linear13);" d="M 0.738281 8.480469 C 0.367188 9.183594 0.152344 9.988281 0.152344 10.839844 C 0.152344 11.691406 0.367188 12.492188 0.738281 13.199219 L 3.40625 11.785156 C 3.25 11.492188 3.167969 11.167969 3.167969 10.839844 C 3.167969 10.507812 3.25 10.183594 3.40625 9.894531 Z M 0.738281 8.480469 "/>
</g>
</defs>
<g id="surface1">
<path style=" stroke:none;fill-rule:nonzero;fill:url(#linear0);" d="M 1 3.25 L 3.25 1.5 L 5 2.5 L 4.378906 5.136719 L 2.75 4.25 Z M 1 3.25 "/>
<path style=" stroke:none;fill-rule:nonzero;fill:url(#linear1);" d="M 2.75 4.25 L 5 2.5 L 9.054688 12.269531 L 2.75 12.75 Z M 2.75 4.25 "/>
<path style=" stroke:none;fill-rule:nonzero;fill:url(#linear2);" d="M 5 2.5 L 12.75 4.5 L 12.75 12.5 L 5 11 Z M 5 2.5 "/>
<path style=" stroke:none;fill-rule:nonzero;fill:url(#linear3);" d="M 2.75 4.25 L 10.5 6.25 L 11.5 6 L 10.5 15.5 L 2.75 13.5 Z M 2.75 4.25 "/>
<path style=" stroke:none;fill-rule:nonzero;fill:url(#linear4);" d="M 10.5 6.25 L 12.75 4.5 L 12.75 13.75 L 10.5 15.5 Z M 10.5 6.25 "/>
<path style=" stroke:none;fill-rule:nonzero;fill:url(#linear5);" d="M 12.75 4.5 L 15 4.25 L 13 6 L 10.5 6.25 Z M 12.75 4.5 "/>
<path style=" stroke:none;fill-rule:nonzero;fill:url(#linear6);" d="M 6.25 0.75 L 14 2.75 L 12.75 4.5 L 5 2.5 Z M 6.25 0.75 "/>
<path style=" stroke:none;fill-rule:nonzero;fill:rgb(74.509804%,52.156863%,25.490196%);fill-opacity:1;" d="M 6.25 0.5 L 14 2.5 L 14 2.75 L 6.25 0.75 Z M 6.25 0.5 "/>
<use xlink:href="#surface5" mask="url(#mask0)"/>
<path style=" stroke:none;fill-rule:nonzero;fill:rgb(81.568627%,81.568627%,81.568627%);fill-opacity:1;" d="M 5.191406 8.476562 C 3.886719 8.476562 2.832031 9.535156 2.832031 10.839844 C 2.832031 12.144531 3.886719 13.203125 5.191406 13.203125 C 6.496094 13.203125 7.554688 12.144531 7.554688 10.839844 C 7.554688 9.535156 6.496094 8.476562 5.191406 8.476562 Z M 5.191406 8.984375 C 6.21875 8.984375 7.050781 9.8125 7.050781 10.839844 C 7.050781 11.863281 6.21875 12.695312 5.191406 12.695312 C 4.167969 12.695312 3.335938 11.863281 3.335938 10.839844 C 3.335938 9.8125 4.167969 8.984375 5.191406 8.984375 Z M 5.191406 8.984375 "/>
<path style=" stroke:none;fill-rule:nonzero;fill:url(#linear8);" d="M 5.191406 5.800781 C 2.410156 5.800781 0.152344 8.054688 0.152344 10.839844 C 0.152344 13.621094 2.410156 15.878906 5.191406 15.878906 C 7.976562 15.878906 10.234375 13.621094 10.234375 10.839844 C 10.234375 8.054688 7.976562 5.800781 5.191406 5.800781 Z M 5.191406 8.8125 C 6.3125 8.8125 7.21875 9.71875 7.21875 10.839844 C 7.21875 11.957031 6.3125 12.863281 5.191406 12.863281 C 4.074219 12.863281 3.167969 11.957031 3.167969 10.839844 C 3.167969 9.71875 4.074219 8.8125 5.191406 8.8125 Z M 5.191406 8.8125 "/>
<path style=" stroke:none;fill-rule:nonzero;fill:url(#linear9);" d="M 7.214844 10.964844 C 7.148438 12.03125 6.261719 12.863281 5.191406 12.863281 C 4.65625 12.863281 4.140625 12.648438 3.761719 12.269531 L 1.628906 14.402344 C 2.542969 15.316406 3.800781 15.878906 5.191406 15.878906 C 7.871094 15.878906 10.058594 13.789062 10.222656 11.152344 Z M 7.214844 10.964844 "/>
<use xlink:href="#surface8" mask="url(#mask1)"/>
<use xlink:href="#surface11" mask="url(#mask2)"/>
<use xlink:href="#surface14" mask="url(#mask3)"/>
<use xlink:href="#surface17" mask="url(#mask4)"/>
<path style=" stroke:none;fill-rule:nonzero;fill:rgb(81.568627%,81.568627%,81.568627%);fill-opacity:1;" d="M 5.191406 5.800781 C 2.410156 5.800781 0.152344 8.054688 0.152344 10.839844 C 0.152344 13.621094 2.410156 15.878906 5.191406 15.878906 C 7.976562 15.878906 10.234375 13.621094 10.234375 10.839844 C 10.234375 8.054688 7.976562 5.800781 5.191406 5.800781 Z M 5.191406 5.980469 C 7.878906 5.980469 10.054688 8.15625 10.054688 10.839844 C 10.054688 13.523438 7.878906 15.699219 5.191406 15.699219 C 2.507812 15.699219 0.332031 13.523438 0.332031 10.839844 C 0.332031 8.15625 2.507812 5.980469 5.191406 5.980469 Z M 5.191406 5.980469 "/>
</g>
</svg>
