<?xml version="1.0" encoding="UTF-8"?>
<svg xmlns="http://www.w3.org/2000/svg" xmlns:xlink="http://www.w3.org/1999/xlink" width="16px" height="16px" viewBox="0 0 16 16" version="1.1">
<defs>
<linearGradient id="linear0" gradientUnits="userSpaceOnUse" x1="22.2703" y1="11.7297" x2="9.646" y2="24.354" gradientTransform="matrix(0.20328,0,0,-0.20328,4.07823,13.669739)">
<stop offset="0" style="stop-color:rgb(100%,100%,100%);stop-opacity:1;"/>
<stop offset="0.242" style="stop-color:rgb(94.901961%,94.901961%,94.901961%);stop-opacity:1;"/>
<stop offset="1" style="stop-color:rgb(80%,80%,80%);stop-opacity:1;"/>
</linearGradient>
<linearGradient id="linear1" gradientUnits="userSpaceOnUse" x1="10.3857" y1="23.6143" x2="20.234301" y2="13.7657" gradientTransform="matrix(0.20328,0,0,-0.20328,4.07823,13.669739)">
<stop offset="0.2291" style="stop-color:rgb(2.352941%,41.176471%,73.72549%);stop-opacity:1;"/>
<stop offset="0.8045" style="stop-color:rgb(6.27451%,30.588235%,56.862745%);stop-opacity:1;"/>
</linearGradient>
<linearGradient id="linear2" gradientUnits="userSpaceOnUse" x1="1.1849" y1="32.736698" x2="27.172701" y2="6.749" gradientTransform="matrix(0.20328,0,0,-0.20328,4.07823,13.669739)">
<stop offset="0.1453" style="stop-color:rgb(54.117647%,56.862745%,59.607843%);stop-opacity:1;"/>
<stop offset="0.8939" style="stop-color:rgb(38.823529%,43.921569%,48.235294%);stop-opacity:1;"/>
</linearGradient>
</defs>
<g id="surface1">
<path style=" stroke:none;fill-rule:nonzero;fill:rgb(47.45098%,46.666667%,45.490196%);fill-opacity:1;" d="M 4 2 L 13.332031 2 C 14.070312 2 14.667969 2.597656 14.667969 3.332031 L 14.667969 10 C 14.667969 10.738281 14.070312 11.332031 13.332031 11.332031 L 4 11.332031 C 3.261719 11.332031 2.667969 10.738281 2.667969 10 L 2.667969 3.332031 C 2.667969 2.597656 3.261719 2 4 2 Z M 4 2 "/>
<path style=" stroke:none;fill-rule:nonzero;fill:rgb(98.039216%,98.039216%,98.039216%);fill-opacity:1;" d="M 4 4 L 13.332031 4 C 13.703125 4 14 4.296875 14 4.667969 L 14 10 C 14 10.371094 13.703125 10.667969 13.332031 10.667969 L 4 10.667969 C 3.628906 10.667969 3.332031 10.371094 3.332031 10 L 3.332031 4.667969 C 3.332031 4.296875 3.628906 4 4 4 Z M 4 4 "/>
<path style=" stroke:none;fill-rule:nonzero;fill:rgb(76.862745%,76.862745%,76.862745%);fill-opacity:1;" d="M 10 2.667969 L 10 3.332031 L 10.667969 3.332031 L 10.667969 2.667969 Z M 11.332031 2.667969 L 11.332031 3.332031 L 12 3.332031 L 12 2.667969 Z M 12.667969 2.667969 L 12.667969 3.332031 L 13.332031 3.332031 L 13.332031 2.667969 Z M 12.667969 2.667969 "/>
<path style=" stroke:none;fill-rule:nonzero;fill:rgb(47.45098%,46.666667%,45.490196%);fill-opacity:1;" d="M 2.667969 4.667969 L 12 4.667969 C 12.738281 4.667969 13.332031 5.261719 13.332031 6 L 13.332031 12.667969 C 13.332031 13.402344 12.738281 14 12 14 L 2.667969 14 C 1.929688 14 1.332031 13.402344 1.332031 12.667969 L 1.332031 6 C 1.332031 5.261719 1.929688 4.667969 2.667969 4.667969 Z M 2.667969 4.667969 "/>
<path style=" stroke:none;fill-rule:nonzero;fill:rgb(98.039216%,98.039216%,98.039216%);fill-opacity:1;" d="M 2.667969 6.667969 L 12 6.667969 C 12.371094 6.667969 12.667969 6.964844 12.667969 7.332031 L 12.667969 12.667969 C 12.667969 13.035156 12.371094 13.332031 12 13.332031 L 2.667969 13.332031 C 2.296875 13.332031 2 13.035156 2 12.667969 L 2 7.332031 C 2 6.964844 2.296875 6.667969 2.667969 6.667969 Z M 2.667969 6.667969 "/>
<path style=" stroke:none;fill-rule:nonzero;fill:rgb(76.862745%,76.862745%,76.862745%);fill-opacity:1;" d="M 8.667969 5.332031 L 8.667969 6 L 9.332031 6 L 9.332031 5.332031 Z M 10 5.332031 L 10 6 L 10.667969 6 L 10.667969 5.332031 Z M 11.332031 5.332031 L 11.332031 6 L 12 6 L 12 5.332031 Z M 11.332031 5.332031 "/>
<path style=" stroke:none;fill-rule:nonzero;fill:url(#linear0);" d="M 9.160156 10.011719 C 9.160156 11.019531 8.339844 11.839844 7.332031 11.839844 C 6.320312 11.839844 5.5 11.019531 5.5 10.011719 C 5.5 9 6.320312 8.179688 7.332031 8.179688 C 8.339844 8.179688 9.160156 9 9.160156 10.011719 Z M 9.160156 10.011719 "/>
<path style=" stroke:none;fill-rule:nonzero;fill:url(#linear1);" d="M 8.550781 10.011719 C 8.550781 10.683594 8.003906 11.230469 7.332031 11.230469 C 6.65625 11.230469 6.109375 10.683594 6.109375 10.011719 C 6.109375 9.335938 6.65625 8.792969 7.332031 8.792969 C 8.003906 8.792969 8.550781 9.335938 8.550781 10.011719 Z M 8.550781 10.011719 "/>
<path style=" stroke:none;fill-rule:nonzero;fill:url(#linear2);" d="M 10.488281 9.261719 C 10.085938 9.257812 9.71875 9.046875 9.511719 8.703125 C 9.320312 8.375 9.308594 7.96875 9.488281 7.632812 C 9.136719 7.324219 8.726562 7.097656 8.277344 6.960938 C 8.066406 7.277344 7.710938 7.464844 7.332031 7.460938 C 6.949219 7.464844 6.59375 7.277344 6.382812 6.960938 C 5.9375 7.097656 5.523438 7.324219 5.175781 7.632812 C 5.351562 7.96875 5.339844 8.375 5.148438 8.703125 C 4.945312 9.046875 4.574219 9.257812 4.175781 9.261719 C 4.058594 9.707031 4.046875 10.171875 4.136719 10.625 C 4.550781 10.613281 4.9375 10.828125 5.148438 11.183594 C 5.363281 11.550781 5.347656 12.007812 5.113281 12.359375 C 5.457031 12.675781 5.863281 12.914062 6.304688 13.058594 C 6.5 12.671875 6.894531 12.425781 7.332031 12.425781 C 7.765625 12.425781 8.164062 12.671875 8.355469 13.058594 C 8.800781 12.914062 9.207031 12.675781 9.550781 12.359375 C 9.3125 12.007812 9.296875 11.550781 9.511719 11.183594 C 9.722656 10.828125 10.109375 10.613281 10.523438 10.625 C 10.613281 10.171875 10.601562 9.707031 10.488281 9.261719 Z M 7.332031 11.636719 C 6.433594 11.636719 5.703125 10.910156 5.703125 10.011719 C 5.703125 9.113281 6.433594 8.382812 7.332031 8.382812 C 8.230469 8.382812 8.957031 9.113281 8.957031 10.011719 C 8.957031 10.910156 8.230469 11.636719 7.332031 11.636719 Z M 7.332031 11.636719 "/>
</g>
</svg>
