<?xml version="1.0" encoding="UTF-8" standalone="no"?>
<!-- Created with Inkscape (http://www.inkscape.org/) -->

<svg
   width="24"
   height="24"
   viewBox="0 0 24 24"
   version="1.1"
   id="svg2112"
   inkscape:version="1.3.2 (091e20e, 2023-11-25)"
   sodipodi:docname="input-touchscreen.svg"
   xmlns:inkscape="http://www.inkscape.org/namespaces/inkscape"
   xmlns:sodipodi="http://sodipodi.sourceforge.net/DTD/sodipodi-0.dtd"
   xmlns:xlink="http://www.w3.org/1999/xlink"
   xmlns="http://www.w3.org/2000/svg"
   xmlns:svg="http://www.w3.org/2000/svg">
  <sodipodi:namedview
     id="namedview2114"
     pagecolor="#ffffff"
     bordercolor="#000000"
     borderopacity="0.25"
     inkscape:showpageshadow="2"
     inkscape:pageopacity="0.0"
     inkscape:pagecheckerboard="0"
     inkscape:deskcolor="#d1d1d1"
     inkscape:document-units="px"
     showgrid="false"
     inkscape:zoom="16.833334"
     inkscape:cx="10.069307"
     inkscape:cy="15.712871"
     inkscape:window-width="1680"
     inkscape:window-height="994"
     inkscape:window-x="0"
     inkscape:window-y="25"
     inkscape:window-maximized="1"
     inkscape:current-layer="svg2112" />
  <defs
     id="defs2109">
    <linearGradient
       inkscape:collect="always"
       xlink:href="#linearGradient2986"
       id="linearGradient2988"
       x1="0.092814192"
       y1="13.470937"
       x2="-3.2895818"
       y2="13.470937"
       gradientUnits="userSpaceOnUse"
       gradientTransform="matrix(2.3651875,0,0,0.3059441,15.780478,16.878647)" />
    <linearGradient
       inkscape:collect="always"
       id="linearGradient2986">
      <stop
         style="stop-color:#818990;stop-opacity:1;"
         offset="0"
         id="stop2982" />
      <stop
         style="stop-color:#bcc5cf;stop-opacity:1"
         offset="1"
         id="stop2984" />
    </linearGradient>
    <linearGradient
       inkscape:collect="always"
       xlink:href="#linearGradient1116"
       id="linearGradient988"
       x1="0"
       y1="6.5000005"
       x2="16"
       y2="6.5000005"
       gradientUnits="userSpaceOnUse"
       gradientTransform="matrix(1.25,0,0,1.2727272,2,2.7272731)" />
    <linearGradient
       inkscape:collect="always"
       id="linearGradient1116">
      <stop
         style="stop-color:#555a5f;stop-opacity:1;"
         offset="0"
         id="stop1112" />
      <stop
         style="stop-color:#4b4f53;stop-opacity:1"
         offset="1"
         id="stop1114" />
    </linearGradient>
    <linearGradient
       inkscape:collect="always"
       xlink:href="#linearGradient2301"
       id="linearGradient3955"
       x1="5.0270834"
       y1="6.8791666"
       x2="8.2020836"
       y2="8.9958334"
       gradientUnits="userSpaceOnUse"
       gradientTransform="matrix(5.6692915,0,0,5.6692911,-25.500002,-33.999998)" />
    <linearGradient
       inkscape:collect="always"
       id="linearGradient2301">
      <stop
         style="stop-color:#3fe3e7;stop-opacity:1;"
         offset="0"
         id="stop2297" />
      <stop
         style="stop-color:#066bbc;stop-opacity:1"
         offset="1"
         id="stop2299" />
    </linearGradient>
    <linearGradient
       id="m"
       x1="34.0718"
       x2="34.0718"
       y1="21.614599"
       y2="59.0033"
       gradientUnits="userSpaceOnUse"
       gradientTransform="matrix(0.288,0,0,0.288,2.7154177,2.316211)">
      <stop
         stop-color="#fccec0"
         offset="0"
         id="stop20" />
      <stop
         stop-color="#c98350"
         offset="1"
         id="stop21" />
    </linearGradient>
    <linearGradient
       id="n"
       x1="34.6875"
       x2="34.6875"
       y1="40.7672"
       y2="59.002899"
       gradientUnits="userSpaceOnUse"
       gradientTransform="matrix(0.288,0,0,0.288,2.7154177,2.316211)">
      <stop
         stop-color="#a96535"
         stop-opacity="0"
         offset="0"
         id="stop22" />
      <stop
         stop-color="#a96535"
         offset="1"
         id="stop23" />
    </linearGradient>
    <linearGradient
       inkscape:collect="always"
       xlink:href="#o"
       id="linearGradient7"
       gradientUnits="userSpaceOnUse"
       x1="34.6875"
       y1="21.8599"
       x2="34.6875"
       y2="46.5" />
    <linearGradient
       id="o"
       x1="34.6875"
       x2="34.6875"
       y1="21.8599"
       y2="46.5"
       gradientUnits="userSpaceOnUse">
      <stop
         stop-color="#fff"
         offset="0"
         id="stop24" />
      <stop
         stop-color="#fff"
         stop-opacity=".5"
         offset="1"
         id="stop25" />
    </linearGradient>
    <linearGradient
       inkscape:collect="always"
       xlink:href="#o"
       id="linearGradient1"
       gradientUnits="userSpaceOnUse"
       x1="34.6875"
       y1="21.8599"
       x2="34.6875"
       y2="46.5" />
    <linearGradient
       inkscape:collect="always"
       xlink:href="#o"
       id="linearGradient2"
       gradientUnits="userSpaceOnUse"
       x1="34.6875"
       y1="21.8599"
       x2="34.6875"
       y2="46.5" />
    <linearGradient
       inkscape:collect="always"
       xlink:href="#o"
       id="linearGradient3"
       gradientUnits="userSpaceOnUse"
       x1="34.6875"
       y1="21.8599"
       x2="34.6875"
       y2="46.5" />
  </defs>
  <path
     id="rect958"
     style="fill:#bcc5cf;stroke-width:4.08249;stroke-linecap:round;stroke-linejoin:round"
     d="m 11.000001,18 h 2.000001 L 13,20 h -2 z"
     sodipodi:nodetypes="ccccc" />
  <rect
     style="fill:url(#linearGradient988);fill-opacity:1;stroke-width:1.26131"
     id="rect978"
     width="20"
     height="14"
     x="2"
     y="4"
     ry="2" />
  <rect
     style="fill:url(#linearGradient3955);fill-opacity:1;stroke-width:4.5;stroke-linecap:round;stroke-linejoin:round"
     id="rect3867"
     width="18"
     height="12"
     x="2.9999995"
     y="5.0000005"
     ry="1" />
  <path
     id="rect2848"
     style="fill:url(#linearGradient2988);stroke-width:1.12535;stroke-linecap:round;stroke-linejoin:round"
     d="m 8.0000003,20 h 8.0000007 v 1 H 8.0000003 Z" />
  <path
     d="m 14.811419,9.228211 a 2.88,2.88 0 0 1 -2.88,2.88 2.88,2.88 0 0 1 -2.8800008,-2.88 2.88,2.88 0 0 1 2.8800008,-2.88 2.88,2.88 0 0 1 2.88,2.88 z"
     style="color:#3daee9;display:inline;fill:#61cbe9;fill-opacity:1;stroke-width:0.288"
     class="ColorScheme-Highlight"
     opacity="0.5"
     id="path35" />
  <path
     d="m 14.235419,9.228211 a 2.304,2.304 0 0 1 -2.304,2.304 2.304,2.304 0 0 1 -2.3040008,-2.304 2.304,2.304 0 0 1 2.3040008,-2.304 2.304,2.304 0 0 1 2.304,2.304 z"
     style="color:#3daee9;display:inline;fill:currentColor;stroke-width:0.288"
     class="ColorScheme-Highlight"
     id="path36" />
  <path
     d="m 14.235419,9.228211 a 2.304,2.304 0 0 1 -2.304,2.304 2.304,2.304 0 0 1 -2.3040008,-2.304 2.304,2.304 0 0 1 2.3040008,-2.304 2.304,2.304 0 0 1 2.304,2.304 z"
     fill="#000000"
     fill-opacity="0.4"
     id="path37"
     style="display:inline;stroke-width:0.288" />
  <path
     d="m 12.322062,19.164212 c 1.214899,0.161971 2.726842,0.146678 2.904135,0.144259 0.01169,-1.73e-4 0.02318,-2.31e-4 0.03487,-3.17e-4 1.102176,-0.007 1.959955,-0.674294 2.094595,-1.717776 l 0.33575,-2.314166 c 0.288,-1.728001 -1.008,-2.160001 -1.44,-1.296 0,-1.008001 -1.152,-1.584001 -1.728,-0.720001 0,-0.864 -1.152,-1.44 -1.728,-0.576 V 9.5162112 c 0,-1.1520002 -1.728,-1.4400002 -1.728,0 v 5.9040008 c 0,0 -0.289353,-0.433354 -0.576,-0.72 -1.963585,-1.963614 -2.592001,-0.288 -2.592001,-0.288 1.1520004,0.864 2.262644,4.464 4.422644,4.752 z"
     fill="url(#m)"
     id="path39"
     style="display:inline;fill:url(#m);stroke-width:0.288" />
  <path
     d="m 12.322091,18.876212 c 1.21487,0.162 2.726813,0.146678 2.904134,0.144259 0.01169,-1.44e-4 0.02316,-2.31e-4 0.03485,-3.17e-4 1.07954,-0.0069 1.966119,-0.656899 2.128608,-1.664093 l -0.03401,0.234346 c -0.13464,1.043453 -0.992419,1.71072 -2.094595,1.717747 -0.01169,8.6e-5 -0.02316,1.73e-4 -0.03485,3.17e-4 -0.177321,0.0024 -1.689264,0.01774 -2.904134,-0.144259 C 10.936583,18.979488 9.9828134,17.432036 9.172957,16.118064 8.7202498,15.383578 8.3124702,14.722013 7.8994206,14.412212 c 0.3767616,0.336729 0.8600548,0.747014 1.2735364,1.417852 0.8098564,1.313972 1.763626,2.861424 3.149137,3.046148 z m 5.06759,-1.520151 0.0092,-0.06382 c -0.0027,0.02143 -0.0059,0.04271 -0.0092,0.06382 z"
     clip-rule="evenodd"
     fill="url(#n)"
     fill-rule="evenodd"
     id="path40"
     style="display:inline;fill:url(#n);stroke-width:0.288" />
  <g
     fill="url(#o)"
     opacity="0.5"
     id="g43"
     style="display:inline;fill:url(#linearGradient7)"
     transform="matrix(0.288,0,0,0.288,2.7154178,2.316211)">
    <path
       d="m 18,42 c 0.8696,-1.3083 3.743,-3.2571 9,2 0.9953,0.9953 2,1.5 2,1.5 0,0 -1.0047,-1.5047 -2,-2.5 -6.818,-6.8181 -9,-1 -9,-1 z"
       id="path41"
       style="fill:url(#linearGradient1)" />
    <path
       d="m 29,26 c 0,-5 6,-4 6,0 v -1 c 0,-4 -6,-5 -6,0 z"
       id="path42"
       style="fill:url(#linearGradient2)" />
    <path
       d="m 35,36 c 2,-3 6,-1 6,2 2,-3 6,-1 6,2.5 1.4009,-2.8017 5.4182,-1.6787 5.1287,3.369 C 51.8699,39.6836 48.303,38.894 47,41.5 47,38 43,36 41,39 41,36 37,34 35,37 Z"
       id="path43"
       style="fill:url(#linearGradient3)" />
  </g>
</svg>
