<?xml version="1.0" encoding="UTF-8"?>
<svg xmlns="http://www.w3.org/2000/svg" xmlns:xlink="http://www.w3.org/1999/xlink" width="24px" height="24px" viewBox="0 0 24 24" version="1.1">
<defs>
<linearGradient id="linear0" gradientUnits="userSpaceOnUse" x1="22.3571" y1="7" x2="32.6923" y2="52.8439" gradientTransform="matrix(0.375,0,0,0.375,0,0)">
<stop offset="0" style="stop-color:rgb(14.901961%,20.392157%,23.529412%);stop-opacity:1;"/>
<stop offset="0.45" style="stop-color:rgb(10.196078%,14.509804%,18.823529%);stop-opacity:1;"/>
<stop offset="1" style="stop-color:rgb(7.058824%,9.803922%,12.54902%);stop-opacity:1;"/>
</linearGradient>
<linearGradient id="linear1" gradientUnits="userSpaceOnUse" x1="5" y1="53" x2="59" y2="53" gradientTransform="matrix(0.375,0,0,0.375,0,0)">
<stop offset="0" style="stop-color:rgb(8.627451%,11.372549%,14.117647%);stop-opacity:1;"/>
<stop offset="0.5" style="stop-color:rgb(3.137255%,7.058824%,10.980392%);stop-opacity:1;"/>
<stop offset="1" style="stop-color:rgb(7.058824%,9.803922%,12.54902%);stop-opacity:1;"/>
</linearGradient>
<linearGradient id="linear2" gradientUnits="userSpaceOnUse" x1="5" y1="7" x2="59" y2="7" gradientTransform="matrix(0.375,0,0,0.375,0,0)">
<stop offset="0" style="stop-color:rgb(25.882353%,32.941176%,37.254902%);stop-opacity:1;"/>
<stop offset="0.5" style="stop-color:rgb(20%,27.058824%,31.764706%);stop-opacity:1;"/>
<stop offset="1" style="stop-color:rgb(15.686275%,21.568627%,25.882353%);stop-opacity:1;"/>
</linearGradient>
<linearGradient id="linear3" gradientUnits="userSpaceOnUse" x1="41.1979" y1="10.1653" x2="4.07205" y2="36.0476" gradientTransform="matrix(0.375,0,0,0.375,0,0)">
<stop offset="0" style="stop-color:rgb(10.196078%,73.72549%,61.176471%);stop-opacity:1;"/>
<stop offset="1" style="stop-color:rgb(16.078431%,50.196078%,72.54902%);stop-opacity:1;"/>
</linearGradient>
<filter id="alpha" filterUnits="objectBoundingBox" x="0%" y="0%" width="100%" height="100%">
  <feColorMatrix type="matrix" in="SourceGraphic" values="0 0 0 0 1 0 0 0 0 1 0 0 0 0 1 0 0 0 1 0"/>
</filter>
<mask id="mask0">
  <g filter="url(#alpha)">
<rect x="0" y="0" width="24" height="24" style="fill:rgb(0%,0%,0%);fill-opacity:0.501961;stroke:none;"/>
  </g>
</mask>
<clipPath id="clip1">
  <rect x="0" y="0" width="24" height="24"/>
</clipPath>
<g id="surface5" clip-path="url(#clip1)">
<path style=" stroke:none;fill-rule:nonzero;fill:rgb(23.921569%,68.235294%,91.372549%);fill-opacity:1;" d="M 15.75 9 C 15.75 11.070312 14.070312 12.75 12 12.75 C 9.929688 12.75 8.25 11.070312 8.25 9 C 8.25 6.929688 9.929688 5.25 12 5.25 C 14.070312 5.25 15.75 6.929688 15.75 9 Z M 15.75 9 "/>
</g>
<linearGradient id="linear4" gradientUnits="userSpaceOnUse" x1="34.0718" y1="21.6146" x2="34.0718" y2="59.0033" gradientTransform="matrix(0.375,0,0,0.375,0,0)">
<stop offset="0" style="stop-color:rgb(98.823529%,80.784314%,75.294118%);stop-opacity:1;"/>
<stop offset="1" style="stop-color:rgb(78.823529%,51.372549%,31.372549%);stop-opacity:1;"/>
</linearGradient>
<linearGradient id="linear5" gradientUnits="userSpaceOnUse" x1="34.6875" y1="40.7672" x2="34.6875" y2="59.0029" gradientTransform="matrix(0.375,0,0,0.375,0,0)">
<stop offset="0" style="stop-color:rgb(66.27451%,39.607843%,20.784314%);stop-opacity:0;"/>
<stop offset="1" style="stop-color:rgb(66.27451%,39.607843%,20.784314%);stop-opacity:1;"/>
</linearGradient>
<mask id="mask1">
  <g filter="url(#alpha)">
<rect x="0" y="0" width="24" height="24" style="fill:rgb(0%,0%,0%);fill-opacity:0.501961;stroke:none;"/>
  </g>
</mask>
<linearGradient id="linear6" gradientUnits="userSpaceOnUse" x1="34.6875" y1="21.8599" x2="34.6875" y2="46.5" gradientTransform="matrix(0.375,0,0,0.375,0,0)">
<stop offset="0" style="stop-color:rgb(100%,100%,100%);stop-opacity:1;"/>
<stop offset="1" style="stop-color:rgb(100%,100%,100%);stop-opacity:0.501961;"/>
</linearGradient>
<linearGradient id="linear7" gradientUnits="userSpaceOnUse" x1="34.6875" y1="21.8599" x2="34.6875" y2="46.5" gradientTransform="matrix(0.375,0,0,0.375,0,0)">
<stop offset="0" style="stop-color:rgb(100%,100%,100%);stop-opacity:1;"/>
<stop offset="1" style="stop-color:rgb(100%,100%,100%);stop-opacity:0.501961;"/>
</linearGradient>
<linearGradient id="linear8" gradientUnits="userSpaceOnUse" x1="34.6875" y1="21.8599" x2="34.6875" y2="46.5" gradientTransform="matrix(0.375,0,0,0.375,0,0)">
<stop offset="0" style="stop-color:rgb(100%,100%,100%);stop-opacity:1;"/>
<stop offset="1" style="stop-color:rgb(100%,100%,100%);stop-opacity:0.501961;"/>
</linearGradient>
<clipPath id="clip2">
  <rect x="0" y="0" width="24" height="24"/>
</clipPath>
<g id="surface8" clip-path="url(#clip2)">
<path style=" stroke:none;fill-rule:nonzero;fill:url(#linear6);" d="M 6.75 15.75 C 7.074219 15.257812 8.152344 14.527344 10.125 16.5 C 10.5 16.875 10.875 17.0625 10.875 17.0625 C 10.875 17.0625 10.5 16.5 10.125 16.125 C 7.566406 13.566406 6.75 15.75 6.75 15.75 Z M 6.75 15.75 "/>
<path style=" stroke:none;fill-rule:nonzero;fill:url(#linear7);" d="M 10.875 9.75 C 10.875 7.875 13.125 8.25 13.125 9.75 L 13.125 9.375 C 13.125 7.875 10.875 7.5 10.875 9.375 Z M 10.875 9.75 "/>
<path style=" stroke:none;fill-rule:nonzero;fill:url(#linear8);" d="M 13.125 13.5 C 13.875 12.375 15.375 13.125 15.375 14.25 C 16.125 13.125 17.625 13.875 17.625 15.1875 C 18.148438 14.136719 19.65625 14.558594 19.546875 16.449219 C 19.453125 14.882812 18.113281 14.585938 17.625 15.5625 C 17.625 14.25 16.125 13.5 15.375 14.625 C 15.375 13.5 13.875 12.75 13.125 13.875 Z M 13.125 13.5 "/>
</g>
</defs>
<g id="surface1">
<path style=" stroke:none;fill-rule:nonzero;fill:url(#linear0);" d="M 1.875 4.125 C 1.875 3.296875 2.546875 2.625 3.375 2.625 L 20.625 2.625 C 21.453125 2.625 22.125 3.296875 22.125 4.125 L 22.125 18.375 C 22.125 19.203125 21.453125 19.875 20.625 19.875 L 3.375 19.875 C 2.546875 19.875 1.875 19.203125 1.875 18.375 Z M 1.875 4.125 "/>
<path style=" stroke:none;fill-rule:nonzero;fill:url(#linear1);" d="M 20.625 19.875 C 21.453125 19.875 22.125 19.203125 22.125 18.375 L 22.125 18 C 22.125 18.828125 21.453125 19.5 20.625 19.5 L 3.375 19.5 C 2.546875 19.5 1.875 18.828125 1.875 18 L 1.875 18.375 C 1.875 19.203125 2.546875 19.875 3.375 19.875 Z M 20.625 19.875 "/>
<path style=" stroke:none;fill-rule:nonzero;fill:url(#linear2);" d="M 3.375 2.625 C 2.546875 2.625 1.875 3.296875 1.875 4.125 L 1.875 4.5 C 1.875 3.671875 2.546875 3 3.375 3 L 20.625 3 C 21.453125 3 22.125 3.671875 22.125 4.5 L 22.125 4.125 C 22.125 3.296875 21.453125 2.625 20.625 2.625 Z M 3.375 2.625 "/>
<path style=" stroke:none;fill-rule:nonzero;fill:url(#linear3);" d="M 3.75 4.125 C 3.542969 4.125 3.375 4.292969 3.375 4.5 L 3.375 18 C 3.375 18.207031 3.542969 18.375 3.75 18.375 L 20.25 18.375 C 20.457031 18.375 20.625 18.207031 20.625 18 L 20.625 4.5 C 20.625 4.292969 20.457031 4.125 20.25 4.125 Z M 3.75 4.125 "/>
<use xlink:href="#surface5" mask="url(#mask0)"/>
<path style=" stroke:none;fill-rule:nonzero;fill:rgb(0%,0%,0%);fill-opacity:0.4;" d="M 15 9 C 15 10.65625 13.65625 12 12 12 C 10.34375 12 9 10.65625 9 9 C 9 7.34375 10.34375 6 12 6 C 13.65625 6 15 7.34375 15 9 Z M 15 9 "/>
<path style=" stroke:none;fill-rule:nonzero;fill:url(#linear4);" d="M 12.507812 21.9375 C 14.089844 22.148438 16.058594 22.128906 16.289062 22.125 C 16.304688 22.125 16.320312 22.125 16.335938 22.125 C 17.769531 22.117188 18.886719 21.246094 19.0625 19.886719 L 19.5 16.875 C 19.875 14.625 18.1875 14.0625 17.625 15.1875 C 17.625 13.875 16.125 13.125 15.375 14.25 C 15.375 13.125 13.875 12.375 13.125 13.5 L 13.125 9.375 C 13.125 7.875 10.875 7.5 10.875 9.375 L 10.875 17.0625 C 10.875 17.0625 10.5 16.5 10.125 16.125 C 7.566406 13.566406 6.75 15.75 6.75 15.75 C 8.25 16.875 9.695312 21.5625 12.507812 21.9375 Z M 12.507812 21.9375 "/>
<path style=" stroke:none;fill-rule:evenodd;fill:url(#linear5);" d="M 12.507812 21.5625 C 14.089844 21.773438 16.058594 21.753906 16.289062 21.75 C 16.304688 21.75 16.320312 21.75 16.335938 21.75 C 17.742188 21.742188 18.894531 20.894531 19.105469 19.582031 L 19.0625 19.886719 C 18.886719 21.246094 17.769531 22.117188 16.335938 22.125 C 16.320312 22.125 16.304688 22.125 16.289062 22.125 C 16.058594 22.128906 14.089844 22.148438 12.507812 21.9375 C 10.703125 21.695312 9.460938 19.683594 8.410156 17.972656 C 7.820312 17.015625 7.289062 16.152344 6.75 15.75 C 7.242188 16.1875 7.871094 16.722656 8.410156 17.597656 C 9.460938 19.308594 10.703125 21.320312 12.507812 21.5625 Z M 19.105469 19.582031 L 19.121094 19.5 C 19.117188 19.527344 19.113281 19.554688 19.105469 19.582031 Z M 19.105469 19.582031 "/>
<use xlink:href="#surface8" mask="url(#mask1)"/>
</g>
</svg>
