<?xml version="1.0" encoding="UTF-8"?>
<svg xmlns="http://www.w3.org/2000/svg" xmlns:xlink="http://www.w3.org/1999/xlink" width="16px" height="16px" viewBox="0 0 16 16" version="1.1">
<g id="surface1">
<path style=" stroke:none;fill-rule:nonzero;fill:rgb(31.372549%,26.666667%,24.705882%);fill-opacity:1;" d="M 3 1 L 13 1 C 14.105469 1 15 1.894531 15 3 L 15 14 C 15 15.105469 14.105469 16 13 16 L 3 16 C 1.894531 16 1 15.105469 1 14 L 1 3 C 1 1.894531 1.894531 1 3 1 Z M 3 1 "/>
<path style=" stroke:none;fill-rule:nonzero;fill:rgb(63.137255%,53.333333%,49.803922%);fill-opacity:1;" d="M 14 14 L 14 3 C 14 2.449219 13.550781 2 13 2 L 3 2 C 2.449219 2 2 2.449219 2 3 L 2 14 C 2 14.550781 2.449219 15 3 15 L 13 15 C 13.550781 15 14 14.550781 14 14 Z M 14 14 "/>
<path style=" stroke:none;fill-rule:nonzero;fill:rgb(100%,100%,100%);fill-opacity:1;" d="M 3 4 L 13 4 L 13 14 L 3 14 Z M 3 4 "/>
<path style=" stroke:none;fill-rule:nonzero;fill:rgb(40%,40%,40%);fill-opacity:1;" d="M 8 0 C 9.65625 0 11 1.34375 11 3 C 11 4.65625 9.65625 6 8 6 C 6.34375 6 5 4.65625 5 3 C 5 1.34375 6.34375 0 8 0 Z M 8 0 "/>
<path style=" stroke:none;fill-rule:nonzero;fill:rgb(40%,40%,40%);fill-opacity:1;" d="M 5 3 L 11 3 L 11 4 L 5 4 Z M 5 3 "/>
<path style=" stroke:none;fill-rule:nonzero;fill:rgb(80%,80%,80%);fill-opacity:1;" d="M 8 1 C 6.890625 1 6 1.890625 6 3 L 6 4 L 5 4 C 4.445312 4 4.015625 4.445312 4 5 L 4 6 L 12 6 L 12 5 C 12 4.445312 11.554688 4 11 4 L 10 4 L 10 3 C 10 1.890625 9.109375 1 8 1 Z M 8 1 "/>
<path style=" stroke:none;fill-rule:nonzero;fill:rgb(100%,100%,100%);fill-opacity:1;" d="M 9 3 C 9 3.550781 8.550781 4 8 4 C 7.449219 4 7 3.550781 7 3 C 7 2.449219 7.449219 2 8 2 C 8.550781 2 9 2.449219 9 3 Z M 9 3 "/>
</g>
</svg>
