<?xml version="1.0" encoding="UTF-8"?>
<svg xmlns="http://www.w3.org/2000/svg" xmlns:xlink="http://www.w3.org/1999/xlink" width="16px" height="16px" viewBox="0 0 16 16" version="1.1">
<defs>
<linearGradient id="linear0" gradientUnits="userSpaceOnUse" x1="196.267" y1="21.629" x2="203.093" y2="440.616" gradientTransform="matrix(0.0310095,0,0,0.0310095,1.649255,3.209979)">
<stop offset="0" style="stop-color:rgb(2.352941%,41.176471%,73.72549%);stop-opacity:1;"/>
<stop offset="0.5" style="stop-color:rgb(8.235294%,32.156863%,55.686275%);stop-opacity:1;"/>
<stop offset="1" style="stop-color:rgb(14.117647%,22.745098%,37.254902%);stop-opacity:1;"/>
</linearGradient>
<linearGradient id="linear1" gradientUnits="userSpaceOnUse" x1="103.581" y1="41.056" x2="103.581" y2="97.376" gradientTransform="matrix(0.0310095,0,0,0.0310095,4.157055,1.270707)">
<stop offset="0" style="stop-color:rgb(18.823529%,85.490196%,100%);stop-opacity:1;"/>
<stop offset="0.5" style="stop-color:rgb(9.411765%,71.764706%,91.764706%);stop-opacity:1;"/>
<stop offset="1" style="stop-color:rgb(0%,58.039216%,83.137255%);stop-opacity:1;"/>
</linearGradient>
<linearGradient id="linear2" gradientUnits="userSpaceOnUse" x1="90.665" y1="-4.908" x2="90.665" y2="39.465" gradientTransform="matrix(0.0310095,0,0,0.0310095,5.281894,1.2708)">
<stop offset="0" style="stop-color:rgb(13.333333%,73.72549%,100%);stop-opacity:1;"/>
<stop offset="0.5" style="stop-color:rgb(6.666667%,63.529412%,97.254902%);stop-opacity:1;"/>
<stop offset="1" style="stop-color:rgb(0%,53.333333%,94.117647%);stop-opacity:1;"/>
</linearGradient>
</defs>
<g id="surface1">
<path style=" stroke:none;fill-rule:nonzero;fill:url(#linear0);" d="M 14.007812 3.21875 L 2.46875 3.21875 C 1.648438 3.21875 1.648438 3.695312 1.648438 3.695312 L 1.648438 12.242188 C 1.648438 14.597656 4.136719 14.757812 4.136719 14.757812 L 11.808594 14.757812 C 14.667969 14.757812 14.5625 12.402344 14.5625 12.402344 L 14.5625 3.828125 C 14.5625 3.085938 14.007812 3.21875 14.007812 3.21875 Z M 14.007812 3.21875 "/>
<path style=" stroke:none;fill-rule:nonzero;fill:rgb(94.901961%,31.372549%,13.333333%);fill-opacity:1;" d="M 7.8125 6.050781 L 5.28125 6.050781 L 5.28125 8.582031 L 7.8125 8.582031 Z M 7.8125 6.050781 "/>
<path style=" stroke:none;fill-rule:nonzero;fill:rgb(49.803922%,72.941176%,0%);fill-opacity:1;" d="M 10.90625 6.050781 L 8.375 6.050781 L 8.375 8.582031 L 10.90625 8.582031 Z M 10.90625 6.050781 "/>
<path style=" stroke:none;fill-rule:nonzero;fill:rgb(100%,72.54902%,0%);fill-opacity:1;" d="M 10.90625 9.144531 L 8.375 9.144531 L 8.375 11.671875 L 10.90625 11.671875 Z M 10.90625 9.144531 "/>
<path style=" stroke:none;fill-rule:nonzero;fill:rgb(0%,64.313725%,93.72549%);fill-opacity:1;" d="M 7.8125 9.144531 L 5.28125 9.144531 L 5.28125 11.671875 L 7.8125 11.671875 Z M 7.8125 9.144531 "/>
<path style=" stroke:none;fill-rule:evenodd;fill:url(#linear1);" d="M 4.15625 3.800781 C 4.15625 4.113281 4.410156 4.363281 4.71875 4.363281 C 5.03125 4.363281 5.28125 4.113281 5.28125 3.800781 Z M 10.90625 3.800781 C 10.90625 4.113281 11.15625 4.363281 11.46875 4.363281 C 11.777344 4.363281 12.03125 4.113281 12.03125 3.800781 Z M 5.28125 3.800781 L 5.28125 2.394531 L 4.15625 2.394531 L 4.15625 3.800781 Z M 5.28125 2.394531 L 10.90625 2.394531 L 10.90625 1.269531 L 5.28125 1.269531 Z M 10.90625 2.394531 L 10.90625 3.800781 L 12.03125 3.800781 L 12.03125 2.394531 Z M 10.90625 2.394531 L 12.03125 2.394531 C 12.03125 1.773438 11.527344 1.269531 10.90625 1.269531 Z M 5.28125 2.394531 L 5.28125 1.269531 C 4.660156 1.269531 4.15625 1.773438 4.15625 2.394531 Z M 5.28125 2.394531 "/>
<path style=" stroke:none;fill-rule:nonzero;fill:url(#linear2);" d="M 5.28125 1.269531 L 10.90625 1.269531 L 10.90625 2.394531 L 5.28125 2.394531 Z M 5.28125 1.269531 "/>
</g>
</svg>
