<?xml version="1.0" encoding="UTF-8" standalone="no"?>
<!-- Created with Inkscape (http://www.inkscape.org/) -->

<svg
   viewBox="0 0 16 16"
   version="1.1"
   id="svg37"
   sodipodi:docname="accessories-notes-symbolic.svg"
   width="16"
   height="16"
   inkscape:version="1.3.2 (091e20e, 2023-11-25)"
   xmlns:inkscape="http://www.inkscape.org/namespaces/inkscape"
   xmlns:sodipodi="http://sodipodi.sourceforge.net/DTD/sodipodi-0.dtd"
   xmlns="http://www.w3.org/2000/svg"
   xmlns:svg="http://www.w3.org/2000/svg">
  <sodipodi:namedview
     id="namedview39"
     pagecolor="#505050"
     bordercolor="#ffffff"
     borderopacity="1"
     inkscape:showpageshadow="0"
     inkscape:pageopacity="0"
     inkscape:pagecheckerboard="1"
     inkscape:deskcolor="#505050"
     showgrid="true"
     inkscape:zoom="24.251826"
     inkscape:cx="8.7828439"
     inkscape:cy="9.236418"
     inkscape:window-width="1680"
     inkscape:window-height="1000"
     inkscape:window-x="0"
     inkscape:window-y="25"
     inkscape:window-maximized="1"
     inkscape:current-layer="g35">
    <inkscape:grid
       type="xygrid"
       id="grid7688"
       originx="0"
       originy="0"
       spacingy="1"
       spacingx="1"
       units="px"
       visible="true" />
  </sodipodi:namedview>
  <defs
     id="defs7">
    <linearGradient
       id="linearGradient3764"
       x1="1"
       x2="47"
       gradientUnits="userSpaceOnUse"
       gradientTransform="rotate(-90,23.999998,24)">
      <stop
         style="stop-color:#333;stop-opacity:1"
         id="stop2" />
      <stop
         offset="1"
         style="stop-color:#3d3d3d;stop-opacity:1"
         id="stop4" />
    </linearGradient>
  </defs>
  <g
     id="g35"
     transform="matrix(1.1962617,0,0,-1.1962617,-13.475664,44.261683)"
     style="fill:#4d4d4d">
    <path
       d="m 12.518719,35.32124 c 0,0 -0.0012,1.680979 1.738592,1.678083 0,0 5.746347,0.0015 7.390002,3.5e-5 0,0 1.738813,0.0012 1.738593,-1.671899 -4.14e-4,-3.129505 -1.53e-4,-7.299576 -1.53e-4,-7.299576 l -4.600847,-4.400375 -3.217653,-6.56e-4 c 0,0 0.0077,-0.0063 -1.309942,3.92e-4 -1.736641,-0.002 -1.738592,1.67692 -1.738592,1.67692 m 1.087638,-0.64811 h 1.086599 l 3.510138,-3.43e-4 v 3.922219 h 4.09606 v 7.392878 h -3.259799 -4.346399 -1.086599 z"
       style="opacity:1;fill:#bfbfbf;fill-opacity:1;stroke:none;stroke-width:1.05735"
       id="path31"
       sodipodi:nodetypes="cscsccccccccccccccc" />
    <path
       d="m 19.225214,23.627659 v 0.99976 2.999279 h 2.999944 0.999981 v -0.534871 l -3.464935,-3.464168 z"
       style="opacity:1;fill:#4d4d4d;fill-opacity:0;stroke:none;stroke-width:0.999999"
       id="path33"
       sodipodi:nodetypes="cccccccc" />
  </g>
</svg>
