<?xml version="1.0" encoding="UTF-8" standalone="no"?>
<svg
   width="16px"
   height="16px"
   viewBox="0 0 16 16"
   version="1.1"
   id="svg7"
   sodipodi:docname="system-report.svg"
   inkscape:version="1.3.2 (091e20e, 2023-11-25)"
   xmlns:inkscape="http://www.inkscape.org/namespaces/inkscape"
   xmlns:sodipodi="http://sodipodi.sourceforge.net/DTD/sodipodi-0.dtd"
   xmlns:xlink="http://www.w3.org/1999/xlink"
   xmlns="http://www.w3.org/2000/svg"
   xmlns:svg="http://www.w3.org/2000/svg">
  <defs
     id="defs7">
    <linearGradient
       inkscape:collect="always"
       xlink:href="#linearGradient115183"
       id="linearGradient953"
       x1="2.3385158"
       y1="3.9670753"
       x2="2.3379755"
       y2="7.1078639"
       gradientUnits="userSpaceOnUse"
       gradientTransform="matrix(1.4419198,0,0,1.5282787,4.4889422,1.584153)" />
    <linearGradient
       inkscape:collect="always"
       id="linearGradient115183">
      <stop
         style="stop-color:#fedf00;stop-opacity:1;"
         offset="0"
         id="stop115179" />
      <stop
         style="stop-color:#ffbb01;stop-opacity:1"
         offset="1"
         id="stop115181" />
    </linearGradient>
  </defs>
  <sodipodi:namedview
     id="namedview7"
     pagecolor="#ffffff"
     bordercolor="#000000"
     borderopacity="0.25"
     inkscape:showpageshadow="2"
     inkscape:pageopacity="0.0"
     inkscape:pagecheckerboard="0"
     inkscape:deskcolor="#d1d1d1"
     inkscape:zoom="47.1875"
     inkscape:cx="8"
     inkscape:cy="8"
     inkscape:window-width="1680"
     inkscape:window-height="994"
     inkscape:window-x="0"
     inkscape:window-y="25"
     inkscape:window-maximized="1"
     inkscape:current-layer="svg7" />
  <g
     id="surface1">
    <path
       style=" stroke:none;fill-rule:nonzero;fill:rgb(31.372549%,26.666667%,24.705882%);fill-opacity:1;"
       d="M 3 1 L 13 1 C 14.105469 1 15 1.894531 15 3 L 15 14 C 15 15.105469 14.105469 16 13 16 L 3 16 C 1.894531 16 1 15.105469 1 14 L 1 3 C 1 1.894531 1.894531 1 3 1 Z M 3 1 "
       id="path1" />
    <path
       style=" stroke:none;fill-rule:nonzero;fill:rgb(63.137255%,53.333333%,49.803922%);fill-opacity:1;"
       d="M 14 14 L 14 3 C 14 2.449219 13.550781 2 13 2 L 3 2 C 2.449219 2 2 2.449219 2 3 L 2 14 C 2 14.550781 2.449219 15 3 15 L 13 15 C 13.550781 15 14 14.550781 14 14 Z M 14 14 "
       id="path2" />
    <path
       style=" stroke:none;fill-rule:nonzero;fill:rgb(100%,100%,100%);fill-opacity:1;"
       d="M 3 4 L 13 4 L 13 14 L 3 14 Z M 3 4 "
       id="path3" />
    <path
       style=" stroke:none;fill-rule:nonzero;fill:rgb(40%,40%,40%);fill-opacity:1;"
       d="M 8 0 C 9.65625 0 11 1.34375 11 3 C 11 4.65625 9.65625 6 8 6 C 6.34375 6 5 4.65625 5 3 C 5 1.34375 6.34375 0 8 0 Z M 8 0 "
       id="path4" />
    <path
       style=" stroke:none;fill-rule:nonzero;fill:rgb(40%,40%,40%);fill-opacity:1;"
       d="M 5 3 L 11 3 L 11 4 L 5 4 Z M 5 3 "
       id="path5" />
    <path
       style=" stroke:none;fill-rule:nonzero;fill:rgb(80%,80%,80%);fill-opacity:1;"
       d="M 8 1 C 6.890625 1 6 1.890625 6 3 L 6 4 L 5 4 C 4.445312 4 4.015625 4.445312 4 5 L 4 6 L 12 6 L 12 5 C 12 4.445312 11.554688 4 11 4 L 10 4 L 10 3 C 10 1.890625 9.109375 1 8 1 Z M 8 1 "
       id="path6" />
    <path
       style=" stroke:none;fill-rule:nonzero;fill:rgb(100%,100%,100%);fill-opacity:1;"
       d="M 9 3 C 9 3.550781 8.550781 4 8 4 C 7.449219 4 7 3.550781 7 3 C 7 2.449219 7.449219 2 8 2 C 8.550781 2 9 2.449219 9 3 Z M 9 3 "
       id="path7" />
  </g>
  <path
     id="path2257"
     style="color:#000000;fill:url(#linearGradient953);stroke-width:1.54589;stroke-linecap:round;stroke-linejoin:round;-inkscape-stroke:none"
     d="M 7.8589645,7.2469494 C 7.5771769,7.2470738 7.3194569,7.4172322 7.1925829,7.686925 L 4.739806,11.689563 c -0.2471047,0.531305 0.1125259,1.155915 0.6663819,1.157378 h 4.9084691 c 0.553857,-0.0015 0.913486,-0.626073 0.666382,-1.157378 L 8.5289917,7.686925 C 8.4015285,7.4159726 8.1420637,7.2455942 7.8589645,7.2469494 Z"
     sodipodi:nodetypes="cccccccc" />
  <path
     id="rect3151"
     style="fill:#1a1a1a;stroke-width:0.799996;stroke-linecap:round;stroke-linejoin:round"
     d="m 7.8604225,8.4469415 c -0.2215988,0 -0.4,0.1784004 -0.4,0.4 v 1.5999995 c 0,0.221599 0.1784004,0.400001 0.4,0.400001 0.2215988,0 0.4,-0.178401 0.4,-0.400001 V 8.8469415 c 0,-0.2215988 -0.1784004,-0.4 -0.4,-0.4 z m 0,2.8000015 c -0.220914,0 -0.4000002,0.179086 -0.4,0.4 4e-7,0.220914 0.1790864,0.399999 0.4,0.399999 0.2209136,0 0.3999995,-0.179085 0.4,-0.399999 2e-7,-0.220914 -0.179086,-0.4 -0.4,-0.4 z"
     sodipodi:nodetypes="ssssssssssss" />
  <path
     id="path1046"
     style="color:#000000;opacity:0.2;fill:#000000;stroke:none;stroke-width:0.8;stroke-linecap:round;stroke-linejoin:round"
     d="M 7.8593345,7.2469494 C 7.5775469,7.2470738 7.3198021,7.4171006 7.1929281,7.686793 l -2.4531253,4.002344 c -0.2471044,0.531304 0.1125512,1.156349 0.6664064,1.157813 h 4.9085938 c 0.553856,-0.0015 0.91351,-0.626509 0.666406,-1.157813 L 8.5288657,7.686793 C 8.4014025,7.415841 8.1424333,7.2455942 7.8593345,7.2469494 Z m 0,0.4 c 5.2e-4,1.2e-6 0.00104,1.2e-6 0.00156,0 0.121446,-5.6e-4 0.2402972,0.069958 0.30625,0.2101564 0.00368,0.00768 0.00757,0.015232 0.01172,0.022656 l 2.4398445,3.9812502 c 0.130987,0.287022 -0.05286,0.585263 -0.305468,0.585937 h -4.9062506 -7.8e-4 C 5.1534868,12.445709 4.9699556,12.146715 5.102304,11.859449 L 7.5429281,7.8797622 c 0.00415,-0.00742 0.00805,-0.01498 0.01172,-0.022656 0.065642,-0.1395336 0.18382,-0.2101032 0.3046876,-0.2101564 z"
     sodipodi:nodetypes="ccccccccccccccccccccc" />
</svg>
