<?xml version="1.0" encoding="UTF-8"?>
<svg xmlns="http://www.w3.org/2000/svg" xmlns:xlink="http://www.w3.org/1999/xlink" width="16px" height="16px" viewBox="0 0 16 16" version="1.1">
<defs>
<linearGradient id="linear0" gradientUnits="userSpaceOnUse" x1="0.529167" y1="8.466667" x2="15.345833" y2="8.466667" gradientTransform="matrix(1.070551,0,0,1.03937,-0.4975,0.3)">
<stop offset="0" style="stop-color:rgb(100%,25.098039%,25.098039%);stop-opacity:1;"/>
<stop offset="1" style="stop-color:rgb(83.529412%,0%,0%);stop-opacity:1;"/>
</linearGradient>
<linearGradient id="linear1" gradientUnits="userSpaceOnUse" x1="11.641666" y1="3.175" x2="16.404167" y2="3.175" gradientTransform="matrix(1.070551,0,0,1.03937,-1.6305,-0.25)">
<stop offset="0" style="stop-color:rgb(84.705882%,37.254902%,37.254902%);stop-opacity:1;"/>
<stop offset="1" style="stop-color:rgb(84.313725%,33.333333%,33.333333%);stop-opacity:1;"/>
</linearGradient>
</defs>
<g id="surface1">
<path style=" stroke:none;fill-rule:nonzero;fill:url(#linear0);" d="M 1.167969 2.5 L 14.832031 2.5 C 15.4375 2.5 15.929688 2.992188 15.929688 3.601562 L 15.929688 12.949219 C 15.929688 13.558594 15.4375 14.050781 14.832031 14.050781 L 1.167969 14.050781 C 0.5625 14.050781 0.0703125 13.558594 0.0703125 12.949219 L 0.0703125 3.601562 C 0.0703125 2.992188 0.5625 2.5 1.167969 2.5 Z M 1.167969 2.5 "/>
<path style=" stroke:none;fill-rule:nonzero;fill:rgb(92.941176%,74.509804%,74.901961%);fill-opacity:1;" d="M 1.203125 1.949219 L 14.796875 1.949219 C 15.425781 1.949219 15.929688 2.441406 15.929688 3.050781 L 15.929688 4.148438 L 0.0703125 4.148438 L 0.0703125 3.050781 C 0.0703125 2.441406 0.574219 1.949219 1.203125 1.949219 Z M 1.203125 1.949219 "/>
<path style=" stroke:none;fill-rule:nonzero;fill:rgb(89.019608%,52.54902%,53.333333%);fill-opacity:1;" d="M 5.449219 1.949219 L 10.832031 1.949219 L 10.832031 4.148438 L 5.449219 4.148438 Z M 5.449219 1.949219 "/>
<path style=" stroke:none;fill-rule:nonzero;fill:url(#linear1);" d="M 10.832031 1.949219 L 14.796875 1.949219 C 15.425781 1.949219 15.929688 2.441406 15.929688 3.050781 L 15.929688 4.148438 L 10.832031 4.148438 Z M 10.832031 1.949219 "/>
<path style=" stroke:none;fill-rule:nonzero;fill:rgb(92.941176%,74.509804%,74.901961%);fill-opacity:1;" d="M 8.824219 10.75 L 13.226562 10.75 C 13.378906 10.75 13.5 10.871094 13.5 11.023438 L 13.5 12.125 C 13.5 12.277344 13.378906 12.398438 13.226562 12.398438 L 8.824219 12.398438 C 8.671875 12.398438 8.550781 12.277344 8.550781 12.125 L 8.550781 11.023438 C 8.550781 10.871094 8.671875 10.75 8.824219 10.75 Z M 8.824219 10.75 "/>
<path style=" stroke:none;fill-rule:nonzero;fill:rgb(89.019608%,52.54902%,53.333333%);fill-opacity:1;" d="M 6.816406 8.832031 L 3.539062 11.941406 C 3.425781 12.050781 3.242188 12.050781 3.128906 11.941406 L 2.308594 11.164062 C 2.195312 11.058594 2.195312 10.882812 2.308594 10.777344 L 5.585938 7.664062 C 5.699219 7.554688 5.882812 7.554688 5.996094 7.664062 L 6.816406 8.441406 C 6.929688 8.550781 6.929688 8.722656 6.816406 8.832031 Z M 6.816406 8.832031 "/>
<path style=" stroke:none;fill-rule:nonzero;fill:rgb(92.941176%,74.509804%,74.901961%);fill-opacity:1;" d="M 3.539062 5.332031 L 6.816406 8.441406 C 6.929688 8.550781 6.929688 8.722656 6.816406 8.832031 L 5.996094 9.609375 C 5.882812 9.714844 5.699219 9.714844 5.585938 9.609375 L 2.308594 6.496094 C 2.195312 6.390625 2.195312 6.214844 2.308594 6.109375 L 3.128906 5.332031 C 3.242188 5.222656 3.425781 5.222656 3.539062 5.332031 Z M 3.539062 5.332031 "/>
</g>
</svg>
