<?xml version="1.0" encoding="UTF-8"?>
<svg xmlns="http://www.w3.org/2000/svg" xmlns:xlink="http://www.w3.org/1999/xlink" width="64px" height="64px" viewBox="0 0 64 64" version="1.1">
<g id="surface1">
<path style=" stroke:none;fill-rule:nonzero;fill:rgb(31.372549%,26.666667%,24.705882%);fill-opacity:1;" d="M 12 5.332031 L 52 5.332031 C 55.675781 5.332031 58.667969 8.324219 58.667969 12 L 58.667969 57.332031 C 58.667969 61.011719 55.675781 64 52 64 L 12 64 C 8.324219 64 5.332031 61.011719 5.332031 57.332031 L 5.332031 12 C 5.332031 8.324219 8.324219 5.332031 12 5.332031 Z M 12 5.332031 "/>
<path style=" stroke:none;fill-rule:nonzero;fill:rgb(63.137255%,53.333333%,49.803922%);fill-opacity:1;" d="M 56 57.332031 L 56 12 C 56 9.792969 54.207031 8 52 8 L 12 8 C 9.792969 8 8 9.792969 8 12 L 8 57.332031 C 8 59.542969 9.792969 61.332031 12 61.332031 L 52 61.332031 C 54.207031 61.332031 56 59.542969 56 57.332031 Z M 56 57.332031 "/>
<path style=" stroke:none;fill-rule:nonzero;fill:rgb(100%,100%,100%);fill-opacity:1;" d="M 13.332031 13.332031 L 50.667969 13.332031 L 50.667969 56 L 13.332031 56 Z M 13.332031 13.332031 "/>
<path style=" stroke:none;fill-rule:nonzero;fill:rgb(40%,40%,40%);fill-opacity:1;" d="M 31.917969 0 L 32.082031 0 C 36.457031 0 40 3.542969 40 7.917969 L 40 8.082031 C 40 12.457031 36.457031 16 32.082031 16 L 31.917969 16 C 27.542969 16 24 12.457031 24 8.082031 L 24 7.917969 C 24 3.542969 27.542969 0 31.917969 0 Z M 31.917969 0 "/>
<path style=" stroke:none;fill-rule:nonzero;fill:rgb(40%,40%,40%);fill-opacity:1;" d="M 24 8 L 40 8 L 40 16 L 24 16 Z M 24 8 "/>
<path style=" stroke:none;fill-rule:nonzero;fill:rgb(80%,80%,80%);fill-opacity:1;" d="M 32 2.667969 C 32 2.667969 26.667969 2.667969 26.667969 8 L 26.667969 10.667969 L 24 10.667969 C 22.519531 10.667969 21.15625 11.863281 21.332031 13.332031 L 21.332031 16 L 42.667969 16 L 42.667969 13.332031 C 42.667969 11.855469 41.480469 10.667969 40 10.667969 L 37.332031 10.667969 L 37.332031 8 C 37.332031 2.667969 32 2.667969 32 2.667969 Z M 32 2.667969 "/>
<path style=" stroke:none;fill-rule:nonzero;fill:rgb(100%,100%,100%);fill-opacity:1;" d="M 34.667969 8 C 34.667969 9.46875 33.46875 10.667969 32 10.667969 C 30.53125 10.667969 29.332031 9.46875 29.332031 8 C 29.332031 6.53125 30.53125 5.332031 32 5.332031 C 33.46875 5.332031 34.667969 6.53125 34.667969 8 Z M 34.667969 8 "/>
<path style=" stroke:none;fill-rule:nonzero;fill:rgb(10.196078%,10.196078%,10.196078%);fill-opacity:1;" d="M 16.96875 27.5625 L 43.035156 27.5625 C 43.46875 27.5625 43.816406 27.910156 43.816406 28.34375 C 43.816406 28.773438 43.46875 29.125 43.035156 29.125 L 16.96875 29.125 C 16.539062 29.125 16.1875 28.773438 16.1875 28.34375 C 16.1875 27.910156 16.539062 27.5625 16.96875 27.5625 Z M 16.96875 27.5625 "/>
<path style=" stroke:none;fill-rule:nonzero;fill:rgb(10.196078%,10.196078%,10.196078%);fill-opacity:1;" d="M 16.777344 33.722656 L 38.695312 33.722656 C 39.125 33.722656 39.476562 34.074219 39.476562 34.503906 C 39.476562 34.933594 39.125 35.285156 38.695312 35.285156 L 16.777344 35.285156 C 16.347656 35.285156 15.996094 34.933594 15.996094 34.503906 C 15.996094 34.074219 16.347656 33.722656 16.777344 33.722656 Z M 16.777344 33.722656 "/>
<path style=" stroke:none;fill-rule:nonzero;fill:rgb(10.196078%,10.196078%,10.196078%);fill-opacity:1;" d="M 16.847656 21.789062 L 47.289062 21.789062 C 47.71875 21.789062 48.070312 22.136719 48.070312 22.570312 C 48.070312 23 47.71875 23.351562 47.289062 23.351562 L 16.847656 23.351562 C 16.414062 23.351562 16.066406 23 16.066406 22.570312 C 16.066406 22.136719 16.414062 21.789062 16.847656 21.789062 Z M 16.847656 21.789062 "/>
</g>
</svg>
