<?xml version="1.0" encoding="UTF-8"?>
<svg xmlns="http://www.w3.org/2000/svg" xmlns:xlink="http://www.w3.org/1999/xlink" width="64px" height="64px" viewBox="0 0 64 64" version="1.1">
<defs>
<linearGradient id="linear0" gradientUnits="userSpaceOnUse" x1="196.267" y1="21.629" x2="203.093" y2="440.616" gradientTransform="matrix(0.124038,0,0,0.124038,6.597022,12.839915)">
<stop offset="0" style="stop-color:rgb(2.352941%,41.176471%,73.72549%);stop-opacity:1;"/>
<stop offset="0.5" style="stop-color:rgb(8.235294%,32.156863%,55.686275%);stop-opacity:1;"/>
<stop offset="1" style="stop-color:rgb(14.117647%,22.745098%,37.254902%);stop-opacity:1;"/>
</linearGradient>
<linearGradient id="linear1" gradientUnits="userSpaceOnUse" x1="103.581" y1="41.056" x2="103.581" y2="97.376" gradientTransform="matrix(0.124038,0,0,0.124038,16.628221,5.082828)">
<stop offset="0" style="stop-color:rgb(18.823529%,85.490196%,100%);stop-opacity:1;"/>
<stop offset="0.5" style="stop-color:rgb(9.411765%,71.764706%,91.764706%);stop-opacity:1;"/>
<stop offset="1" style="stop-color:rgb(0%,58.039216%,83.137255%);stop-opacity:1;"/>
</linearGradient>
<linearGradient id="linear2" gradientUnits="userSpaceOnUse" x1="90.665" y1="-4.908" x2="90.665" y2="39.465" gradientTransform="matrix(0.124038,0,0,0.124038,21.127575,5.0832)">
<stop offset="0" style="stop-color:rgb(13.333333%,73.72549%,100%);stop-opacity:1;"/>
<stop offset="0.5" style="stop-color:rgb(6.666667%,63.529412%,97.254902%);stop-opacity:1;"/>
<stop offset="1" style="stop-color:rgb(0%,53.333333%,94.117647%);stop-opacity:1;"/>
</linearGradient>
</defs>
<g id="surface1">
<path style=" stroke:none;fill-rule:nonzero;fill:url(#linear0);" d="M 56.027344 12.875 L 9.878906 12.875 C 6.597656 12.875 6.597656 14.78125 6.597656 14.78125 L 6.597656 48.96875 C 6.597656 58.390625 16.546875 59.023438 16.546875 59.023438 L 47.242188 59.023438 C 58.671875 59.023438 58.25 49.605469 58.25 49.605469 L 58.25 15.3125 C 58.25 12.347656 56.027344 12.875 56.027344 12.875 Z M 56.027344 12.875 "/>
<path style=" stroke:none;fill-rule:nonzero;fill:rgb(94.901961%,31.372549%,13.333333%);fill-opacity:1;" d="M 31.25 24.199219 L 21.125 24.199219 L 21.125 34.324219 L 31.25 34.324219 Z M 31.25 24.199219 "/>
<path style=" stroke:none;fill-rule:nonzero;fill:rgb(49.803922%,72.941176%,0%);fill-opacity:1;" d="M 43.621094 24.199219 L 33.496094 24.199219 L 33.496094 34.324219 L 43.621094 34.324219 Z M 43.621094 24.199219 "/>
<path style=" stroke:none;fill-rule:nonzero;fill:rgb(100%,72.54902%,0%);fill-opacity:1;" d="M 43.621094 36.570312 L 33.496094 36.570312 L 33.496094 46.691406 L 43.621094 46.691406 Z M 43.621094 36.570312 "/>
<path style=" stroke:none;fill-rule:nonzero;fill:rgb(0%,64.313725%,93.72549%);fill-opacity:1;" d="M 31.25 36.570312 L 21.125 36.570312 L 21.125 46.691406 L 31.25 46.691406 Z M 31.25 36.570312 "/>
<path style=" stroke:none;fill-rule:evenodd;fill:url(#linear1);" d="M 16.628906 15.203125 C 16.628906 16.445312 17.636719 17.453125 18.878906 17.453125 C 20.121094 17.453125 21.128906 16.445312 21.128906 15.203125 Z M 43.617188 15.203125 C 43.617188 16.445312 44.625 17.453125 45.867188 17.453125 C 47.109375 17.453125 48.117188 16.445312 48.117188 15.203125 Z M 21.128906 15.203125 L 21.128906 9.582031 L 16.628906 9.582031 L 16.628906 15.203125 Z M 21.128906 9.582031 L 43.617188 9.582031 L 43.617188 5.082031 L 21.128906 5.082031 Z M 43.617188 9.582031 L 43.617188 15.203125 L 48.117188 15.203125 L 48.117188 9.582031 Z M 43.617188 9.582031 L 48.117188 9.582031 C 48.117188 7.097656 46.101562 5.082031 43.617188 5.082031 Z M 21.128906 9.582031 L 21.128906 5.082031 C 18.644531 5.082031 16.628906 7.097656 16.628906 9.582031 Z M 21.128906 9.582031 "/>
<path style=" stroke:none;fill-rule:nonzero;fill:url(#linear2);" d="M 21.128906 5.082031 L 43.621094 5.082031 L 43.621094 9.582031 L 21.128906 9.582031 Z M 21.128906 5.082031 "/>
</g>
</svg>
