<?xml version="1.0" encoding="UTF-8" standalone="no"?>
<svg
   width="64px"
   height="64px"
   viewBox="0 0 64 64"
   version="1.1"
   id="svg10"
   sodipodi:docname="system-report.svg"
   inkscape:version="1.3.2 (091e20e, 2023-11-25)"
   xmlns:inkscape="http://www.inkscape.org/namespaces/inkscape"
   xmlns:sodipodi="http://sodipodi.sourceforge.net/DTD/sodipodi-0.dtd"
   xmlns:xlink="http://www.w3.org/1999/xlink"
   xmlns="http://www.w3.org/2000/svg"
   xmlns:svg="http://www.w3.org/2000/svg">
  <defs
     id="defs10">
    <linearGradient
       inkscape:collect="always"
       xlink:href="#linearGradient115183"
       id="linearGradient953"
       x1="2.3385158"
       y1="3.9670753"
       x2="2.3379755"
       y2="7.1078639"
       gradientUnits="userSpaceOnUse"
       gradientTransform="matrix(5.767679,0,0,6.1131147,18.389329,0.23871485)" />
    <linearGradient
       inkscape:collect="always"
       id="linearGradient115183">
      <stop
         style="stop-color:#fedf00;stop-opacity:1;"
         offset="0"
         id="stop115179" />
      <stop
         style="stop-color:#ffbb01;stop-opacity:1"
         offset="1"
         id="stop115181" />
    </linearGradient>
  </defs>
  <sodipodi:namedview
     id="namedview10"
     pagecolor="#ffffff"
     bordercolor="#000000"
     borderopacity="0.25"
     inkscape:showpageshadow="2"
     inkscape:pageopacity="0.0"
     inkscape:pagecheckerboard="0"
     inkscape:deskcolor="#d1d1d1"
     inkscape:zoom="4.1708252"
     inkscape:cx="-6.1138981"
     inkscape:cy="34.885183"
     inkscape:window-width="1680"
     inkscape:window-height="994"
     inkscape:window-x="0"
     inkscape:window-y="25"
     inkscape:window-maximized="1"
     inkscape:current-layer="surface1" />
  <g
     id="surface1">
    <path
       style=" stroke:none;fill-rule:nonzero;fill:rgb(31.372549%,26.666667%,24.705882%);fill-opacity:1;"
       d="M 12 5.332031 L 52 5.332031 C 55.675781 5.332031 58.667969 8.324219 58.667969 12 L 58.667969 57.332031 C 58.667969 61.011719 55.675781 64 52 64 L 12 64 C 8.324219 64 5.332031 61.011719 5.332031 57.332031 L 5.332031 12 C 5.332031 8.324219 8.324219 5.332031 12 5.332031 Z M 12 5.332031 "
       id="path1" />
    <path
       style=" stroke:none;fill-rule:nonzero;fill:rgb(63.137255%,53.333333%,49.803922%);fill-opacity:1;"
       d="M 56 57.332031 L 56 12 C 56 9.792969 54.207031 8 52 8 L 12 8 C 9.792969 8 8 9.792969 8 12 L 8 57.332031 C 8 59.542969 9.792969 61.332031 12 61.332031 L 52 61.332031 C 54.207031 61.332031 56 59.542969 56 57.332031 Z M 56 57.332031 "
       id="path2" />
    <path
       style=" stroke:none;fill-rule:nonzero;fill:rgb(100%,100%,100%);fill-opacity:1;"
       d="M 13.332031 13.332031 L 50.667969 13.332031 L 50.667969 56 L 13.332031 56 Z M 13.332031 13.332031 "
       id="path3" />
    <path
       style=" stroke:none;fill-rule:nonzero;fill:rgb(40%,40%,40%);fill-opacity:1;"
       d="M 31.917969 0 L 32.082031 0 C 36.457031 0 40 3.542969 40 7.917969 L 40 8.082031 C 40 12.457031 36.457031 16 32.082031 16 L 31.917969 16 C 27.542969 16 24 12.457031 24 8.082031 L 24 7.917969 C 24 3.542969 27.542969 0 31.917969 0 Z M 31.917969 0 "
       id="path4" />
    <path
       style=" stroke:none;fill-rule:nonzero;fill:rgb(40%,40%,40%);fill-opacity:1;"
       d="M 24 8 L 40 8 L 40 16 L 24 16 Z M 24 8 "
       id="path5" />
    <path
       style=" stroke:none;fill-rule:nonzero;fill:rgb(80%,80%,80%);fill-opacity:1;"
       d="M 32 2.667969 C 32 2.667969 26.667969 2.667969 26.667969 8 L 26.667969 10.667969 L 24 10.667969 C 22.519531 10.667969 21.15625 11.863281 21.332031 13.332031 L 21.332031 16 L 42.667969 16 L 42.667969 13.332031 C 42.667969 11.855469 41.480469 10.667969 40 10.667969 L 37.332031 10.667969 L 37.332031 8 C 37.332031 2.667969 32 2.667969 32 2.667969 Z M 32 2.667969 "
       id="path6" />
    <path
       style=" stroke:none;fill-rule:nonzero;fill:rgb(100%,100%,100%);fill-opacity:1;"
       d="M 34.667969 8 C 34.667969 9.46875 33.46875 10.667969 32 10.667969 C 30.53125 10.667969 29.332031 9.46875 29.332031 8 C 29.332031 6.53125 30.53125 5.332031 32 5.332031 C 33.46875 5.332031 34.667969 6.53125 34.667969 8 Z M 34.667969 8 "
       id="path7" />
    <path
       id="path2257"
       style="color:#000000;fill:url(#linearGradient953);stroke-width:6.18355;stroke-linecap:round;stroke-linejoin:round;-inkscape-stroke:none"
       d="m 31.869419,22.8899 c -1.127151,4.97e-4 -2.158031,0.681131 -2.665527,1.759902 l -9.811107,16.010554 c -0.988419,2.125219 0.450104,4.623657 2.665528,4.629512 H 41.69219 c 2.215426,-0.0059 3.653944,-2.504293 2.665528,-4.629512 L 34.549528,24.649802 C 34.039675,23.565993 33.001816,22.884479 31.869419,22.8899 Z"
       sodipodi:nodetypes="cccccccc" />
    <path
       id="rect3151"
       style="fill:#1a1a1a;stroke-width:3.19998;stroke-linecap:round;stroke-linejoin:round"
       d="m 31.875251,27.689868 c -0.886395,0 -1.6,0.713601 -1.6,1.6 v 6.399998 c 0,0.886397 0.713601,1.600003 1.6,1.600003 0.886395,0 1.6,-0.713601 1.6,-1.600003 v -6.399998 c 0,-0.886395 -0.713602,-1.6 -1.6,-1.6 z m 0,11.200005 c -0.883656,0 -1.600002,0.716345 -1.6,1.600001 10e-7,0.883655 0.716345,1.599997 1.6,1.599997 0.883654,0 1.599998,-0.716342 1.6,-1.599997 10e-7,-0.883656 -0.716344,-1.600001 -1.6,-1.600001 z"
       sodipodi:nodetypes="ssssssssssss" />
    <path
       id="path1046"
       style="color:#000000;opacity:0.2;fill:#000000;stroke:none;stroke-width:3.2;stroke-linecap:round;stroke-linejoin:round"
       d="m 31.870899,22.8899 c -1.127151,4.97e-4 -2.15813,0.680605 -2.665626,1.759374 L 19.392772,40.65865 c -0.988417,2.125218 0.450205,4.625397 2.665626,4.631251 h 19.634374 c 2.215424,-0.0059 3.654042,-2.506033 2.665626,-4.631251 L 34.549024,24.649274 C 34.039171,23.565466 33.003294,22.884479 31.870899,22.8899 Z m 0,1.6 c 0.0021,5e-6 0.0042,5e-6 0.0062,0 0.485784,-0.0022 0.961189,0.279833 1.225,0.840625 0.01472,0.0307 0.03029,0.06093 0.04688,0.09062 l 9.759379,15.925 c 0.523946,1.14809 -0.211422,2.341052 -1.221875,2.343751 h -19.625 -0.0032 c -1.010895,-0.005 -1.745019,-1.200939 -1.215626,-2.35 l 9.762501,-15.918749 c 0.01659,-0.0297 0.03222,-0.05992 0.04688,-0.09062 0.262568,-0.558134 0.73528,-0.840413 1.21875,-0.840626 z"
       sodipodi:nodetypes="ccccccccccccccccccccc" />
  </g>
</svg>
