<?xml version="1.0" encoding="UTF-8"?>
<svg xmlns="http://www.w3.org/2000/svg" xmlns:xlink="http://www.w3.org/1999/xlink" width="64px" height="64px" viewBox="0 0 64 64" version="1.1">
<g id="surface1">
<path style=" stroke:none;fill-rule:nonzero;fill:rgb(31.372549%,26.666667%,24.705882%);fill-opacity:1;" d="M 12 5.332031 L 52 5.332031 C 55.683594 5.332031 58.667969 8.316406 58.667969 12 L 58.667969 57.332031 C 58.667969 61.015625 55.683594 64 52 64 L 12 64 C 8.316406 64 5.332031 61.015625 5.332031 57.332031 L 5.332031 12 C 5.332031 8.316406 8.316406 5.332031 12 5.332031 Z M 12 5.332031 "/>
<path style=" stroke:none;fill-rule:nonzero;fill:rgb(63.137255%,53.333333%,49.803922%);fill-opacity:1;" d="M 56 57.332031 L 56 12 C 56 9.789062 54.210938 8 52 8 L 12 8 C 9.789062 8 8 9.789062 8 12 L 8 57.332031 C 8 59.542969 9.789062 61.332031 12 61.332031 L 52 61.332031 C 54.210938 61.332031 56 59.542969 56 57.332031 Z M 56 57.332031 "/>
<path style=" stroke:none;fill-rule:nonzero;fill:rgb(100%,100%,100%);fill-opacity:1;" d="M 13.332031 13.332031 L 50.667969 13.332031 L 50.667969 56 L 13.332031 56 Z M 13.332031 13.332031 "/>
<path style=" stroke:none;fill-rule:nonzero;fill:rgb(40%,40%,40%);fill-opacity:1;" d="M 31.910156 0 L 32.089844 0 C 36.457031 0 40 3.542969 40 7.910156 L 40 8.089844 C 40 12.457031 36.457031 16 32.089844 16 L 31.910156 16 C 27.542969 16 24 12.457031 24 8.089844 L 24 7.910156 C 24 3.542969 27.542969 0 31.910156 0 Z M 31.910156 0 "/>
<path style=" stroke:none;fill-rule:nonzero;fill:rgb(40%,40%,40%);fill-opacity:1;" d="M 24 8 L 40 8 L 40 16 L 24 16 Z M 24 8 "/>
<path style=" stroke:none;fill-rule:nonzero;fill:rgb(80%,80%,80%);fill-opacity:1;" d="M 32 2.667969 C 32 2.667969 26.667969 2.667969 26.667969 8 L 26.667969 10.667969 L 24 10.667969 C 22.523438 10.667969 21.160156 11.867188 21.332031 13.332031 L 21.332031 16 L 42.667969 16 L 42.667969 13.332031 C 42.667969 11.855469 41.476562 10.667969 40 10.667969 L 37.332031 10.667969 L 37.332031 8 C 37.332031 2.667969 32 2.667969 32 2.667969 Z M 32 2.667969 "/>
<path style=" stroke:none;fill-rule:nonzero;fill:rgb(100%,100%,100%);fill-opacity:1;" d="M 34.667969 8 C 34.667969 9.472656 33.472656 10.667969 32 10.667969 C 30.527344 10.667969 29.332031 9.472656 29.332031 8 C 29.332031 6.527344 30.527344 5.332031 32 5.332031 C 33.472656 5.332031 34.667969 6.527344 34.667969 8 Z M 34.667969 8 "/>
</g>
</svg>
