<?xml version="1.0" encoding="UTF-8"?>
<svg xmlns="http://www.w3.org/2000/svg" xmlns:xlink="http://www.w3.org/1999/xlink" width="16px" height="16px" viewBox="0 0 16 16" version="1.1">
<g id="surface1">
<path style=" stroke:none;fill-rule:nonzero;fill:rgb(41.568627%,76.078431%,34.901961%);fill-opacity:1;" d="M 14.417969 8.265625 C 13.867188 8.265625 13.382812 8.542969 13.101562 8.96875 C 13.101562 8.96875 13.097656 8.972656 13.097656 8.972656 C 13.089844 8.984375 13.078125 9 13.070312 9.011719 C 12.996094 9.117188 12.871094 9.1875 12.726562 9.1875 C 12.496094 9.1875 12.304688 9 12.304688 8.765625 L 12.304688 3.691406 L 7.234375 3.691406 C 7 3.691406 6.8125 3.503906 6.8125 3.269531 C 6.8125 3.125 6.882812 3 6.996094 2.921875 C 7.007812 2.914062 7.019531 2.90625 7.03125 2.898438 C 7.457031 2.613281 7.734375 2.132812 7.734375 1.582031 C 7.734375 0.707031 7.027344 0 6.152344 0 C 5.28125 0 4.570312 0.707031 4.570312 1.582031 C 4.570312 2.132812 4.851562 2.617188 5.273438 2.898438 C 5.277344 2.898438 5.277344 2.902344 5.28125 2.902344 C 5.292969 2.910156 5.304688 2.917969 5.320312 2.929688 C 5.425781 3.003906 5.496094 3.128906 5.496094 3.269531 C 5.496094 3.503906 5.304688 3.691406 5.074219 3.691406 L 0 3.691406 L 0 8.765625 C 0 9 0.1875 9.1875 0.421875 9.1875 C 0.5625 9.1875 0.6875 9.117188 0.765625 9.011719 C 0.773438 9 0.78125 8.984375 0.789062 8.972656 C 0.789062 8.972656 0.792969 8.96875 0.792969 8.96875 C 1.078125 8.542969 1.5625 8.265625 2.109375 8.265625 C 2.984375 8.265625 3.691406 8.972656 3.691406 9.847656 C 3.691406 10.71875 2.984375 11.429688 2.109375 11.429688 C 1.5625 11.429688 1.078125 11.148438 0.792969 10.726562 C 0.785156 10.710938 0.777344 10.699219 0.769531 10.6875 C 0.695312 10.578125 0.566406 10.503906 0.421875 10.503906 C 0.1875 10.503906 0 10.695312 0 10.925781 L 0 16 L 5.074219 16 C 5.304688 16 5.496094 15.8125 5.496094 15.578125 C 5.496094 15.4375 5.425781 15.3125 5.320312 15.234375 C 5.304688 15.226562 5.292969 15.21875 5.28125 15.210938 C 5.28125 15.207031 5.277344 15.207031 5.273438 15.207031 C 4.851562 14.921875 4.570312 14.4375 4.570312 13.890625 C 4.570312 13.015625 5.28125 12.308594 6.15625 12.308594 C 7.027344 12.308594 7.734375 13.015625 7.734375 13.890625 C 7.734375 14.4375 7.457031 14.921875 7.035156 15.207031 C 7.019531 15.214844 7.007812 15.21875 6.996094 15.230469 C 6.882812 15.304688 6.8125 15.433594 6.8125 15.578125 C 6.8125 15.8125 7 16 7.234375 16 L 12.308594 16 L 12.308594 10.925781 C 12.308594 10.695312 12.496094 10.503906 12.730469 10.503906 C 12.875 10.503906 13 10.578125 13.078125 10.6875 C 13.085938 10.699219 13.09375 10.710938 13.101562 10.726562 C 13.386719 11.148438 13.867188 11.429688 14.417969 11.429688 C 15.292969 11.429688 16 10.71875 16 9.84375 C 16 8.972656 15.289062 8.265625 14.417969 8.265625 Z M 14.417969 8.265625 "/>
</g>
</svg>
