<?xml version="1.0" encoding="UTF-8" standalone="no"?>
<svg
   fill="none"
   viewBox="0 0 64 64"
   version="1.1"
   id="svg43"
   sodipodi:docname="input-touchscreen.svg"
   inkscape:version="1.3.2 (091e20e, 2023-11-25)"
   xmlns:inkscape="http://www.inkscape.org/namespaces/inkscape"
   xmlns:sodipodi="http://sodipodi.sourceforge.net/DTD/sodipodi-0.dtd"
   xmlns:xlink="http://www.w3.org/1999/xlink"
   xmlns="http://www.w3.org/2000/svg"
   xmlns:svg="http://www.w3.org/2000/svg">
  <sodipodi:namedview
     id="namedview43"
     pagecolor="#ffffff"
     bordercolor="#000000"
     borderopacity="0.25"
     inkscape:showpageshadow="2"
     inkscape:pageopacity="0.0"
     inkscape:pagecheckerboard="0"
     inkscape:deskcolor="#d1d1d1"
     inkscape:zoom="8.3416503"
     inkscape:cx="25.114934"
     inkscape:cy="37.702372"
     inkscape:window-width="1680"
     inkscape:window-height="994"
     inkscape:window-x="0"
     inkscape:window-y="25"
     inkscape:window-maximized="1"
     inkscape:current-layer="svg43" />
  <defs
     id="defs25">
    <style
       type="text/css"
       id="current-color-scheme">
            .ColorScheme-Highlight {
                color:#3daee9;
            }
        </style>
    <linearGradient
       id="a"
       x1="22.3571"
       x2="32.6923"
       y1="7"
       y2="52.8439"
       gradientUnits="userSpaceOnUse">
      <stop
         stop-color="#26343c"
         offset="0"
         id="stop1" />
      <stop
         stop-color="#1a2530"
         offset=".45"
         id="stop2" />
      <stop
         stop-color="#121920"
         offset="1"
         id="stop3" />
    </linearGradient>
    <linearGradient
       id="b"
       x1="5"
       x2="59"
       y1="53"
       y2="53"
       gradientUnits="userSpaceOnUse">
      <stop
         stop-color="#161d24"
         offset="0"
         id="stop4" />
      <stop
         stop-color="#08121c"
         offset=".5"
         id="stop5" />
      <stop
         stop-color="#121920"
         offset="1"
         id="stop6" />
    </linearGradient>
    <linearGradient
       id="c"
       x1="5"
       x2="59"
       y1="7"
       y2="7"
       gradientUnits="userSpaceOnUse">
      <stop
         stop-color="#42545f"
         offset="0"
         id="stop7" />
      <stop
         stop-color="#334551"
         offset=".5"
         id="stop8" />
      <stop
         stop-color="#283742"
         offset="1"
         id="stop9" />
    </linearGradient>
    <linearGradient
       id="d"
       x1="41.1979"
       x2="4.07205"
       y1="10.1653"
       y2="36.0476"
       gradientUnits="userSpaceOnUse">
      <stop
         stop-color="#1abc9c"
         offset="0"
         id="stop10"
         style="stop-color:#107fc3;stop-opacity:1;" />
      <stop
         stop-color="#2980b9"
         offset="1"
         id="stop11"
         style="stop-color:#3ee0e6;stop-opacity:1;" />
    </linearGradient>
    <linearGradient
       id="e"
       x1="27.6623"
       x2="53.8651"
       y1="33.0593"
       y2="38.1684"
       gradientUnits="userSpaceOnUse">
      <stop
         stop-color="#cc4a5e"
         offset="0"
         id="stop12" />
      <stop
         stop-color="#aa478a"
         offset="1"
         id="stop13" />
    </linearGradient>
    <linearGradient
       id="f">
      <stop
         stop-color="#334545"
         offset="0"
         id="stop14" />
      <stop
         stop-color="#536161"
         offset="1"
         id="stop15" />
    </linearGradient>
    <linearGradient
       id="g"
       x1="21.9574"
       x2="15.6521"
       y1="58.5268"
       y2="37.826"
       gradientUnits="userSpaceOnUse"
       xlink:href="#f" />
    <linearGradient
       id="h"
       x1="31.0452"
       x2="22.0902"
       y1="41.9171"
       y2="36.7131"
       gradientUnits="userSpaceOnUse"
       xlink:href="#f" />
    <linearGradient
       id="i">
      <stop
         offset="0"
         id="stop16" />
      <stop
         stop-opacity="0"
         offset="1"
         id="stop17" />
    </linearGradient>
    <linearGradient
       id="j"
       x1="9"
       x2="9"
       y1="11"
       y2="49"
       gradientUnits="userSpaceOnUse"
       xlink:href="#i" />
    <linearGradient
       id="k"
       x1="5"
       x2="36.4274"
       y1="8"
       y2="39.1526"
       gradientUnits="userSpaceOnUse">
      <stop
         stop-color="#fff"
         stop-opacity=".4"
         offset="0"
         id="stop18" />
      <stop
         stop-color="#fff"
         stop-opacity=".15"
         offset="1"
         id="stop19" />
    </linearGradient>
    <linearGradient
       id="l"
       x1="31"
       x2="61"
       y1="21.5"
       y2="54"
       gradientUnits="userSpaceOnUse"
       xlink:href="#i" />
    <linearGradient
       id="m"
       x1="34.0718"
       x2="34.0718"
       y1="21.6146"
       y2="59.0033"
       gradientUnits="userSpaceOnUse">
      <stop
         stop-color="#fccec0"
         offset="0"
         id="stop20" />
      <stop
         stop-color="#c98350"
         offset="1"
         id="stop21" />
    </linearGradient>
    <linearGradient
       id="n"
       x1="34.6875"
       x2="34.6875"
       y1="40.7672"
       y2="59.0029"
       gradientUnits="userSpaceOnUse">
      <stop
         stop-color="#a96535"
         stop-opacity="0"
         offset="0"
         id="stop22" />
      <stop
         stop-color="#a96535"
         offset="1"
         id="stop23" />
    </linearGradient>
    <linearGradient
       id="o"
       x1="34.6875"
       x2="34.6875"
       y1="21.8599"
       y2="46.5"
       gradientUnits="userSpaceOnUse">
      <stop
         stop-color="#fff"
         offset="0"
         id="stop24" />
      <stop
         stop-color="#fff"
         stop-opacity=".5"
         offset="1"
         id="stop25" />
    </linearGradient>
  </defs>
  <path
     d="m5 11c0-2.20914 1.79086-4 4-4h46c2.2091 0 4 1.79086 4 4v38c0 2.2091-1.7909 4-4 4h-46c-2.20914 0-4-1.7909-4-4z"
     fill="url(#a)"
     id="path25" />
  <path
     d="m55 53c2.2091 0 4-1.7909 4-4v-1c0 2.2091-1.7909 4-4 4h-46c-2.20914 0-4-1.7909-4-4v1c0 2.2091 1.79086 4 4 4z"
     fill="url(#b)"
     id="path26" />
  <path
     d="m9 7c-2.20914 0-4 1.79086-4 4v1c0-2.20914 1.79086-4 4-4h46c2.2091 0 4 1.79086 4 4v-1c0-2.20914-1.7909-4-4-4z"
     fill="url(#c)"
     id="path27" />
  <path
     d="m10 11c-.55228 0-1 .4477-1 1v36c0 .5523.44772 1 1 1h44c.5523 0 1-.4477 1-1v-36c0-.5523-.4477-1-1-1z"
     fill="url(#d)"
     id="path28" />
  <path
     d="M 54.6616,11.2501 9,45 l 2,4 h 42.9999 c 0.5523,0 1,-0.4477 1,-1 V 11.9889 c -0.0032,-0.2942 -0.1334,-0.5578 -0.3383,-0.7388 z"
     fill="url(#e)"
     id="path29"
     style="display:none" />
  <path
     d="M 54.6615,11.25 23.5,34.28 55,23.9999 54.9999,11.9833 C 54.9951,11.6914 54.8652,11.4298 54.6615,11.25 Z"
     fill="#aa478a"
     id="path30"
     style="display:none" />
  <path
     d="M 23.5,34.2826 9,45 v 3 c 0,0.5523 0.44772,1 1,1 h 33 z"
     fill="url(#g)"
     id="path31"
     style="display:none" />
  <path
     d="M 43,49 23.5,34.28 23.3776,49 Z"
     fill="url(#h)"
     id="path32"
     style="display:none" />
  <path
     d="m 9,12 c 0,-0.5523 0.44772,-1 1,-1 h 44 c 0.5523,0 1,0.4477 1,1 v 36 c 0,0.5523 -0.4477,1 -1,1 H 10 C 9.44771,49 9,48.5523 9,48 Z"
     fill="url(#j)"
     opacity="0.1"
     id="path33"
     style="display:none" />
  <path
     d="M 5,12 C 5,9.79086 6.79086,8 9,8 h 46 c 2.2091,0 4,1.79086 4,4 v 36 c 0,2.2091 -1.7909,4 -4,4 H 9 C 6.79086,52 5,50.2091 5,48 Z"
     fill="url(#k)"
     opacity="0.1"
     id="path34"
     style="display:none" />
  <path
     d="M 42,24 A 10,10 0 0 1 32,34 10,10 0 0 1 22,24 10,10 0 0 1 32,14 10,10 0 0 1 42,24 Z"
     style="display:inline;fill:currentColor"
     class="ColorScheme-Highlight"
     opacity="0.5"
     id="path35" />
  <path
     d="m 40,24 a 8,8 0 0 1 -8,8 8,8 0 0 1 -8,-8 8,8 0 0 1 8,-8 8,8 0 0 1 8,8 z"
     style="display:none;fill:currentColor"
     class="ColorScheme-Highlight"
     id="path36" />
  <path
     d="m 40,24 a 8,8 0 0 1 -8,8 8,8 0 0 1 -8,-8 8,8 0 0 1 8,-8 8,8 0 0 1 8,8 z"
     fill="#000000"
     fill-opacity="0.4"
     id="path37"
     style="display:inline" />
  <path
     d="M 59,48.5 33,22.5 V 53 h 26 z"
     fill="url(#l)"
     opacity="0.2"
     id="path38"
     style="display:none" />
  <path
     d="m 33.3564,58.5 c 4.2184,0.5624 9.4682,0.5093 10.0838,0.5009 0.0406,-6e-4 0.0805,-8e-4 0.1211,-0.0011 3.827,-0.0244 6.8054,-2.3413 7.2729,-5.9645 L 52,45 C 53,39 48.5,37.5 47,40.5 47,37 43,35 41,38 41,35 37,33 35,36 V 25 c 0,-4 -6,-5 -6,0 v 20.5 c 0,0 -1.0047,-1.5047 -2,-2.5 -6.818,-6.8181 -9,-1 -9,-1 4,3 7.8564,15.5 15.3564,16.5 z"
     fill="url(#m)"
     id="path39"
     style="display:inline" />
  <path
     d="m 33.3565,57.5 c 4.2183,0.5625 9.4681,0.5093 10.0838,0.5009 0.0406,-5e-4 0.0804,-8e-4 0.121,-0.0011 3.7484,-0.0239 6.8268,-2.2809 7.391,-5.7781 l -0.1181,0.8137 c -0.4675,3.6231 -3.4459,5.94 -7.2729,5.9644 -0.0406,3e-4 -0.0804,6e-4 -0.121,0.0011 C 42.8246,59.0093 37.5748,59.0625 33.3565,58.5 28.5457,57.8586 25.234,52.4855 22.422,47.9231 20.8501,45.3728 19.4342,43.0757 18,42 c 1.3082,1.1692 2.9863,2.5938 4.422,4.9231 2.812,4.5624 6.1237,9.9355 10.9345,10.5769 z m 17.5958,-5.2783 0.0321,-0.2216 c -0.0096,0.0744 -0.0203,0.1483 -0.0321,0.2216 z"
     clip-rule="evenodd"
     fill="url(#n)"
     fill-rule="evenodd"
     id="path40"
     style="display:inline" />
  <g
     fill="url(#o)"
     opacity="0.5"
     id="g43"
     style="display:inline">
    <path
       d="m 18,42 c 0.8696,-1.3083 3.743,-3.2571 9,2 0.9953,0.9953 2,1.5 2,1.5 0,0 -1.0047,-1.5047 -2,-2.5 -6.818,-6.8181 -9,-1 -9,-1 z"
       id="path41" />
    <path
       d="m 29,26 c 0,-5 6,-4 6,0 v -1 c 0,-4 -6,-5 -6,0 z"
       id="path42" />
    <path
       d="m 35,36 c 2,-3 6,-1 6,2 2,-3 6,-1 6,2.5 1.4009,-2.8017 5.4182,-1.6787 5.1287,3.369 C 51.8699,39.6836 48.303,38.894 47,41.5 47,38 43,36 41,39 41,36 37,34 35,37 Z"
       id="path43" />
  </g>
</svg>
