<?xml version="1.0" encoding="UTF-8" standalone="no"?>
<!-- Created with Inkscape (http://www.inkscape.org/) -->

<svg
   width="24"
   height="24"
   viewBox="0 0 24 24.000001"
   version="1.1"
   id="svg5"
   inkscape:version="1.3.2 (091e20e, 2023-11-25)"
   sodipodi:docname="application-x-java-archive.svg"
   xmlns:inkscape="http://www.inkscape.org/namespaces/inkscape"
   xmlns:sodipodi="http://sodipodi.sourceforge.net/DTD/sodipodi-0.dtd"
   xmlns:xlink="http://www.w3.org/1999/xlink"
   xmlns="http://www.w3.org/2000/svg"
   xmlns:svg="http://www.w3.org/2000/svg">
  <sodipodi:namedview
     id="namedview7"
     pagecolor="#ffffff"
     bordercolor="#000000"
     borderopacity="0.25"
     inkscape:showpageshadow="2"
     inkscape:pageopacity="0.0"
     inkscape:pagecheckerboard="0"
     inkscape:deskcolor="#d1d1d1"
     inkscape:document-units="px"
     showgrid="false"
     inkscape:zoom="34.458333"
     inkscape:cx="11.98549"
     inkscape:cy="12"
     inkscape:window-width="1680"
     inkscape:window-height="994"
     inkscape:window-x="0"
     inkscape:window-y="25"
     inkscape:window-maximized="1"
     inkscape:current-layer="svg5" />
  <defs
     id="defs2">
    <radialGradient
       xlink:href="#e"
       id="t"
       cx="18.156437"
       cy="20.414816"
       r="6.5"
       fx="18.156437"
       fy="20.414816"
       gradientTransform="matrix(-0.43022445,0,0,-2.4909493,17.024491,62.18266)"
       gradientUnits="userSpaceOnUse" />
    <linearGradient
       id="e">
      <stop
         offset="0"
         id="stop1" />
      <stop
         offset="1"
         stop-opacity="0"
         id="stop2" />
    </linearGradient>
    <radialGradient
       xlink:href="#g"
       id="s"
       cx="25.195063"
       cy="3.1347313"
       r="15.475195"
       fx="25.195063"
       fy="3.1347313"
       gradientTransform="matrix(0.47366811,0,0,0.09911047,0.46343973,11.085048)"
       gradientUnits="userSpaceOnUse" />
    <linearGradient
       id="g">
      <stop
         offset="0"
         stop-color="#fff"
         stop-opacity="0"
         id="stop12" />
      <stop
         offset=".2"
         stop-color="#fff"
         stop-opacity="0"
         id="stop13" />
      <stop
         offset=".60000002"
         stop-color="#fff"
         id="stop14" />
      <stop
         offset="1"
         stop-color="#fff"
         stop-opacity="0"
         id="stop15" />
    </linearGradient>
    <radialGradient
       xlink:href="#e"
       id="r"
       cx="20.611172"
       cy="20.647474"
       r="6.5"
       fx="20.611172"
       fy="20.647474"
       gradientTransform="matrix(0.27894092,6.987465e-4,0.00297213,-1.3568115,9.3457345,39.015808)"
       gradientUnits="userSpaceOnUse" />
    <radialGradient
       xlink:href="#f"
       id="q"
       cx="20.611172"
       cy="20.647474"
       r="6.5"
       fx="20.611172"
       fy="20.647474"
       gradientTransform="matrix(0.28371405,6.987465e-4,0.00302134,-1.3568115,9.5371793,39.015808)"
       gradientUnits="userSpaceOnUse" />
    <linearGradient
       id="f">
      <stop
         offset="0"
         stop-color="#fff"
         id="stop20" />
      <stop
         offset="1"
         stop-color="#eeeeec"
         stop-opacity="0"
         id="stop21" />
    </linearGradient>
    <radialGradient
       xlink:href="#h"
       id="p"
       cx="18.156437"
       cy="20.414816"
       r="6.5"
       fx="18.156437"
       fy="20.414816"
       gradientTransform="matrix(-0.43022445,0,0,-1.4868145,17.336195,41.683387)"
       gradientUnits="userSpaceOnUse" />
    <linearGradient
       id="h">
      <stop
         offset="0"
         stop-color="#fff"
         id="stop8" />
      <stop
         offset="1"
         stop-color="#fff"
         stop-opacity="0"
         id="stop9" />
    </linearGradient>
    <linearGradient
       xlink:href="#c"
       id="m"
       x1="19.848904"
       x2="35.147346"
       y1="5.921916"
       y2="5.921916"
       gradientTransform="matrix(0.9132,0,0,0.96971,1.8889252,1.7120119)"
       gradientUnits="userSpaceOnUse"
       spreadMethod="reflect" />
    <linearGradient
       id="c">
      <stop
         offset="0"
         stop-color="#c17d11"
         id="stop18" />
      <stop
         offset="1"
         stop-color="#8f5902"
         id="stop19" />
    </linearGradient>
    <linearGradient
       xlink:href="#d"
       id="n"
       x1="23.196106"
       x2="25.542664"
       y1="2.1696546"
       y2="10.631669"
       gradientTransform="matrix(0.9132,0,0,0.96971,1.8889252,1.7120119)"
       gradientUnits="userSpaceOnUse" />
    <linearGradient
       id="d">
      <stop
         offset="0"
         stop-color="#eeeeec"
         id="stop10" />
      <stop
         offset="1"
         stop-color="#eeeeec"
         stop-opacity="0"
         id="stop11" />
    </linearGradient>
    <radialGradient
       xlink:href="#i"
       id="o"
       cx="21.619385"
       cy="7.0134811"
       r="8.6202145"
       fx="21.619385"
       fy="7.0134811"
       gradientTransform="matrix(1.30377,-0.00636,0.00137,0.22125,-6.5769107,6.7568347)"
       gradientUnits="userSpaceOnUse" />
    <linearGradient
       id="i">
      <stop
         offset="0"
         stop-color="#e9b96e"
         id="stop16" />
      <stop
         offset="1"
         stop-color="#8f5902"
         id="stop17" />
    </linearGradient>
    <linearGradient
       xlink:href="#b"
       id="l"
       x1="7"
       x2="41"
       y1="23.464724"
       y2="23.464724"
       gradientTransform="matrix(0.31170327,0,0,0.32805,4.5281761,6.4046883)"
       gradientUnits="userSpaceOnUse" />
    <linearGradient
       id="b">
      <stop
         offset="0"
         stop-color="#eeeeec"
         stop-opacity=".78431374"
         id="stop5" />
      <stop
         offset=".15000001"
         stop-color="#eeeeec"
         stop-opacity=".49803922"
         id="stop6" />
      <stop
         offset=".5"
         stop-color="#eeeeec"
         stop-opacity="0"
         id="stop7" />
      <stop
         offset=".85000002"
         stop-color="#eeeeec"
         stop-opacity=".49803922"
         id="stop22" />
      <stop
         offset="1"
         stop-color="#eeeeec"
         stop-opacity=".78431374"
         id="stop23" />
    </linearGradient>
    <linearGradient
       xlink:href="#a"
       id="k"
       x1="31.984617"
       x2="-12.223987"
       y1="21.999998"
       y2="21.999998"
       gradientTransform="matrix(0.31170327,0,0,-0.32805,4.5281761,22.151086)"
       gradientUnits="userSpaceOnUse"
       spreadMethod="reflect" />
    <linearGradient
       id="a">
      <stop
         offset="0"
         stop-color="#fff"
         stop-opacity=".48958334"
         id="stop24" />
      <stop
         offset="1"
         stop-opacity="0"
         id="stop25" />
    </linearGradient>
    <filter
       id="j"
       width="1.1137971"
       height="2.418103"
       x="-0.056898545"
       y="-0.70905148">
      <feGaussianBlur
         stdDeviation=".97980729"
         id="feGaussianBlur23" />
    </filter>
  </defs>
  <path
     id="rect234"
     style="fill:#7d7d7b"
     d="M 4.0000002,1.0000001 H 16.5 l 3.5,3.5 V 23 H 4.0000002 Z"
     sodipodi:nodetypes="cccccc" />
  <path
     id="rect1746"
     style="fill:#fafafa"
     d="M 5.0000002,2.0000001 H 15 v 4 h 4 V 22 H 5.0000002 Z"
     sodipodi:nodetypes="ccccccc" />
  <path
     id="rect1800"
     style="fill:#fafafa;stroke-width:0.75"
     d="m 16,2.0000001 3,3.0000008 h -3 z"
     sodipodi:nodetypes="cccc" />
  <path
     fill-rule="evenodd"
     d="m 44.401966,41.570206 a 20.664303,1.657997 0 1 1 -41.3286056,0 20.664303,1.657997 0 1 1 41.3286056,0 z"
     color="#000000"
     enable-background="accumulate"
     filter="url(#j)"
     opacity="0.4"
     overflow="visible"
     style="marker:none"
     transform="matrix(0.30168134,0,0,0.70599968,4.8478094,-9.6633423)"
     id="path23" />
  <path
     fill="url(#k)"
     d="m 12.009047,7.5528637 c -2.4928318,0 -3.2728808,0.4920746 -3.2728808,1.1481746 v 0.8201246 c -0.623406,0 -1.8702175,0.3280508 -1.8702175,2.2963501 l -5e-7,7.381125 c -0.077926,-0.738113 2.3041082,-1.3122 5.1430988,-1.3122 2.83899,0 5.143098,0.574087 5.143098,1.3122 v -7.381125 c 0,-1.9682997 -1.246812,-2.2963497 -1.870218,-2.2963501 V 8.7010383 c 0,-0.6561 -0.778465,-1.1481746 -3.27288,-1.1481746 z"
     id="path24"
     style="fill:url(#k);stroke-width:0.32805" />
  <path
     fill="#eeeeec"
     fill-opacity="0.491124"
     stroke="#ffffff"
     stroke-linecap="round"
     stroke-linejoin="round"
     stroke-width="0.32805"
     d="m 17.1522,19.36261 a 5.1431214,1.3121968 0 1 1 -10.2862416,0 5.1431214,1.3121968 0 1 1 10.2862416,0 z"
     id="path25" />
  <path
     fill="url(#l)"
     stroke="#888a85"
     stroke-linecap="round"
     stroke-linejoin="round"
     d="m 12.009047,7.5528637 c 2.494416,0 3.272881,0.4920754 3.272881,1.1481754 v 0.8201246 c 0.623406,0 1.870218,0.6561003 1.870218,2.6244003 v 7.2171 c 0,0.820125 -2.295052,1.312199 -5.14389,1.312199 -2.8488381,0 -5.1423078,-0.492074 -5.1423078,-1.312199 l 5e-7,-7.217101 c 0,-1.9683 1.2468123,-2.6243993 1.8702183,-2.6243993 V 8.7010391 c 0,-0.6561 0.7800486,-1.1481754 3.27288,-1.1481754 z"
     id="path26"
     style="fill:url(#l);stroke-width:0.32805" />
  <path
     fill="none"
     stroke="#ffffff"
     stroke-linecap="round"
     stroke-linejoin="round"
     d="m 11.996559,7.8735536 c -1.226311,0 -2.0012231,0.1215677 -2.4421717,0.3044839 -0.2204739,0.091458 -0.3504781,0.201445 -0.418851,0.2870437 -0.068373,0.085599 -0.087666,0.1497687 -0.087666,0.2460375 v 0.8201247 c 8.1e-4,0.08726 -0.031784,0.1711906 -0.090414,0.2328948 -0.05863,0.061704 -0.1383784,0.095997 -0.2212891,0.095155 C 7.6452064,10.01324 7.2453519,11.049493 7.1776513,12.145563 v 7.2171 c 0,0.0456 0.029743,0.133579 0.2435176,0.266541 0.2137744,0.13296 0.5665828,0.271 1.013035,0.379307 0.8929035,0.216615 2.1673131,0.338302 3.5748431,0.338302 1.407531,0 2.68194,-0.121687 3.574844,-0.338302 0.446451,-0.108307 0.79926,-0.246347 1.013035,-0.379307 0.213773,-0.132962 0.243517,-0.220937 0.243517,-0.266541 l -0.01249,-7.214037 c 0.01989,-1.125145 -0.467554,-2.132324 -1.558515,-2.2862692 -0.08291,8.505e-4 -0.279918,-0.033449 -0.221288,-0.095156 0.06544,-0.06887 -0.09121,-0.1456352 -0.09041,-0.2328944 v -0.820125 c 0,-0.096406 -0.0194,-0.1604861 -0.08767,-0.2460375 C 14.801809,8.382593 14.671561,8.2725415 14.451214,8.1811006 14.01052,7.9982179 13.223669,7.8735536 11.996552,7.8735536 Z"
     opacity="0.75"
     id="path27"
     style="stroke-width:0.32805" />
  <g
     stroke-linecap="round"
     stroke-linejoin="round"
     transform="matrix(0.31170327,0,0,0.32805,4.5281769,6.1064467)"
     id="g31">
    <path
       fill="url(#m)"
       stroke="#8f5902"
       stroke-width="1.02589"
       d="m 33.499999,3.4999983 -1.999998,6.454569 c 0,0.8029217 -3.36,1.4545687 -7.500001,1.4545687 -4.14,0 -7.5,-0.651647 -7.5,-1.4545687 l -2.000001,-6.454569"
       id="path28"
       style="fill:url(#m)" />
    <path
       fill="none"
       stroke="url(#n)"
       stroke-width="1.02589"
       d="m 15.999999,5.5302386 c 0.516029,1.6673849 1.341639,3.8610817 1.384656,4.0000795 0.03086,0.019391 0.01982,0.030495 0.08561,0.060607 0.26317,0.1204478 0.761407,0.2705405 1.398326,0.3939456 1.273836,0.2468103 3.114286,0.3939453 5.136706,0.3939453 2.022419,0 3.862869,-0.147135 5.136706,-0.3939453 0.636919,-0.1234051 1.135155,-0.2734978 1.398325,-0.3939456 0.06579,-0.030112 0.05475,-0.041216 0.08561,-0.060607 C 30.66896,9.3913203 31.483971,7.1976235 32,5.5302386 c 0,0 -2.000001,1 -7.928572,0.9285714 C 18.00044,6.3856655 15.999999,5.5302386 15.999999,5.5302386 Z"
       opacity="0.25"
       id="path29"
       style="stroke:url(#n)" />
    <path
       fill="url(#o)"
       stroke="#8f5902"
       stroke-width="0.835617"
       d="m 32.425897,8.5 a 8.212949,1.5 0 1 1 -16.425898,0 8.212949,1.5 0 1 1 16.425898,0 z"
       transform="matrix(1.15671,0,0,1.30305,-4.0073595,-7.6213216)"
       id="path30"
       style="fill:url(#o)" />
    <path
       fill="none"
       stroke="#eeeeec"
       stroke-width="0.835617"
       d="m 24.21875,7.71875 c -2.231892,0 -4.26181,0.1461181 -5.6875,0.40625 -0.614724,0.1121627 -1.035393,0.249148 -1.375,0.375 0.339607,0.125852 0.760276,0.2628373 1.375,0.375 1.42569,0.2601319 3.455608,0.40625 5.6875,0.40625 2.231892,0 4.26181,-0.1461181 5.6875,-0.40625 C 30.520974,8.7628373 30.941644,8.625852 31.28125,8.5 30.941643,8.374148 30.520974,8.2371627 29.90625,8.125 28.48056,7.8648681 26.450642,7.71875 24.21875,7.71875 Z"
       opacity="0.25"
       transform="matrix(1.15671,0,0,1.30305,-4.0073595,-7.6213216)"
       id="path31" />
  </g>
  <path
     fill="none"
     stroke="#888a85"
     stroke-linecap="round"
     stroke-linejoin="round"
     stroke-width="0.323878"
     d="m 14.660504,8.534928 c 0,0.182235 -1.187852,0.3301357 -2.651457,0.3301357 -1.463604,0 -2.6514565,-0.1479007 -2.6514565,-0.3301357"
     id="path32" />
  <path
     fill="url(#p)"
     d="m 12.009047,9.3571387 c -1.402663,0 -2.4936228,-0.164025 -2.4936228,-0.2460375 v 0.7166544 c -0.4675547,0 -1.2468123,0.8415824 -1.2468123,2.4818324 v 7.718472 c 0.939751,0.298028 1.8702171,0.482778 3.1170291,0.482778 0,0 -10e-7,-5.161822 -10e-7,-7.8732 0,-1.64025 0.623407,-2.29635 0.623407,-2.29635 z"
     opacity="0.4"
     id="path33"
     style="fill:url(#p);stroke-width:0.32805" />
  <path
     fill="url(#q)"
     d="m 14.658523,9.1111012 c 0.1794,0 0.467553,-0.2460375 0.467553,-0.2460375 v 0.98415 c 0.935109,0 1.558515,0.8201243 1.558515,2.4603743 0,2.505827 10e-7,7.412662 10e-7,7.412662 -0.626501,0.298028 -0.103902,0.32805 -0.93511,0.32805 0,0 0,-4.701284 0,-7.412662 0,-1.64025 -1.090959,-2.460375 -1.090959,-2.460375 z"
     opacity="0.5"
     id="path34"
     style="fill:url(#q);stroke-width:0.32805" />
  <path
     fill="url(#r)"
     d="m 14.346819,9.1931137 c 0.07792,0 0.467555,-0.164025 0.467555,-0.164025 v 0.9841503 c 0.919375,0 1.558515,0.656099 1.558515,2.296349 v 7.54515 c -0.61596,0.298027 -0.117887,0.32805 -0.93511,0.32805 v -7.54515 c 0,-1.64025 -1.09096,-2.460375 -1.09096,-2.460375 z"
     opacity="0.110656"
     id="path35"
     style="fill:url(#r);stroke-width:0.32805" />
  <path
     fill="none"
     stroke="#eeeeec"
     stroke-linecap="round"
     stroke-linejoin="round"
     d="m 14.972207,10.175177 c 0,0.36447 -1.327496,0.660272 -2.96316,0.660272 -1.635666,0 -2.9631595,-0.295802 -2.9631595,-0.660272"
     opacity="0.25"
     id="path36"
     style="stroke-width:0.32805" />
  <path
     fill="none"
     stroke="url(#s)"
     stroke-linecap="round"
     stroke-linejoin="round"
     stroke-width="1.64025"
     d="m 16.057846,11.817513 c 0,0.362168 -1.819805,0.6561 -4.062064,0.6561 -2.2422591,0 -4.0620642,-0.293932 -4.0620642,-0.6561"
     opacity="0.75"
     id="path37"
     style="stroke:url(#s)" />
  <path
     fill="none"
     stroke="#ffffff"
     stroke-linecap="round"
     stroke-linejoin="round"
     d="m 14.970226,8.7042852 c 0,0.2738484 -1.326729,0.4961019 -2.96145,0.4961019 -1.63472,0 -2.9614492,-0.2222535 -2.9614492,-0.4961019"
     opacity="0.75"
     id="path38"
     style="stroke-width:0.32805" />
  <path
     fill="url(#t)"
     d="m 11.697344,9.3571387 c -1.402663,0 -2.4936232,-0.2460375 -2.4936232,-0.32805 v 0.7885877 c -0.442377,0 -1.2468123,0.8516616 -1.2468123,2.4919116 0,2.505828 4e-7,7.718472 4e-7,7.718472 0.9397507,0.298028 1.8702179,0.482778 3.1170291,0.482778 0,0 0,-5.161822 0,-7.8732 0,-1.64025 0.623406,-2.29635 0.623406,-2.29635 z"
     opacity="0.159836"
     id="path39"
     style="fill:url(#t);stroke-width:0.32805" />
</svg>
