<?xml version="1.0" encoding="UTF-8" standalone="no"?>
<!-- Created with Inkscape (http://www.inkscape.org/) -->

<svg
   width="24"
   height="24"
   viewBox="0 0 24 24.000001"
   version="1.1"
   id="svg5"
   inkscape:version="1.3.2 (091e20e, 2023-11-25)"
   sodipodi:docname="application-x-bittorrent.svg"
   xmlns:inkscape="http://www.inkscape.org/namespaces/inkscape"
   xmlns:sodipodi="http://sodipodi.sourceforge.net/DTD/sodipodi-0.dtd"
   xmlns="http://www.w3.org/2000/svg"
   xmlns:svg="http://www.w3.org/2000/svg">
  <sodipodi:namedview
     id="namedview7"
     pagecolor="#ffffff"
     bordercolor="#000000"
     borderopacity="0.25"
     inkscape:showpageshadow="2"
     inkscape:pageopacity="0.0"
     inkscape:pagecheckerboard="0"
     inkscape:deskcolor="#d1d1d1"
     inkscape:document-units="px"
     showgrid="false"
     inkscape:zoom="34.458333"
     inkscape:cx="12"
     inkscape:cy="9.6783556"
     inkscape:window-width="1680"
     inkscape:window-height="994"
     inkscape:window-x="0"
     inkscape:window-y="25"
     inkscape:window-maximized="1"
     inkscape:current-layer="svg5" />
  <defs
     id="defs2" />
  <path
     id="rect234"
     style="fill:#7d7d7b"
     d="M 4.0000002,1.0000001 H 16.5 l 3.5,3.5 V 23 H 4.0000002 Z"
     sodipodi:nodetypes="cccccc" />
  <path
     id="rect1746"
     style="fill:#fafafa"
     d="M 5.0000002,2.0000001 H 15 v 4 h 4 V 22 H 5.0000002 Z"
     sodipodi:nodetypes="ccccccc" />
  <path
     id="rect1800"
     style="fill:#fafafa;stroke-width:0.75"
     d="m 16,2.0000001 3,3.0000008 h -3 z"
     sodipodi:nodetypes="cccc" />
  <circle
     cx="12.080746"
     cy="13.799549"
     r="5.2531199"
     fill="#ffffff"
     id="circle1"
     style="stroke-width:0.21888" />
  <path
     d="m 12.159344,8.5464283 h 0.04487 l -0.1419,0.01384 c 0.882983,0.00485 1.767018,0.2186961 2.541504,0.64398 1.004352,0.5450138 1.821278,1.4253397 2.283465,2.4672587 0.302208,0.679972 0.461487,1.424647 0.445487,2.168991 0.0042,1.20767 -0.451068,2.405316 -1.234243,3.325444 -1.130953,0.142578 -2.302223,0.22908 -3.416476,-0.06576 -0.661126,-0.163679 -1.248842,-0.587912 -1.625141,-1.151265 -0.382186,-0.673056 -0.251427,-1.604587 0.327949,-2.127798 0.403417,-0.364041 0.985572,-0.520103 1.51802,-0.401754 0.471227,0.09585 0.889944,0.401404 1.131631,0.814233 0.23615,-0.123536 0.470549,-0.250201 0.707026,-0.373037 -0.16659,-0.278918 -0.372117,-0.538095 -0.629126,-0.739837 -0.432266,-0.340511 -0.980364,-0.52529 -1.52984,-0.540524 -0.521307,-0.0063 -1.043992,0.148817 -1.4728,0.445028 -0.870814,0.58894 -1.3017013,1.757519 -1.000523,2.764169 0.192309,0.68308 0.696586,1.244355 1.285002,1.624987 0.468097,0.299341 1.010284,0.461618 1.553829,0.559545 0.747015,0.131502 1.50968,0.08307 2.260855,0.0194 -0.07547,0.07716 -0.188828,0.07268 -0.287959,0.09031 -0.801604,0.118348 -1.628247,0.122157 -2.420463,-0.06298 -0.759885,-0.175104 -1.483589,-0.54814 -2.023326,-1.114602 -0.7932646,-0.852297 -0.9789622,-2.2375 -0.355767,-3.235133 0.325518,-0.531179 0.803005,-0.987938 1.39663,-1.204913 0.648256,-0.240484 1.38656,-0.238076 2.031336,0.01281 0.10607,-0.244642 0.221529,-0.485148 0.325519,-0.73049 -1.063494,-0.43255 -2.333896,-0.320441 -3.299638,0.301047 -0.528617,0.340162 -0.9636844,0.815963 -1.2801416,1.356137 -0.3526484,0.621138 -0.4667152,1.362375 -0.3589062,2.064476 0.142237,0.946765 0.6621432,1.832989 1.4244578,2.417792 0.370718,0.291373 0.808916,0.487577 1.259983,0.620109 0.582856,0.172325 1.191101,0.2474 1.797967,0.261255 0.08589,0.0013 0.17215,0.0048 0.257689,0.01556 -0.12207,0.063 -0.263598,0.04395 -0.396107,0.04776 -0.720926,0.01488 -1.44741,-0.09655 -2.123487,-0.347779 C 10.642375,18.29197 10.156899,18.004405 9.7753911,17.607138 9.3751037,17.211622 9.0384662,16.743437 8.8433628,16.213989 8.6141818,15.587313 8.5425427,14.898346 8.6653039,14.241201 8.8141507,13.459515 9.2627741,12.756692 9.8501607,12.225863 10.554735,11.585355 11.50868,11.221664 12.463653,11.237227 c 3.29e-4,-0.268522 -3.42e-4,-0.537392 6.84e-4,-0.805921 -0.824214,3.42e-4 -1.648756,0.214546 -2.361343,0.62841 -0.9417749,0.54501 -1.6818188,1.420837 -2.0744501,2.430597 -0.2883003,0.756427 -0.3961097,1.599399 -0.2003147,2.39216 0.2239621,0.968237 0.8419501,1.829859 1.6696494,2.380757 0.1290077,0.09412 0.2764675,0.159542 0.4030675,0.257469 -0.058444,-0.0038 -0.1179109,-0.01073 -0.1704201,-0.03841 -0.2667273,-0.127 -0.516097,-0.28722 -0.7529183,-0.463003 C 8.5512424,17.698497 8.1492209,17.335507 7.8442272,16.89569 7.4627235,16.368671 7.1619015,15.778658 6.9956682,15.148524 6.8377809,14.5658 6.8019605,13.956066 6.8436933,13.3557 6.9441987,12.068424 7.5534911,10.830985 8.5081185,9.9572315 9.2846895,9.2388522 10.283483,8.7623538 11.334436,8.6166713 c 0.273008,-0.043601 0.550525,-0.03945 0.824914,-0.070246 z"
     fill="#673398"
     id="path1"
     style="stroke-width:0.21888" />
</svg>
