<?xml version="1.0" encoding="UTF-8"?>
<svg xmlns="http://www.w3.org/2000/svg" xmlns:xlink="http://www.w3.org/1999/xlink" width="24px" height="24px" viewBox="0 0 24 24" version="1.1">
<g id="surface1">
<path style=" stroke:none;fill-rule:nonzero;fill:rgb(87.843137%,74.117647%,9.803922%);fill-opacity:1;" d="M 6.75 1.898438 C 7.347656 1.898438 7.832031 2.488281 7.832031 3.214844 L 7.832031 20.804688 C 7.832031 21.53125 7.347656 22.121094 6.75 22.121094 C 6.152344 22.121094 5.671875 21.53125 5.671875 20.804688 L 5.671875 3.214844 C 5.671875 2.488281 6.152344 1.898438 6.75 1.898438 Z M 6.75 1.898438 "/>
<path style=" stroke:none;fill-rule:nonzero;fill:rgb(87.843137%,74.117647%,9.803922%);fill-opacity:1;" d="M 17.253906 1.898438 C 17.84375 1.898438 18.324219 2.488281 18.324219 3.214844 L 18.324219 20.84375 C 18.324219 21.570312 17.84375 22.160156 17.253906 22.160156 C 16.660156 22.160156 16.179688 21.570312 16.179688 20.84375 L 16.179688 3.214844 C 16.179688 2.488281 16.660156 1.898438 17.253906 1.898438 Z M 17.253906 1.898438 "/>
</g>
</svg>
