<?xml version="1.0" encoding="UTF-8" standalone="no"?>
<svg
   width="24px"
   height="24px"
   viewBox="0 0 24 24"
   version="1.1"
   id="svg7"
   sodipodi:docname="accessories-clipboard.svg"
   inkscape:version="1.3.2 (091e20e, 2023-11-25)"
   xmlns:inkscape="http://www.inkscape.org/namespaces/inkscape"
   xmlns:sodipodi="http://sodipodi.sourceforge.net/DTD/sodipodi-0.dtd"
   xmlns="http://www.w3.org/2000/svg"
   xmlns:svg="http://www.w3.org/2000/svg">
  <defs
     id="defs7" />
  <sodipodi:namedview
     id="namedview7"
     pagecolor="#ffffff"
     bordercolor="#000000"
     borderopacity="0.25"
     inkscape:showpageshadow="2"
     inkscape:pageopacity="0.0"
     inkscape:pagecheckerboard="0"
     inkscape:deskcolor="#d1d1d1"
     inkscape:zoom="7.8645833"
     inkscape:cx="-1.8437086"
     inkscape:cy="-9.6"
     inkscape:window-width="1680"
     inkscape:window-height="994"
     inkscape:window-x="0"
     inkscape:window-y="25"
     inkscape:window-maximized="1"
     inkscape:current-layer="svg7" />
  <g
     id="surface1">
    <path
       style=" stroke:none;fill-rule:nonzero;fill:rgb(31.372549%,26.666667%,24.705882%);fill-opacity:1;"
       d="M 4.5 2 L 19.5 2 C 20.878906 2 22 3.121094 22 4.5 L 22 21.5 C 22 22.878906 20.878906 24 19.5 24 L 4.5 24 C 3.121094 24 2 22.878906 2 21.5 L 2 4.5 C 2 3.121094 3.121094 2 4.5 2 Z M 4.5 2 "
       id="path1" />
    <path
       style=" stroke:none;fill-rule:nonzero;fill:rgb(63.137255%,53.333333%,49.803922%);fill-opacity:1;"
       d="M 21 21.5 L 21 4.5 C 21 3.671875 20.328125 3 19.5 3 L 4.5 3 C 3.671875 3 3 3.671875 3 4.5 L 3 21.5 C 3 22.328125 3.671875 23 4.5 23 L 19.5 23 C 20.328125 23 21 22.328125 21 21.5 Z M 21 21.5 "
       id="path2" />
    <path
       style=" stroke:none;fill-rule:nonzero;fill:rgb(100%,100%,100%);fill-opacity:1;"
       d="M 5 5 L 19 5 L 19 21 L 5 21 Z M 5 5 "
       id="path3" />
    <path
       style=" stroke:none;fill-rule:nonzero;fill:rgb(40%,40%,40%);fill-opacity:1;"
       d="M 11.96875 0 L 12.03125 0 C 13.671875 0 15 1.328125 15 2.96875 L 15 3.03125 C 15 4.671875 13.671875 6 12.03125 6 L 11.96875 6 C 10.328125 6 9 4.671875 9 3.03125 L 9 2.96875 C 9 1.328125 10.328125 0 11.96875 0 Z M 11.96875 0 "
       id="path4" />
    <path
       style=" stroke:none;fill-rule:nonzero;fill:rgb(40%,40%,40%);fill-opacity:1;"
       d="M 9 3 L 15 3 L 15 6 L 9 6 Z M 9 3 "
       id="path5" />
    <path
       style=" stroke:none;fill-rule:nonzero;fill:rgb(80%,80%,80%);fill-opacity:1;"
       d="M 12 1 C 12 1 10 1 10 3 L 10 4 L 9 4 C 8.445312 4 7.933594 4.449219 8 5 L 8 6 L 16 6 L 16 5 C 16 4.445312 15.554688 4 15 4 L 14 4 L 14 3 C 14 1 12 1 12 1 Z M 12 1 "
       id="path6" />
    <path
       style=" stroke:none;fill-rule:nonzero;fill:rgb(100%,100%,100%);fill-opacity:1;"
       d="M 13 3 C 13 3.550781 12.550781 4 12 4 C 11.449219 4 11 3.550781 11 3 C 11 2.449219 11.449219 2 12 2 C 12.550781 2 13 2.449219 13 3 Z M 13 3 "
       id="path7" />
  </g>
  <rect
     style="fill:#1a1a1a;stroke-width:0;paint-order:fill markers stroke"
     id="rect8-3"
     width="10.360619"
     height="0.58564454"
     x="6.070981"
     y="10.335809"
     ry="0.29282227" />
  <rect
     style="fill:#1a1a1a;stroke-width:0;paint-order:fill markers stroke"
     id="rect8-3-5"
     width="8.8046179"
     height="0.58564454"
     x="5.9985456"
     y="12.646099"
     ry="0.29282227" />
  <rect
     style="fill:#1a1a1a;stroke-width:0;paint-order:fill markers stroke"
     id="rect8"
     width="12.00187"
     height="0.58564454"
     x="6.0244832"
     y="8.1707859"
     ry="0.29282227" />
  <rect
     style="fill:#1a1a1a;stroke-width:0;paint-order:fill markers stroke"
     id="rect8-7"
     width="12.00187"
     height="0.58564454"
     x="6"
     y="74"
     ry="0.29282227" />
</svg>
