<?xml version="1.0" encoding="UTF-8"?>
<svg xmlns="http://www.w3.org/2000/svg" xmlns:xlink="http://www.w3.org/1999/xlink" width="24px" height="24px" viewBox="0 0 24 23" version="1.1">
<defs>
<linearGradient id="linear0" gradientUnits="userSpaceOnUse" x1="196.267" y1="21.629" x2="203.093" y2="440.616" gradientTransform="matrix(0.0465142,0,0,0.0445761,2.473883,4.614345)">
<stop offset="0" style="stop-color:rgb(2.352941%,41.176471%,73.72549%);stop-opacity:1;"/>
<stop offset="0.5" style="stop-color:rgb(8.235294%,32.156863%,55.686275%);stop-opacity:1;"/>
<stop offset="1" style="stop-color:rgb(14.117647%,22.745098%,37.254902%);stop-opacity:1;"/>
</linearGradient>
<linearGradient id="linear1" gradientUnits="userSpaceOnUse" x1="103.581" y1="41.056" x2="103.581" y2="97.376" gradientTransform="matrix(0.0465142,0,0,0.0445761,6.235583,1.826641)">
<stop offset="0" style="stop-color:rgb(18.823529%,85.490196%,100%);stop-opacity:1;"/>
<stop offset="0.5" style="stop-color:rgb(9.411765%,71.764706%,91.764706%);stop-opacity:1;"/>
<stop offset="1" style="stop-color:rgb(0%,58.039216%,83.137255%);stop-opacity:1;"/>
</linearGradient>
<linearGradient id="linear2" gradientUnits="userSpaceOnUse" x1="90.665" y1="-4.908" x2="90.665" y2="39.465" gradientTransform="matrix(0.0465142,0,0,0.0445761,7.922841,1.826775)">
<stop offset="0" style="stop-color:rgb(13.333333%,73.72549%,100%);stop-opacity:1;"/>
<stop offset="0.5" style="stop-color:rgb(6.666667%,63.529412%,97.254902%);stop-opacity:1;"/>
<stop offset="1" style="stop-color:rgb(0%,53.333333%,94.117647%);stop-opacity:1;"/>
</linearGradient>
</defs>
<g id="surface1">
<path style=" stroke:none;fill-rule:nonzero;fill:url(#linear0);" d="M 21.011719 4.628906 L 3.703125 4.628906 C 2.472656 4.628906 2.472656 5.3125 2.472656 5.3125 L 2.472656 17.597656 C 2.472656 20.984375 6.203125 21.210938 6.203125 21.210938 L 17.714844 21.210938 C 22.003906 21.210938 21.84375 17.828125 21.84375 17.828125 L 21.84375 5.503906 C 21.84375 4.4375 21.011719 4.628906 21.011719 4.628906 Z M 21.011719 4.628906 "/>
<path style=" stroke:none;fill-rule:nonzero;fill:rgb(94.901961%,31.372549%,13.333333%);fill-opacity:1;" d="M 11.71875 8.695312 L 7.921875 8.695312 L 7.921875 12.335938 L 11.71875 12.335938 Z M 11.71875 8.695312 "/>
<path style=" stroke:none;fill-rule:nonzero;fill:rgb(49.803922%,72.941176%,0%);fill-opacity:1;" d="M 16.359375 8.695312 L 12.5625 8.695312 L 12.5625 12.335938 L 16.359375 12.335938 Z M 16.359375 8.695312 "/>
<path style=" stroke:none;fill-rule:nonzero;fill:rgb(100%,72.54902%,0%);fill-opacity:1;" d="M 16.359375 13.144531 L 12.5625 13.144531 L 12.5625 16.78125 L 16.359375 16.78125 Z M 16.359375 13.144531 "/>
<path style=" stroke:none;fill-rule:nonzero;fill:rgb(0%,64.313725%,93.72549%);fill-opacity:1;" d="M 11.71875 13.144531 L 7.921875 13.144531 L 7.921875 16.78125 L 11.71875 16.78125 Z M 11.71875 13.144531 "/>
<path style=" stroke:none;fill-rule:evenodd;fill:url(#linear1);" d="M 6.234375 5.464844 C 6.234375 5.910156 6.613281 6.273438 7.078125 6.273438 C 7.546875 6.273438 7.921875 5.910156 7.921875 5.464844 Z M 16.355469 5.464844 C 16.355469 5.910156 16.734375 6.273438 17.199219 6.273438 C 17.667969 6.273438 18.042969 5.910156 18.042969 5.464844 Z M 7.921875 5.464844 L 7.921875 3.445312 L 6.234375 3.445312 L 6.234375 5.464844 Z M 7.921875 3.445312 L 16.355469 3.445312 L 16.355469 1.828125 L 7.921875 1.828125 Z M 16.355469 3.445312 L 16.355469 5.464844 L 18.042969 5.464844 L 18.042969 3.445312 Z M 16.355469 3.445312 L 18.042969 3.445312 C 18.042969 2.550781 17.289062 1.828125 16.355469 1.828125 Z M 7.921875 3.445312 L 7.921875 1.828125 C 6.992188 1.828125 6.234375 2.550781 6.234375 3.445312 Z M 7.921875 3.445312 "/>
<path style=" stroke:none;fill-rule:nonzero;fill:url(#linear2);" d="M 7.921875 1.828125 L 16.355469 1.828125 L 16.355469 3.441406 L 7.921875 3.441406 Z M 7.921875 1.828125 "/>
</g>
</svg>
