<?xml version="1.0" encoding="UTF-8" standalone="no"?>
<svg
   width="24px"
   height="24px"
   viewBox="0 0 24 24"
   version="1.1"
   id="svg7"
   sodipodi:docname="system-report.svg"
   inkscape:version="1.3.2 (091e20e, 2023-11-25)"
   xmlns:inkscape="http://www.inkscape.org/namespaces/inkscape"
   xmlns:sodipodi="http://sodipodi.sourceforge.net/DTD/sodipodi-0.dtd"
   xmlns:xlink="http://www.w3.org/1999/xlink"
   xmlns="http://www.w3.org/2000/svg"
   xmlns:svg="http://www.w3.org/2000/svg">
  <defs
     id="defs7">
    <linearGradient
       inkscape:collect="always"
       xlink:href="#linearGradient115183"
       id="linearGradient953"
       x1="2.3385158"
       y1="3.9670753"
       x2="2.3379755"
       y2="7.1078639"
       gradientUnits="userSpaceOnUse"
       gradientTransform="matrix(2.1628796,0,0,2.292418,6.8111293,0.48556084)" />
    <linearGradient
       inkscape:collect="always"
       id="linearGradient115183">
      <stop
         style="stop-color:#fedf00;stop-opacity:1;"
         offset="0"
         id="stop115179" />
      <stop
         style="stop-color:#ffbb01;stop-opacity:1"
         offset="1"
         id="stop115181" />
    </linearGradient>
  </defs>
  <sodipodi:namedview
     id="namedview7"
     pagecolor="#ffffff"
     bordercolor="#000000"
     borderopacity="0.25"
     inkscape:showpageshadow="2"
     inkscape:pageopacity="0.0"
     inkscape:pagecheckerboard="0"
     inkscape:deskcolor="#d1d1d1"
     inkscape:zoom="7.8645833"
     inkscape:cx="-1.7165563"
     inkscape:cy="-9.4728477"
     inkscape:window-width="1680"
     inkscape:window-height="994"
     inkscape:window-x="0"
     inkscape:window-y="25"
     inkscape:window-maximized="1"
     inkscape:current-layer="svg7" />
  <g
     id="surface1">
    <path
       style=" stroke:none;fill-rule:nonzero;fill:rgb(31.372549%,26.666667%,24.705882%);fill-opacity:1;"
       d="M 4.5 2 L 19.5 2 C 20.878906 2 22 3.121094 22 4.5 L 22 21.5 C 22 22.878906 20.878906 24 19.5 24 L 4.5 24 C 3.121094 24 2 22.878906 2 21.5 L 2 4.5 C 2 3.121094 3.121094 2 4.5 2 Z M 4.5 2 "
       id="path1" />
    <path
       style=" stroke:none;fill-rule:nonzero;fill:rgb(63.137255%,53.333333%,49.803922%);fill-opacity:1;"
       d="M 21 21.5 L 21 4.5 C 21 3.671875 20.328125 3 19.5 3 L 4.5 3 C 3.671875 3 3 3.671875 3 4.5 L 3 21.5 C 3 22.328125 3.671875 23 4.5 23 L 19.5 23 C 20.328125 23 21 22.328125 21 21.5 Z M 21 21.5 "
       id="path2" />
    <path
       style=" stroke:none;fill-rule:nonzero;fill:rgb(100%,100%,100%);fill-opacity:1;"
       d="M 5 5 L 19 5 L 19 21 L 5 21 Z M 5 5 "
       id="path3" />
    <path
       style=" stroke:none;fill-rule:nonzero;fill:rgb(40%,40%,40%);fill-opacity:1;"
       d="M 11.96875 0 L 12.03125 0 C 13.671875 0 15 1.328125 15 2.96875 L 15 3.03125 C 15 4.671875 13.671875 6 12.03125 6 L 11.96875 6 C 10.328125 6 9 4.671875 9 3.03125 L 9 2.96875 C 9 1.328125 10.328125 0 11.96875 0 Z M 11.96875 0 "
       id="path4" />
    <path
       style=" stroke:none;fill-rule:nonzero;fill:rgb(40%,40%,40%);fill-opacity:1;"
       d="M 9 3 L 15 3 L 15 6 L 9 6 Z M 9 3 "
       id="path5" />
    <path
       style=" stroke:none;fill-rule:nonzero;fill:rgb(80%,80%,80%);fill-opacity:1;"
       d="M 12 1 C 12 1 10 1 10 3 L 10 4 L 9 4 C 8.445312 4 7.933594 4.449219 8 5 L 8 6 L 16 6 L 16 5 C 16 4.445312 15.554688 4 15 4 L 14 4 L 14 3 C 14 1 12 1 12 1 Z M 12 1 "
       id="path6" />
    <path
       style=" stroke:none;fill-rule:nonzero;fill:rgb(100%,100%,100%);fill-opacity:1;"
       d="M 13 3 C 13 3.550781 12.550781 4 12 4 C 11.449219 4 11 3.550781 11 3 C 11 2.449219 11.449219 2 12 2 C 12.550781 2 13 2.449219 13 3 Z M 13 3 "
       id="path7" />
  </g>
  <rect
     style="fill:#1a1a1a;stroke-width:0;paint-order:fill markers stroke"
     id="rect8-7"
     width="12.00187"
     height="0.58564454"
     x="6"
     y="74"
     ry="0.29282227" />
  <path
     id="path2257"
     style="color:#000000;fill:url(#linearGradient953);stroke-width:2.31883;stroke-linecap:round;stroke-linejoin:round;-inkscape-stroke:none"
     d="M 11.866163,8.9797555 C 11.443481,8.9799421 11.056901,9.2351797 10.86659,9.6397189 L 7.1874251,15.643676 c -0.3706571,0.796957 0.1687887,1.733872 0.9995727,1.736067 h 7.3627042 c 0.830784,-0.0022 1.370229,-0.93911 0.999573,-1.736067 L 12.871203,9.6397189 C 12.680009,9.2332903 12.290811,8.9777227 11.866163,8.9797555 Z"
     sodipodi:nodetypes="cccccccc" />
  <path
     id="rect3151"
     style="fill:#1a1a1a;stroke-width:1.19999;stroke-linecap:round;stroke-linejoin:round"
     d="m 11.86835,10.779743 c -0.332399,0 -0.6,0.267601 -0.6,0.6 v 2.4 c 0,0.332398 0.2676,0.600001 0.6,0.600001 0.332398,0 0.6,-0.267601 0.6,-0.600001 v -2.4 c 0,-0.332398 -0.267601,-0.6 -0.6,-0.6 z m 0,4.200002 c -0.331371,0 -0.600001,0.26863 -0.6,0.600001 0,0.33137 0.268629,0.599998 0.6,0.599998 0.33137,0 0.599999,-0.268628 0.6,-0.599998 0,-0.331371 -0.268629,-0.600001 -0.6,-0.600001 z"
     sodipodi:nodetypes="ssssssssssss" />
  <path
     id="path1046"
     style="color:#000000;opacity:0.2;fill:#000000;stroke:none;stroke-width:1.2;stroke-linecap:round;stroke-linejoin:round"
     d="m 11.866718,8.9797555 c -0.422682,1.866e-4 -0.809299,0.2552268 -0.99961,0.6597654 L 7.1874202,15.643037 C 6.8167636,16.439993 7.356247,17.37756 8.1870298,17.379756 H 15.54992 c 0.830784,-0.0022 1.370266,-0.939763 0.99961,-1.736719 L 12.871014,9.6395209 C 12.67982,9.2330929 12.291366,8.9777227 11.866718,8.9797555 Z m 0,0.6 c 7.8e-4,1.8e-6 0.0016,1.8e-6 0.0023,0 0.182169,-8.4e-4 0.360445,0.1049376 0.459375,0.3152346 0.0055,0.011514 0.01136,0.022848 0.01758,0.033984 l 3.659767,5.9718749 c 0.196479,0.430533 -0.07928,0.877894 -0.458203,0.878906 H 8.1882016 8.1870298 C 7.8079444,16.777895 7.5326476,16.329403 7.7311702,15.898505 L 11.392108,9.9289747 c 0.0062,-0.011136 0.01208,-0.02247 0.01758,-0.033984 0.09846,-0.2093004 0.27573,-0.3151548 0.457031,-0.3152346 z"
     sodipodi:nodetypes="ccccccccccccccccccccc" />
</svg>
