<?xml version="1.0" encoding="UTF-8"?>
<svg xmlns="http://www.w3.org/2000/svg" xmlns:xlink="http://www.w3.org/1999/xlink" width="24px" height="24px" viewBox="0 0 24 24" version="1.1">
<defs>
<linearGradient id="linear0" gradientUnits="userSpaceOnUse" x1="0.529167" y1="8.466667" x2="15.345833" y2="8.466667" gradientTransform="matrix(1.605827,0,0,1.559055,-0.746249,0.45)">
<stop offset="0" style="stop-color:rgb(100%,25.098039%,25.098039%);stop-opacity:1;"/>
<stop offset="1" style="stop-color:rgb(83.529412%,0%,0%);stop-opacity:1;"/>
</linearGradient>
<linearGradient id="linear1" gradientUnits="userSpaceOnUse" x1="11.641666" y1="3.175" x2="16.404167" y2="3.175" gradientTransform="matrix(1.605827,0,0,1.559055,-2.445749,-0.375)">
<stop offset="0" style="stop-color:rgb(84.705882%,37.254902%,37.254902%);stop-opacity:1;"/>
<stop offset="1" style="stop-color:rgb(84.313725%,33.333333%,33.333333%);stop-opacity:1;"/>
</linearGradient>
</defs>
<g id="surface1">
<path style=" stroke:none;fill-rule:nonzero;fill:url(#linear0);" d="M 1.753906 3.75 L 22.246094 3.75 C 23.15625 3.75 23.898438 4.488281 23.898438 5.398438 L 23.898438 19.425781 C 23.898438 20.335938 23.15625 21.074219 22.246094 21.074219 L 1.753906 21.074219 C 0.84375 21.074219 0.101562 20.335938 0.101562 19.425781 L 0.101562 5.398438 C 0.101562 4.488281 0.84375 3.75 1.753906 3.75 Z M 1.753906 3.75 "/>
<path style=" stroke:none;fill-rule:nonzero;fill:rgb(92.941176%,74.509804%,74.901961%);fill-opacity:1;" d="M 1.804688 2.925781 L 22.195312 2.925781 C 23.136719 2.925781 23.898438 3.660156 23.898438 4.574219 L 23.898438 6.226562 L 0.101562 6.226562 L 0.101562 4.574219 C 0.101562 3.660156 0.863281 2.925781 1.804688 2.925781 Z M 1.804688 2.925781 "/>
<path style=" stroke:none;fill-rule:nonzero;fill:rgb(89.019608%,52.54902%,53.333333%);fill-opacity:1;" d="M 8.175781 2.925781 L 16.25 2.925781 L 16.25 6.226562 L 8.175781 6.226562 Z M 8.175781 2.925781 "/>
<path style=" stroke:none;fill-rule:nonzero;fill:url(#linear1);" d="M 16.25 2.925781 L 22.195312 2.925781 C 23.136719 2.925781 23.898438 3.660156 23.898438 4.574219 L 23.898438 6.226562 L 16.25 6.226562 Z M 16.25 2.925781 "/>
<path style=" stroke:none;fill-rule:nonzero;fill:rgb(92.941176%,74.509804%,74.901961%);fill-opacity:1;" d="M 13.238281 16.125 L 19.835938 16.125 C 20.066406 16.125 20.25 16.308594 20.25 16.539062 L 20.25 18.1875 C 20.25 18.417969 20.066406 18.601562 19.835938 18.601562 L 13.238281 18.601562 C 13.007812 18.601562 12.824219 18.417969 12.824219 18.1875 L 12.824219 16.539062 C 12.824219 16.308594 13.007812 16.125 13.238281 16.125 Z M 13.238281 16.125 "/>
<path style=" stroke:none;fill-rule:nonzero;fill:rgb(89.019608%,52.54902%,53.333333%);fill-opacity:1;" d="M 10.222656 13.246094 L 5.308594 17.914062 C 5.136719 18.074219 4.863281 18.074219 4.695312 17.914062 L 3.464844 16.746094 C 3.296875 16.585938 3.296875 16.324219 3.464844 16.164062 L 8.378906 11.496094 C 8.550781 11.335938 8.824219 11.335938 8.992188 11.496094 L 10.222656 12.664062 C 10.390625 12.824219 10.390625 13.085938 10.222656 13.246094 Z M 10.222656 13.246094 "/>
<path style=" stroke:none;fill-rule:nonzero;fill:rgb(92.941176%,74.509804%,74.901961%);fill-opacity:1;" d="M 5.308594 7.996094 L 10.222656 12.664062 C 10.390625 12.824219 10.390625 13.085938 10.222656 13.246094 L 8.992188 14.414062 C 8.824219 14.574219 8.550781 14.574219 8.378906 14.414062 L 3.464844 9.746094 C 3.296875 9.585938 3.296875 9.324219 3.464844 9.164062 L 4.695312 7.996094 C 4.863281 7.835938 5.136719 7.835938 5.308594 7.996094 Z M 5.308594 7.996094 "/>
</g>
</svg>
