<?xml version="1.0" encoding="UTF-8"?>
<svg xmlns="http://www.w3.org/2000/svg" xmlns:xlink="http://www.w3.org/1999/xlink" width="24px" height="24px" viewBox="0 0 24 24" version="1.1">
<defs>
<linearGradient id="linear0" gradientUnits="userSpaceOnUse" x1="0.529167" y1="8.466667" x2="15.345833" y2="8.466667" gradientTransform="matrix(1.605827,0,0,1.559055,-0.746249,0.45)">
<stop offset="0" style="stop-color:rgb(30.980392%,30.980392%,30.980392%);stop-opacity:1;"/>
<stop offset="1" style="stop-color:rgb(18.823529%,18.823529%,18.823529%);stop-opacity:1;"/>
</linearGradient>
<linearGradient id="linear1" gradientUnits="userSpaceOnUse" x1="0.529167" y1="3.175" x2="5.820834" y2="3.175" gradientTransform="matrix(1.605827,0,0,1.559055,-0.746249,-0.375)">
<stop offset="0" style="stop-color:rgb(80%,80%,80%);stop-opacity:1;"/>
<stop offset="1" style="stop-color:rgb(81.176471%,81.176471%,81.176471%);stop-opacity:1;"/>
</linearGradient>
<linearGradient id="linear2" gradientUnits="userSpaceOnUse" x1="5.820833" y1="3.175" x2="11.1125" y2="3.175" gradientTransform="matrix(1.525535,0,0,1.559055,-0.703764,-0.375)">
<stop offset="0" style="stop-color:rgb(59.215686%,59.215686%,59.215686%);stop-opacity:1;"/>
<stop offset="1" style="stop-color:rgb(60%,60%,60%);stop-opacity:1;"/>
</linearGradient>
<linearGradient id="linear3" gradientUnits="userSpaceOnUse" x1="11.641666" y1="3.175" x2="16.404167" y2="3.175" gradientTransform="matrix(1.605827,0,0,1.559055,-2.445749,-0.375)">
<stop offset="0" style="stop-color:rgb(38.039216%,38.039216%,38.039216%);stop-opacity:1;"/>
<stop offset="1" style="stop-color:rgb(38.823529%,38.823529%,38.823529%);stop-opacity:1;"/>
</linearGradient>
<linearGradient id="linear4" gradientUnits="userSpaceOnUse" x1="7.825386" y1="10.813717" x2="12.587885" y2="11.872049" gradientTransform="matrix(1.559055,0,0,1.559055,0.624793,-0.32168)">
<stop offset="0" style="stop-color:rgb(80%,80%,80%);stop-opacity:1;"/>
<stop offset="1" style="stop-color:rgb(81.176471%,81.176471%,81.176471%);stop-opacity:1;"/>
</linearGradient>
<linearGradient id="linear5" gradientUnits="userSpaceOnUse" x1="1.818235" y1="13.25029" x2="6.580736" y2="14.308622" gradientTransform="matrix(-1.160875,1.102418,-1.160875,-1.102418,27.715052,25.266003)">
<stop offset="0" style="stop-color:rgb(59.215686%,59.215686%,59.215686%);stop-opacity:1;"/>
<stop offset="1" style="stop-color:rgb(60%,60%,60%);stop-opacity:1;"/>
</linearGradient>
<linearGradient id="linear6" gradientUnits="userSpaceOnUse" x1="2.116667" y1="8.516664" x2="6.879167" y2="9.574997" gradientTransform="matrix(1.160875,1.102418,-1.160875,1.102418,12.123309,-3.726186)">
<stop offset="0" style="stop-color:rgb(80%,80%,80%);stop-opacity:1;"/>
<stop offset="1" style="stop-color:rgb(81.176471%,81.176471%,81.176471%);stop-opacity:1;"/>
</linearGradient>
</defs>
<g id="surface1">
<path style=" stroke:none;fill-rule:nonzero;fill:url(#linear0);" d="M 1.753906 3.75 L 22.246094 3.75 C 23.15625 3.75 23.898438 4.488281 23.898438 5.398438 L 23.898438 19.425781 C 23.898438 20.335938 23.15625 21.074219 22.246094 21.074219 L 1.753906 21.074219 C 0.84375 21.074219 0.101562 20.335938 0.101562 19.425781 L 0.101562 5.398438 C 0.101562 4.488281 0.84375 3.75 1.753906 3.75 Z M 1.753906 3.75 "/>
<path style=" stroke:none;fill-rule:nonzero;fill:url(#linear1);" d="M 1.804688 2.925781 L 22.195312 2.925781 C 23.136719 2.925781 23.898438 3.660156 23.898438 4.574219 L 23.898438 6.226562 L 0.101562 6.226562 L 0.101562 4.574219 C 0.101562 3.660156 0.863281 2.925781 1.804688 2.925781 Z M 1.804688 2.925781 "/>
<path style=" stroke:none;fill-rule:nonzero;fill:url(#linear2);" d="M 8.175781 2.925781 L 16.25 2.925781 L 16.25 6.226562 L 8.175781 6.226562 Z M 8.175781 2.925781 "/>
<path style=" stroke:none;fill-rule:nonzero;fill:url(#linear3);" d="M 16.25 2.925781 L 22.195312 2.925781 C 23.136719 2.925781 23.898438 3.660156 23.898438 4.574219 L 23.898438 6.226562 L 16.25 6.226562 Z M 16.25 2.925781 "/>
<path style=" stroke:none;fill-rule:nonzero;fill:url(#linear4);" d="M 13.238281 16.125 L 19.835938 16.125 C 20.066406 16.125 20.25 16.308594 20.25 16.539062 L 20.25 18.1875 C 20.25 18.417969 20.066406 18.601562 19.835938 18.601562 L 13.238281 18.601562 C 13.007812 18.601562 12.824219 18.417969 12.824219 18.1875 L 12.824219 16.539062 C 12.824219 16.308594 13.007812 16.125 13.238281 16.125 Z M 13.238281 16.125 "/>
<path style=" stroke:none;fill-rule:nonzero;fill:url(#linear5);" d="M 10.222656 13.246094 L 5.308594 17.914062 C 5.136719 18.074219 4.863281 18.074219 4.695312 17.914062 L 3.464844 16.746094 C 3.296875 16.585938 3.296875 16.324219 3.464844 16.164062 L 8.378906 11.496094 C 8.550781 11.335938 8.824219 11.335938 8.992188 11.496094 L 10.222656 12.664062 C 10.390625 12.824219 10.390625 13.085938 10.222656 13.246094 Z M 10.222656 13.246094 "/>
<path style=" stroke:none;fill-rule:nonzero;fill:url(#linear6);" d="M 5.308594 7.996094 L 10.222656 12.664062 C 10.390625 12.824219 10.390625 13.085938 10.222656 13.246094 L 8.992188 14.414062 C 8.824219 14.574219 8.550781 14.574219 8.378906 14.414062 L 3.464844 9.746094 C 3.296875 9.585938 3.296875 9.324219 3.464844 9.164062 L 4.695312 7.996094 C 4.863281 7.835938 5.136719 7.835938 5.308594 7.996094 Z M 5.308594 7.996094 "/>
</g>
</svg>
