<?xml version="1.0" encoding="UTF-8"?>
<svg xmlns="http://www.w3.org/2000/svg" xmlns:xlink="http://www.w3.org/1999/xlink" width="16px" height="16px" viewBox="0 0 16 16" version="1.1">
<g id="surface1">
<path style=" stroke:none;fill-rule:nonzero;fill:rgb(87.843137%,74.117647%,9.803922%);fill-opacity:1;" d="M 4.5 1.265625 C 4.898438 1.265625 5.222656 1.660156 5.222656 2.144531 L 5.222656 13.871094 C 5.222656 14.355469 4.898438 14.746094 4.5 14.746094 C 4.101562 14.746094 3.78125 14.355469 3.78125 13.871094 L 3.78125 2.144531 C 3.78125 1.660156 4.101562 1.265625 4.5 1.265625 Z M 4.5 1.265625 "/>
<path style=" stroke:none;fill-rule:nonzero;fill:rgb(87.843137%,74.117647%,9.803922%);fill-opacity:1;" d="M 11.5 1.265625 C 11.898438 1.265625 12.214844 1.65625 12.214844 2.140625 L 12.214844 13.894531 C 12.214844 14.378906 11.898438 14.773438 11.5 14.773438 C 11.105469 14.773438 10.785156 14.378906 10.785156 13.894531 L 10.785156 2.140625 C 10.785156 1.65625 11.105469 1.265625 11.5 1.265625 Z M 11.5 1.265625 "/>
</g>
</svg>
