<?xml version="1.0" encoding="UTF-8"?>
<svg xmlns="http://www.w3.org/2000/svg" xmlns:xlink="http://www.w3.org/1999/xlink" width="24px" height="24px" viewBox="0 0 24 24" version="1.1">
<g id="surface1">
<path style=" stroke:none;fill-rule:nonzero;fill:rgb(70.196078%,4.313725%,0%);fill-opacity:1;" d="M 1.5 9.101562 C 1.5 6.441406 1.5 5.109375 2.019531 4.09375 C 2.472656 3.199219 3.199219 2.472656 4.09375 2.019531 C 5.109375 1.5 6.441406 1.5 9.101562 1.5 L 14.898438 1.5 C 17.558594 1.5 18.890625 1.5 19.90625 2.019531 C 20.800781 2.472656 21.527344 3.199219 21.980469 4.09375 C 22.5 5.109375 22.5 6.441406 22.5 9.101562 L 22.5 14.898438 C 22.5 17.558594 22.5 18.890625 21.980469 19.90625 C 21.527344 20.800781 20.800781 21.527344 19.90625 21.980469 C 18.890625 22.5 17.558594 22.5 14.898438 22.5 L 9.101562 22.5 C 6.441406 22.5 5.109375 22.5 4.09375 21.980469 C 3.199219 21.527344 2.472656 20.800781 2.019531 19.90625 C 1.5 18.890625 1.5 17.558594 1.5 14.898438 Z M 1.5 9.101562 "/>
<path style=" stroke:none;fill-rule:nonzero;fill:rgb(100%,100%,100%);fill-opacity:1;" d="M 18.03125 13.421875 C 17.050781 12.347656 14.378906 12.820312 13.730469 12.886719 C 12.816406 11.945312 12.171875 10.878906 11.910156 10.476562 C 12.238281 9.46875 12.5 8.332031 12.5 7.257812 C 12.5 6.25 12.105469 5.25 11.066406 5.25 C 10.675781 5.25 10.347656 5.453125 10.152344 5.789062 C 9.695312 6.59375 9.890625 8.199219 10.609375 9.871094 C 10.21875 11.078125 9.566406 12.886719 8.789062 14.289062 C 7.742188 14.691406 5.460938 15.757812 5.265625 16.96875 C 5.203125 17.304688 5.332031 17.707031 5.59375 17.910156 C 5.855469 18.175781 6.183594 18.246094 6.507812 18.246094 C 7.875 18.246094 9.246094 16.304688 10.226562 14.558594 C 11.011719 14.289062 12.246094 13.886719 13.488281 13.683594 C 14.917969 15.027344 16.222656 15.222656 16.878906 15.222656 C 17.792969 15.222656 18.121094 14.816406 18.242188 14.480469 C 18.414062 14.164062 18.292969 13.691406 18.03125 13.421875 Z M 17.113281 14.09375 C 17.050781 14.363281 16.722656 14.632812 16.132812 14.5 C 15.414062 14.296875 14.769531 13.960938 14.246094 13.492188 C 14.703125 13.421875 15.808594 13.289062 16.59375 13.421875 C 16.851562 13.492188 17.179688 13.691406 17.113281 14.09375 Z M 10.789062 6.054688 C 10.855469 5.921875 10.988281 5.855469 11.117188 5.855469 C 11.445312 5.855469 11.507812 6.257812 11.507812 6.59375 C 11.445312 7.402344 11.3125 8.265625 11.050781 9.003906 C 10.527344 7.535156 10.59375 6.460938 10.789062 6.054688 Z M 10.726562 13.625 C 11.050781 13.019531 11.445312 11.886719 11.574219 11.484375 C 11.902344 12.085938 12.488281 12.757812 12.75 13.085938 C 12.816406 13.027344 11.640625 13.289062 10.726562 13.625 Z M 8.511719 15.171875 C 7.605469 16.640625 6.753906 17.582031 6.230469 17.582031 C 6.164062 17.582031 6.035156 17.582031 5.96875 17.515625 C 5.902344 17.378906 5.839844 17.246094 5.902344 17.109375 C 5.96875 16.574219 7.015625 15.835938 8.511719 15.171875 Z M 8.511719 15.171875 "/>
</g>
</svg>
