<?xml version="1.0" encoding="UTF-8"?>
<svg xmlns="http://www.w3.org/2000/svg" xmlns:xlink="http://www.w3.org/1999/xlink" width="24px" height="24px" viewBox="0 0 24 24" version="1.1">
<g id="surface1">
<path style=" stroke:none;fill-rule:nonzero;fill:rgb(100%,100%,100%);fill-opacity:1;" d="M 24 12 C 24 18.628906 18.628906 24 12 24 C 5.371094 24 0 18.628906 0 12 C 0 5.371094 5.371094 0 12 0 C 18.628906 0 24 5.371094 24 12 Z M 24 12 "/>
<path style=" stroke:none;fill-rule:nonzero;fill:rgb(40.392157%,20%,59.607843%);fill-opacity:1;" d="M 12.179688 0 L 12.28125 0 L 11.957031 0.03125 C 13.976562 0.0429688 15.996094 0.53125 17.761719 1.503906 C 20.058594 2.746094 21.925781 4.757812 22.980469 7.140625 C 23.671875 8.691406 24.035156 10.394531 23.996094 12.09375 C 24.007812 14.851562 22.96875 17.589844 21.179688 19.691406 C 18.59375 20.015625 15.917969 20.214844 13.375 19.539062 C 11.863281 19.164062 10.519531 18.195312 9.660156 16.910156 C 8.789062 15.371094 9.085938 13.246094 10.410156 12.050781 C 11.332031 11.21875 12.660156 10.859375 13.878906 11.132812 C 14.953125 11.351562 15.910156 12.046875 16.464844 12.992188 C 17.003906 12.710938 17.539062 12.421875 18.078125 12.140625 C 17.699219 11.503906 17.226562 10.910156 16.640625 10.449219 C 15.652344 9.671875 14.402344 9.25 13.144531 9.214844 C 11.957031 9.199219 10.761719 9.554688 9.78125 10.230469 C 7.792969 11.578125 6.808594 14.246094 7.496094 16.546875 C 7.9375 18.105469 9.085938 19.386719 10.433594 20.257812 C 11.5 20.941406 12.738281 21.3125 13.980469 21.535156 C 15.6875 21.835938 17.429688 21.726562 19.144531 21.582031 C 18.972656 21.757812 18.714844 21.746094 18.488281 21.785156 C 16.65625 22.058594 14.769531 22.066406 12.957031 21.640625 C 11.222656 21.242188 9.570312 20.390625 8.335938 19.097656 C 6.523438 17.148438 6.101562 13.984375 7.523438 11.707031 C 8.269531 10.492188 9.359375 9.449219 10.714844 8.953125 C 12.195312 8.40625 13.882812 8.410156 15.355469 8.984375 C 15.597656 8.425781 15.859375 7.875 16.097656 7.3125 C 13.667969 6.328125 10.765625 6.582031 8.5625 8.003906 C 7.351562 8.777344 6.359375 9.867188 5.636719 11.101562 C 4.832031 12.519531 4.570312 14.210938 4.816406 15.816406 C 5.140625 17.980469 6.328125 20.003906 8.070312 21.339844 C 8.917969 22.003906 9.917969 22.453125 10.949219 22.753906 C 12.28125 23.148438 13.667969 23.320312 15.054688 23.351562 C 15.253906 23.355469 15.449219 23.363281 15.644531 23.386719 C 15.367188 23.53125 15.042969 23.488281 14.738281 23.496094 C 13.09375 23.53125 11.433594 23.277344 9.890625 22.703125 C 8.714844 22.261719 7.605469 21.605469 6.734375 20.699219 C 5.820312 19.792969 5.050781 18.726562 4.605469 17.515625 C 4.082031 16.082031 3.917969 14.511719 4.199219 13.007812 C 4.539062 11.222656 5.5625 9.617188 6.90625 8.40625 C 8.515625 6.941406 10.691406 6.109375 12.875 6.148438 C 12.875 5.535156 12.875 4.917969 12.875 4.304688 C 10.992188 4.304688 9.109375 4.796875 7.480469 5.742188 C 5.332031 6.984375 3.640625 8.988281 2.742188 11.292969 C 2.085938 13.023438 1.839844 14.945312 2.285156 16.757812 C 2.796875 18.96875 4.210938 20.9375 6.101562 22.195312 C 6.394531 22.410156 6.730469 22.5625 7.019531 22.785156 C 6.886719 22.777344 6.75 22.761719 6.632812 22.695312 C 6.023438 22.40625 5.453125 22.039062 4.910156 21.640625 C 3.9375 20.90625 3.019531 20.078125 2.324219 19.074219 C 1.449219 17.867188 0.761719 16.519531 0.382812 15.082031 C 0.0234375 13.75 -0.0585938 12.359375 0.0351562 10.984375 C 0.265625 8.046875 1.65625 5.21875 3.839844 3.222656 C 5.613281 1.582031 7.894531 0.492188 10.296875 0.160156 C 10.917969 0.0625 11.554688 0.0703125 12.179688 0 Z M 12.179688 0 "/>
</g>
</svg>
