<?xml version="1.0" encoding="UTF-8"?>
<svg xmlns="http://www.w3.org/2000/svg" xmlns:xlink="http://www.w3.org/1999/xlink" width="24px" height="24px" viewBox="0 0 24 24" version="1.1">
<defs>
<linearGradient id="linear0" gradientUnits="userSpaceOnUse" x1="3.177519" y1="3.177519" x2="9.522481" y2="9.522481" gradientTransform="matrix(2.667902,0,0,2.667902,-4.941176,-4.941176)">
<stop offset="0" style="stop-color:rgb(0.784314%,45.882353%,80.784314%);stop-opacity:1;"/>
<stop offset="1" style="stop-color:rgb(8.235294%,30.980392%,54.901961%);stop-opacity:1;"/>
</linearGradient>
<linearGradient id="linear1" gradientUnits="userSpaceOnUse" x1="3.177519" y1="3.177519" x2="9.522481" y2="9.522481" gradientTransform="matrix(2.667902,0,0,2.667902,-4.941176,-4.941176)">
<stop offset="0" style="stop-color:rgb(27.058824%,68.627451%,92.156863%);stop-opacity:1;"/>
<stop offset="1" style="stop-color:rgb(0%,39.607843%,76.078431%);stop-opacity:1;"/>
</linearGradient>
<linearGradient id="linear2" gradientUnits="userSpaceOnUse" x1="2.357422" y1="2.357422" x2="13.642578" y2="13.642578" gradientTransform="matrix(1.5,0,0,1.5,0,0)">
<stop offset="0" style="stop-color:rgb(64.313725%,84.313725%,92.941176%);stop-opacity:1;"/>
<stop offset="1" style="stop-color:rgb(39.607843%,69.411765%,89.803922%);stop-opacity:1;"/>
</linearGradient>
<linearGradient id="linear3" gradientUnits="userSpaceOnUse" x1="13.642578" y1="13.642578" x2="2.357422" y2="2.357422" gradientTransform="matrix(1.5,0,0,1.5,0,0)">
<stop offset="0" style="stop-color:rgb(78.039216%,80%,81.960784%);stop-opacity:1;"/>
<stop offset="1" style="stop-color:rgb(99.215686%,99.215686%,99.215686%);stop-opacity:1;"/>
</linearGradient>
<linearGradient id="linear4" gradientUnits="userSpaceOnUse" x1="5" y1="5" x2="11" y2="11" gradientTransform="matrix(1.5,0,0,1.5,0,0)">
<stop offset="0" style="stop-color:rgb(14.901961%,67.843137%,91.372549%);stop-opacity:1;"/>
<stop offset="1" style="stop-color:rgb(1.960784%,50.196078%,84.705882%);stop-opacity:1;"/>
</linearGradient>
</defs>
<g id="surface1">
<path style=" stroke:none;fill-rule:nonzero;fill:url(#linear0);" d="M 12 0 C 7.558594 0 3.683594 2.414062 1.609375 6 L 2 13 L 6.804688 15 L 12 12 L 12 6 L 22.390625 6 C 20.316406 2.414062 16.441406 0 12 0 Z M 12 0 "/>
<path style=" stroke:none;fill-rule:nonzero;fill:url(#linear1);" d="M 0 12 C 0 18.628906 5.371094 24 12 24 L 17.261719 21.1875 L 17.195312 15 L 12 12 L 6.804688 15 L 1.609375 6 C 0.585938 7.765625 0 9.8125 0 12 "/>
<path style=" stroke:none;fill-rule:nonzero;fill:url(#linear2);" d="M 12 12 L 17.195312 15 L 12 24 C 18.628906 24 24 18.628906 24 12 C 24 9.8125 23.414062 7.765625 22.390625 6 L 12 6 Z M 12 12 "/>
<path style=" stroke:none;fill-rule:nonzero;fill:url(#linear3);" d="M 18 12 C 18 8.6875 15.3125 6 12 6 C 8.6875 6 6 8.6875 6 12 C 6 15.3125 8.6875 18 12 18 C 15.3125 18 18 15.3125 18 12 Z M 18 12 "/>
<path style=" stroke:none;fill-rule:nonzero;fill:url(#linear4);" d="M 16.5 12 C 16.5 14.484375 14.484375 16.5 12 16.5 C 9.515625 16.5 7.5 14.484375 7.5 12 C 7.5 9.515625 9.515625 7.5 12 7.5 C 14.484375 7.5 16.5 9.515625 16.5 12 Z M 16.5 12 "/>
</g>
</svg>
