<?xml version="1.0" encoding="UTF-8"?>
<svg xmlns="http://www.w3.org/2000/svg" xmlns:xlink="http://www.w3.org/1999/xlink" width="24px" height="24px" viewBox="0 0 24 24" version="1.1">
<defs>
<linearGradient id="linear0" gradientUnits="userSpaceOnUse" x1="3.2173" y1="15" x2="44.7812" y2="15" gradientTransform="matrix(-0.25,0.433013,-0.433013,-0.25,28.392305,7.607695)">
<stop offset="0" style="stop-color:rgb(85.098039%,18.823529%,14.509804%);stop-opacity:1;"/>
<stop offset="1" style="stop-color:rgb(91.764706%,26.27451%,20.784314%);stop-opacity:1;"/>
</linearGradient>
<linearGradient id="linear1" gradientUnits="userSpaceOnUse" x1="20.7219" y1="47.6791" x2="41.5039" y2="11.6837" gradientTransform="matrix(-0.25,-0.433013,0.433013,-0.25,7.607695,28.392305)">
<stop offset="0" style="stop-color:rgb(98.823529%,78.823529%,20.392157%);stop-opacity:1;"/>
<stop offset="1" style="stop-color:rgb(98.431373%,73.72549%,1.568627%);stop-opacity:1;"/>
</linearGradient>
<linearGradient id="linear2" gradientUnits="userSpaceOnUse" x1="26.5981" y1="46.5015" x2="5.8161" y2="10.506" gradientTransform="matrix(0.5,0,0,0.5,0,0)">
<stop offset="0" style="stop-color:rgb(11.764706%,55.686275%,24.313725%);stop-opacity:1;"/>
<stop offset="1" style="stop-color:rgb(20.392157%,65.882353%,32.54902%);stop-opacity:1;"/>
</linearGradient>
</defs>
<g id="surface1">
<path style=" stroke:none;fill-rule:nonzero;fill:url(#linear0);" d="M 12 6 L 22.390625 6 C 20.246094 2.285156 16.285156 0 11.996094 0 C 7.710938 0 3.75 2.289062 1.605469 6 L 6.800781 15 L 6.808594 15 C 5.730469 13.144531 5.730469 10.855469 6.800781 8.996094 C 7.871094 7.140625 9.855469 5.996094 12 6 Z M 12 6 "/>
<path style=" stroke:none;fill-rule:nonzero;fill:url(#linear1);" d="M 17.199219 15 L 12 23.996094 C 16.289062 23.996094 20.25 21.710938 22.394531 18 C 24.535156 14.285156 24.535156 9.710938 22.390625 6 L 12 6 L 12 6.003906 C 14.144531 6 16.128906 7.140625 17.199219 9 C 18.273438 10.855469 18.273438 13.144531 17.199219 15 Z M 17.199219 15 "/>
<path style=" stroke:none;fill-rule:nonzero;fill:url(#linear2);" d="M 6.804688 15 L 1.609375 6.003906 C -0.535156 9.714844 -0.535156 14.289062 1.609375 18.003906 C 3.753906 21.714844 7.714844 24 12 24 L 17.195312 15 L 17.191406 15 C 16.125 16.855469 14.144531 18.003906 12 18.003906 C 9.855469 18.003906 7.875 16.859375 6.804688 15 Z M 6.804688 15 "/>
<path style=" stroke:none;fill-rule:nonzero;fill:rgb(100%,100%,100%);fill-opacity:1;" d="M 18 12 C 18 15.3125 15.3125 18 12 18 C 8.6875 18 6 15.3125 6 12 C 6 8.6875 8.6875 6 12 6 C 15.3125 6 18 8.6875 18 12 Z M 18 12 "/>
<path style=" stroke:none;fill-rule:nonzero;fill:rgb(10.196078%,45.098039%,90.980392%);fill-opacity:1;" d="M 16.75 12 C 16.75 14.625 14.625 16.75 12 16.75 C 9.375 16.75 7.25 14.625 7.25 12 C 7.25 9.375 9.375 7.25 12 7.25 C 14.625 7.25 16.75 9.375 16.75 12 Z M 16.75 12 "/>
</g>
</svg>
