<?xml version="1.0" encoding="UTF-8"?>
<svg xmlns="http://www.w3.org/2000/svg" xmlns:xlink="http://www.w3.org/1999/xlink" width="24px" height="24px" viewBox="0 0 24 24" version="1.1">
<defs>
<clipPath id="clip2">
  <path d="M 2 3 L 22 3 L 22 22 L 2 22 Z M 2 3 "/>
</clipPath>
<clipPath id="clip3">
  <path d="M 21.375 12.609375 C 21.375 17.785156 17.175781 21.984375 12 21.984375 C 6.824219 21.984375 2.625 17.785156 2.625 12.609375 C 2.625 7.433594 6.824219 3.234375 12 3.234375 C 17.175781 3.234375 21.375 7.433594 21.375 12.609375 Z M 21.375 12.609375 "/>
</clipPath>
<linearGradient id="linear0" gradientUnits="userSpaceOnUse" x1="112" y1="512" x2="711.8644" y2="512" gradientTransform="matrix(-0.0202975,-0.0117188,0.0117188,-0.0202975,16.392305,28.392305)">
<stop offset="0" style="stop-color:rgb(100%,100%,0%);stop-opacity:1;"/>
<stop offset="1" style="stop-color:rgb(100%,100%,0%);stop-opacity:0;"/>
</linearGradient>
<linearGradient id="linear1" gradientUnits="userSpaceOnUse" x1="112" y1="512" x2="711.8644" y2="512" gradientTransform="matrix(0.0202975,-0.0117188,0.0117188,0.0202975,-4.392305,7.607695)">
<stop offset="0" style="stop-color:rgb(0%,100%,100%);stop-opacity:1;"/>
<stop offset="1" style="stop-color:rgb(0%,100%,100%);stop-opacity:0;"/>
</linearGradient>
<linearGradient id="linear2" gradientUnits="userSpaceOnUse" x1="112" y1="512" x2="711.8644" y2="512" gradientTransform="matrix(0.000000000000000001,0.0234375,-0.0234375,0.000000000000000001,24,-0.00000000000000147)">
<stop offset="0" style="stop-color:rgb(100%,0%,100%);stop-opacity:1;"/>
<stop offset="1" style="stop-color:rgb(100%,0%,100%);stop-opacity:0;"/>
</linearGradient>
<linearGradient id="linear3" gradientUnits="userSpaceOnUse" x1="1142.588" y1="62.71332" x2="1280.895" y2="200.874" gradientTransform="matrix(0.0816669,-0.00842327,0.00842327,0.0816669,-92.871102,7.332014)">
<stop offset="0" style="stop-color:rgb(20.392157%,20.392157%,20.392157%);stop-opacity:1;"/>
<stop offset="1" style="stop-color:rgb(30.196078%,30.196078%,30.196078%);stop-opacity:1;"/>
</linearGradient>
<linearGradient id="linear4" gradientUnits="userSpaceOnUse" x1="1327.594" y1="230.8623" x2="1324.91" y2="89.86234" gradientTransform="matrix(0.000913052,0.0820951,0.0820951,-0.000913052,-4.065211,-92.793458)">
<stop offset="0" style="stop-color:rgb(33.333333%,58.823529%,91.764706%);stop-opacity:1;"/>
<stop offset="1" style="stop-color:rgb(33.333333%,58.823529%,91.764706%);stop-opacity:0;"/>
</linearGradient>
<clipPath id="clip1">
  <rect x="0" y="0" width="24" height="24"/>
</clipPath>
<g id="surface5" clip-path="url(#clip1)">
<g clip-path="url(#clip2)" clip-rule="nonzero">
<g clip-path="url(#clip3)" clip-rule="nonzero">
<path style=" stroke:none;fill-rule:nonzero;fill:rgb(0%,0%,0%);fill-opacity:0.47451;" d="M 21.527344 12.46875 C 21.527344 17.730469 17.261719 21.996094 12 21.996094 C 6.738281 21.996094 2.472656 17.730469 2.472656 12.46875 C 2.472656 7.207031 6.738281 2.941406 12 2.941406 C 17.261719 2.941406 21.527344 7.207031 21.527344 12.46875 Z M 21.527344 12.46875 "/>
</g>
</g>
<path style=" stroke:none;fill-rule:nonzero;fill:rgb(100%,100%,100%);fill-opacity:1;" d="M 21.375 12 C 21.375 17.175781 17.175781 21.375 12 21.375 C 6.824219 21.375 2.625 17.175781 2.625 12 C 2.625 6.824219 6.824219 2.625 12 2.625 C 17.175781 2.625 21.375 6.824219 21.375 12 Z M 21.375 12 "/>
<path style=" stroke:none;fill-rule:nonzero;fill:url(#linear0);" d="M 3.882812 7.3125 C 6.46875 2.828125 12.203125 1.292969 16.6875 3.882812 C 21.171875 6.46875 22.707031 12.203125 20.117188 16.6875 C 17.53125 21.171875 11.796875 22.707031 7.3125 20.117188 C 2.828125 17.53125 1.292969 11.796875 3.882812 7.3125 Z M 3.882812 7.3125 "/>
<path style=" stroke:none;fill-rule:nonzero;fill:url(#linear1);" d="M 20.117188 7.3125 C 22.707031 11.796875 21.171875 17.53125 16.6875 20.117188 C 12.203125 22.707031 6.46875 21.171875 3.882812 16.6875 C 1.292969 12.203125 2.828125 6.46875 7.3125 3.882812 C 11.796875 1.292969 17.53125 2.828125 20.117188 7.3125 Z M 20.117188 7.3125 "/>
<path style=" stroke:none;fill-rule:nonzero;fill:url(#linear2);" d="M 12 21.375 C 6.824219 21.375 2.625 17.175781 2.625 12 C 2.625 6.824219 6.824219 2.625 12 2.625 C 17.175781 2.625 21.375 6.824219 21.375 12 C 21.375 17.175781 17.175781 21.375 12 21.375 Z M 12 21.375 "/>
<path style=" stroke:none;fill-rule:nonzero;fill:rgb(0%,0%,0%);fill-opacity:0.47451;" d="M 5.265625 5.492188 C 4.726562 6.050781 4.257812 6.671875 3.867188 7.347656 C 5.238281 8.691406 6.714844 10.113281 7.316406 10.761719 C 8.335938 11.859375 10.460938 13.460938 12.007812 13.277344 C 12.617188 13.707031 14.003906 14.671875 14.464844 14.898438 C 14.457031 15.121094 14.5 15.34375 14.582031 15.566406 C 15.015625 16.78125 16.636719 17.574219 15.695312 18.867188 C 17.554688 17.742188 18.046875 15.859375 17.261719 14.519531 C 16.769531 13.679688 16.050781 13.40625 15.457031 13.605469 C 15.097656 13.203125 13.679688 12.023438 13.15625 11.59375 C 12.824219 10.09375 10.804688 8.550781 9.515625 7.878906 C 8.730469 7.46875 6.929688 6.457031 5.265625 5.492188 Z M 5.265625 5.492188 "/>
<path style=" stroke:none;fill-rule:nonzero;fill:url(#linear3);" d="M 13.175781 12.730469 C 11.671875 14.132812 8.78125 11.90625 7.5625 10.511719 C 6.308594 9.074219 1.625 4.230469 1.28125 3.917969 C 0.9375 3.601562 0.664062 3.214844 0.96875 2.828125 C 1.285156 2.453125 1.71875 2.640625 2.097656 2.910156 C 2.476562 3.179688 8.183594 6.765625 9.847656 7.695312 C 11.464844 8.601562 14.234375 10.96875 13.175781 12.730469 Z M 13.175781 12.730469 "/>
<path style=" stroke:none;fill-rule:nonzero;fill:url(#linear4);" d="M 15.585938 14.113281 C 9.722656 19.34375 4.925781 14.332031 4.183594 12.59375 C 4.625 15.609375 6.652344 18.304688 9.722656 19.34375 C 12.039062 20.125 15.734375 20.109375 17.394531 17.121094 Z M 15.585938 14.113281 "/>
<path style=" stroke:none;fill-rule:nonzero;fill:rgb(74.901961%,74.901961%,74.901961%);fill-opacity:1;" d="M 15.558594 14.605469 C 15.082031 14.824219 15.132812 14.984375 14.707031 14.914062 C 14.414062 14.867188 11.875 12.941406 11.875 12.941406 C 11.746094 12.632812 11.898438 12.207031 12.191406 11.871094 C 12.457031 11.519531 12.84375 11.277344 13.171875 11.339844 C 13.171875 11.339844 15.582031 13.429688 15.6875 13.707031 C 15.839844 14.109375 15.675781 14.089844 15.558594 14.605469 Z M 15.558594 14.605469 "/>
<path style=" stroke:none;fill-rule:nonzero;fill:rgb(15.686275%,15.686275%,15.686275%);fill-opacity:1;" d="M 15.691406 18.863281 C 17.582031 17.792969 18.132812 15.929688 17.386719 14.566406 C 16.808594 13.503906 15.851562 13.304688 15.195312 13.816406 C 14.542969 14.324219 14.484375 14.929688 14.679688 15.535156 C 15.074219 16.761719 16.675781 17.597656 15.691406 18.863281 Z M 15.691406 18.863281 "/>
</g>
</defs>
<g id="surface1">
<use xlink:href="#surface5"/>
</g>
</svg>
