<?xml version="1.0" encoding="UTF-8"?>
<svg xmlns="http://www.w3.org/2000/svg" xmlns:xlink="http://www.w3.org/1999/xlink" width="24px" height="23px" viewBox="0 0 23 23" version="1.1">
<g id="surface1">
<path style=" stroke:none;fill-rule:nonzero;fill:rgb(12.941176%,63.921569%,40%);fill-opacity:1;" d="M 14.28125 1.425781 L 6.84375 1.425781 C 6.328125 1.425781 5.910156 1.851562 5.910156 2.382812 L 5.910156 6.453125 L 14.28125 11.480469 L 18.464844 13.296875 L 22.652344 11.480469 L 22.652344 6.453125 L 14.28125 1.425781 "/>
<path style=" stroke:none;fill-rule:nonzero;fill:rgb(6.27451%,48.627451%,25.490196%);fill-opacity:1;" d="M 5.910156 11.460938 L 14.269531 11.460938 L 14.269531 6.457031 L 5.910156 6.457031 L 5.910156 11.460938 "/>
<path style=" stroke:none;fill-rule:nonzero;fill:rgb(20%,76.862745%,50.588235%);fill-opacity:1;" d="M 21.722656 1.425781 L 14.292969 1.425781 L 14.292969 6.429688 L 22.652344 6.429688 L 22.652344 2.378906 C 22.652344 1.851562 22.234375 1.425781 21.722656 1.425781 "/>
<path style=" stroke:none;fill-rule:nonzero;fill:rgb(9.411765%,36.078431%,21.568627%);fill-opacity:1;" d="M 14.28125 11.488281 L 5.910156 11.488281 L 5.910156 20.566406 C 5.910156 20.820312 6.007812 21.0625 6.183594 21.242188 C 6.359375 21.421875 6.59375 21.523438 6.84375 21.523438 L 21.71875 21.523438 C 21.96875 21.523438 22.203125 21.421875 22.378906 21.242188 C 22.550781 21.0625 22.652344 20.820312 22.652344 20.566406 L 22.652344 16.503906 L 14.28125 11.488281 "/>
<path style=" stroke:none;fill-rule:nonzero;fill:rgb(6.27451%,48.627451%,25.490196%);fill-opacity:1;" d="M 14.292969 16.492188 L 22.652344 16.492188 L 22.652344 11.488281 L 14.292969 11.488281 L 14.292969 16.492188 "/>
<path style=" stroke:none;fill-rule:nonzero;fill:rgb(0%,0%,0%);fill-opacity:0.101961;" d="M 11.945312 5.019531 L 5.910156 5.019531 L 5.910156 18.648438 L 11.945312 18.648438 C 12.457031 18.644531 12.871094 18.21875 12.871094 17.691406 L 12.871094 5.976562 C 12.871094 5.445312 12.457031 5.019531 11.945312 5.019531 "/>
<path style=" stroke:none;fill-rule:nonzero;fill:rgb(0%,0%,0%);fill-opacity:0.2;" d="M 11.246094 5.738281 L 5.910156 5.738281 L 5.910156 19.367188 L 11.246094 19.367188 C 11.757812 19.363281 12.171875 18.9375 12.171875 18.410156 L 12.171875 6.695312 C 12.171875 6.164062 11.757812 5.738281 11.246094 5.738281 "/>
<path style=" stroke:none;fill-rule:nonzero;fill:rgb(0%,0%,0%);fill-opacity:0.2;" d="M 11.246094 5.738281 L 5.910156 5.738281 L 5.910156 17.929688 L 11.246094 17.929688 C 11.757812 17.925781 12.171875 17.5 12.171875 16.972656 L 12.171875 6.691406 C 12.171875 6.164062 11.757812 5.738281 11.246094 5.738281 "/>
<path style=" stroke:none;fill-rule:nonzero;fill:rgb(0%,0%,0%);fill-opacity:0.2;" d="M 10.546875 5.738281 L 5.910156 5.738281 L 5.910156 17.929688 L 10.546875 17.929688 C 11.058594 17.925781 11.472656 17.5 11.472656 16.972656 L 11.472656 6.691406 C 11.472656 6.164062 11.058594 5.738281 10.546875 5.738281 "/>
<path style=" stroke:none;fill-rule:nonzero;fill:rgb(6.27451%,48.627451%,25.490196%);fill-opacity:1;" d="M 1.277344 5.738281 L 10.570312 5.738281 C 10.816406 5.738281 11.054688 5.835938 11.226562 6.015625 C 11.402344 6.195312 11.5 6.4375 11.5 6.691406 L 11.5 16.253906 C 11.5 16.507812 11.402344 16.75 11.226562 16.929688 C 11.054688 17.109375 10.816406 17.210938 10.570312 17.210938 L 1.277344 17.210938 C 1.03125 17.210938 0.796875 17.109375 0.621094 16.929688 C 0.445312 16.75 0.347656 16.507812 0.347656 16.253906 L 0.347656 6.691406 C 0.347656 6.4375 0.445312 6.195312 0.621094 6.015625 C 0.796875 5.835938 1.03125 5.738281 1.277344 5.738281 "/>
<path style=" stroke:none;fill-rule:nonzero;fill:rgb(100%,100%,100%);fill-opacity:1;" d="M 2.808594 15.054688 L 5.066406 11.464844 L 2.996094 7.894531 L 4.660156 7.894531 L 5.789062 10.175781 C 5.894531 10.390625 5.964844 10.554688 6.003906 10.660156 L 6.019531 10.660156 C 6.09375 10.488281 6.171875 10.320312 6.253906 10.15625 L 7.460938 7.894531 L 8.988281 7.894531 L 6.867188 11.441406 L 9.042969 15.054688 L 7.417969 15.054688 L 6.113281 12.546875 C 6.050781 12.441406 6 12.328125 5.957031 12.210938 L 5.9375 12.210938 C 5.898438 12.324219 5.847656 12.433594 5.785156 12.535156 L 4.441406 15.054688 L 2.808594 15.054688 "/>
</g>
</svg>
