<?xml version="1.0" encoding="UTF-8"?>
<svg xmlns="http://www.w3.org/2000/svg" xmlns:xlink="http://www.w3.org/1999/xlink" width="24px" height="23px" viewBox="0 0 23 23" version="1.1">
<g id="surface1">
<path style=" stroke:none;fill-rule:nonzero;fill:rgb(92.941176%,42.352941%,27.843137%);fill-opacity:1;" d="M 12.878906 1.425781 C 7.496094 1.441406 3.132812 5.925781 3.117188 11.46875 L 15.484375 14.148438 L 12.878906 1.425781 "/>
<path style=" stroke:none;fill-rule:nonzero;fill:rgb(100%,56.078431%,41.960784%);fill-opacity:1;" d="M 12.898438 1.425781 C 18.277344 1.441406 22.636719 5.933594 22.652344 11.476562 L 17.773438 14.894531 L 12.898438 11.476562 L 12.898438 1.425781 "/>
<path style=" stroke:none;fill-rule:nonzero;fill:rgb(82.745098%,32.156863%,18.823529%);fill-opacity:1;" d="M 12.882812 21.523438 C 18.273438 21.507812 22.636719 17.023438 22.652344 11.488281 L 3.117188 11.488281 C 3.132812 17.023438 7.496094 21.507812 12.882812 21.523438 "/>
<path style=" stroke:none;fill-rule:nonzero;fill:rgb(0%,0%,0%);fill-opacity:0.101961;" d="M 11.964844 5.019531 L 5.4375 5.019531 C 2.128906 9.027344 2.414062 14.988281 6.085938 18.648438 L 11.964844 18.648438 C 12.480469 18.648438 12.894531 18.21875 12.898438 17.691406 L 12.898438 5.976562 C 12.894531 5.445312 12.480469 5.019531 11.964844 5.019531 "/>
<path style=" stroke:none;fill-rule:nonzero;fill:rgb(0%,0%,0%);fill-opacity:0.2;" d="M 11.269531 5.738281 L 4.910156 5.738281 C 1.925781 10.09375 2.796875 16.097656 6.890625 19.367188 L 11.269531 19.367188 C 11.78125 19.363281 12.195312 18.9375 12.199219 18.410156 L 12.199219 6.695312 C 12.195312 6.164062 11.78125 5.738281 11.269531 5.738281 "/>
<path style=" stroke:none;fill-rule:nonzero;fill:rgb(0%,0%,0%);fill-opacity:0.2;" d="M 11.269531 5.738281 L 4.902344 5.738281 C 2.359375 9.449219 2.578125 14.464844 5.4375 17.929688 L 11.269531 17.929688 C 11.78125 17.925781 12.195312 17.5 12.199219 16.972656 L 12.199219 6.691406 C 12.195312 6.164062 11.78125 5.738281 11.269531 5.738281 "/>
<path style=" stroke:none;fill-rule:nonzero;fill:rgb(0%,0%,0%);fill-opacity:0.2;" d="M 10.570312 5.738281 L 4.902344 5.738281 C 2.359375 9.449219 2.578125 14.464844 5.4375 17.929688 L 10.570312 17.929688 C 11.082031 17.925781 11.496094 17.5 11.5 16.972656 L 11.5 6.691406 C 11.496094 6.164062 11.082031 5.738281 10.570312 5.738281 "/>
<path style=" stroke:none;fill-rule:nonzero;fill:rgb(76.862745%,24.313725%,10.980392%);fill-opacity:1;" d="M 1.277344 5.738281 L 10.570312 5.738281 C 10.816406 5.738281 11.054688 5.835938 11.226562 6.015625 C 11.402344 6.195312 11.5 6.4375 11.5 6.691406 L 11.5 16.253906 C 11.5 16.507812 11.402344 16.75 11.226562 16.929688 C 11.054688 17.109375 10.816406 17.210938 10.570312 17.210938 L 1.277344 17.210938 C 1.03125 17.210938 0.796875 17.109375 0.621094 16.929688 C 0.445312 16.75 0.347656 16.507812 0.347656 16.253906 L 0.347656 6.691406 C 0.347656 6.4375 0.445312 6.195312 0.621094 6.015625 C 0.796875 5.835938 1.03125 5.738281 1.277344 5.738281 "/>
<path style=" stroke:none;fill-rule:nonzero;fill:rgb(97.647059%,96.862745%,96.862745%);fill-opacity:1;" d="M 5.910156 7.894531 C 6.597656 7.84375 7.277344 8.050781 7.832031 8.46875 C 8.292969 8.890625 8.539062 9.507812 8.5 10.136719 C 8.507812 10.542969 8.390625 10.941406 8.167969 11.277344 C 7.941406 11.644531 7.617188 11.941406 7.230469 12.125 C 6.789062 12.335938 6.308594 12.4375 5.820312 12.429688 L 4.484375 12.429688 L 4.484375 15.054688 L 3.117188 15.054688 L 3.117188 7.894531 L 5.910156 7.894531 M 4.484375 11.246094 L 5.664062 11.246094 C 6.039062 11.273438 6.40625 11.160156 6.707031 10.929688 C 6.945312 10.769531 7.082031 10.488281 7.058594 10.195312 C 7.058594 9.402344 6.609375 9.003906 5.707031 9.003906 L 4.484375 9.003906 L 4.484375 11.246094 "/>
</g>
</svg>
