<?xml version="1.0" encoding="UTF-8"?>
<svg xmlns="http://www.w3.org/2000/svg" xmlns:xlink="http://www.w3.org/1999/xlink" width="24px" height="24px" viewBox="0 0 24 24" version="1.1">
<defs>
<filter id="alpha" filterUnits="objectBoundingBox" x="0%" y="0%" width="100%" height="100%">
  <feColorMatrix type="matrix" in="SourceGraphic" values="0 0 0 0 1 0 0 0 0 1 0 0 0 0 1 0 0 0 1 0"/>
</filter>
<mask id="mask0">
  <g filter="url(#alpha)">
<rect x="0" y="0" width="24" height="24" style="fill:rgb(0%,0%,0%);fill-opacity:0.2;stroke:none;"/>
  </g>
</mask>
<clipPath id="clip1">
  <rect x="0" y="0" width="24" height="24"/>
</clipPath>
<g id="surface5" clip-path="url(#clip1)">
<path style=" stroke:none;fill-rule:nonzero;fill:rgb(0%,0%,0%);fill-opacity:1;" d="M 12.375 6.992188 C 12.375 7.03125 12.375 7.070312 12.375 7.105469 L 12.375 16.894531 C 12.375 17.550781 11.832031 18.09375 11.175781 18.09375 L 5.585938 18.09375 L 5.585938 19.164062 L 12.1875 19.164062 C 12.84375 19.164062 13.386719 18.617188 13.386719 17.960938 L 13.386719 8.175781 C 13.386719 7.574219 12.957031 7.070312 12.375 6.992188 Z M 12.375 6.992188 "/>
</g>
</defs>
<g id="surface1">
<path style=" stroke:none;fill-rule:nonzero;fill:rgb(1.176471%,51.372549%,52.941176%);fill-opacity:1;" d="M 22.835938 20.8125 L 20.585938 20.8125 L 20.585938 3.242188 L 22.835938 3.242188 C 23.382812 3.242188 23.8125 3.675781 23.8125 4.21875 L 23.8125 19.820312 C 23.8125 20.382812 23.382812 20.8125 22.835938 20.8125 Z M 22.835938 20.8125 "/>
<path style=" stroke:none;fill-rule:nonzero;fill:rgb(21.568627%,77.647059%,81.568627%);fill-opacity:1;" d="M 20.585938 12.054688 L 20.585938 2.382812 C 20.585938 1.78125 20.101562 1.3125 19.519531 1.3125 L 6.730469 1.3125 C 6.132812 1.3125 5.664062 1.800781 5.664062 2.382812 L 5.664062 12.054688 Z M 20.585938 12.054688 "/>
<path style=" stroke:none;fill-rule:nonzero;fill:rgb(1.568627%,54.117647%,55.686275%);fill-opacity:1;" d="M 5.644531 17.4375 L 5.644531 21.675781 C 5.644531 22.273438 6.132812 22.742188 6.710938 22.742188 L 19.5 22.742188 C 20.101562 22.742188 20.570312 22.257812 20.570312 21.675781 L 20.570312 17.4375 Z M 5.644531 17.4375 "/>
<path style=" stroke:none;fill-rule:nonzero;fill:rgb(10.196078%,60.784314%,63.137255%);fill-opacity:1;" d="M 5.644531 12.054688 L 20.585938 12.054688 L 20.585938 17.4375 L 5.644531 17.4375 Z M 5.644531 12.054688 "/>
<path style=" stroke:none;fill-rule:nonzero;fill:rgb(1.568627%,54.117647%,55.686275%);fill-opacity:1;" d="M 11.175781 18.09375 L 1.238281 18.09375 C 0.582031 18.09375 0.0390625 17.550781 0.0390625 16.894531 L 0.0390625 7.105469 C 0.0390625 6.449219 0.582031 5.90625 1.238281 5.90625 L 11.175781 5.90625 C 11.832031 5.90625 12.375 6.449219 12.375 7.105469 L 12.375 16.894531 C 12.375 17.550781 11.832031 18.09375 11.175781 18.09375 Z M 11.175781 18.09375 "/>
<path style=" stroke:none;fill-rule:nonzero;fill:rgb(100%,100%,100%);fill-opacity:1;" d="M 5.363281 12.863281 L 5.363281 15.429688 L 3.917969 15.429688 L 3.917969 8.34375 L 6.789062 8.34375 C 7.613281 8.34375 8.269531 8.550781 8.738281 8.960938 C 9.207031 9.375 9.449219 9.917969 9.449219 10.613281 C 9.449219 11.289062 9.207031 11.832031 8.738281 12.242188 C 8.269531 12.65625 7.613281 12.863281 6.789062 12.863281 Z M 5.363281 11.773438 L 6.789062 11.773438 C 7.179688 11.773438 7.5 11.664062 7.707031 11.457031 C 7.914062 11.230469 8.023438 10.96875 8.023438 10.632812 C 8.023438 10.292969 7.929688 10.011719 7.726562 9.789062 C 7.519531 9.5625 7.21875 9.449219 6.804688 9.449219 L 5.382812 9.449219 L 5.382812 11.773438 Z M 5.363281 11.773438 "/>
<use xlink:href="#surface5" mask="url(#mask0)"/>
</g>
</svg>
