<?xml version="1.0" encoding="UTF-8"?>
<svg xmlns="http://www.w3.org/2000/svg" xmlns:xlink="http://www.w3.org/1999/xlink" width="24px" height="23px" viewBox="0 0 23 23" version="1.1">
<g id="surface1">
<path style=" stroke:none;fill-rule:nonzero;fill:rgb(25.490196%,64.705882%,93.333333%);fill-opacity:1;" d="M 21.71875 1.425781 L 6.84375 1.425781 C 6.328125 1.425781 5.910156 1.851562 5.910156 2.382812 L 5.910156 6.445312 L 14.28125 8.957031 L 22.652344 6.445312 L 22.652344 2.382812 C 22.652344 1.851562 22.234375 1.425781 21.71875 1.425781 "/>
<path style=" stroke:none;fill-rule:nonzero;fill:rgb(16.862745%,48.627451%,82.745098%);fill-opacity:1;" d="M 22.652344 6.457031 L 5.910156 6.457031 L 5.910156 11.476562 L 14.28125 13.988281 L 22.652344 11.476562 L 22.652344 6.457031 "/>
<path style=" stroke:none;fill-rule:nonzero;fill:rgb(9.411765%,35.294118%,74.117647%);fill-opacity:1;" d="M 22.652344 11.488281 L 5.910156 11.488281 L 5.910156 16.507812 L 14.28125 19.019531 L 22.652344 16.507812 L 22.652344 11.488281 "/>
<path style=" stroke:none;fill-rule:nonzero;fill:rgb(6.27451%,24.705882%,56.862745%);fill-opacity:1;" d="M 22.652344 16.519531 L 5.910156 16.519531 L 5.910156 20.570312 C 5.910156 21.097656 6.328125 21.523438 6.84375 21.523438 L 21.71875 21.523438 C 22.234375 21.523438 22.652344 21.097656 22.652344 20.570312 L 22.652344 16.519531 "/>
<path style=" stroke:none;fill-rule:nonzero;fill:rgb(0%,0%,0%);fill-opacity:0.101961;" d="M 11.945312 5.019531 L 5.910156 5.019531 L 5.910156 18.648438 L 11.945312 18.648438 C 12.457031 18.644531 12.871094 18.21875 12.871094 17.691406 L 12.871094 5.976562 C 12.871094 5.445312 12.457031 5.019531 11.945312 5.019531 "/>
<path style=" stroke:none;fill-rule:nonzero;fill:rgb(0%,0%,0%);fill-opacity:0.2;" d="M 11.246094 5.738281 L 5.910156 5.738281 L 5.910156 19.367188 L 11.246094 19.367188 C 11.757812 19.363281 12.171875 18.9375 12.171875 18.410156 L 12.171875 6.695312 C 12.171875 6.164062 11.757812 5.738281 11.246094 5.738281 "/>
<path style=" stroke:none;fill-rule:nonzero;fill:rgb(0%,0%,0%);fill-opacity:0.2;" d="M 11.246094 5.738281 L 5.910156 5.738281 L 5.910156 17.929688 L 11.246094 17.929688 C 11.757812 17.925781 12.171875 17.5 12.171875 16.972656 L 12.171875 6.691406 C 12.171875 6.164062 11.757812 5.738281 11.246094 5.738281 "/>
<path style=" stroke:none;fill-rule:nonzero;fill:rgb(0%,0%,0%);fill-opacity:0.2;" d="M 10.546875 5.738281 L 5.910156 5.738281 L 5.910156 17.929688 L 10.546875 17.929688 C 11.058594 17.925781 11.472656 17.5 11.472656 16.972656 L 11.472656 6.691406 C 11.472656 6.164062 11.058594 5.738281 10.546875 5.738281 "/>
<path style=" stroke:none;fill-rule:nonzero;fill:rgb(9.411765%,35.294118%,74.117647%);fill-opacity:1;" d="M 1.277344 5.738281 L 10.570312 5.738281 C 11.085938 5.738281 11.5 6.164062 11.5 6.691406 L 11.5 16.253906 C 11.5 16.78125 11.085938 17.210938 10.570312 17.210938 L 1.277344 17.210938 C 0.765625 17.210938 0.347656 16.78125 0.347656 16.253906 L 0.347656 6.691406 C 0.347656 6.164062 0.765625 5.738281 1.277344 5.738281 "/>
<path style=" stroke:none;fill-rule:nonzero;fill:rgb(100%,100%,100%);fill-opacity:1;" d="M 8.679688 15.054688 L 7.425781 15.054688 L 5.960938 10.113281 L 4.425781 15.054688 L 3.167969 15.054688 L 1.773438 7.894531 L 3.027344 7.894531 L 4.003906 12.90625 L 5.472656 8.035156 L 6.519531 8.035156 L 7.914062 12.90625 L 8.890625 7.894531 L 10.078125 7.894531 L 8.679688 15.054688 "/>
</g>
</svg>
