<?xml version="1.0" encoding="UTF-8"?>
<svg xmlns="http://www.w3.org/2000/svg" xmlns:xlink="http://www.w3.org/1999/xlink" width="24px" height="23px" viewBox="0 0 23 23" version="1.1">
<g id="surface1">
<path style=" stroke:none;fill-rule:nonzero;fill:rgb(1.176471%,39.215686%,72.156863%);fill-opacity:1;" d="M 20.25 1.425781 L 8.277344 1.425781 C 7.738281 1.425781 7.300781 1.875 7.300781 2.425781 L 7.300781 3.566406 L 14.050781 5.710938 L 21.230469 3.566406 L 21.230469 2.425781 C 21.230469 2.160156 21.125 1.90625 20.945312 1.71875 C 20.761719 1.53125 20.511719 1.425781 20.25 1.425781 "/>
<path style=" stroke:none;fill-rule:nonzero;fill:rgb(3.921569%,15.294118%,40.392157%);fill-opacity:1;" d="M 22.382812 12.484375 C 22.484375 12.15625 22.566406 11.816406 22.625 11.476562 C 22.625 11.304688 22.535156 11.148438 22.394531 11.0625 L 22.382812 11.058594 L 22.382812 11.054688 L 14.832031 6.625 C 14.796875 6.605469 14.765625 6.585938 14.730469 6.566406 C 14.4375 6.417969 14.09375 6.417969 13.800781 6.566406 C 13.765625 6.585938 13.730469 6.605469 13.699219 6.625 L 6.148438 11.054688 L 6.144531 11.058594 L 6.136719 11.0625 C 5.992188 11.148438 5.90625 11.304688 5.90625 11.476562 C 5.964844 11.816406 6.046875 12.15625 6.148438 12.484375 L 14.15625 18.515625 L 22.382812 12.484375 "/>
<path style=" stroke:none;fill-rule:nonzero;fill:rgb(15.686275%,65.882353%,91.764706%);fill-opacity:1;" d="M 17.074219 3.582031 L 12.195312 3.582031 L 10.789062 5.730469 L 12.195312 7.878906 L 17.074219 12.179688 L 21.253906 12.179688 L 21.253906 7.878906 L 17.074219 3.582031 "/>
<path style=" stroke:none;fill-rule:nonzero;fill:rgb(0%,47.058824%,83.137255%);fill-opacity:1;" d="M 7.300781 7.867188 L 12.160156 7.867188 L 12.160156 3.582031 L 7.300781 3.582031 L 7.300781 7.867188 "/>
<path style=" stroke:none;fill-rule:nonzero;fill:rgb(31.372549%,85.098039%,100%);fill-opacity:1;" d="M 17.070312 7.867188 L 21.230469 7.867188 L 21.230469 3.582031 L 17.070312 3.582031 L 17.070312 7.867188 "/>
<path style=" stroke:none;fill-rule:nonzero;fill:rgb(1.176471%,39.215686%,72.156863%);fill-opacity:1;" d="M 17.058594 12.195312 L 12.179688 7.894531 L 7.300781 7.894531 L 7.300781 12.195312 L 12.179688 16.5 L 19.730469 17.769531 L 17.058594 12.195312 "/>
<path style=" stroke:none;fill-rule:nonzero;fill:rgb(0%,47.058824%,83.137255%);fill-opacity:1;" d="M 12.183594 12.179688 L 17.042969 12.179688 L 17.042969 7.894531 L 12.183594 7.894531 L 12.183594 12.179688 "/>
<path style=" stroke:none;fill-rule:nonzero;fill:rgb(2.352941%,29.019608%,54.901961%);fill-opacity:1;" d="M 7.300781 16.492188 L 12.160156 16.492188 L 12.160156 12.207031 L 7.300781 12.207031 L 7.300781 16.492188 "/>
<path style=" stroke:none;fill-rule:nonzero;fill:rgb(0%,47.058824%,83.137255%);fill-opacity:1;" d="M 17.070312 16.492188 L 21.230469 16.492188 L 21.230469 12.207031 L 17.070312 12.207031 L 17.070312 16.492188 "/>
<path style=" stroke:none;fill-rule:nonzero;fill:rgb(3.921569%,15.294118%,40.392157%);fill-opacity:0.501961;" d="M 14.40625 18.113281 L 6.1875 11.945312 L 6.535156 11.320312 C 6.535156 11.320312 14.019531 15.710938 14.136719 15.777344 C 14.230469 15.816406 14.335938 15.8125 14.429688 15.769531 C 14.535156 15.707031 22.046875 11.300781 22.046875 11.300781 L 22.394531 11.921875 L 14.40625 18.113281 "/>
<path style=" stroke:none;fill-rule:nonzero;fill:rgb(7.843137%,56.470588%,87.45098%);fill-opacity:1;" d="M 22.417969 11.902344 L 22.410156 11.90625 L 22.40625 11.910156 L 14.855469 16.34375 C 14.550781 16.546875 14.164062 16.570312 13.839844 16.40625 L 16.46875 20.042969 L 22.21875 21.332031 L 22.21875 21.335938 C 22.492188 21.132812 22.652344 20.808594 22.652344 20.464844 L 22.652344 11.488281 C 22.652344 11.65625 22.5625 11.816406 22.417969 11.902344 "/>
<path style=" stroke:none;fill-rule:nonzero;fill:rgb(0%,0%,0%);fill-opacity:0.0509804;" d="M 22.652344 20.464844 L 22.652344 19.933594 L 15.695312 15.851562 L 14.855469 16.34375 C 14.550781 16.546875 14.164062 16.574219 13.839844 16.410156 L 16.46875 20.042969 L 22.21875 21.332031 L 22.21875 21.335938 C 22.492188 21.132812 22.652344 20.808594 22.652344 20.464844 "/>
<path style=" stroke:none;fill-rule:nonzero;fill:rgb(0%,0%,0%);fill-opacity:0.101961;" d="M 22.625 20.742188 L 14.992188 16.277344 L 14.855469 16.359375 C 14.550781 16.558594 14.167969 16.585938 13.839844 16.421875 L 16.472656 20.046875 L 22.226562 21.332031 L 22.226562 21.335938 C 22.421875 21.191406 22.5625 20.980469 22.625 20.742188 "/>
<path style=" stroke:none;fill-rule:nonzero;fill:rgb(15.686275%,65.882353%,91.764706%);fill-opacity:1;" d="M 6.148438 11.910156 L 6.148438 11.902344 L 6.140625 11.902344 L 6.121094 11.886719 C 5.984375 11.804688 5.902344 11.652344 5.90625 11.488281 L 5.90625 20.449219 C 5.90625 20.734375 6.015625 21.007812 6.210938 21.207031 C 6.40625 21.410156 6.671875 21.523438 6.949219 21.523438 L 21.574219 21.523438 C 21.660156 21.523438 21.746094 21.507812 21.832031 21.488281 C 21.875 21.480469 21.917969 21.464844 21.957031 21.441406 C 21.972656 21.441406 21.984375 21.4375 22 21.429688 C 22.054688 21.40625 22.109375 21.375 22.160156 21.335938 C 22.171875 21.328125 22.179688 21.328125 22.1875 21.316406 L 6.148438 11.910156 "/>
<path style=" stroke:none;fill-rule:nonzero;fill:rgb(0%,0%,0%);fill-opacity:0.101961;" d="M 12.855469 17.691406 L 12.855469 5.976562 C 12.855469 5.445312 12.441406 5.019531 11.929688 5.019531 L 7.316406 5.019531 L 7.316406 10.367188 L 6.148438 11.054688 L 6.144531 11.054688 L 6.136719 11.058594 C 5.992188 11.144531 5.90625 11.304688 5.90625 11.472656 L 5.90625 11.476562 L 5.90625 11.472656 L 5.90625 18.648438 L 11.929688 18.648438 C 12.441406 18.644531 12.855469 18.21875 12.855469 17.691406 "/>
<path style=" stroke:none;fill-rule:nonzero;fill:rgb(0%,0%,0%);fill-opacity:0.2;" d="M 12.160156 18.410156 L 12.160156 6.695312 C 12.15625 6.164062 11.742188 5.738281 11.230469 5.738281 L 7.316406 5.738281 L 7.316406 10.367188 L 6.148438 11.054688 L 6.144531 11.054688 L 6.136719 11.0625 C 5.992188 11.148438 5.90625 11.304688 5.90625 11.476562 L 5.90625 11.480469 L 5.90625 11.476562 L 5.90625 19.367188 L 11.230469 19.367188 C 11.742188 19.363281 12.15625 18.9375 12.160156 18.410156 "/>
<path style=" stroke:none;fill-rule:nonzero;fill:rgb(0%,0%,0%);fill-opacity:0.2;" d="M 12.160156 16.972656 L 12.160156 6.691406 C 12.15625 6.164062 11.742188 5.738281 11.230469 5.738281 L 7.316406 5.738281 L 7.316406 10.367188 L 6.148438 11.054688 L 6.144531 11.054688 L 6.136719 11.0625 C 5.992188 11.144531 5.90625 11.304688 5.90625 11.472656 L 5.90625 11.476562 L 5.90625 11.472656 L 5.90625 17.929688 L 11.230469 17.929688 C 11.742188 17.925781 12.15625 17.5 12.160156 16.972656 "/>
<path style=" stroke:none;fill-rule:nonzero;fill:rgb(0%,0%,0%);fill-opacity:0.2;" d="M 11.460938 16.972656 L 11.460938 6.691406 C 11.460938 6.164062 11.046875 5.738281 10.535156 5.738281 L 7.316406 5.738281 L 7.316406 10.367188 L 6.148438 11.054688 L 6.144531 11.054688 L 6.136719 11.0625 C 5.992188 11.144531 5.90625 11.304688 5.90625 11.472656 L 5.90625 11.476562 L 5.90625 11.472656 L 5.90625 17.929688 L 10.535156 17.929688 C 11.046875 17.925781 11.460938 17.5 11.460938 16.972656 "/>
<path style=" stroke:none;fill-rule:nonzero;fill:rgb(0%,47.058824%,83.137255%);fill-opacity:1;" d="M 1.277344 5.738281 L 10.558594 5.738281 C 10.804688 5.738281 11.042969 5.835938 11.214844 6.015625 C 11.390625 6.195312 11.488281 6.4375 11.488281 6.691406 L 11.488281 16.253906 C 11.488281 16.507812 11.390625 16.75 11.214844 16.929688 C 11.042969 17.109375 10.804688 17.210938 10.558594 17.210938 L 1.277344 17.210938 C 1.03125 17.210938 0.792969 17.109375 0.621094 16.929688 C 0.445312 16.75 0.347656 16.507812 0.347656 16.253906 L 0.347656 6.691406 C 0.347656 6.4375 0.445312 6.195312 0.621094 6.015625 C 0.792969 5.835938 1.03125 5.738281 1.277344 5.738281 "/>
<path style=" stroke:none;fill-rule:nonzero;fill:rgb(100%,100%,100%);fill-opacity:1;" d="M 3.035156 9.660156 C 3.285156 9.121094 3.683594 8.667969 4.179688 8.359375 C 4.734375 8.035156 5.363281 7.875 6 7.894531 C 6.589844 7.878906 7.171875 8.035156 7.683594 8.335938 C 8.164062 8.632812 8.550781 9.0625 8.796875 9.578125 C 9.066406 10.144531 9.199219 10.773438 9.1875 11.402344 C 9.199219 12.0625 9.0625 12.71875 8.785156 13.3125 C 8.535156 13.847656 8.132812 14.292969 7.636719 14.597656 C 7.109375 14.910156 6.503906 15.070312 5.890625 15.054688 C 5.289062 15.070312 4.695312 14.914062 4.171875 14.605469 C 3.6875 14.308594 3.296875 13.878906 3.042969 13.363281 C 2.773438 12.800781 2.636719 12.183594 2.648438 11.558594 C 2.636719 10.902344 2.769531 10.253906 3.035156 9.660156 M 4.257812 12.710938 C 4.386719 13.050781 4.613281 13.347656 4.902344 13.5625 C 5.195312 13.777344 5.546875 13.886719 5.90625 13.875 C 6.289062 13.890625 6.664062 13.777344 6.980469 13.554688 C 7.265625 13.335938 7.484375 13.039062 7.605469 12.695312 C 7.742188 12.316406 7.808594 11.910156 7.804688 11.503906 C 7.808594 11.09375 7.746094 10.6875 7.617188 10.296875 C 7.503906 9.949219 7.292969 9.640625 7.011719 9.410156 C 6.707031 9.175781 6.332031 9.054688 5.949219 9.070312 C 5.582031 9.0625 5.222656 9.171875 4.917969 9.386719 C 4.625 9.601562 4.394531 9.902344 4.261719 10.246094 C 3.960938 11.039062 3.960938 11.917969 4.257812 12.710938 "/>
</g>
</svg>
